<svg width="500" height="500" viewBox="0 0 500 500" fill="none" xmlns="http://www.w3.org/2000/svg">
<g clip-path="url(#clip0_1483_10)">
<path d="M326.141 494.321C348.268 487.79 368.931 476.041 384.959 459.046C398.296 444.821 407.612 427.258 413.391 408.522C414.973 402.951 415.92 397.374 416.493 391.286C419.587 362.879 415.37 330.725 423.787 302.492C434.051 267.547 451.088 239.264 458.919 206.582C474.608 138.681 455.673 72.5036 438.657 51.661C424.769 34.6545 404.735 23.4326 384.018 16.6477C358.123 8.16651 330.769 5.63863 303.252 6.53669C287.401 7.03061 271.666 8.5411 255.794 10.939C223.8 15.6055 192.275 23.7036 162.351 36.1319C117.149 54.7717 75.3885 83.4703 47.4473 123.716C40.3666 133.809 34.4171 144.8 30.2394 156.061C24.8895 170.23 22.7015 185.063 21.9038 200.289C20.4107 221.221 21.9639 241.799 25.5478 262.142C37.5939 332.447 76.558 398.676 132.334 445.759C201.549 504.513 276.544 509.114 326.141 494.321Z" fill="url(#paint0_linear_1483_10)"/>
<path d="M160.744 271.152H160.994L161.235 271.082C162.192 270.802 163.493 270.03 164.932 269.062C166.441 268.047 168.314 266.668 170.485 264.989C174.83 261.629 180.446 257.012 186.882 251.576C199.757 240.701 215.978 226.496 232.005 212.4C235.063 209.711 238.113 207.026 241.133 204.368C253.946 193.089 266.193 182.309 276.013 173.836C281.362 169.221 285.98 165.3 289.57 162.361C288.462 163.99 287.217 165.823 285.858 167.827C280.193 176.178 272.543 187.502 264.605 199.393C248.786 223.088 231.707 249.201 227.019 258.392C225.708 260.742 225.211 262.766 225.211 264.577C225.211 266.671 226.015 268.231 227.178 269.246C228.281 270.209 229.631 270.616 230.699 270.616C232.069 270.616 233.583 270.047 235.222 269.224L235.231 269.22L235.239 269.215C236.025 268.81 237.142 268.003 238.459 266.965C239.813 265.898 241.489 264.496 243.432 262.817C247.318 259.458 252.316 254.949 258.022 249.694C269.436 239.183 283.722 225.655 297.692 212.301C311.663 198.946 325.325 185.759 335.492 175.929C337.657 173.835 339.664 171.895 341.481 170.137C341.623 170 341.764 169.863 341.904 169.728C337.007 177 330.24 186.677 322.289 197.906C314.746 208.558 306.176 220.552 297.183 233.137C289.46 243.945 281.425 255.19 273.462 266.395C256.24 290.628 239.371 314.65 226.805 333.548C220.524 342.995 215.303 351.185 211.646 357.492C209.819 360.643 208.366 363.353 207.364 365.532C206.863 366.62 206.462 367.603 206.184 368.459C205.915 369.288 205.72 370.116 205.72 370.856C205.72 372.01 206.184 372.888 206.546 373.432L206.642 373.576L206.764 373.699C207.083 374.02 207.465 374.194 207.682 374.282C207.944 374.388 208.229 374.472 208.51 374.537C209.071 374.667 209.738 374.75 210.407 374.75C211.698 374.75 212.92 374.197 213.941 373.497C214.985 372.782 215.969 371.811 216.819 370.734C218.489 368.621 219.864 365.813 220.029 363.201C220.069 362.669 220.463 361.492 221.551 359.425C222.598 357.435 224.166 354.841 226.29 351.575C239.737 331.044 264.76 295.833 289.828 260.56C294.334 254.219 298.841 247.877 303.283 241.617C317.851 221.087 331.71 201.455 342.478 185.738C347.862 177.881 352.48 170.992 356.032 165.453C359.548 159.969 362.078 155.718 363.246 153.154C364.234 151.163 364.75 149.42 364.75 147.845C364.75 146.453 364.356 145.144 363.442 144.169C362.516 143.182 361.251 142.745 359.929 142.745C358.432 142.745 356.924 143.304 355.351 144.166L355.327 144.179L355.304 144.193C354.671 144.565 353.668 145.358 352.444 146.388C351.177 147.453 349.561 148.871 347.653 150.584C343.834 154.012 338.811 158.651 333.009 164.08C321.404 174.941 306.654 188.99 292.135 202.887C281.769 212.808 271.517 222.656 262.608 231.214C259.039 234.643 255.684 237.865 252.625 240.801C249.071 244.213 245.915 247.238 243.281 249.756C243.428 249.519 243.579 249.279 243.731 249.035C247.66 242.749 253.126 234.263 259.263 224.913C271.539 206.21 286.475 184.088 297.134 169.24C302.866 161.345 306.7 155.979 309.1 152.263C310.299 150.406 311.174 148.911 311.753 147.687C312.318 146.492 312.684 145.388 312.684 144.361C312.684 142.396 311.384 141.271 310.389 140.553C309.508 139.856 308.479 139.394 307.329 139.394C306.649 139.394 305.941 139.609 305.308 139.86C304.639 140.125 303.888 140.5 303.073 140.959C301.442 141.876 299.432 143.197 297.116 144.843C292.477 148.138 286.486 152.826 279.631 158.424C265.913 169.625 248.638 184.548 231.616 199.45C222.573 207.366 213.681 215.206 205.41 222.499C198.014 229.02 191.115 235.104 185.049 240.412C178.67 245.993 173.312 250.63 169.439 253.865C169.289 253.99 169.141 254.114 168.995 254.235C170.96 250.857 173.599 246.462 176.604 241.552C183.088 230.96 191.255 218.01 197.985 207.776C211.794 186.813 221.142 172.286 227.036 161.75C232.892 151.282 235.52 144.459 235.52 139C235.52 135.776 234.615 132.949 232.712 130.661C230.829 128.396 228.088 126.804 224.661 125.798C220.905 124.641 214.787 124.25 207.47 124.25C189.523 124.25 163.06 126.978 140.95 129.979C129.884 131.48 119.877 133.055 112.534 134.399C108.867 135.071 105.842 135.689 103.675 136.215C102.597 136.477 101.695 136.725 101.021 136.955C100.688 137.068 100.366 137.192 100.092 137.328C99.9544 137.396 99.7952 137.483 99.6394 137.594C99.5028 137.691 99.2594 137.881 99.0631 138.186L99.047 138.211L99.0319 138.236C98.4891 139.144 98.25 139.987 98.25 140.876C98.25 141.716 98.4844 142.498 98.9661 143.166C99.4322 143.812 100.058 144.254 100.692 144.563C101.912 145.157 103.475 145.406 104.99 145.55C106.109 145.657 107.354 145.717 108.594 145.777C109.061 145.799 109.528 145.822 109.987 145.846C111.688 145.939 113.345 146.067 114.851 146.34C116.101 146.647 117.058 146.647 117.74 146.647H117.756C119.191 146.647 120.413 146.329 121.306 145.535C122.207 144.735 122.475 143.715 122.576 142.995C122.616 142.708 122.635 142.429 122.647 142.206C122.961 142.152 123.376 142.08 123.885 141.994C125.157 141.779 127.017 141.471 129.367 141.102C134.067 140.362 140.724 139.377 148.547 138.391C164.203 136.418 184.48 134.451 203.064 134.451C212.073 134.451 218.002 134.926 221.64 135.929C223.453 136.429 224.519 137.015 225.116 137.585C225.649 138.094 225.878 138.651 225.878 139.402C225.878 141.207 224.917 144.309 222.945 148.621C221.013 152.844 218.236 157.971 214.875 163.712C208.155 175.191 199.185 188.987 190.187 202.688C188.908 204.634 187.629 206.579 186.355 208.515C178.682 220.183 171.224 231.521 165.423 240.955C162.042 246.453 159.202 251.34 157.201 255.291C156.202 257.266 155.396 259.037 154.837 260.553C154.293 262.028 153.921 263.419 153.921 264.577C153.921 266.367 154.71 267.986 155.797 269.143C156.869 270.284 158.404 271.152 160.076 271.152H160.744ZM121.627 140.608C121.861 141.91 121.918 142.228 121.932 142.306C121.932 142.306 121.932 142.306 121.932 142.306L121.627 140.608ZM122.696 141.551C122.696 141.551 122.695 141.558 122.692 141.57C122.694 141.557 122.696 141.551 122.696 141.551Z" fill="white" stroke="white" stroke-width="3.5"/>
<path d="M333.326 330.389C333.868 330.195 334.32 330.036 334.671 329.915C334.743 329.974 334.82 330.039 334.901 330.109C335.465 330.594 336.215 331.31 336.961 332.218C338.474 334.057 339.845 336.53 339.845 339.386C339.845 341.87 338.542 344.891 335.927 348.136C333.341 351.347 329.609 354.6 325.11 357.514C316.096 363.351 304.259 367.663 292.946 367.663C291.614 367.663 289.294 367.263 287.347 366.433C286.379 366.02 285.613 365.546 285.114 365.054C284.631 364.579 284.482 364.181 284.482 363.832C284.482 360.005 287.222 355.895 292.04 351.732C296.783 347.635 303.171 343.805 309.651 340.505C316.115 337.214 322.589 334.49 327.455 332.588C329.886 331.638 331.911 330.894 333.326 330.389ZM347.405 338.921C347.405 333.867 344.692 329.782 342.679 327.455C343.977 327.164 345.469 326.919 346.768 326.919C348.456 326.919 349.314 327.065 349.721 327.198C349.748 327.363 349.802 327.63 349.916 327.889C350.133 328.385 350.523 328.806 351.081 329.056C351.552 329.266 352.048 329.311 352.464 329.311C353.62 329.311 354.503 328.702 355.037 327.963C355.549 327.254 355.786 326.385 355.786 325.568C355.786 324.104 355.357 322.577 353.797 321.509C352.442 320.58 350.451 320.169 347.841 320.034L347.796 320.031H347.75H347.226C344.788 320.031 341.66 320.62 339.242 321.171C338.012 321.451 336.925 321.731 336.146 321.941C335.982 321.985 335.831 322.027 335.695 322.064C329.994 318.135 323.757 314.873 318.138 311.935C315.603 310.61 313.194 309.35 311.017 308.124C307.346 306.058 304.341 304.101 302.264 302.068C300.205 300.053 299.214 298.122 299.214 296.072C299.214 294.229 300.462 291.349 303.49 287.92C306.457 284.56 310.937 280.901 316.892 277.515C328.791 270.748 346.464 265.138 369.357 265.138C378.114 265.138 384.697 265.88 389.065 266.91C391.26 267.427 392.813 267.999 393.787 268.536C394.275 268.805 394.549 269.028 394.685 269.175C394.696 269.187 394.706 269.197 394.714 269.207C394.695 270.343 393.845 271.557 392.443 273.038C392.25 273.243 392.037 273.462 391.819 273.685C391.355 274.163 390.867 274.664 390.492 275.104C390.2 275.447 389.901 275.835 389.669 276.254C389.442 276.665 389.214 277.221 389.214 277.87C389.214 278.486 389.385 279.018 389.698 279.495L389.725 279.536L389.753 279.575C390.344 280.374 391.248 280.683 392.012 280.683C393.168 280.683 394.34 280.099 395.285 279.464C396.296 278.785 397.329 277.856 398.256 276.797C400.053 274.743 401.75 271.85 401.75 268.968C401.75 265.991 399.417 263.302 394.619 261.433C389.778 259.548 381.912 258.25 369.554 258.25C346.399 258.25 327.151 263.794 313.639 271.195C306.887 274.894 301.524 279.08 297.825 283.315C294.154 287.519 291.982 291.939 291.982 296.072C291.982 302.633 296.512 307.075 303.197 311.371C306.577 313.543 310.664 315.773 315.274 318.267C315.583 318.434 315.894 318.602 316.208 318.772C319.686 320.652 323.468 322.697 327.519 325.007C326.214 325.499 324.6 326.126 322.759 326.874C317.788 328.894 311.146 331.81 304.493 335.386C297.855 338.955 291.126 343.223 286.033 347.966C280.987 352.665 277.25 358.108 277.25 364.032C277.25 367.615 278.829 370.416 281.686 372.234C284.434 373.983 288.239 374.75 292.685 374.75C306.365 374.75 319.946 369.502 330.104 362.535C335.189 359.047 339.473 355.09 342.504 351.073C345.513 347.085 347.405 342.877 347.405 338.921ZM394.76 269.269C394.76 269.269 394.76 269.267 394.758 269.265C394.76 269.267 394.76 269.269 394.76 269.269Z" fill="white" stroke="white" stroke-width="3.5"/>
</g>
<defs>
<linearGradient id="paint0_linear_1483_10" x1="134.263" y1="454.404" x2="364.749" y2="4.53607" gradientUnits="userSpaceOnUse">
<stop stop-color="#1B212B"/>
<stop offset="1" stop-color="#1B212B"/>
</linearGradient>
<clipPath id="clip0_1483_10">
<rect width="500" height="500" fill="white"/>
</clipPath>
</defs>
</svg>
