<svg width="68" height="58" viewBox="0 0 68 58" fill="none" xmlns="http://www.w3.org/2000/svg">
<g clip-path="url(#clip0_31_208)">
<path d="M68 58H64.2064V8.98859L42.4881 45.8891C42.1088 46.4568 41.5397 46.8352 40.781 46.8352C40.1171 46.8352 39.4533 46.4568 39.1687 45.8891L17.735 9.0832V58.0946H13.9414V1.89234C13.9414 1.04079 14.5104 0.283855 15.364 5.29934e-06C16.2176 -0.189228 17.0711 0.189239 17.5453 0.946172L40.781 41.1582L64.3961 0.946172C64.8703 0.189239 65.7238 -0.189228 66.5774 0.0946219C67.4309 0.283855 68 1.04079 68 1.98695V58Z" fill="#101935"/>
<path d="M15.9331 30.9396C7.20781 30.9396 0 23.938 0 15.4225C0 6.90701 7.20781 0 15.9331 0V3.78467C9.29428 3.78467 3.79358 9.0832 3.79358 15.4225C3.79358 21.8564 9.19944 27.0604 15.9331 27.0604V30.9396Z" fill="#101935"/>
<path d="M15.9331 58V54.2153C22.6667 54.2153 28.0726 49.0114 28.0726 42.5775C28.0726 36.1435 22.6667 30.9396 15.9331 30.9396V27.155C24.7532 27.155 31.8662 34.062 31.8662 42.5775C31.961 51.093 24.7532 58 15.9331 58Z" fill="#101935"/>
</g>
<defs>
<clipPath id="clip0_31_208">
<rect width="68" height="58" fill="white"/>
</clipPath>
</defs>
</svg>
