<svg width="248" height="74" viewBox="0 0 248 74" fill="none" xmlns="http://www.w3.org/2000/svg">
<path d="M235.414 38.445C235.414 38.4448 235.414 38.4446 235.415 38.4444C235.544 38.3711 235.697 38.291 235.866 38.2022C235.938 38.1646 236.013 38.1255 236.09 38.0846C236.352 37.9457 236.636 37.7905 236.898 37.6231C237.158 37.4569 237.407 37.2716 237.594 37.0695C237.778 36.8702 237.928 36.6252 237.928 36.3429C237.928 35.8889 237.751 35.5602 237.488 35.3507C237.234 35.1486 236.92 35.0733 236.658 35.0733C236.095 35.0733 235.562 35.3217 235.138 35.6253C234.726 35.9205 234.39 36.2868 234.203 36.5879C233.227 37.5734 232.694 38.7575 232.694 40.1662C232.694 40.614 232.845 41.2337 233.237 41.7473C233.638 42.2716 234.284 42.6738 235.238 42.6738C237.289 42.6738 239.636 41.9955 241.733 41.1349C243.825 40.2762 245.692 39.2255 246.803 38.4501C246.996 38.3434 247.099 38.1275 247.157 37.9412C247.22 37.7342 247.25 37.4899 247.25 37.2532C247.25 37.1069 247.214 36.9463 247.126 36.8141C247.033 36.6746 246.878 36.5663 246.672 36.5663H246.602L246.542 36.6029C245.57 37.197 243.651 38.2201 241.586 39.094C239.511 39.9722 237.331 40.6809 235.821 40.6809C235.139 40.6809 234.942 40.2286 234.942 40.1298C234.942 39.4164 235.081 38.9829 235.206 38.7365C235.269 38.6129 235.329 38.5342 235.37 38.4892C235.39 38.4667 235.405 38.4524 235.414 38.445ZM238.812 32.0826C238.812 32.4564 239.061 32.8269 239.317 33.0832C239.451 33.2173 239.602 33.3351 239.752 33.4209C239.896 33.5035 240.063 33.5706 240.227 33.5706C240.379 33.5706 240.601 33.5231 240.792 33.3977C240.994 33.265 241.169 33.0379 241.169 32.7016C241.169 31.7334 240.37 31.25 239.754 31.25C239.534 31.25 239.303 31.3043 239.121 31.4411C238.93 31.5846 238.812 31.8048 238.812 32.0826Z" fill="white" stroke="white" stroke-width="0.5"/>
<path d="M234.4 36.8178L234.558 36.6238L234.383 36.4816L234.224 36.641C234.15 36.7149 233.984 36.8375 233.725 37.0013C233.472 37.1614 233.146 37.3508 232.767 37.5583C232.008 37.9732 231.042 38.4563 230.028 38.916C229.013 39.3758 227.954 39.8104 227.008 40.1295C226.054 40.4514 225.244 40.646 224.715 40.646C224.653 40.646 224.616 40.6353 224.595 40.626C224.576 40.6172 224.565 40.6069 224.557 40.5969C224.538 40.5731 224.528 40.5339 224.528 40.4955C224.528 40.3617 224.56 40.1601 224.618 39.8994C224.664 39.695 224.721 39.4686 224.782 39.228C224.798 39.1665 224.814 39.1041 224.83 39.0409C224.982 38.4339 225.147 37.7468 225.147 37.2184C225.147 36.9246 225.073 36.6365 224.849 36.4264C224.63 36.2194 224.31 36.1309 223.913 36.1309C223.358 36.1309 222.619 36.4093 221.851 36.7882C221.071 37.173 220.218 37.6838 219.419 38.1907C218.845 38.5551 218.293 38.9204 217.816 39.237C217.63 39.3605 217.455 39.4765 217.294 39.5822C217.005 39.7716 216.764 39.9266 216.583 40.0338C216.492 40.0876 216.42 40.1266 216.368 40.1514C216.346 40.1619 216.33 40.1685 216.32 40.1724C216.269 40.1707 216.24 40.1628 216.226 40.1572C216.228 40.1238 216.242 40.0657 216.281 39.9777C216.322 39.8835 216.385 39.7728 216.465 39.6478C216.625 39.3973 216.841 39.1134 217.066 38.823C217.086 38.7965 217.107 38.7699 217.127 38.7433C217.328 38.4831 217.531 38.2201 217.688 37.9882C217.775 37.8601 217.852 37.7348 217.908 37.6192C217.961 37.5099 218.01 37.3814 218.01 37.2548C218.01 36.9033 217.863 36.6616 217.657 36.5174C217.466 36.3833 217.246 36.3493 217.104 36.3493C216.914 36.3493 216.727 36.448 216.567 36.5627C216.399 36.6832 216.22 36.8507 216.04 37.0459C215.679 37.4373 215.287 37.9656 214.928 38.5262C214.567 39.0874 214.233 39.6887 213.989 40.229C213.749 40.7572 213.577 41.265 213.577 41.6243C213.577 42.0696 213.738 42.4381 214.011 42.6942C214.282 42.948 214.646 43.0759 215.029 43.0759C215.133 43.0759 215.243 43.047 215.347 43.0098C215.455 42.9712 215.574 42.9167 215.702 42.8512C215.957 42.7201 216.263 42.5357 216.599 42.3192C217.123 41.9812 217.737 41.5551 218.375 41.1127C218.554 40.9884 218.735 40.8629 218.917 40.7376C219.748 40.164 220.588 39.5954 221.315 39.1706C221.678 38.9582 222.008 38.7848 222.29 38.6652C222.461 38.5924 222.606 38.5435 222.725 38.5158C222.715 38.5657 222.702 38.6233 222.686 38.6891C222.663 38.7869 222.638 38.8856 222.61 38.9927C222.584 39.0978 222.555 39.2111 222.524 39.3395C222.404 39.8297 222.28 40.4275 222.28 41.0053C222.28 41.3533 222.409 41.7797 222.724 42.1215C223.045 42.4696 223.542 42.7118 224.241 42.7118C224.71 42.7118 225.493 42.5394 226.412 42.2619C227.341 41.9814 228.437 41.5845 229.545 41.1173C230.654 40.6501 231.778 40.1109 232.763 39.5448C233.745 38.9807 234.602 38.3816 235.164 37.7912L235.233 37.7188V37.6189C235.233 37.4693 235.169 37.3311 235.106 37.2263C235.04 37.1164 234.955 37.0129 234.876 36.9268C234.797 36.8397 234.718 36.7646 234.659 36.7116C234.63 36.685 234.605 36.6636 234.588 36.6486L234.567 36.631L234.561 36.626L234.559 36.6246L234.558 36.6241L234.558 36.6239L234.558 36.6238L234.4 36.8178Z" fill="white" stroke="white" stroke-width="0.5"/>
<path d="M203.768 39.1944C203.809 39.603 203.923 40.1814 204.23 40.7235C204.678 41.5146 205.525 42.2021 207.056 42.2021C207.86 42.2021 208.928 41.96 210.06 41.6033C211.197 41.2448 212.421 40.7633 213.546 40.2693C214.672 39.7753 215.703 39.2668 216.455 38.8529C216.83 38.6465 217.14 38.461 217.359 38.311C217.467 38.2366 217.56 38.1663 217.628 38.1028C217.662 38.0715 217.697 38.0356 217.725 37.9965C217.747 37.9647 217.792 37.8945 217.792 37.801C217.792 37.6487 217.722 37.4975 217.651 37.38C217.575 37.254 217.474 37.1276 217.37 37.016C217.266 36.9043 217.152 36.8007 217.044 36.7227C216.99 36.6839 216.933 36.6481 216.877 36.6211C216.825 36.5964 216.751 36.5679 216.669 36.5679H216.606L216.551 36.5973L216.669 36.8179L216.551 36.5973L216.551 36.5974L216.55 36.5978L216.546 36.5996L216.533 36.6069L216.478 36.6358C216.43 36.6612 216.358 36.6984 216.266 36.746C216.082 36.841 215.816 36.9769 215.487 37.1401C214.829 37.4665 213.922 37.9016 212.923 38.3364C211.924 38.7715 210.836 39.2049 209.818 39.5291C208.795 39.8549 207.862 40.0635 207.165 40.0635C206.559 40.0635 206.223 39.8167 206.023 39.4804C205.814 39.1269 205.741 38.6492 205.74 38.1784L205.868 36.9955C205.898 36.9762 205.925 36.955 205.947 36.9346C206.023 36.8672 206.088 36.7795 206.14 36.6849C206.246 36.4957 206.322 36.2446 206.322 35.9804C206.322 35.6578 206.225 35.3008 205.928 35.0273C205.634 34.7562 205.181 34.6016 204.543 34.6016C202.949 34.6016 200.582 35.4456 198.624 36.6313C197.641 37.2267 196.745 37.9175 196.092 38.6483C195.443 39.3743 195.008 40.1694 195.008 40.9689C195.008 41.502 195.155 42.0751 195.479 42.522C195.808 42.977 196.318 43.2944 197.006 43.2944C198.513 43.2944 199.907 42.4853 201.106 41.5482C201.709 41.0771 202.271 40.5658 202.782 40.0944C202.847 40.0344 202.911 39.9753 202.974 39.9169C203.257 39.655 203.522 39.4104 203.768 39.1944ZM199.667 38.3451C200.801 37.7445 202.077 37.3174 203.029 37.1653C202.437 37.7082 201.583 38.4878 200.685 39.2183C200.067 39.7204 199.437 40.1928 198.865 40.5429C198.285 40.8977 197.805 41.1022 197.473 41.1194C197.356 41.1184 197.261 41.0852 197.201 41.0463C197.162 41.0208 197.15 41.002 197.146 40.9957C197.15 40.556 197.399 40.0913 197.857 39.6257C198.315 39.1603 198.954 38.7227 199.667 38.3451Z" fill="white" stroke="white" stroke-width="0.5"/>
<path d="M190.821 38.1632C190.863 38.1083 190.908 38.0451 190.954 37.9736C191.136 37.6841 191.32 37.2561 191.32 36.7068C191.32 36.1922 191.094 35.774 190.791 35.4875C190.494 35.2061 190.107 35.0367 189.759 35.0367C188.485 35.0367 187.761 35.9933 187.761 36.8889C187.761 37.3177 187.883 37.6904 188.002 37.9524C188.044 38.045 188.086 38.125 188.123 38.19C188.115 38.1972 188.106 38.2047 188.098 38.2124C187.979 38.3163 187.808 38.4648 187.598 38.6431C187.179 38.9998 186.605 39.475 185.988 39.9496C185.37 40.4251 184.713 40.8963 184.126 41.2475C183.832 41.4232 183.561 41.566 183.324 41.6642C183.082 41.7643 182.896 41.8095 182.768 41.8095C182.664 41.8095 182.631 41.7778 182.618 41.7629C182.599 41.7399 182.581 41.6946 182.581 41.6225C182.581 41.1208 182.759 40.4446 182.977 39.8051C183.15 39.2973 183.339 38.835 183.465 38.5274C183.473 38.5078 183.481 38.4887 183.489 38.4703C183.718 38.4291 183.929 38.3109 184.113 38.1626C184.344 37.9757 184.552 37.7246 184.725 37.4573C185.066 36.9319 185.312 36.2831 185.312 35.8329C185.312 35.4031 185.089 35.1088 184.793 34.9347C184.509 34.768 184.16 34.709 183.86 34.709C183.747 34.709 183.643 34.749 183.555 34.799C183.466 34.8498 183.379 34.9195 183.296 34.9995C183.128 35.1595 182.951 35.3825 182.772 35.6465C182.413 36.1764 182.024 36.904 181.665 37.7113C180.951 39.3182 180.333 41.2961 180.333 42.7149C180.333 43.1276 180.421 43.5171 180.644 43.8089C180.875 44.1117 181.227 44.2758 181.675 44.2758C182.395 44.2758 183.253 43.9504 184.11 43.4956C184.976 43.0367 185.875 42.4276 186.686 41.8229C187.498 41.2175 188.226 40.6127 188.751 40.1596C189.014 39.9329 189.226 39.7439 189.373 39.6113C189.406 39.5821 189.435 39.5556 189.461 39.5321C189.474 39.5398 189.488 39.5478 189.502 39.5562C189.637 39.6323 189.83 39.7326 190.073 39.8328C190.559 40.0327 191.247 40.2339 192.053 40.2339C194.162 40.2339 196.047 39.7901 197.406 39.3189C198.085 39.0833 198.636 38.8396 199.02 38.6386C199.212 38.5385 199.366 38.4467 199.476 38.3694C199.53 38.3314 199.58 38.2922 199.619 38.2533C199.639 38.2341 199.662 38.209 199.681 38.179C199.697 38.1542 199.731 38.0964 199.731 38.0177C199.731 37.7667 199.67 37.4356 199.564 37.1624C199.511 37.0258 199.441 36.8885 199.349 36.7807C199.26 36.6751 199.121 36.566 198.935 36.566H198.857L198.792 36.6108C197.558 37.4693 196.522 37.9188 195.492 38.1564C194.458 38.3952 193.418 38.4231 192.162 38.4231C191.65 38.4231 191.242 38.3206 190.964 38.2197C190.912 38.2005 190.864 38.1814 190.821 38.1632Z" fill="white" stroke="white" stroke-width="0.5"/>
<path d="M169.54 39.1944C169.58 39.603 169.694 40.1814 170.001 40.7235C170.45 41.5146 171.297 42.2021 172.827 42.2021C173.632 42.2021 174.699 41.96 175.831 41.6033C176.969 41.2448 178.193 40.7633 179.318 40.2693C180.443 39.7753 181.474 39.2668 182.226 38.8529C182.601 38.6465 182.911 38.461 183.13 38.311C183.239 38.2366 183.331 38.1663 183.4 38.1028C183.434 38.0715 183.468 38.0356 183.496 37.9965C183.519 37.9647 183.564 37.8945 183.564 37.801C183.564 37.6487 183.493 37.4975 183.422 37.38C183.346 37.254 183.246 37.1276 183.142 37.016C183.037 36.9043 182.923 36.8007 182.815 36.7227C182.761 36.6839 182.705 36.6481 182.648 36.6211C182.596 36.5964 182.522 36.5679 182.44 36.5679H182.377L182.322 36.5973L182.44 36.8179L182.322 36.5973L182.322 36.5974L182.321 36.5978L182.318 36.5996L182.304 36.6069L182.249 36.6358C182.201 36.6612 182.13 36.6984 182.038 36.746C181.854 36.841 181.588 36.9769 181.259 37.1401C180.601 37.4665 179.693 37.9016 178.694 38.3364C177.695 38.7715 176.608 39.2049 175.59 39.5291C174.566 39.8549 173.634 40.0635 172.936 40.0635C172.33 40.0635 171.994 39.8167 171.795 39.4804C171.585 39.1269 171.513 38.6492 171.511 38.1784L171.639 36.9955C171.669 36.9762 171.696 36.955 171.719 36.9346C171.794 36.8672 171.859 36.7795 171.912 36.6849C172.018 36.4957 172.094 36.2446 172.094 35.9804C172.094 35.6578 171.996 35.3008 171.699 35.0273C171.405 34.7562 170.953 34.6016 170.315 34.6016C168.721 34.6016 166.353 35.4456 164.395 36.6313C163.412 37.2267 162.517 37.9175 161.864 38.6483C161.215 39.3743 160.779 40.1694 160.779 40.9689C160.779 41.502 160.927 42.0751 161.25 42.522C161.58 42.977 162.089 43.2944 162.777 43.2944C164.284 43.2944 165.678 42.4853 166.877 41.5482C167.48 41.0771 168.043 40.5658 168.554 40.0944C168.619 40.0344 168.683 39.9753 168.746 39.9169C169.029 39.655 169.293 39.4104 169.54 39.1944ZM165.438 38.3451C166.572 37.7445 167.849 37.3174 168.801 37.1653C168.208 37.7082 167.355 38.4878 166.456 39.2183C165.839 39.7204 165.208 40.1928 164.636 40.5429C164.057 40.8977 163.576 41.1022 163.245 41.1194C163.128 41.1184 163.033 41.0852 162.973 41.0463C162.934 41.0208 162.921 41.002 162.918 40.9957C162.922 40.556 163.17 40.0913 163.628 39.6257C164.086 39.1603 164.726 38.7227 165.438 38.3451Z" fill="white" stroke="white" stroke-width="0.5"/>
<path d="M182.342 11.2842L182.342 11.2844L182.35 11.2955C182.516 11.517 182.78 11.614 183.023 11.614C183.444 11.614 183.946 11.3935 184.439 11.0672C184.941 10.7348 185.469 10.2691 185.95 9.72752C186.904 8.65371 187.716 7.23041 187.716 5.90205C187.716 4.70743 186.771 3.41529 184.21 2.43247C181.641 1.44676 177.372 0.736328 170.534 0.736328C157.769 0.736328 147.186 3.74915 139.787 7.74394C136.088 9.74102 133.178 11.9871 131.19 14.2312C129.205 16.4708 128.118 18.7331 128.118 20.7585C128.118 23.9589 130.33 26.2088 134.024 28.5481C135.876 29.7215 138.124 30.9309 140.693 32.3006C140.865 32.3924 141.039 32.4849 141.214 32.5782C143.522 33.8083 146.082 35.1724 148.851 36.7598C148.654 36.8292 148.404 36.9183 148.107 37.0262C147.305 37.318 146.159 37.7473 144.783 38.2981C142.034 39.3993 138.366 40.9869 134.696 42.9314C131.028 44.8747 127.347 47.1803 124.58 49.7204C121.82 52.2538 119.925 55.0611 119.925 58.0087C119.925 59.7338 120.679 61.0425 122.058 61.9073C123.421 62.7621 125.378 63.1744 127.785 63.1744C135.218 63.1744 142.63 60.3591 148.184 56.6046C150.962 54.7267 153.283 52.6085 154.913 50.4798C156.538 48.3556 157.493 46.1975 157.493 44.2447C157.493 42.1865 156.587 40.4509 155.692 39.2353C155.129 38.4711 154.557 37.8979 154.213 37.5795C154.45 37.5104 154.774 37.4216 155.148 37.3328C155.947 37.1432 156.962 36.9572 157.862 36.9572C158.837 36.9572 159.408 37.0392 159.743 37.1495C160.066 37.2558 160.139 37.3769 160.169 37.4533C160.189 37.5047 160.198 37.5594 160.209 37.6382C160.209 37.6425 160.21 37.6471 160.211 37.6518C160.22 37.7192 160.234 37.8214 160.276 37.9148C160.328 38.0316 160.417 38.129 160.557 38.1906C160.684 38.2467 160.842 38.2681 161.03 38.2681C161.396 38.2681 161.685 38.0817 161.873 37.8246C162.059 37.5717 162.154 37.2452 162.154 36.9257C162.154 36.6039 162.11 36.2956 161.986 36.0139C161.86 35.7288 161.657 35.4848 161.361 35.2848C160.782 34.8938 159.849 34.6737 158.421 34.6005L158.421 34.6002H158.408H158.117C156.849 34.6002 155.178 34.9063 153.838 35.2071C153.165 35.3582 152.57 35.5092 152.144 35.6224C151.93 35.6791 151.759 35.7263 151.64 35.7594C151.615 35.7666 151.592 35.7731 151.571 35.7789C148.365 33.566 144.857 31.7583 141.657 30.1092C140.234 29.3759 138.872 28.674 137.624 27.9817C135.572 26.8434 133.832 25.7332 132.605 24.5504C131.381 23.3699 130.693 22.1402 130.693 20.7585C130.693 19.4868 131.53 17.7432 133.251 15.8218C134.963 13.9106 137.521 11.8581 140.888 9.97078C147.622 6.19698 157.574 3.09338 170.424 3.09338C175.328 3.09338 179.05 3.50225 181.551 4.08369C182.803 4.37477 183.738 4.70648 184.361 5.0447C184.672 5.21387 184.896 5.37945 185.041 5.53422C185.183 5.68494 185.239 5.81194 185.249 5.9129V6.01129C185.249 6.95454 184.561 7.81558 183.79 8.61918C183.665 8.74925 183.537 8.87876 183.411 9.00623C183.163 9.25712 182.923 9.50014 182.729 9.72404C182.581 9.89553 182.449 10.0675 182.354 10.2375C182.259 10.4063 182.191 10.5901 182.191 10.7814C182.191 10.9779 182.243 11.1352 182.342 11.2842ZM151.2 38.5359C151.226 38.527 151.25 38.519 151.271 38.512C151.288 38.524 151.307 38.5376 151.328 38.553C151.426 38.6257 151.567 38.735 151.736 38.8783C152.074 39.1653 152.522 39.5865 152.968 40.1218C153.864 41.1959 154.735 42.7063 154.735 44.4996C154.735 46.0917 153.899 47.9027 152.398 49.7396C150.9 51.5714 148.762 53.4026 146.212 55.0306C141.109 58.2878 134.391 60.7081 127.931 60.7081C127.09 60.7081 125.703 60.4691 124.532 59.9767C123.947 59.7307 123.432 59.428 123.066 59.0735C122.703 58.7213 122.5 58.3315 122.5 57.8995C122.5 55.4764 124.239 53.042 126.953 50.7316C129.655 48.4309 133.266 46.3011 136.891 44.4818C140.514 42.6637 144.138 41.1615 146.857 40.1136C148.217 39.5897 149.35 39.1796 150.142 38.9006C150.538 38.7611 150.85 38.6544 151.062 38.5826C151.114 38.5649 151.16 38.5493 151.2 38.5359Z" fill="white" stroke="white" stroke-width="0.5"/>
<path d="M120.174 36.5663H120.11L120.053 36.5977C119.837 36.7177 119.416 37.0217 118.871 37.4143C118.754 37.4991 118.631 37.588 118.503 37.68C117.77 38.2067 116.852 38.8555 115.862 39.4866C114.87 40.1181 113.81 40.7288 112.791 41.1809C111.768 41.635 110.81 41.9189 110.015 41.9189C109.462 41.9189 109.067 41.6317 108.801 41.2444C108.53 40.8496 108.408 40.3711 108.408 40.057C108.408 39.4271 108.504 38.9215 108.599 38.5758C108.647 38.4029 108.694 38.2702 108.729 38.1821C108.738 38.1586 108.746 38.1382 108.754 38.1211C109.512 37.6728 110.959 36.5255 112.699 34.9836C114.503 33.3849 116.641 31.3452 118.69 29.1775C120.738 27.0106 122.703 24.7107 124.157 22.5918C124.884 21.5323 125.487 20.5133 125.909 19.5751C126.33 18.6399 126.578 17.768 126.578 17.0077C126.578 16.4488 126.4 15.8598 126.071 15.4048C125.74 14.947 125.244 14.6094 124.617 14.6094C123.915 14.6094 123.106 14.926 122.244 15.4536C121.377 15.9848 120.429 16.7467 119.442 17.6758C117.47 19.5346 115.323 22.0832 113.339 24.8548C111.355 27.627 109.528 30.6298 108.195 33.4C106.867 36.161 106.015 38.7232 106.015 40.6032C106.015 42.2463 107.269 44.276 109.906 44.276C110.809 44.276 111.95 43.9011 113.129 43.3569C114.316 42.8091 115.573 42.0751 116.72 41.3269C117.867 40.5783 118.908 39.812 119.665 39.1967C120.042 38.8895 120.353 38.6171 120.571 38.4015C120.679 38.2942 120.769 38.1963 120.834 38.112C120.867 38.0701 120.897 38.0262 120.92 37.9822C120.94 37.9443 120.971 37.8783 120.971 37.7994C120.971 37.5188 120.944 37.2273 120.838 36.9983C120.783 36.8795 120.703 36.7682 120.586 36.6874C120.467 36.6053 120.327 36.5663 120.174 36.5663ZM109.733 34.7946C110.941 32.0511 113.597 27.8053 116.382 24.1178C117.896 22.1136 119.441 20.2845 120.802 18.9591C121.483 18.2961 122.113 17.7647 122.665 17.4007C123.226 17.0314 123.673 16.8572 123.998 16.8572C124.105 16.8572 124.207 16.9079 124.29 17.0251C124.376 17.1463 124.44 17.338 124.44 17.5903C124.44 17.9948 124.245 18.5738 123.86 19.3021C123.48 20.0217 122.932 20.8557 122.265 21.7602C120.93 23.5687 119.133 25.6385 117.288 27.6058C115.444 29.5724 113.558 31.4319 112.047 32.819C111.291 33.5129 110.632 34.0864 110.12 34.4956C109.979 34.6088 109.849 34.7086 109.733 34.7946Z" fill="white" stroke="white" stroke-width="0.5"/>
<path d="M89.2961 42.8552H89.3039L89.3117 42.8547C90.2409 42.7967 91.5088 42.3111 92.7057 41.6645C93.6441 41.1576 94.5644 40.5377 95.2727 39.9136C95.2732 40.3208 95.3863 40.8492 95.8271 41.2741C96.2678 41.6989 96.996 41.9813 98.1444 41.9813C100.231 41.9813 102.653 40.9718 104.532 39.9433C105.476 39.4264 106.294 38.8986 106.878 38.4777C107.169 38.2676 107.405 38.0818 107.571 37.9355C107.653 37.863 107.723 37.7959 107.774 37.7376C107.799 37.7088 107.825 37.6766 107.845 37.6428C107.861 37.6182 107.898 37.5542 107.898 37.471C107.898 37.3299 107.865 37.1183 107.753 36.9327C107.634 36.7342 107.423 36.5656 107.102 36.5656C107.018 36.5656 106.933 36.599 106.878 36.6225C106.811 36.6509 106.734 36.6903 106.648 36.7363C106.481 36.8263 106.265 36.9529 106.014 37.1006L105.994 37.112C105.47 37.4192 104.776 37.8252 103.972 38.2309C102.356 39.0454 100.324 39.8427 98.3629 39.8427C97.8945 39.8427 97.6313 39.7546 97.4895 39.6475C97.3616 39.5509 97.302 39.4154 97.302 39.2188C97.302 38.9916 97.4109 38.7331 97.5527 38.4211C97.5575 38.4104 97.5624 38.3997 97.5673 38.389C97.6299 38.2514 97.6967 38.1047 97.7481 37.9619C97.8034 37.8083 97.8482 37.6403 97.8482 37.471C97.8482 36.8164 97.2925 36.3471 96.7607 36.3471H96.724L96.6889 36.3577L96.3248 36.4669L96.2769 36.4812L96.2383 36.5129C96.1831 36.5581 96.1277 36.6033 96.0723 36.6487C94.9192 37.5926 93.7336 38.5631 92.5995 39.3105C91.4022 40.0996 90.3091 40.6074 89.4053 40.6074C89.1089 40.6074 88.9644 40.5408 88.8932 40.4744C88.8259 40.4115 88.7814 40.3086 88.7814 40.1291C88.7814 39.9453 88.8359 39.7187 88.9318 39.4714C89.0266 39.2269 89.156 38.9772 89.2918 38.7515C89.4276 38.5259 89.5667 38.3296 89.678 38.1923C89.7342 38.123 89.7798 38.0731 89.8117 38.0429C89.812 38.0426 89.8123 38.0423 89.8127 38.042C89.9542 38.0178 90.0682 37.9331 90.1485 37.8546C90.2484 37.7569 90.3336 37.6325 90.4016 37.5117C90.4705 37.3892 90.5276 37.2597 90.5681 37.144C90.6058 37.0364 90.6385 36.9144 90.6385 36.8156C90.6385 36.4951 90.4699 36.2543 90.2121 36.107C89.9679 35.9674 89.6455 35.9102 89.2961 35.9102C89.2102 35.9102 89.1336 35.9417 89.08 35.9691C89.0214 35.9991 88.9616 36.0393 88.9028 36.0843C88.7848 36.1748 88.6506 36.3006 88.509 36.4504C88.2248 36.7512 87.8931 37.1677 87.577 37.6418C86.953 38.5778 86.3516 39.7959 86.3516 40.821C86.3516 41.4076 86.5967 41.9306 87.1061 42.2982C87.6057 42.6587 88.3381 42.8552 89.2961 42.8552Z" fill="white" stroke="white" stroke-width="0.5"/>
<path d="M75.513 31.0973C76.3026 31.0002 77.158 30.895 78.1085 30.8089C75.2577 35.3329 74.4079 37.9921 74.4079 40.6032C74.4079 42.2463 75.6619 44.276 78.2991 44.276C79.2025 44.276 80.3429 43.9011 81.5223 43.3569C82.7095 42.8091 83.9665 42.0751 85.113 41.3269C86.2598 40.5783 87.3013 39.812 88.0579 39.1967C88.4357 38.8895 88.746 38.6171 88.9638 38.4015C89.0721 38.2942 89.1624 38.1963 89.2274 38.112C89.2598 38.0701 89.29 38.0262 89.3133 37.9822C89.3334 37.9443 89.3637 37.8783 89.3637 37.7994C89.3637 37.5188 89.3372 37.2273 89.2315 36.9983C89.1767 36.8795 89.0964 36.7682 88.9793 36.6874C88.8604 36.6053 88.7205 36.5663 88.5675 36.5663H88.5028L88.4461 36.5977C88.2301 36.7177 87.8087 37.0217 87.2645 37.4143C87.147 37.4991 87.0238 37.588 86.8957 37.68C86.1628 38.2067 85.2456 38.8555 84.2549 39.4866C83.2634 40.1181 82.2032 40.7288 81.1847 41.1809C80.1617 41.635 79.203 41.9189 78.4084 41.9189C77.8551 41.9189 77.4605 41.6317 77.1943 41.2444C76.9229 40.8496 76.8013 40.3711 76.8013 40.057C76.8013 39.4271 76.8976 38.9215 76.9927 38.5758C77.0402 38.4029 77.0874 38.2702 77.122 38.1821C77.1314 38.158 77.14 38.1373 77.1473 38.12C77.5463 37.8755 78.2681 37.3003 79.1171 36.5866C80.0294 35.8198 81.1112 34.8736 82.1474 33.9536C83.1838 33.0334 84.1756 32.1384 84.9082 31.4735C85.2746 31.141 85.5762 30.866 85.7862 30.6741L86.0293 30.4518L86.0542 30.429L86.9786 30.3299C88.0943 30.3315 88.4173 30.5381 88.5546 30.6754C88.5929 30.7137 88.6236 30.7534 88.6571 30.7995C88.6616 30.8057 88.6664 30.8124 88.6715 30.8195C88.7 30.8591 88.7371 30.9105 88.7778 30.9551C88.8308 31.0132 88.8986 31.0704 88.9916 31.1108C89.0831 31.1505 89.1841 31.1674 89.2958 31.1674C89.7774 31.1674 90.3386 31.0189 90.7845 30.7662C91.2182 30.5205 91.6213 30.1276 91.6213 29.6065C91.6213 29.2842 91.5311 29.0106 91.341 28.7933C91.1554 28.5812 90.895 28.4461 90.5966 28.3566C90.009 28.1804 89.1789 28.1549 88.2034 28.1549H88.1511C88.5326 27.7689 89.0011 27.2329 89.5082 26.6075C90.2639 25.6754 91.1193 24.5272 91.9243 23.338C92.7288 22.1495 93.486 20.9156 94.0432 19.8127C94.3218 19.2613 94.5523 18.7389 94.7137 18.2686C94.874 17.8014 94.9713 17.3708 94.9713 17.0077C94.9713 16.4488 94.7928 15.8598 94.4643 15.4048C94.1336 14.947 93.6369 14.6094 93.0099 14.6094C92.0657 14.6094 91.0317 15.0881 89.9638 15.867C88.8902 16.65 87.7512 17.7595 86.5914 19.0725C84.2936 21.674 81.8886 25.1041 79.7181 28.4626C78.535 28.611 77.6609 28.7276 76.5395 28.8953C76.8371 28.6792 77.0926 28.3827 77.0926 27.968C77.0926 27.4965 76.7662 27.2056 76.3755 27.0754L76.337 27.0625H76.2964C76.1752 27.0625 76.0042 27.1016 75.8231 27.1538C75.6327 27.2087 75.4018 27.2869 75.1472 27.3822C74.6376 27.5729 74.0226 27.8355 73.4285 28.1257C72.8359 28.4151 72.2557 28.7359 71.8201 29.044C71.603 29.1975 71.413 29.3541 71.2745 29.5082C71.1441 29.6534 71.0215 29.8377 71.0215 30.0435C71.0215 30.0498 71.0215 30.0563 71.0215 30.0629C71.0213 30.2695 71.0211 30.5933 71.1571 30.8653C71.2316 31.0143 71.3469 31.1497 71.5188 31.2452C71.688 31.3392 71.8964 31.3859 72.1454 31.3859C73.0362 31.3859 73.9785 31.2839 75.0293 31.1565C75.1879 31.1373 75.349 31.1174 75.513 31.0973ZM92.8327 17.5903C92.8327 17.6214 92.8215 17.6896 92.7822 17.8054C92.7445 17.9161 92.6872 18.0533 92.6105 18.2152C92.4571 18.5388 92.2334 18.946 91.9553 19.4128C91.3998 20.3454 90.6368 21.5004 89.8107 22.6715C88.9848 23.8422 88.0983 25.0256 87.2968 26.015C86.5251 26.9677 85.8439 27.7257 85.3754 28.124L82.4227 28.3067C84.4118 25.2832 86.4818 22.4618 88.2705 20.37C89.2065 19.2754 90.0604 18.3865 90.7817 17.7734C91.1425 17.4668 91.4645 17.2339 91.7425 17.0789C92.0249 16.9215 92.2393 16.8572 92.3909 16.8572C92.4985 16.8572 92.6 16.9079 92.6832 17.0251C92.7693 17.1463 92.8327 17.338 92.8327 17.5903ZM80.7753 30.7208L83.0181 30.5625C82.9192 30.6513 82.8089 30.7503 82.6891 30.8574C82.1645 31.3269 81.4587 31.9543 80.7339 32.586C80.0086 33.218 79.2659 33.8529 78.6669 34.3383C78.588 34.4022 78.5117 34.4634 78.4385 34.5215L80.7753 30.7208Z" fill="white" stroke="white" stroke-width="0.5"/>
<path d="M64.0555 38.445C64.0557 38.4448 64.0559 38.4446 64.0562 38.4444C64.1855 38.3711 64.3384 38.291 64.5079 38.2022C64.5796 38.1646 64.6543 38.1255 64.7314 38.0846C64.9939 37.9457 65.2778 37.7905 65.5394 37.6231C65.7993 37.4569 66.0485 37.2716 66.2353 37.0695C66.4194 36.8702 66.5696 36.6252 66.5696 36.3429C66.5696 35.8889 66.3927 35.5602 66.1293 35.3507C65.8753 35.1486 65.5615 35.0733 65.3 35.0733C64.737 35.0733 64.2039 35.3217 63.7799 35.6253C63.3676 35.9205 63.0318 36.2868 62.8445 36.5879C61.8683 37.5734 61.3359 38.7575 61.3359 40.1662C61.3359 40.614 61.4862 41.2337 61.8789 41.7473C62.2798 42.2716 62.9259 42.6738 63.8799 42.6738C65.9303 42.6738 68.2777 41.9955 70.3744 41.1349C72.4663 40.2762 74.3336 39.2255 75.4442 38.4501C75.6374 38.3434 75.741 38.1275 75.7983 37.9412C75.862 37.7342 75.8913 37.4899 75.8913 37.2532C75.8913 37.1069 75.8554 36.9463 75.7673 36.8141C75.6743 36.6746 75.5198 36.5663 75.3135 36.5663H75.2432L75.1832 36.6029C74.2111 37.197 72.2923 38.2201 70.2276 39.094C68.1525 39.9722 65.9728 40.6809 64.4625 40.6809C63.7808 40.6809 63.5838 40.2286 63.5838 40.1298C63.5838 39.4164 63.7228 38.9829 63.8479 38.7365C63.9107 38.6129 63.9711 38.5342 64.0114 38.4892C64.0316 38.4667 64.047 38.4524 64.0555 38.445ZM67.4533 32.0826C67.4533 32.4564 67.7026 32.8269 67.9589 33.0832C68.093 33.2173 68.2434 33.3351 68.3931 33.4209C68.5371 33.5035 68.705 33.5706 68.8685 33.5706C69.0204 33.5706 69.2423 33.5231 69.4335 33.3977C69.6357 33.265 69.8103 33.0379 69.8103 32.7016C69.8103 31.7334 69.012 31.25 68.3951 31.25C68.1756 31.25 67.945 31.3043 67.7627 31.4411C67.5713 31.5846 67.4533 31.8048 67.4533 32.0826Z" fill="white" stroke="white" stroke-width="0.5"/>
<path d="M17.5268 44.8581H17.5624L17.5967 44.8482C17.8189 44.7835 18.1462 44.594 18.5419 44.329C18.9476 44.0572 19.4539 43.6859 20.0443 43.2311C21.2255 42.3213 22.7542 41.0693 24.5089 39.593C28.0186 36.64 32.4412 32.7821 36.8128 28.9521C37.6465 28.2216 38.4784 27.4922 39.3017 26.7703C42.7966 23.7059 46.1381 20.7759 48.8175 18.473C50.4731 17.0501 51.8737 15.8685 52.9005 15.0432C53.1988 14.8033 53.4646 14.5944 53.6951 14.4189C53.6947 14.4196 53.6942 14.4203 53.6938 14.4209C53.2497 15.0699 52.6125 16.0024 51.84 17.1368C50.2951 19.4055 48.209 22.4818 46.0442 25.7118C41.7231 32.1595 37.0721 39.2441 35.8041 41.7226C35.4607 42.3346 35.3375 42.8484 35.3375 43.2973C35.3375 43.8039 35.5308 44.165 35.7967 44.3962C36.054 44.62 36.368 44.7125 36.6071 44.7125C36.9239 44.7125 37.2961 44.5795 37.7384 44.3584L37.7408 44.3572C37.9333 44.2583 38.2222 44.0522 38.5825 43.7693C38.9481 43.4822 39.4023 43.1039 39.9309 42.6488C40.9882 41.7384 42.3494 40.5151 43.905 39.0881C47.0166 36.2338 50.9119 32.5593 54.7219 28.9314C58.5321 25.3033 62.2579 21.7208 65.0311 19.0501C65.6223 18.4807 66.1701 17.9529 66.6662 17.4749C67.2856 16.878 67.8244 16.3589 68.2664 15.9336C66.9548 17.9673 64.6432 21.2769 61.7739 25.313C59.7166 28.207 57.3784 31.4667 54.9252 34.8866C52.8185 37.8234 50.6272 40.8783 48.4562 43.9213C43.7589 50.5053 39.1598 57.0293 35.7346 62.1608C34.0223 64.7261 32.6011 66.9468 31.6073 68.6544C31.1106 69.5078 30.7181 70.2373 30.4491 70.82C30.3146 71.1112 30.2092 71.3696 30.1369 71.591C30.066 71.8083 30.0213 72.0069 30.0213 72.1726C30.0213 72.4241 30.1225 72.6187 30.2089 72.7482L30.2226 72.7688L30.2401 72.7863C30.2945 72.8407 30.3642 72.8741 30.4151 72.8947C30.4727 72.918 30.5383 72.9375 30.6065 72.9533C30.743 72.9848 30.9075 73.0052 31.0723 73.0052C31.3605 73.0052 31.6488 72.8811 31.9074 72.7045C32.1693 72.5257 32.4215 72.2793 32.6428 72.0002C33.0809 71.4479 33.4292 70.7272 33.4701 70.0774C33.4846 69.8808 33.6142 69.523 33.9105 68.9622C34.201 68.4125 34.633 67.701 35.2138 66.8116C38.8839 61.2294 45.7123 51.6582 52.5493 42.0749C53.7782 40.3523 55.0075 38.6293 56.2187 36.929C60.1922 31.3511 63.9711 26.0185 66.9071 21.75C68.375 19.6159 69.6331 17.7464 70.5999 16.2444C71.5617 14.7504 72.2437 13.607 72.5536 12.9276C72.8161 12.4016 72.9421 11.9625 72.9421 11.5818C72.9421 11.2445 72.8467 10.9494 72.6466 10.7368C72.4449 10.5225 72.1645 10.4214 71.8546 10.4214C71.5023 10.4214 71.1309 10.553 70.7154 10.7797L70.7153 10.7796L70.7086 10.7835C70.5554 10.8733 70.2963 11.0757 69.9596 11.3579C69.6168 11.6452 69.1781 12.0287 68.6583 12.4934C67.6186 13.423 66.25 14.6822 64.6679 16.157C61.5034 19.1069 57.4813 22.9231 53.5213 26.6987C50.6938 29.3946 47.8975 32.0703 45.4674 34.3955C44.494 35.3269 43.5794 36.2021 42.7451 36.9998C41.2863 38.3946 40.0731 39.5525 39.2202 40.3604C39.1221 40.4533 39.0289 40.5415 38.9406 40.6249C39.2136 40.1688 39.5604 39.6058 39.9685 38.9554C41.0414 37.2456 42.5332 34.9385 44.2076 32.3972C47.5568 27.3143 51.6328 21.3005 54.5429 17.2628C56.1072 15.1163 57.149 13.6634 57.7997 12.66C58.1249 12.1583 58.3572 11.7618 58.5088 11.4426C58.6583 11.1276 58.7411 10.864 58.7411 10.635C58.7411 10.2152 58.4672 9.96808 58.2049 9.78005C57.9926 9.61164 57.759 9.51113 57.508 9.51113C57.366 9.51113 57.2051 9.55664 57.0407 9.62159C56.8714 9.68852 56.6762 9.78525 56.459 9.90697C56.0242 10.1505 55.4832 10.5044 54.8542 10.9495C53.5954 11.8404 51.9659 13.1104 50.0973 14.6303C46.3591 17.6708 41.65 21.723 37.0072 25.7718C34.548 27.9164 32.1187 30.05 29.8592 32.0346C27.8391 33.8088 25.9548 35.4639 24.306 36.901C22.5662 38.4175 21.1031 39.6787 20.0446 40.5594C19.6227 40.9105 19.2668 41.1997 18.9841 41.4199C19.1136 41.1852 19.2725 40.9053 19.4573 40.5864C20.0048 39.6418 20.7739 38.3637 21.6587 36.9239C23.4282 34.0446 25.657 30.524 27.4941 27.7411C31.2617 22.0442 33.8067 18.1039 35.4095 15.2499C37.0069 12.4056 37.6946 10.5975 37.6946 9.17852C37.6946 8.34646 37.4611 7.63166 36.9811 7.05657C36.5038 6.48485 35.8002 6.07192 34.8946 5.80753C33.9072 5.50418 32.2703 5.39648 30.2713 5.39648C25.3925 5.39648 18.1873 6.13581 12.1588 6.95083C9.143 7.35856 6.4172 7.78585 4.41886 8.15027C3.42024 8.33238 2.60015 8.49936 2.01532 8.64089C1.72364 8.71148 1.48538 8.77695 1.31105 8.83611C1.22443 8.8655 1.1474 8.8954 1.08528 8.92607C1.05423 8.9414 1.02212 8.95924 0.992594 8.98013C0.965848 8.99904 0.925861 9.03103 0.894743 9.07912L0.894622 9.07904L0.890262 9.08631C0.760611 9.3024 0.708984 9.49202 0.708984 9.6883C0.708984 9.87328 0.760203 10.0387 0.861648 10.1789C0.960811 10.3159 1.09755 10.4145 1.24755 10.4873C1.54071 10.6295 1.93134 10.6947 2.34179 10.7337C2.64123 10.7621 2.97243 10.7781 3.30855 10.7942C3.43721 10.8004 3.5666 10.8066 3.6952 10.8135C4.16342 10.8389 4.62987 10.8744 5.05735 10.9524C5.3746 11.0307 5.61553 11.0307 5.79938 11.0307H5.80188C6.1628 11.0307 6.43257 10.9508 6.61899 10.7859C6.80666 10.6198 6.8673 10.4049 6.89149 10.2329C6.90326 10.1492 6.90744 10.0672 6.9108 10.0013L6.91103 9.9969C6.91414 9.9358 6.91663 9.8924 6.92113 9.85815L6.93606 9.85551L7.03811 9.83765C7.12821 9.82199 7.26184 9.79898 7.43564 9.76968C7.78325 9.71109 8.2915 9.62733 8.93338 9.52678C10.2172 9.32569 12.0353 9.05752 14.1715 8.78935C18.4457 8.25281 23.9869 7.71712 29.0696 7.71712C31.5272 7.71712 33.172 7.84545 34.1968 8.12694C34.7084 8.26748 35.0401 8.43971 35.2417 8.63142C35.4339 8.81424 35.5196 9.02539 35.5196 9.28776C35.5196 9.83247 35.2364 10.7158 34.6991 11.8859C34.1675 13.0433 33.4057 14.4436 32.4874 16.0061C30.6512 19.1306 28.2014 22.8839 25.7476 26.6055C25.3986 27.1349 25.0495 27.6636 24.7021 28.1898C22.6089 31.3599 20.5772 34.4369 18.997 36.9968C18.0759 38.4891 17.3049 39.8107 16.7636 40.8758C16.493 41.4083 16.2775 41.881 16.1291 42.2817C15.9829 42.6764 15.8931 43.0237 15.8931 43.2973C15.8931 43.7173 16.0799 44.1041 16.3436 44.3837C16.6053 44.6611 16.9675 44.8581 17.3447 44.8581H17.5268ZM6.85785 9.61547C6.88494 9.767 6.89536 9.82523 6.89939 9.8476C6.89938 9.84761 6.89937 9.84761 6.89936 9.84762L6.85785 9.61547Z" fill="white" stroke="white" stroke-width="0.5"/>
</svg>
