<svg xmlns="http://www.w3.org/2000/svg" xmlns:xlink="http://www.w3.org/1999/xlink" viewBox="0 0 1922.33 1826.39"><defs><style>.cls-1{fill:none;}.cls-2{isolation:isolate;}.cls-3,.cls-4,.cls-5{fill:#424241;}.cls-4,.cls-5{opacity:0.5;}.cls-25,.cls-4{mix-blend-mode:screen;}.cls-10,.cls-12,.cls-13,.cls-17,.cls-26,.cls-28,.cls-5,.cls-6,.cls-7,.cls-8{mix-blend-mode:multiply;}.cls-6,.cls-7{fill:#ba6f15;}.cls-6{opacity:0.8;}.cls-28,.cls-7,.cls-8{opacity:0.6;}.cls-8{fill:#603d0b;}.cls-9{fill:#fad6be;}.cls-10{fill:#efc2a7;}.cls-11{fill:#a04c0b;}.cls-12,.cls-29{fill:#fbd0b4;}.cls-13{fill:#edb89a;}.cls-14{fill:#9e5116;}.cls-15{fill:#fcece3;}.cls-16,.cls-26{fill:#583415;}.cls-18{fill:#653506;}.cls-19{fill:#fff;}.cls-20{clip-path:url(#clip-path);}.cls-21{fill:#220300;}.cls-22,.cls-25{fill:#7f4a23;}.cls-23{fill:#0a000b;}.cls-24{fill:#fffae2;}.cls-27{fill:#8c0c00;}.cls-28{fill:#b8a997;}</style><clipPath id="clip-path"><path class="cls-1" d="M1185.76,1132.23c-22.42-.4-47.26-.78-69-5-3.66-.7-20.23-4.93-24-7.67-9.51-6.82,20.93-44.73,27.48-50.55,29.88-20.36,82.1-32.37,120.12-31.88,48.12.66,60.13,26.19,73.62,53.7C1296.06,1125.79,1227.74,1133,1185.76,1132.23Z"/></clipPath></defs><g class="cls-2"><g id="Layer_1" data-name="Layer 1"><path class="cls-3" d="M1896.22,875.45c33.25-41,31.37-92.16,13.16-140-12.23-32-35.62-76.8-71.18-90.1,34.21,4.1,71.65-8.33,82.47-40,.94-2.81-.65-2.3-3.1-.58-3.6,2.52-8.92,7.86-9.34,8.14-18.9,12.65-49.56-3.77-65-14.58-19.43-13.58-34.57-33.9-43.71-55.57-13.44-31.65-17.71-68.1-20.74-102.74,4.1-29.93,4.54-59.43-14.86-84.87-26.55-34.81-58.06-63.81-94.28-88.23-65.78-44.31-153.51-72-233.33-70.13-9-67.81-65-121.09-124.62-155.38-79.92-46-192.87-42.59-282.11-40.36C925.68,3.71,823.25,32.75,728.4,73.76,672.05,98,616.58,123.54,558,142c-29.17,9.21-59.41,17-90.07,18.92-33.73,2.11-52.38-10.76-67-38.08a83.17,83.17,0,0,1-.55-9.81,1.38,1.38,0,0,0-2.75-.12c-1.28,32.56,4.61,59.46,31.49,80,16.83,12.88,40.11,19.13,63.26,20.31-37.79,8.6-75,20-111,31.86-59.18,19.42-116.56,44.87-169.1,78.32-50.56,32.09-95.77,74.23-124.7,127.05-34.52,62.94-19.27,122.08-9.32,188A91.69,91.69,0,0,0,81,662.41c.34,1.52,2.9,1.41,2.8-.26-1.74-39.39,12.66-68.52,33.79-94.64-15.4,28.63-24.13,61.47-27,94.26-3.48,39.15,5.23,78.78,5.69,117.9.33,24.24-3.54,47.58-15.5,68.89-7.31,12.92-18.79,21.76-32.44,27.11-17.06,6.72-30.36,8.61-48.27,7.86,3.61.14,11,6.43,14.48,7.85,19.33,8,41.2,6.28,61.19,2.17,2.31-.46,4.4-1.07,6.52-1.63-12.36,13.91-22.94,29.13-30.27,45.76-21.66,49-2.47,104.27,20.1,149,.83,1.58,2.92.59,2.75-1-.64-4.54-1.61-9.09-2.64-13.6,5.91-32.25,17.15-58,33.06-83.12-16.62,33.4-23.34,70-8.51,108.88,23.75,62.16,71.73,92.24,134.81,102.26,13.41,15.33,26.09,31.13,40.24,46.09a1.4,1.4,0,0,0,.65.3c.28,6.78.5,13.62.47,20.51-.18,20.65-9.07,97.77-51.8,75.47a2,2,0,0,0-2.16,3.45,31.17,31.17,0,0,0,12.65,6.56c.09.11,0,.22.12.32,23.52,24.12,60,1.22,75.94-25.11-4.19,21.27-12.38,40.58-35,52.13a1.08,1.08,0,0,0,.73,2,53.15,53.15,0,0,0,9.2-3.31,1.56,1.56,0,0,0,1.11.63c30.32,2,52.71-13.85,64.27-38.19,2.45,44,19.89,83.6,51.52,115.71,39.64,40.11,100,44.49,151.73,29.56a3,3,0,0,0,1.66-1.21c86.26,75.1,220.29,75.85,329.13,89.48,90.51,11.37,175.13,12.52,263.53-11.78,41.9-11.44,83.15-24.76,125.26-35.08,24-5.87,47.63-8.12,70.62-13.18a188.6,188.6,0,0,0,67.54-18.82c22.42-11,49.51-32.06,64.6-55.36-1.49,26.76,6.57,54.61,24.42,71a.91.91,0,0,0,1.48-1,195.78,195.78,0,0,1-7.09-19.89c2.25-56.47,37.17-89.78,85.29-116.32,35.42-19.52,64.53-41.76,88.42-74.8a151,151,0,0,0,22-45.19c38.87-11.3,70.57-37.75,87.94-74.55,13.81-29.21,18.52-76.21,3.24-107.82,19.35,13.44,43.48,19,70.41,16.28a29,29,0,0,0,3.37.52,2,2,0,0,0,2-1.11c4.71-.68,9.47-1.47,14.36-2.62.91-.25,1.23-1.85.09-2a174,174,0,0,0-22.54-2.15c-44.52-21.69-59.58-58.53-56.72-105.65C1847.77,968.55,1884.18,925.76,1896.22,875.45Z"/><path class="cls-4" d="M1280.51,122.71C1238.8,58.26,1160.62,41,1087.91,41.13c-86,.16-177.36,29-256.52,60.46-2.51,1-.95,5,1.52,4.25,75.72-22.66,148.11-45,227.65-46.52-4.58,1.39-9.12,3-13.56,4.88-13,5.39-45.27,27-26,44.24,18,16.15,46,3.93,67.36,2,3.43-.34,18.09-3.1,11.24,4-2.32,2.48-4.49,5-5.52,8.26-2.48,7.68,4.89,11.14,10.66,12.95,2.84.87,5.36-2.76,3.25-5-5.3-5.45,15-16.64,8.53-28.91-7.07-13.32-27.84-10.24-39.81-8.92-10.66,1.17-21.21,3.43-31.92,4-16.55.88,7.68-12.92,11.71-14.83,26.76-12.68,59.42-13.88,89.12-17.1,49,8,96.17,25.59,131.43,60.41C1278.65,126.85,1281.91,124.91,1280.51,122.71Z"/><path class="cls-5" d="M1872.5,751.7c27.4,63.48,10.65,139.36-40.06,187.07-4.1,3.84-12.26-.58-9.78-6.23,20.26-45.27,27.48-98.21,23.68-147.34-2-26.65-9.94-52.78-29.15-72.24-12.76-12.82-57.25-26.12-59.48-43.65a11.19,11.19,0,0,1,5.66-1c49,1.7,107,19.51,136.5,61.27A151.49,151.49,0,0,1,1917.79,763a211.23,211.23,0,0,0-8.41-27.54c-12.23-32-35.62-76.8-71.18-90.1,29.35,3.49,60.92-5.21,76.14-27.66-21.23,6.23-46.15,5.18-66.69-3.5-34.4-14.55-61.12-43.4-71.68-79-10.65-36-27.91-70-39.82-105.53a189.18,189.18,0,0,0,39.77,133.13,6,6,0,0,1-7.68,9.09c-30.49-16-58.27-33.59-78.49-62-12.38-17.42-20.32-38.3-29.83-57.28-23.82-47.42-56.5-102.39-115.12-86.79,53.52,43.78,75.73,103.49,105.59,165.15,2.88,6-5.1,12.1-9.65,6.85-20.85-23.49-46.49-46.18-63.38-73.36,21,111.44,94,211.63,79.13,329.2-.72,5.69-8.22,8.14-11.29,2.59-8-15-16.25-27.4-30-36.11,3.93,49,23.39,95.38,26.81,144.69a296,296,0,0,1-21.63,134.41c-2.41,6-12,5-11.66-2,2.14-54.12,3.31-107.89-11.25-160.53-12.75-46.19-26.8-93.26-29.28-141.37-4.41-82.06-10.51-156.18-54.57-223.89C1532.89,594.72,1525,675,1502,759c-1.79,6.64-12,4.59-11.68-2.09,2.3-56.45,7.8-119-6.69-174.3-11.42-43.82-33-84.32-35.57-130.4-3.85-70.34,33.06-116.19,88.24-153.5-18.41-19.61-71.81-15.05-72.77-47.09-.53-16.28,25-30.06,36.57-35.63,11-5.38,23.15-7.06,35.63-7.49-33.09-8.23-66.93-12.42-99.46-11.68-9-67.81-65-121.09-124.62-155.38-79.92-46-192.87-42.59-282.11-40.36A655.46,655.46,0,0,0,950.88,8c20.39-1.8,40.82-3.65,61.22-4.12,43.64-1,86.14,3.8,129.12,10.7C1205.28,24.92,1280.85,37.4,1330,83.71c44.09,41.47,65.64,98.11,61.5,158.41-.39,6.75-10,7.64-11.77,1.08-12.5-48.52-63.48-70.08-110-65.33,59.56,38.33,94.65,101.68,69.28,173.41-1.86,5.33-10.43,5.63-11.54-.47-16.92-100.66-134.44-42.54-185.28-3.47-61.3,47.09-110,111.08-138.29,183.06-4.64,12.83-9,25.61-13,38.27-2.32,7.37-13.52,3.78-11.4-3.67a427.94,427.94,0,0,1,14.14-41.53c36.6-100.1,93.76-201.33,186.56-254.33-81.34,20-150.58,68.23-194.82,142.76-50.15,84.53-74.48,181.52-157.16,242.55-6.27,4.63-13.19-2.91-8.11-8.78C897,557.23,903,432.32,958.72,333.83c-20.78,19.77-40.14,40.56-53.29,65.13-27.11,50.61-46,104.86-79.8,151.8C772.73,624.21,701,695.31,609.56,715c-6.55,1.43-10.12-7.91-4.07-11.09,89.78-49,156.11-139,188.29-235.46C663.93,541.87,533.38,648,473.14,787.08c-3,6.95-14.29,3.54-11.37-3.65C506,674.09,579,564.65,683,504.07a279.47,279.47,0,0,0-127.94,59.85c-45,37.46-65.52,85.18-95.81,133.45-53.16,84.63-133,155.44-113,264.94,1.42,7.65-9.45,10.06-11.67,2.76C284.76,800.27,426.39,684.89,492.85,549c-35.46,32.69-77.78,49.84-127.13,62.07-51,12.62-97.46,23.65-137.28,65.21-34.28,35.69-45.73,93.91-45.73,93.91s.74-55.39,29.49-99.07C236.53,634,279.43,603.36,320.52,587c43-17.13,80.39-32.26,104.81-74.49,15.39-26.54,24-55.06,27.88-84.63-16.88,42.8-41.59,82.17-86.08,101.06-5.1,2.17-11.62-3.22-7.88-8.52,16.63-23.52,26.17-47.94,31.71-73.81-28.26,58.83-52.15,97.14-120,104.18-7.4.77-38.57-2.24-30.85-4,104.58-24,85.39-152.9,154.35-207.72-119.36,21.85-292,97.25-311.3,229.57-1.07,7.47-.76-24.6-.69-32.42.71-48.78,13.59-92.49,36.16-131.08a294.59,294.59,0,0,0-31,45.42c-34.52,62.94-19.27,122.08-9.32,188A91.69,91.69,0,0,0,81,662.41c.34,1.52,2.9,1.41,2.8-.26-1.74-39.39,12.66-68.52,33.79-94.64-15.4,28.63-24.13,61.47-27,94.26-3.48,39.15,5.23,78.78,5.69,117.9.33,24.24-3.54,47.58-15.5,68.89-7.31,12.92-18.79,21.76-32.44,27.11-17.06,6.72-30.36,8.61-48.27,7.86,3.61.14,11,6.43,14.48,7.85,19.33,8,41.2,6.28,61.19,2.17,2.31-.46,4.4-1.07,6.52-1.63-12.36,13.91-22.94,29.13-30.27,45.76-21.66,49-2.47,104.27,20.1,149,.83,1.58,2.92.59,2.75-1-.64-4.54-1.61-9.09-2.64-13.6,5.91-32.25,17.15-58,33.06-83.12-16.62,33.4-23.34,70-8.51,108.88,23.75,62.16,71.73,92.24,134.81,102.26,13.41,15.33,26.09,31.13,40.24,46.09a1.4,1.4,0,0,0,.65.3c.28,6.78.5,13.62.47,20.51-.18,20.65-9.07,97.77-51.8,75.47a2,2,0,0,0-2.16,3.45,31.17,31.17,0,0,0,12.65,6.56c.09.11,0,.22.12.32,23.52,24.12,60,1.22,75.94-25.11-4.19,21.27-12.38,40.58-35,52.13a1.08,1.08,0,0,0,.73,2,53.15,53.15,0,0,0,9.2-3.31,1.56,1.56,0,0,0,1.11.63c30.32,2,52.71-13.85,64.27-38.19,2.45,44,19.89,83.6,51.52,115.71,39.64,40.11,100,44.49,151.73,29.56a3,3,0,0,0,1.66-1.21c86.26,75.1,220.29,75.85,329.13,89.48,90.51,11.37,175.13,12.52,263.53-11.78,41.9-11.44,83.15-24.76,125.26-35.08,24-5.87,47.63-8.12,70.62-13.18a188.6,188.6,0,0,0,67.54-18.82c22.42-11,49.51-32.06,64.6-55.36-1.49,26.76,6.57,54.61,24.42,71a.91.91,0,0,0,1.48-1,195.78,195.78,0,0,1-7.09-19.89c2.25-56.47,37.17-89.78,85.29-116.32,35.42-19.52,64.53-41.76,88.42-74.8a151,151,0,0,0,22-45.19c38.87-11.3,70.57-37.75,87.94-74.55,13.81-29.21,18.52-76.21,3.24-107.82,18.73,12.95,41.89,18.5,67.68,16.5a79.64,79.64,0,0,1-14.57-6c-28.81-7.68-53.53-24.51-69.14-59-39.35-87.46-6.16-184.6-32.84-274.84-1.6-5.29,4-8.09,8-6.63a5.81,5.81,0,0,1,5,.42c66.48,35.93,47.6,127.19,44.17,188.41-1.21,21.28-1.13,44.65,3,66.77a164.92,164.92,0,0,1-.32-22.45c57.5-6.33,93.91-49.12,106-99.43a108.12,108.12,0,0,0,13-20.07C1913.78,813.31,1908.57,770.87,1872.5,751.7Zm-109.8,351.13c6.07,47.79-9,85.93-41.59,120.78-4.18,4.37-11.82-.73-9.79-6.26,16.39-45,16.53-97.19-4-140.2-8.58-12.64-18.82-24.89-26.45-38.16-.21-.21-.36-.42-.56-.65a5.26,5.26,0,0,1-1.59-3.24c-5-9.68-8.53-19.91-8.81-31.34,0-4.07,3.24-5.86,6.53-5.47,1.43-21.25,4.9-41.93,17-60.49,2.9-4.57,9.28-2.92,10.83,1.89C1721.39,993.82,1755.42,1045.9,1762.7,1102.83Z"/><path class="cls-6" d="M1577.63,1374c35.42-19.52,64.53-41.76,88.42-74.8a151,151,0,0,0,22-45.19,145.51,145.51,0,0,0,19.68-7.48c1.57-8.45,2.81-16.93,3.65-25.35a5.51,5.51,0,0,1-.09-3.85l.42-1.34c3.36-45.06-5.46-88.79-39.9-121,10.24,75.88,12.89,146.23-36,211.71-4.53,6.13-14,.25-10.11-6.48,40.8-69.79,3.81-146.33,14.17-220.9,9.4-67.37,44.11-132.46,9.07-195a400.08,400.08,0,0,1-8.53,78.42,299.8,299.8,0,0,1-20.06,76.51,6.39,6.39,0,0,1-6.81,3.9,425.94,425.94,0,0,1-54.36,86.85c-4.07,5.07-12.91,1.8-10.73-5.06,17.2-55,26.41-113.62,28.51-171.25,1.89-53.79,1.57-119.35-30.82-165.45-35.35,88.53-63.42,180.14-106,265.63-22.16,44.37-47.35,88.16-80.52,125.29-17.49,19.5-38.77,45.49-66.93,48.28-45.18,4.43-62.85-64.35-70.69-96.45-9.1-36.92-12.57-75-18.79-112.48-17.92-28.32-39.12-55.19-57.14-81.56-36.85-54.16-72.22-110.69-117.74-158.19C976.17,724.43,908.28,678.58,835,649.1c-2.29,1.76-4.43,3.65-6.72,5.35-6.27,4.63-13.19-2.91-8.11-8.78.53-.57,1-1.25,1.48-1.84a497.2,497.2,0,0,0-59.48-18C719.29,668.17,668.6,702.32,609.56,715c-6.55,1.43-10.12-7.91-4.07-11.09C645.57,682,681,651.83,710.77,616.64c-10.39-1.23-20.79-2.19-31.19-2.61a369,369,0,0,0-91.15,7.63c-48.11,48.74-88.64,103.82-115.29,165.42-3,6.95-14.29,3.54-11.37-3.65,20.9-51.58,48.27-103.16,82.17-149.67a396.7,396.7,0,0,0-63.18,27.58c-6.94,11.82-13.88,23.87-21.49,36-53.16,84.63-133,155.44-113,264.94,1.42,7.65-9.45,10.06-11.67,2.76-23.39-77.25-4.7-143.59,28.53-206.31-3.54,4.42-7.05,8.81-10.4,13.4-33.67,46.09-57.22,99.33-56.69,157.34.41,47.43,11.73,116.77,61.75,136.85,3.89,1.6,5,5.33,3.25,9-18.87,38.22-26.76,75.43-16.17,117.47,1.38,5.55-6.49,10.23-10.28,5.38-20-26-42.1-53.35-50.21-84.1-3.91,59.79,28.44,121.92,2.46,181.33-2.82,6.34-11.1,4.68-11.68-2.09-2-23.75.51-50.07-7.07-72.9-9.52-29-31.15-47-54.73-64.75-18.29-13.72-35.49-27.43-47.36-45.24,1.67,17.63,5.63,34.7,17.06,49.18,4.71,6-3.65,14-8.85,8.1-35-40.25-69.22-90-70.62-145.51-1.16-42.16,13.88-78.38,37.54-110.24-52.49,42.63-76.54,103.44-68,175.44a1.52,1.52,0,0,0,1.63-1.7c-.64-4.54-1.61-9.09-2.64-13.6,5.91-32.25,17.15-58,33.06-83.12-16.62,33.4-23.34,70-8.51,108.88,23.75,62.16,71.73,92.24,134.81,102.26,13.41,15.33,26.09,31.13,40.24,46.09a1.4,1.4,0,0,0,.65.3c.28,6.78.5,13.62.47,20.51-.18,20.65-9.07,97.77-51.8,75.47a2,2,0,0,0-2.16,3.45,31.17,31.17,0,0,0,12.65,6.56c.09.11,0,.22.12.32,23.52,24.12,60,1.22,75.94-25.11-4.19,21.27-12.38,40.58-35,52.13a1.08,1.08,0,0,0,.73,2,53.15,53.15,0,0,0,9.2-3.31,1.56,1.56,0,0,0,1.11.63c30.32,2,52.71-13.85,64.27-38.19,2.45,44,19.89,83.6,51.52,115.71,39.64,40.11,100,44.49,151.73,29.56a3,3,0,0,0,1.66-1.21c86.26,75.1,220.29,75.85,329.13,89.48,90.51,11.37,175.13,12.52,263.53-11.78,41.9-11.44,83.15-24.76,125.26-35.08,24-5.87,47.63-8.12,70.62-13.18a188.6,188.6,0,0,0,67.54-18.82c22.42-11,49.51-32.06,64.6-55.36-1.49,26.76,6.57,54.61,24.42,71a.91.91,0,0,0,1.48-1,195.78,195.78,0,0,1-7.09-19.89C1494.59,1433.87,1529.51,1400.56,1577.63,1374Z"/><path class="cls-7" d="M505.52,423.63c22.91-11.38,49.31-15.2,78.23-16.6,32.22-1.58,67.26-2.75,96.42-18.6a188.06,188.06,0,0,0,31.9-22.26c-43.32-1.65-88.8-2.84-130.5,10.26A178.41,178.41,0,0,0,505.52,423.63Z"/><path class="cls-7" d="M874.37,298.86c-25.47,1.23-46.44-9.15-67-21.44,22.13,19.51,48.61,33.18,79.75,32.19C927.45,308.3,964.66,293.22,995,267c27.44-23.81,51.89-48.38,80.94-65-88.84,25.71-198.78,92.89-249.25,17.29,6.32,28.94,21.79,53.52,51.12,68.58C883.65,290.85,879.72,298.66,874.37,298.86Z"/><path class="cls-8" d="M1896.22,875.45c33.25-41,31.37-92.16,13.16-140-12.23-32-35.62-76.8-71.18-90.1,34.21,4.1,71.65-8.33,82.47-40,.94-2.81-.65-2.3-3.1-.58-3.6,2.52-8.92,7.86-9.34,8.14-18.9,12.65-49.56-3.77-65-14.58-19.43-13.58-34.57-33.9-43.71-55.57-13.44-31.65-17.71-68.1-20.74-102.74,4.1-29.93,4.54-59.43-14.86-84.87-26.55-34.81-58.06-63.81-94.28-88.23-65.78-44.31-153.51-72-233.33-70.13-9-67.81-65-121.09-124.62-155.38-79.92-46-192.87-42.59-282.11-40.36C925.68,3.71,823.25,32.75,728.4,73.76,672.05,98,616.58,123.54,558,142c-29.17,9.21-59.41,17-90.07,18.92-33.73,2.11-52.38-10.76-67-38.08a83.17,83.17,0,0,1-.55-9.81,1.38,1.38,0,0,0-2.75-.12c-1.28,32.56,4.61,59.46,31.49,80,16.83,12.88,40.11,19.13,63.26,20.31-37.79,8.6-75,20-111,31.86-59.18,19.42-116.56,44.87-169.1,78.32-50.56,32.09-95.77,74.23-124.7,127.05-34.52,62.94-19.27,122.08-9.32,188A91.69,91.69,0,0,0,81,662.41c.34,1.52,2.9,1.41,2.8-.26-1.74-39.39,12.66-68.52,33.79-94.64-15.4,28.63-24.13,61.47-27,94.26-3.48,39.15,5.23,78.78,5.69,117.9.33,24.24-3.54,47.58-15.5,68.89-7.31,12.92-18.79,21.76-32.44,27.11-17.06,6.72-30.36,8.61-48.27,7.86,3.61.14,11,6.43,14.48,7.85,19.33,8,41.2,6.28,61.19,2.17,2.31-.46,4.4-1.07,6.52-1.63-12.36,13.91-22.94,29.13-30.27,45.76-21.66,49-2.47,104.27,20.1,149,.83,1.58,2.92.59,2.75-1-.64-4.54-1.61-9.09-2.64-13.6,5.91-32.25,17.15-58,33.06-83.12-16.62,33.4-23.34,70-8.51,108.88,23.75,62.16,71.73,92.24,134.81,102.26,13.41,15.33,26.09,31.13,40.24,46.09a1.4,1.4,0,0,0,.65.3c.28,6.78.5,13.62.47,20.51-.18,20.65-9.07,97.77-51.8,75.47a2,2,0,0,0-2.16,3.45,31.17,31.17,0,0,0,12.65,6.56c.09.11,0,.22.12.32,23.52,24.12,60,1.22,75.94-25.11-4.19,21.27-12.38,40.58-35,52.13a1.08,1.08,0,0,0,.73,2,53.15,53.15,0,0,0,9.2-3.31,1.56,1.56,0,0,0,1.11.63c30.32,2,52.71-13.85,64.27-38.19,2.45,44,19.89,83.6,51.52,115.71,39.64,40.11,100,44.49,151.73,29.56a3,3,0,0,0,1.66-1.21c86.26,75.1,220.29,75.85,329.13,89.48,90.51,11.37,175.13,12.52,263.53-11.78,41.9-11.44,83.15-24.76,125.26-35.08,24-5.87,47.63-8.12,70.62-13.18a188.6,188.6,0,0,0,67.54-18.82c22.42-11,49.51-32.06,64.6-55.36-1.49,26.76,6.57,54.61,24.42,71a.91.91,0,0,0,1.48-1,195.78,195.78,0,0,1-7.09-19.89c2.25-56.47,37.17-89.78,85.29-116.32,35.42-19.52,64.53-41.76,88.42-74.8a151,151,0,0,0,22-45.19c38.87-11.3,70.57-37.75,87.94-74.55,13.81-29.21,18.52-76.21,3.24-107.82,19.35,13.44,43.48,19,70.41,16.28a29,29,0,0,0,3.37.52,2,2,0,0,0,2-1.11c4.71-.68,9.47-1.47,14.36-2.62.91-.25,1.23-1.85.09-2a174,174,0,0,0-22.54-2.15c-44.52-21.69-59.58-58.53-56.72-105.65C1847.77,968.55,1884.18,925.76,1896.22,875.45Zm-115.35,76.29c-5.16,19.88-4.54,41.17-2.19,61.3,3.18,26.91,20.73,52.57,44.6,66a102.7,102.7,0,0,1-19.82-3.94c-30.64-9.67-50.77-35.65-61.31-64.88-.78-2-3.93-1.38-3.37.77,5.94,21.1,15.67,38,28.22,50.49,11.14,38.57,15.77,75.59.8,114.08-13.86,35.54-45.66,56.06-78.12,72.51,16.35-62.58-3.33-134.84-31.61-190.7a1.56,1.56,0,0,0-2.89,1.09c12.88,45.63,29.1,86.23,31.06,134.41,2.48,56.67-25.26,105.51-67,141.8-33.52,29.06-76.81,41-107.39,74.28-14.38,15.59-22.77,33.82-25.28,53.25-2.57-24.67-6.3-45.27,6.88-69.49,1.7-3,5.83-10.69,3.1-8.16-10,9.51-16.8,22.79-20.27,37.46-21.07,22.36-38.08,45.49-64.17,62.77a141.08,141.08,0,0,1-24.11,12.57,1.67,1.67,0,0,0-2.31-1.67c-37.35,14.52-79.14,10.7-118,18.72s-76.82,20.22-115,31.06c-83.13,23.64-162.43,26.32-248,17-124-13.56-290.79-13.72-381.24-113.51-1.37-1.56-3.6.53-2.35,2.18a219.82,219.82,0,0,0,25.51,27.95c-51.88,3.64-96.45,5.37-138.76-30.19-32.76-27.48-51.82-71.63-57.3-113.75a100.35,100.35,0,0,0,5-18.37c.33-2.23-3.26-2.79-3.84-.66-8,28.73-32.78,50.82-61.42,58.05,27.58-18.67,32.1-60.92,28.88-93.18-.24-2.32-4.22-2.49-4.6-.2-1.63,8.81-2.7,17.9-3.8,27-11.77,22.36-42.24,54.47-70,45,14-2.33,25.7-16.82,31.84-32.1,18.2-45.68,12.26-99.8-5.5-144.45-.66-1.75-3.26-.55-2.92,1.15a536.16,536.16,0,0,1,7.9,62.72c-20.61-55.6-80.43-87-117.67-130.24-.51-.61-1.52.13-1.09.76,15.46,26.2,35.15,45.77,56.91,66.81,4.66,4.49,9.08,9.23,13.4,14-20.57-6.64-41.24-12-59.94-23.53-24.78-15.39-42.51-40.75-54.32-66.86-24.68-54.48-1.82-112.1,28.33-158.47a1,1,0,0,0-1.73-1.13c-1.44,1.87-2.92,3.81-4.39,5.69a2,2,0,0,0-2.21-.09c-36.62,24.81-57.4,70.72-60.26,114.56-3.44-11.53-7.58-22.87-10.93-34.41-7.36-25.34-5.57-53.22,1.94-78.28,9.24-30.83,31.71-52.57,55.76-72.61-.25.1-.5.14-.75.25,9.91-7.28,18.51-16.42,27.23-27.67.23-.23-.14-.68-.43-.51-30.23,21.13-64,39.94-100,41.34,19.45-4.83,36.68-17.84,48.31-35,21-30.91,18.07-74.47,15.23-109.66-3.78-45.83-7.46-87.88,5-133,13.38-48.84,43.47-85,83.76-114.09,1.56-1.13-.31-3.4-1.87-2.65a154.57,154.57,0,0,0-40.55,27.41c-32.48,22-62.5,56.72-71.06,95.21-1.64-23.18-4.42-46.13-5.77-69.49-2-35.32,10-70,26.66-100.63,29.34-53.9,80.12-93.13,131.8-124.1C343.91,257.4,483,226.39,607.05,199.23c3.93-.84-9.32-.62-13.48-.42a474.07,474.07,0,0,0-51.9,5,1.38,1.38,0,0,0-.68-.27c-57.93.6-129.85-9.65-139.48-74.4,12.76,26.26,21.06,36.32,55.84,40.95,47.15,6.32,101.34-15.36,144.77-31,48.14-17.36,94.63-39.38,141.52-59.78,54.91-23.89,112.22-41.48,170.87-53.8C1014.72,4.57,1127,5.79,1227.83,24.53c50.77,9.45,92.94,32.45,131.63,66A265.78,265.78,0,0,1,1411,150.36c16.56,26.45,22.07,73.17,21.91,103.42,0,5,3.07-14.92,3.77-19.82a151.55,151.55,0,0,0,.46-30.64c76.17,6.89,145,22.27,212.13,61.5,34.1,19.87,64.22,45.68,90.49,75.06,15,16.89,27.35,34.43,31.59,56.9,2.7,14.25,1.6,29.33,3.1,43.89-1,43.66,5.68,86.92,26,126.27,17.77,34.51,55.93,65.65,95.59,56.21-32.68,21-82.84,21.81-110-5.48a.9.9,0,0,0-1.3,1.24c8.8,11.26,22.54,19.1,37.93,23.42-.28.39-.38,1,.14,1.25,39.41,22.9,63.25,51.53,79.34,94.61,6.79,18.18,10.58,37.53,12.26,56.81,2,23.37-4.93,42.23-14.92,61.45,3.68-32.74-2.42-66.94-19.68-95.46a1.64,1.64,0,0,0-2.9,1.51c17.9,39,23.45,78.66,9.36,119.89-15.13,44.24-52.83,69.21-95.13,82.89.18-1.29.24-2.58.41-3.86,4.9-38.65,28.44-73.73,10.42-112.62-.53-1.2-2.54-.42-2.21.89C1809,886.78,1789.9,916.91,1780.87,951.74Z"/><path class="cls-9" d="M1618.72,1151.08c-9.89-51.88-75.68-93.33-107.37-56.39,2.51-19.32,5.07-38.7,7.77-58,16.59-117.4,41.86-235.38,48-353.93,2.43-47.31-1.64-94.83-9.11-141.64-6.37-39.72-18.08-77.63-48.28-105.53a1.17,1.17,0,0,0-1-.34c-77.28-96.67-185.53-158.16-309.22-174.35C1070.78,244,939.42,278.7,822.71,331.35c-121.92,55-245.11,136-330.84,239.77-44.63,54-73.95,116.56-93.33,183.52C375.19,835.39,386.7,902.72,403,984.22c9.24,45.85,17.88,92.32,26.23,139-29.77-43.92-103.86-8.64-122.23,39.69-33.7,88.47,83.32,197,163.71,205.53,5.25,32.25,10.48,64.43,15.69,96.35a1.91,1.91,0,0,0-.7,1.68c7,107.7,121.15,156.33,197,211.27,53.88,39,103.72,83.56,162.33,115.71,54.87,30.1,120.21,39.27,181.62,28.71,59.93-10.31,108.48-48.31,154.15-86,34.93-28.85,67.43-60.58,101.38-90.57,44.44-39.16,90.53-77.14,128.37-123.12,36.18-43.82,55.27-91.88,66.17-146.71,48.64,13.18,77.66-44.77,95.39-80.39,12.81-25.76,33.58-51.1,43.37-77.75C1623.64,1195.12,1623.25,1174.41,1618.72,1151.08Z"/><path class="cls-10" d="M1478.47,1376.09c3-43.78,8.74-87.32,15.5-130.71,8-51.33,12.85-103.45,21.57-154.68a38.16,38.16,0,0,0-4.19,4c2.51-19.32,5.07-38.7,7.77-58,16.59-117.4,41.86-235.38,48-353.93,2.43-47.31-1.64-94.83-9.11-141.64-6.37-39.72-18.08-77.63-48.28-105.53a1.17,1.17,0,0,0-1-.34c-77.28-96.67-185.53-158.16-309.22-174.35C1070.78,244,939.42,278.7,822.71,331.35c-121.92,55-245.11,136-330.84,239.77-44.63,54-73.95,116.56-93.33,183.52C375.19,835.39,386.7,902.72,403,984.22c9,44.44,17.34,89.48,25.45,134.73,10.14,30.3,11.32,65.41,17,95.25q15.18,79.69,26.2,160c5,30.32,9.86,60.59,14.76,90.6a1.91,1.91,0,0,0-.7,1.68c7,107.7,121.15,156.33,197,211.27,53.88,39,103.72,83.56,162.33,115.71,54.87,30.1,120.21,39.27,181.62,28.71,59.93-10.31,108.48-48.31,154.15-86,34.93-28.85,67.43-60.58,101.38-90.57,44.44-39.16,90.53-77.14,128.37-123.12,36.18-43.82,55.27-91.88,66.17-146.71C1477.27,1375.92,1477.85,1376,1478.47,1376.09Zm-26.13-354.24c-2.54,36-1.19,72.19-2.32,108.29-2.23,70.47-5.32,142.81-18.48,212.23-23.47,123.7-102.66,211.84-193.34,294.15-40.34,36.6-79.67,75.84-123.13,105a6.58,6.58,0,0,1-2.5,2.13c-.71.36-1.43.61-2.15,1-48.89,31.7-103.18,50.18-170.23,37.08-114-22.27-214.89-94.75-299.49-173.68-27.49-22.13-54-45.36-77.25-70.26A183.61,183.61,0,0,1,533.52,1494a279.15,279.15,0,0,1-23.78-58.91,6.28,6.28,0,0,1-3.46-4.52c-13.94-60-22.1-121.1-26.93-182.5-4.93-37.15-10-74.31-15.58-111.37-7.08-46.79-29.21-102-12.79-148.62,1.56-4.43,6.1-6.62,10.42-4.39,16.07,8.27,27.15,24.36,40,37.4.11-80.26,19.31-167.92,93-210.71,49.51-28.77,101.21-27.66,156.07-36,71.17-10.82,136.28-35.16,185.9-89.26,3-3.28,9.26-2.55,11.25,1.54,20.68,42.14,48.84,75.79,85.48,100.82-9.2-83-2.15-168.73,32.31-240.49,22.38-46.68,54.46-68.43,105.06-75.4,32.72-4.5,76.4-3.22,100.71,22.67,33.78-8,75,17.54,97.4,43.24,41,47.22,63.62,107.68,65.88,170.15,3,82.79-19.86,168.22-62.73,241,28.79-8,65.77-21.81,72.75-24.5,3.41-1.32,8.1,1.58,8.71,5.09C1458.51,960.44,1454.54,990.52,1452.34,1021.85Z"/><path class="cls-10" d="M469.57,1358.72c.35-32.09-6-64-16.28-94.3-10.93-31.92-26-66.05-54.83-85.91-32-22.18-37.56,6.55-40.47,21.24-.67,3.83-1.54,7.62-2.54,11.37-1.35,3.68-2.59,7.92-5.66,10.7-29.83,27.57-37.46-29.36-38.52-68.29a77,77,0,0,0-4.32,9.39c-33.44,87.87,81.7,195.45,162,205.3C469.22,1365.1,469.51,1362,469.57,1358.72Z"/><path class="cls-10" d="M1621.79,1180.26c-1.93,8.87-6.5,20.13-17.23,20.25-12.49.21-19-16.87-25-25.57-34.09-49.65-34.32,15.5-58.57,12.37-11.91-1.47-17.66-10.7-18.71-22.21-2-22.6,3.54-52.57,14.85-75.93a36.79,36.79,0,0,0-3.38,3.23c-22.21,63.55-24,134.75-32,201.06-3.39,28.63-4.32,58-6.26,87.2.35-1.66.71-3.24,1.1-4.91,48.64,13.18,77.66-44.77,95.39-80.39,12.81-25.76,33.58-51.1,43.37-77.75A104.53,104.53,0,0,0,1621.79,1180.26Z"/><path class="cls-11" d="M1618.72,1151.08c-9.89-51.88-75.68-93.33-107.37-56.39,2.51-19.32,5.07-38.7,7.77-58,16.59-117.4,41.86-235.38,48-353.93,2.43-47.31-1.64-94.83-9.11-141.64-6.37-39.72-18.08-77.63-48.28-105.53a1.17,1.17,0,0,0-1-.34c-77.28-96.67-185.53-158.16-309.22-174.35C1070.78,244,939.42,278.7,822.71,331.35c-121.92,55-245.11,136-330.84,239.77-44.63,54-73.95,116.56-93.33,183.52C375.19,835.39,386.7,902.72,403,984.22c9.24,45.85,17.88,92.32,26.23,139-29.77-43.92-103.86-8.64-122.23,39.69-33.7,88.47,83.32,197,163.71,205.53,5.25,32.25,10.48,64.43,15.69,96.35a1.91,1.91,0,0,0-.7,1.68c7,107.7,121.15,156.33,197,211.27,53.88,39,103.72,83.56,162.33,115.71,54.87,30.1,120.21,39.27,181.62,28.71,59.93-10.31,108.48-48.31,154.15-86,34.93-28.85,67.43-60.58,101.38-90.57,44.44-39.16,90.53-77.14,128.37-123.12,36.18-43.82,55.27-91.88,66.17-146.71,48.64,13.18,77.66-44.77,95.39-80.39,12.81-25.76,33.58-51.1,43.37-77.75C1623.64,1195.12,1623.25,1174.41,1618.72,1151.08ZM313.19,1195.37c-2.79-32.81,16.89-60.68,44.46-76.15,35-19.71,62.86-1.31,76.45,32.32,0,0,.12,0,.12.09q11.23,63.81,21.78,127.92c-9.78-36.65-30.17-68.32-56.84-96.75-22.08-23.57-35.28,5.81-43.71,25.17-.59,1.13,1.31,2,1.92.92,5.33-9.24,17.56-38.36,33-24.38,12.31,11.14,20,28.48,28.88,42.32,1.08,1.71,2,3.55,3.08,5.28-6.26,2.06-12.46,6.91-17.14,10.7-7.82,6.4-13.44,15.22-17.06,24.62-.88,2.14,2.29,3.43,3.5,1.67a95,95,0,0,1,17.07-19.34,50.6,50.6,0,0,1,10-6.5c2.69-1.45,5.67-2,8.43-3,12.63,22.35,22.52,46.41,31.69,70.21.48,1.2,1.69.87,2.29.09,2.73,16,5.28,32,7.91,47.94C394.47,1340.54,319.89,1275.22,313.19,1195.37ZM1423,1487c-17.54,25.1-35.19,50.13-55.23,72.79-24.35,23.42-51.29,42.74-77.07,64.37-29.36,24.58-57,51.15-85.39,76.77-49.42,44.64-112.65,100.62-182,112.81-25.8-2.48-52.13-1-78-2.67-37.24-2.35-70.41-14-103.27-31.09-50.21-26.12-94.42-63-139.59-96.64-40-29.8-84.05-53.37-123.14-84.46-39.52-31.48-66.81-68.38-83-114.65-11.11-88.51-26.44-166-41.84-255.44-5.09-29.53-10.22-55.26-15.05-78.87,0-.13.18-.24,0-.36-.27-1.54-.61-2.93-1-4.44-5.13-25.18-9.81-47.94-13.67-70.19-7.85-45.79-14-80.83-22.9-126.38-32.77-167.39,39.5-327.67,163.41-439.06,198.48-178.26,519.43-320.51,779.48-196.72,69.47,33.12,126.62,84.67,175.45,143.41a.63.63,0,0,0,.19.07c18,31.5,25.48,68.43,30.48,103.94a661.46,661.46,0,0,1,3.18,155.74c-10.12,107.19-31,213.69-45.5,320.36-4,29.14-7.57,58.39-10.68,87.59-.21.94-.45,1.79-.68,2.76a4.56,4.56,0,0,0,.22,1.48c-2.43,23.11-4.6,46.18-6.27,69.38-3.88,51.77-13.09,109.41-19.71,160.9C1465.44,1404.85,1450.36,1448.09,1423,1487Zm144.27-206.79c-15.5,31.33-41.67,94.8-86.74,82.42a7.38,7.38,0,0,0-1.4,0c2.87-16,5.46-31.25,7.89-46.15a2,2,0,0,0,1.67-1c6.39-12.28,12.3-24.91,18.15-37.52,6.44-2.42,11.92-3.85,19.58-3.15,7.21.64,14.4,1,21.62,1.51,1.88.11,2-2.32.61-3-10.26-4.6-23.86-10-35.68-8.55,3.79-8.37,7.63-16.76,11.54-25.07,4.68-9.84,9.45-19.71,14.33-29.45,10.05-19.81,34.26-19.31,52.5-4,1.67,1.38-6.34-7.58-7.36-9.06-36.44-50.17-76.07,36.27-92.31,87.65,2.74-20.5,5-41.32,6.6-63.9,2.46-34.73,6.14-69.38,10.3-104,13.68-25.81,34.72-37.33,64.81-19,28.4,17.41,41.42,48.26,43.12,80.28C1618.55,1215,1583,1248.49,1567.29,1280.17Z"/><path class="cls-3" d="M1664.72,885c17.74-143.38,6.77-292.47-46.43-427.29C1558.9,307.24,1440,204.29,1290.66,147.84,1145.23,92.94,990.47,111.29,848.39,167c-139.9,54.87-276.14,147.72-368.12,267.41C405,532.65,359.83,657.24,334.12,777.3a2.2,2.2,0,0,0,.35,1.64,321.65,321.65,0,0,0-26.83,150.31c2,33.89,9.8,70.42,30.56,98.09,23.48,31.32,54.23,55.92,77.63,87.36,1.32,1.73,3.83-.31,2.95-2-1.28-2.69-2.66-5.31-4.12-7.87a2.09,2.09,0,0,0,0-1.26c-31.58-83.76-21.33-171.33,18.4-249.9-1.29,41.48,5.77,82.35,23.41,119.8.53,1,2,.38,1.92-.72-.78-5.18-1.56-10.28-2.34-15.41,6.8-78.5,36.94-159.87,109.29-199.7a3.39,3.39,0,0,0,1.38-1.35c38.42,1.21,79.89-12.92,112.17-28.08C788.34,758.21,904.62,693.79,964.12,601q1.9,15.48,5.2,30.64c6.32,28.57,16.36,65.31,36.34,87.55,2.51,2.82,6.89-.5,5.24-3.79-2.27-4.63-4.51-9.42-6.66-14.22a1.51,1.51,0,0,0,.36-1.33c-15.19-101,48.48-188.3,115.91-258.77,28.1-3.29,56-7,84.41-6.48,36.48.74,59.37,14.34,86.44,34.52a3.81,3.81,0,0,0,3.15,4c.14.08.16.22.36.22,5.66.48,11.07,1.22,16.42,2.18a3.2,3.2,0,0,0,2.81,2.56,53.32,53.32,0,0,0,8.48,0c68.51,17.84,106.51,78.66,134.81,143.08a2.36,2.36,0,0,0,.87.92c4.47,44.55,8.91,89.34,4.58,134C1450,890.53,1380,934.74,1384.19,932.82,1439.44,908,1485,861,1515.47,808c-9.5,35.72-15,73.09-17.39,109.33-3,44.86.67,103.83,23.52,143.62a2.67,2.67,0,0,0,3.71.81c1.15,5.44,2.43,11,3.74,16.56a1.71,1.71,0,0,0,3.37-.32c2-30.83-2.9-57.34,5.44-88.27,5-18.74,12.07-36.92,16.69-55.73,4.83,79.12.92,156.77-70.44,210.41a2.3,2.3,0,0,0-.55,1,128.57,128.57,0,0,1-25.91-.3c-2-.2-2.33,2.7-.63,3.34,72.33,27.26,135.89-38.1,170.82-93.8C1661.22,1001.22,1672.49,943.21,1664.72,885Z"/><path class="cls-5" d="M826.69,219.32c6.32,28.94,21.79,53.52,51.12,68.58,5.84,3,13.59,4.73,8.31,4.94-25.5,1.3-58.19-3.13-78.7-15.42,22.13,19.51,48.61,33.18,79.75,32.19C927.45,308.3,964.66,293.22,995,267c27.44-23.81,51.89-48.38,80.94-65C987.1,227.74,877.16,294.92,826.69,219.32Z"/><path class="cls-5" d="M702.5,355.79C659.26,354.15,613.71,353,572,366.06a178.29,178.29,0,0,0-76.07,47.22c23-11.38,49.35-15.22,78.27-16.63,32.23-1.55,67.24-2.77,96.37-18.61A183.19,183.19,0,0,0,702.5,355.79Z"/><path class="cls-5" d="M1645.11,539.72a5.24,5.24,0,0,1-4.37-1.9c-20.85-23.49-46.49-46.18-63.38-73.36,21,111.44,94,211.63,79.13,329.2-.72,5.69-8.22,8.14-11.29,2.59-8-15-16.25-27.4-30-36.11,3.93,49,23.39,95.38,26.81,144.69a296,296,0,0,1-21.63,134.41c-2.41,6-12,5-11.66-2,2.14-54.12,3.31-107.89-11.25-160.53-12.75-46.19-26.8-93.26-29.28-141.37-4.41-82.06-10.51-156.18-54.57-223.89C1532.89,594.72,1525,675,1502,759c-1.79,6.64-12,4.59-11.68-2.09,2.3-56.45,7.8-119-6.69-174.3-11.42-43.82-33-84.32-35.57-130.4-3.63-65.79,28.4-110,77.7-146.1-6.93-7.83-14.15-15.41-21.48-22.88-19.87-6.09-40.19-12-40.75-31.61a17,17,0,0,1,.72-4.77,577.78,577.78,0,0,0-75.06-52.12,209.61,209.61,0,0,1,2.27,47.35c-.39,6.75-10,7.64-11.77,1.08-12.5-48.52-63.48-70.08-110-65.33,59.56,38.33,94.65,101.68,69.28,173.41-1.86,5.33-10.43,5.63-11.54-.47-16.92-100.66-134.44-42.54-185.28-3.47-73,56.1-134.09,149.48-161.66,236.73-2.32,7.41-1.63-11.42-1-19.07,6.33-75,32.44-110.44,66.79-163.82,8.94-13.87,34.39-47.25,66.31-79.65,16.48-16.63,44.08-46.6,67.6-52.39-81.34,20-150.58,68.23-194.82,142.76-50.15,84.53-74.48,181.52-157.16,242.55-6.27,4.63,9-16.28,14.1-22.07C919.22,543.87,903,432.32,958.72,333.83c-20.78,19.77-40.14,40.56-53.29,65.13-27.11,50.61-46,104.86-79.8,151.8-52.9,73.45-95,125.55-186.43,145.17-6.64,1.45-39.76,11.15-33.71,8,89.78-49,156.11-139,188.29-235.46C663.93,541.87,533.38,648,473.14,787.08c-3,6.95,10.4-45.22,13.32-52.46C530.8,625.3,579,564.65,683,504.07a279.47,279.47,0,0,0-127.94,59.85c-45,37.46-65.52,85.18-95.81,133.45-53.16,84.63-138,183.79-117.9,293.31,1.38,7.64-4.51-18.31-6.73-25.61C284.76,800.27,426.39,684.89,492.85,549c-30.67,28.18-66.46,44.88-107.42,56.76-22.34,56-39.07,114.26-51.31,171.54a2.2,2.2,0,0,0,.35,1.64,321.65,321.65,0,0,0-26.83,150.31c2,33.89,9.8,70.42,30.56,98.09,23.48,31.32,54.23,55.92,77.63,87.36,1.32,1.73,3.83-.31,2.95-2-1.28-2.69-2.66-5.31-4.12-7.87a2.09,2.09,0,0,0,0-1.26c-31.58-83.76-21.33-171.33,18.4-249.9-1.29,41.48,5.77,82.35,23.41,119.8.53,1,2,.38,1.92-.72-.78-5.18-1.56-10.28-2.34-15.41,6.8-78.5,36.94-159.87,109.29-199.7a3.39,3.39,0,0,0,1.38-1.35c38.42,1.21,79.89-12.92,112.17-28.08C788.34,758.21,904.62,693.79,964.12,601q1.9,15.48,5.2,30.64c6.32,28.57,16.36,65.31,36.34,87.55,2.51,2.82,6.89-.5,5.24-3.79-2.27-4.63-4.51-9.42-6.66-14.22a1.51,1.51,0,0,0,.36-1.33c-15.19-101,48.48-188.3,115.91-258.77,28.1-3.29,56-7,84.41-6.48,36.48.74,59.37,14.34,86.44,34.52a3.81,3.81,0,0,0,3.15,4c.14.08.16.22.36.22,5.66.48,11.07,1.22,16.42,2.18a3.2,3.2,0,0,0,2.81,2.56,53.32,53.32,0,0,0,8.48,0c68.51,17.84,106.51,78.66,134.81,143.08a2.36,2.36,0,0,0,.87.92c4.47,44.55,8.91,89.34,4.58,134C1450,890.53,1380,934.74,1384.19,932.82,1439.44,908,1485,861,1515.47,808c-9.5,35.72-15,73.09-17.39,109.33-3,44.86.67,103.83,23.52,143.62a2.67,2.67,0,0,0,3.71.81c1.15,5.44,2.43,11,3.74,16.56a1.71,1.71,0,0,0,3.37-.32c2-30.83-2.9-57.34,5.44-88.27,5-18.74,12.07-36.92,16.69-55.73,4.83,79.12.92,156.77-70.44,210.41a2.3,2.3,0,0,0-.55,1,128.57,128.57,0,0,1-25.91-.3c-2-.2-2.33,2.7-.63,3.34,72.33,27.26,135.89-38.1,170.82-93.8,33.38-53.38,44.65-111.39,36.88-169.63C1678.92,770.08,1674.7,651.65,1645.11,539.72Z"/><path class="cls-5" d="M1455.48,605.69c4.06-49.41,13.86-163-55.7-173.65-3-.5-6.14-2.79-5.76-6.22,5.34-46.22,21.84-90,24.61-136-26.59,59.58-52.44,123.82-105.31,163.88-4.37,3.29-9.7.74-10-4.63-2-30-5.24-71.41-27.16-94.75-23.61-25.08-56.52-14.6-82,2.57-50.36,33.91-98.46,85-124,142.48a705.77,705.77,0,0,1,50.4-58.3c28.1-3.29,56-7,84.41-6.48,36.48.74,59.37,14.34,86.44,34.52a3.81,3.81,0,0,0,3.15,4c.14.08.16.22.36.22,5.66.48,11.07,1.22,16.42,2.18a3.2,3.2,0,0,0,2.81,2.56,53.32,53.32,0,0,0,8.48,0c66.31,17.28,104,74.82,132,136.9C1454.9,611.85,1455.18,608.74,1455.48,605.69Z"/><path class="cls-8" d="M1640.71,801.61c-.83-1.79-3.72-.64-3.26,1.22,11.91,44.88,25.82,87.07,21.27,134.26-3.18,33.83-18.09,68.62-33.92,98.11-27.42,51.1-71.58,97.7-128.06,108.38,39.61-24.73,63.23-75.6,69.69-120.09,10.09-69.32-7.37-138.34-14.19-207.19-.2-2.25-3.93-1.8-4,.39-.46,29.48,2.23,60.43,4.58,91.54-.1.19-.35.31-.47.54-11.07,28.38-21.7,57.49-28.92,87-4,16.09-3.7,31.28-1.56,46.47-10.26-40.65-13.71-82.51-11.88-124.52,2.06-46.34,14.65-91.16,19.6-137,1-2.32,2.12-4.59,3.2-6.92,30.67-70.78,29.8-141.44-2.92-211.14-.38-1-1.77-.21-1.4.72,28.41,71.18,22.55,146.11-9.75,214.77-14.36,30.46-34.61,58.11-56.37,83.62-11.09,13-23.75,23.83-37,33.76,73.12-95,48.91-225.85,35.38-338.13-4.38-36-12.44-94.86-45.86-116.26-21.37-13.72-50.23-7.68-76.45,3,56.63-35.51,92.62-109.22,96.24-173.33a1.36,1.36,0,0,0-2.65-.45c-23.94,70.85-55.59,137.41-117.91,183.12a1.11,1.11,0,0,0-.11,1.86c-4.32,2.21-8.44,4.38-12.26,6.5,11.38-37.61,12.23-112-28.69-130-35.52-15.58-83.5,27.63-107.83,47.57-90,73.82-186.06,184.3-166.85,307.68-21.06-52.38-31-110-18.73-165.39,13.27-59.51,50.31-110.65,80.06-162.7a1.36,1.36,0,0,0-2.29-1.48c-38.49,54.09-79.19,111.14-91.81,177.65A204.7,204.7,0,0,0,962.88,588c-59.15,93.6-169,150.16-279,136.69a5.21,5.21,0,0,0,.25-1.91c48.29-6.53,88.89-38.12,124.07-75.92,52.07-56.06,88.11-128.6,96.34-205.08.25-2.36-3.22-2.84-4-.65-12.83,38.69-22.17,78.24-41.21,114.67-14.44,27.52-32.8,53.08-52.84,76.69-30.83,36.21-76.68,75.62-126.38,86.44a7.18,7.18,0,0,0-1,.05c-.74.2-1.53.48-2.31.69a127.21,127.21,0,0,1-12.83,1.8c-2.62-.48-5.07-.78-7.55-1.37a.52.52,0,1,0-.33,1c.61.24,1.22.35,1.86.61a111.64,111.64,0,0,1-18.23-.74c-.41-.05-.61.76-.11.84a146.64,146.64,0,0,0,21.87,2.29c-44.95,13.85-93.34,33.92-138.86,17.45,35.07-3.43,66.41-32.09,92.41-54.4,45.17-38.79,83-91.84,112-143.46a2.65,2.65,0,0,0-4.48-2.82c-30.3,40.2-57.72,81.34-92.65,118-29.35,31-82.21,84-128.64,80.12-.78,0-1,1.17-.21,1.34a63,63,0,0,0,13,1.47c12,7.31,25.18,11.47,39,13.35C491.94,787,454,867.75,452.9,936.77c-4.51-30.28-8.32-60.26-6.72-91.76,2.18-41.12,12.52-81.26,28-119.28,33.53-82.48,97.85-147.1,169.63-197.3,1.78-1.2.49-3.86-1.45-2.93-107.85,51.18-195.77,179.94-208.06,307-45.41,69.16-66.59,173.3-33.1,251.82-10.3-13.6-22.09-26-33.47-38.74-26.2-29.16-40-60-46.41-98.54-14.81-88.7,17.26-167.31,62.67-241.39.75-1.15-.92-2.74-1.91-1.63-54,61.78-79.3,144-74.42,225.21,2,33.89,9.8,70.42,30.56,98.09,23.48,31.32,54.23,55.92,77.63,87.36,1.32,1.73,3.83-.31,2.95-2-1.28-2.69-2.66-5.31-4.12-7.87a2.09,2.09,0,0,0,0-1.26c-31.58-83.76-21.33-171.33,18.4-249.9-1.29,41.48,5.77,82.35,23.41,119.8.53,1,2,.38,1.92-.72-.78-5.18-1.56-10.28-2.34-15.41,6.8-78.5,36.94-159.87,109.29-199.7a3.39,3.39,0,0,0,1.38-1.35c38.42,1.21,79.89-12.92,112.17-28.08C788.34,758.21,904.62,693.79,964.12,601q1.9,15.48,5.2,30.64c6.32,28.57,16.36,65.31,36.34,87.55,2.51,2.82,6.89-.5,5.24-3.79-2.27-4.63-4.51-9.42-6.66-14.22a1.51,1.51,0,0,0,.36-1.33c-15.19-101,48.48-188.3,115.91-258.77,28.1-3.29,56-7,84.41-6.48,36.48.74,59.37,14.34,86.44,34.52a3.81,3.81,0,0,0,3.15,4c.14.08.16.22.36.22,5.66.48,11.07,1.22,16.42,2.18a3.2,3.2,0,0,0,2.81,2.56,53.32,53.32,0,0,0,8.48,0c68.51,17.84,106.51,78.66,134.81,143.08a2.36,2.36,0,0,0,.87.92c4.47,44.55,8.91,89.34,4.58,134C1450,890.53,1380,934.74,1384.19,932.82,1439.44,908,1485,861,1515.47,808c-9.5,35.72-15,73.09-17.39,109.33-3,44.86.67,103.83,23.52,143.62a2.67,2.67,0,0,0,3.71.81c1.15,5.44,2.43,11,3.74,16.56a1.71,1.71,0,0,0,3.37-.32c2-30.83-2.9-57.34,5.44-88.27,5-18.74,12.07-36.92,16.69-55.73,4.83,79.12.92,156.77-70.44,210.41a2.3,2.3,0,0,0-.55,1,128.57,128.57,0,0,1-25.91-.3c-2-.2-2.33,2.7-.63,3.34,72.33,27.26,135.89-38.1,170.82-93.8C1677.22,975.7,1678.43,886.46,1640.71,801.61Zm-351-349.67c4.57-37.7-26.36-74.76-57.21-91.85-1-.54-1.93.84-1,1.48a124.41,124.41,0,0,1,37.64,43.32c6.11,11.59,8,23.69,9.6,36.07a67.82,67.82,0,0,0-9.63-6,4.5,4.5,0,0,0-.48-1.42c-16.11-28.44-42.39-51.32-76.4-50.56a1.68,1.68,0,0,0-.14,3.36c28.9,2.21,48.72,20.09,63.81,42.88a129.37,129.37,0,0,0-27.6-5.78c-16.47-14.68-38.68-18.8-61-17.91-2.55.1-2.8,4-.16,4.12,17.78.51,34.44,3.71,48.29,12.84-30.19-1.23-62.55,4-87.42,10.72,6.14-6.27,12.27-12.46,18.32-18.43,28.23-27.79,60.79-59,99.6-70.56,55.65-16.71,48.21,72.37,47,111.89A49.31,49.31,0,0,0,1289.74,451.94Zm111.51,55.19A124,124,0,0,1,1432,528.85a1.75,1.75,0,0,0,2.57-2.36c-14.16-18.24-34.76-32.65-57.54-38.39a136.35,136.35,0,0,0-28.78-14.5,127,127,0,0,1,14.69-2.33c24.31-2,43.72,2.58,60.85,20.53.48.45,1.31.06,1.1-.56-11.9-35.09-74.49-41.14-105.47-23.58a86.58,86.58,0,0,0-9.79-.17c38.62-17.19,90.62-46,119.89-3.52,21.74,31.57,21,87.49,25.12,124.82C1444.73,559.62,1425.49,529.88,1401.25,507.13Z"/><path class="cls-8" d="M270,1013.82c-30.53,27.35-87.21,38.8-122.63,12.88,53,19.06,112.49-43.1,96.45-96.81a2.56,2.56,0,0,0-5,.46c-3,27.92-6.94,49.32-26.72,70.55-18.74,20.08-44.14,27.72-70.59,20.88a51.89,51.89,0,0,1-5.26-5.23,1.3,1.3,0,0,0-2.07,1.54c25.82,54.27,107.75,34.39,137.71-2.71C272.69,1014.29,270.93,1013,270,1013.82Z"/><path class="cls-8" d="M368.48,569.7c-75.74.6-142.16,38.2-180.35,103.75-32,55-31.15,126.09,9,176.23a54.07,54.07,0,0,0,10.76,12.86c1.06.92,3.2-.19,2.28-1.67-22.65-33.7-4.46-76.52,13.05-108.85,19.79-36.46,49-56.38,85.3-74.81,2.56-1.28,1.06-5.64-1.79-4.73-46.38,14.42-78.49,43.54-100.79,86-9.36,17.63-17.27,40.52-16.78,61.87-15.73-49.06-13.13-98.68,14.38-146.6,35-60.92,98.73-89.75,165.27-100.14C371,573.24,370.61,569.69,368.48,569.7Z"/><path class="cls-8" d="M344.94,532.72c-22.05,17.15-42.26,28.06-71.18,27-15.43-.57-30.41-5.48-44.84-11.86,13.89-.78,28.31-5.47,41.41-12,40.88-20.09,62.89-55.89,68.78-100.13.33-2.42-3.48-3-4.19-.72-11,35.84-25.49,61.66-56.35,83.15-22.76,15.83-50.65,25.2-75.72,16.72-3.31-1.75-6.61-3.51-9.83-5.24a1.14,1.14,0,0,0-1.22.17,62.3,62.3,0,0,1-9.18-6.55c-.94-.78-2.84.17-2,1.43,8.62,12.65,19.74,19.36,31.84,22,44.26,28.12,98,34.17,134.8-12.09C348.33,533.21,346.21,531.8,344.94,532.72Z"/><path class="cls-8" d="M662.13,330.15C586,300.66,507.69,380.25,479,442.07c-.64,1.56,1.7,2.48,2.54,1.19,4.9-7.21,10-14.34,15.3-21.21,33.48-30.54,82.84-43.25,127-34.81,1.84.34,3.3-2.07,1.5-3.26-29.66-18.12-72.47-10.76-104.22,9.23,36.29-38.61,81.3-65.62,140.24-59C663.85,334.52,664.24,331,662.13,330.15Z"/><path class="cls-8" d="M1227.27,208.33c-26.91-67.36-104.47-90.78-168.09-67.64-36.22,13.18-68,35.36-100.07,56.08-42.31,27.31-109.52,58-136.82-4.6-.68-1.57-3.14-.93-3.17.71A37.39,37.39,0,0,0,821,204.23v.07c16.59,70.86,84.54,97.56,149.41,67.48,2.26-1,.87-4.86-1.56-4.12-51.45,16.6-109.74,2.87-136.29-44,8.24,8.67,19.33,14.83,30.67,16.06,39.56,4.43,75.21-17.95,106.57-39.67,35.79-24.84,74.2-46.91,117-56.93,58.41-13.61,103.92,24.35,136.77,67.8C1225.27,213.16,1228.12,210.57,1227.27,208.33Z"/><path class="cls-8" d="M1751,574.48c-3.08,1.09-6.29,2.09-9.41,3-66.51,4.2-71-61.08-90.47-109.35-15.33-37.66-39.27-75.9-79.21-90.09-1.25-.44-1.93,1.28-.94,2,51.5,37.28,67.08,85.61,87.45,143.09,10.25,29.08,26,55.46,52.12,61.3-46.29,6.79-89.2-4.81-112.94-55.33-.64-1.48-3.23-.56-2.7,1,22.27,63.18,87.66,80.81,142.41,53.47,2-.5,4.07-1,6.19-1.76a2.44,2.44,0,0,0,1.56-2.51c2.15-1.29,4.28-2.46,6.35-3.86C1751.85,575.16,1751.69,574.31,1751,574.48Z"/><path class="cls-8" d="M1618.08,600.46c-1.16-.92-2.54.89-1.59,1.92,60.31,63,54.13,143.2,45.73,223.45-.18,2.22,3,2.63,3.75.66C1692.42,751.26,1686.08,651.39,1618.08,600.46Z"/><path class="cls-4" d="M680.53,193c-61.67,7-122.21,23.16-182,38.93-54.78,14.39-109.13,28.15-162.06,48.43-95.61,36.74-177.3,97.45-230.93,185.81a2,2,0,0,0,3.36,2.18c60.57-81.48,144.06-132.62,237.46-169.43,50.9-20,103.67-35.51,155.32-53.35,59.14-20.4,118.22-37.23,179.9-48.07C684.49,197,683.39,192.72,680.53,193Z"/><path class="cls-4" d="M462.23,304.82c-44.15,17.7-77.73,40.47-97.3,85.1-20.66,46.8-26.29,98.44-69.44,131.85-1.35,1.06.36,3.39,1.71,2.42,32-21.57,50.35-49.64,66.11-84.4,9.76-21.36,18.13-43.35,30.13-63.56,17-28.51,43.49-49.92,70.25-68.77A1.51,1.51,0,0,0,462.23,304.82Z"/><path class="cls-4" d="M461.63,342.78c-66.57,34-45.7,108.67-82,162.74-1,1.45,1.22,3.33,2.42,2,42.45-47.19,35.28-115.21,83.81-158.69C469,345.9,465.37,340.9,461.63,342.78Z"/><path class="cls-4" d="M820.68,182.89c-84.28,29.85-172.72,44.77-260,62.91-76.72,15.92-155.25,37.71-219,84.65-.89.63.15,2.07,1,1.49,72.95-46.33,156.83-59.72,240.62-73.51,82.62-13.57,164.07-32.19,238.84-71.57C824.27,185.79,823,182.08,820.68,182.89Z"/><path class="cls-4" d="M1299.83,92.71C1208,7.58,1082.26,9.79,965.69,30.8,830.57,55.22,705,116,576,160.67c-2.85,1-2,5.7,1.13,4.72C694.41,130,808.85,85.47,928.51,57.59,1049.32,29.41,1192.08,17.92,1296.28,97,1298.8,98.85,1302.2,94.86,1299.83,92.71Z"/><path class="cls-4" d="M1064.2,150.89C1005.29,177.83,965.27,247.76,894,244c-1.71-.07-1.7,2.32-.09,2.6,51.41,8.95,91.93-23.8,131.94-51.16,22.76-15.57,44.77-31.14,72.17-37.29,46.33-10.5,87.39,21,110.78,57.82,1.42,2.33,5.75,1.17,4.71-1.74C1190.55,148.69,1126.56,122.39,1064.2,150.89Z"/><path class="cls-4" d="M632.19,482c-40.43,5.13-77.36,23.5-107.11,51.12-37.1,34.49-55.8,82-84.61,122.74-29.94,42.54-64.24,82.23-84.52,130.92a359.29,359.29,0,0,0-27.58,146.53.35.35,0,0,0,.7,0c6-50.13,15.45-95.9,39.7-140.49,23-42,52.86-79.68,82-117.37C479,639,495.76,596,525.6,560.57c29.06-34.62,68.29-55,108.52-73.51C637.14,485.67,635.09,481.6,632.19,482Z"/><path class="cls-4" d="M789.41,431.45c-54.43,40.83-115,73.06-167.78,116.1-47.33,38.44-85,86.93-108.8,143-.44.95,1.09,1.67,1.7.78,62-112,183.84-175.17,277.25-257.34C793.51,432.48,791.14,430.11,789.41,431.45Z"/><path class="cls-4" d="M803.77,364.34c1.78-1.52-.27-4.51-2.29-3.33-35.77,20.7-68,44.88-106.65,60.38-41,16.36-83.93,26.16-125.27,41.34C539.17,473.88,511.8,489.6,487.49,511c-30.32,26.65-52.83,59.51-92.62,73.31-1.76.62-1.22,3.4.69,2.93,30.09-7.81,53.69-24.82,76.91-44.85,34.31-29.72,66.84-52.63,110.3-67.71,39.58-13.8,80.92-22.16,118.41-41.19Z"/><path class="cls-4" d="M939,324.38c-46.89,32.41-64.43,89.9-85.63,140.08-30,71.16-83,131.44-142.56,179.6-3.45,2.81,1.12,7.63,4.6,5,54.55-40.82,102-88.17,135.56-147.84,32.45-57.7,45.67-122.17,90.83-172.9C943.49,326.42,941.41,322.68,939,324.38Z"/><path class="cls-4" d="M1125.72,234.13c-37,10.17-74,24.27-103,50-30,26.64-52.17,63.55-69.09,99.48C937,419.24,923.41,456,910.89,493.15c-14.31,42.36-26.93,85.75-58.4,119a1.63,1.63,0,0,0,2.22,2.38C906,570.8,922.35,502.6,946.5,442.49c36.81-91.39,88.17-164,181.15-203.24C1130.57,238,1128.7,233.29,1125.72,234.13Z"/><path class="cls-4" d="M1300.53,229c-34.15-13.59-76.2,5-105.62,21.46-81.05,45.49-139.54,132.28-181.55,212.6-1.4,2.63,2.34,5.08,3.93,2.54,40.31-65.2,88.11-124.27,147.09-173.41,26.9-22.3,60-39.83,94.17-47,47.73-10,68.68,23.07,88.7,58.88,1.45,2.7,5.86,1.19,5.1-1.93C1343.9,268.91,1334,242.38,1300.53,229Z"/><path class="cls-4" d="M1532.59,602.51c-1.47-65.19-23.84-122.81-79.67-158.49-2.73-1.71-5,2.19-2.65,4.13,48.17,39.28,62.23,110.15,62.07,169-.24,70.37-24.31,133.54-52.67,196.8-1.26,2.69,3,4.47,4.53,2.09C1507.51,749.87,1534.53,682.27,1532.59,602.51Z"/><path class="cls-4" d="M1596.25,760c-1.67-2.3-5.35.46-4,2.89,52.1,92,49.9,222.2-6.06,311-2,3.25,2.58,7.39,5.24,4.42C1670.9,992.66,1661.48,850,1596.25,760Z"/><path class="cls-4" d="M1589.91,598.48a1.6,1.6,0,0,0-2,2.43c43.73,46.09,47.9,102.6,51.16,162.59a3.21,3.21,0,0,0,6.41.28C1653.16,701.62,1644,636.56,1589.91,598.48Z"/><path class="cls-4" d="M1688.1,574.26c-33.48-11.71-38.71-48.78-46.94-79.25-6.13-22.83-13.6-43.72-27.33-63.15-23.82-33.87-59.39-55.54-101.08-53.68-1.64.05-2.36,2.62-.61,3,59.28,12.67,96.41,62.07,111.92,117.8,8.74,31.66,21.55,82.07,63,80.67C1690.19,579.58,1691.2,575.34,1688.1,574.26Z"/><path class="cls-12" d="M882.93,1356.13c-4.83-.78-9.65-1.32-14.47-1.82,21.48,21.68,34.58,53.74,63.47,66.27,54.38,23.6,72.69-37.49,91.59-74-24.76,6.55-62,15.14-87.54,16.13C912.91,1363.64,905.4,1359.89,882.93,1356.13Z"/><path class="cls-13" d="M979.13,1376.26c16.84-7,31-17.77,44.31-29.5,0-.08,0-.11.08-.16-24.76,6.55-62,15.14-87.54,16.13-23.07.91-30.58-2.84-53.05-6.6-4.83-.78-9.65-1.32-14.47-1.82,2.77,2.79,5.44,5.8,8,8.85C908.75,1378.51,945,1390.51,979.13,1376.26Z"/><path class="cls-14" d="M928.77,1369.39c29.15-2.3,55.87-9.46,83.21-17.38l.7-.86c2-2.56-49.73,6.82-73.63,11-22.22,3.89-44.46-6.93-66.66-8.7,2.63-52.23,18.05-185.7,21.73-220,0,.08-.11.19-.14.27-9.16,20.31-10.81,40-14.1,61.64-2.65,17.25-19.83,133.35-24.11,152.77-2,9.22,14.33,13.42,15.6,12.87,32.93,21.92,41.45,25.22,67.72,25.93,21.53.62,36.78,3.67,60.92-21.22-13.45,8.48-21.85,18-70.54,13.57-3.91-.36-32.74-8.84-32.44-11.64C897.3,1365.48,925.75,1369.59,928.77,1369.39Z"/><path class="cls-15" d="M899.62,1131.67c-7.49,67.76-28.93,144.2-17.42,212.12,1.53,9.11,31.82,13.76,31.25,4.25-4.4-68.24-10.22-147.72-9.55-216.1C903.93,1129.7,899.83,1129.43,899.62,1131.67Z"/><path class="cls-12" d="M1372.23,972.2c-40.45-49.27-79.72-41.88-141.94-40.27-34.71.92-71.79,8-105.48,16.36-14.76,3.69-29.22,7.56-43.1,13.87-9.25,4.22-20-36-18.75-40.71.76-2.72-3.42-1.37-4.32-.43-13.11,14.37-15.68,30.26-10.16,47.56,8.28,26,53.86,3.85,67.41,0,44.55-12.58,95.65-20.39,141.77-16.78,48.8,3.82,83.17,37.62,125,58.07C1385.77,1011.42,1375.39,976,1372.23,972.2Z"/><path class="cls-16" d="M1351.19,933.82c-10.17-11.9-25-26.42-35-31.66-12.37-8.06-53-13.17-98.32-13.79-8.14.74-16.3,1.32-24.42,2.29-30.85,3.71-63.17,6.83-92.92,16.22-12,3.78-23.69,8.7-35.83,11.88-1.07,9.24-2.27,27.83-2.19,32.22a15,15,0,0,1-1.15-1.71c-2-3.57-4.21-8.36-7.06-11.72a72.31,72.31,0,0,0,2.39,23.43c5.45,5.33,11.11,11.18,17.65,15.22,63.35-25,131.58-43.92,201.35-27.08,41,9.89,71.91,21.93,98.12,49.61,1.1-.76,2.23-1.35,3.31-2.08C1378.36,977.2,1362.86,951.84,1351.19,933.82Z"/><g class="cls-17"><path class="cls-16" d="M1377.19,995.12c-51.29-56.14-122-84.8-195.22-71.88-37.37,6.62-71.36,21.76-107.49,33.23a26.28,26.28,0,0,1-19.16-1.31,51.92,51.92,0,0,0,1.47,5.87c5.4,5.3,11.06,11.16,17.58,15.17,63.35-25,131.58-43.92,201.35-27.08,41,9.89,71.91,21.93,98.12,49.61,1.1-.76,2.22-1.4,3.31-2.08C1377.18,996.14,1377.18,995.63,1377.19,995.12Z"/></g><path class="cls-13" d="M1012.7,943.72c1.1-19,15.45-36,22.67-53.5-16.29,16.24-34.62,39.69-38,63.35-3.06,21.65,11.81,32.68,27,45.18,0,.06.16,0,.21.06C1018.36,980.84,1011.59,963.38,1012.7,943.72Z"/><path class="cls-13" d="M977.46,962.38c-1.67-1.2-5.1,1.72-3.3,3.34,7.39,6.74,8.82,16.27,14.44,24.1,2,2.74,7.6-.9,6.83-3.86C992.9,976.23,985.39,968.12,977.46,962.38Z"/><path class="cls-12" d="M1332.13,1090.86c-5.52-17.5-3.63-24.53-18.61-40.75-12.36-13.41-27.38-18-48.14-21.72-58.24-10.29-112.08,4.64-154.11,33.65-17.35,16.25-29.1,36.78-37,59.49a45,45,0,0,0-5.6,10.67c40,13.76,84.67,16.06,128.72,13.8,31.86-1.64,54.45-4.63,84.09-14,34.91-11,52.35-25.65,70.41-33.38C1341.25,1096.15,1333.29,1094.54,1332.13,1090.86Zm-13.45,3.85c-1.41,4.3-12,11.32-14.09,14.62a4,4,0,0,0-.43,1c-31.64,14.55-103.75,20.76-117.89,21.35-22.92,1-46-.39-68.81-2.25-22.18-1.81-29.72-4.31-27.9-21.12,22-31.72,45.08-57.31,96.6-65.85,28.61-4.77,60.06-6.07,87.89,1.69,21.39,6,37.37,24.63,47.58,42.92-2.06,1.81-3.51,4.13-3,6A8.5,8.5,0,0,1,1318.68,1094.71Z"/><path class="cls-18" d="M1301.83,1050.15c-18.7-18.28-50.46-20.9-79.32-19.09-8.62.54-17.06,1.53-25.33,2.8-36.09,5.6-77.76,22.43-95.72,46.49-9.91,13.3-15.81,28.06-24.1,41.91-.89,1.52,4.3-1.64,5.16-2.69.14,2.91,1.69,5.58,5.68,7.7.34.17.71.37,1.09.52,13.75,3.55,87.31,11,109.2,10,35.31-1.6,99.3-9.46,126.77-44.35C1322.21,1080.35,1312,1060.09,1301.83,1050.15Z"/><path class="cls-19" d="M1185.76,1132.23c-22.42-.4-47.26-.78-69-5-3.66-.7-20.23-4.93-24-7.67-9.51-6.82,20.93-44.73,27.48-50.55,29.88-20.36,82.1-32.37,120.12-31.88,48.12.66,60.13,26.19,73.62,53.7C1296.06,1125.79,1227.74,1133,1185.76,1132.23Z"/><g class="cls-20"><path class="cls-21" d="M1207.46,1100.61c0,37.66-23.09,68.18-51.57,68.16s-51.49-30.54-51.48-68.2,23.07-68.16,51.52-68.16S1207.47,1063,1207.46,1100.61Z"/><path class="cls-22" d="M1155.93,1037.12c-26,0-47.12,27.91-47.14,62.35s21.07,62.4,47.1,62.4,47.16-27.91,47.18-62.36S1182,1037.13,1155.93,1037.12Z"/><path class="cls-23" d="M1187.85,1096.85c0,23.74-14.54,43-32.54,43s-32.49-19.25-32.48-43,14.59-43,32.51-43S1187.85,1073.1,1187.85,1096.85Z"/><path class="cls-24" d="M1143,1071.5c-2.36,10.56-9.57,18-16.1,16.53s-10-11.18-7.6-21.77,9.52-18,16.07-16.58S1145.34,1060.91,1143,1071.5Z"/><path class="cls-25" d="M1181.62,1131.18c-30.82,33.06-61.07,7.38-62.53-31.09,0-1-6.9,5.14-6.82,5.89,1.41,21.24,10,40.44,30.43,49.27,17.58,7.62,33.57-3.54,43.25-17.14C1186.73,1137,1182.43,1130.32,1181.62,1131.18Z"/><path class="cls-25" d="M1192.37,1079.13s5.58,24.64-6.61,46l4.56,2.72S1205.74,1108.21,1192.37,1079.13Z"/></g><path class="cls-16" d="M850.69,936.31C809.64,919.89,778.37,895,744.3,867.44c-27.89-22.51-57.5-41.61-94.09-43.52-44.05-2.29-85.91,35.1-106.28,74.55-4.56,5.14-8.69,10.53-11.41,17.55a2.54,2.54,0,0,0,.81,3.17c18.47-18,43.84-28.21,66.57-40,11.55-6,26.22-14,40.1-14.83l9-3c28.41,8.55,55.91,44.07,74.9,61.54,7.09,6.51,14.31,13.73,21.92,20.51,10,12.84,20.59,25.2,33.52,31.62,31,15.33,60.25,2.93,73.92-28.11C854.84,943.37,855,938,850.69,936.31Z"/><path class="cls-26" d="M797.77,958.77c-24.61-5-50.16-42.79-66.74-59.51C695.06,863,657.6,831.82,606.39,861,579,876.62,555.79,897.2,533,918.76c.12.13.15.32.31.43,18.47-18,43.84-28.21,66.57-40,11.55-6,26.22-14,40.1-14.83l9-3c28.41,8.55,55.91,44.07,74.9,61.54,7.09,6.51,14.31,13.73,21.92,20.51,10,12.84,20.59,25.2,33.52,31.62,31,15.33,60.25,2.93,73.92-28.11a13,13,0,0,0,.88-3.18C836.22,953.27,819,963.11,797.77,958.77Z"/><path class="cls-13" d="M889.39,941.05c-.36-1.47-2.49.39-2.64,1.15-3.12,16.47-18.31,25.8-23.82,40.91-.58,1.56-1.26,4.3.42,5.57a5.94,5.94,0,0,0,1.1.72,6.45,6.45,0,0,0,6-1.17C883,978.3,893.45,957.29,889.39,941.05Z"/><path class="cls-13" d="M903.44,975.43c-6.25,11.71-16.78,18.51-25.69,27.74-1.45,1.48-2.18,5.36,1.11,4.7,7-1.38,12.79-7.58,17.32-12.7,5.15-5.78,9.63-12.31,11.22-20C908,972.19,904.17,974.05,903.44,975.43Z"/><path class="cls-13" d="M844.57,947.56c-10.82,9.62-16.65,34.51-38.14,25.6-18.28-7.59-33.5-23.52-47.5-37.1-25.22-24.44-47-56.26-77.61-74.38-26.88-15.91-49.28-11.49-76.6,1.55-25.52,12.2-44.07,42.35-69.38,51.86-1.13.42-3,3.68-.72,3.67,24.56-.22,50.34-27.46,71.28-38,59.44-29.82,99,35.73,135.77,72.48,18.7,18.67,49.3,50.84,78.67,42.6,17.44-4.9,35.52-29.64,35-47.46C855.16,942,847.22,945.19,844.57,947.56Z"/><path class="cls-12" d="M1246.3,1459.23c-6.08-22.51-16.45-43.89-32.91-59.75-31-29.82-83.69-20.09-122.39-14.36a22.64,22.64,0,0,0-6.75,5.37c24,3.42,71.09,10.61,69.09,11.12-.76.19-2.34.65-3.93,1.11.22.21,5.12,1.94,7.25,2.75-29.2,7-57.49,16.82-87.39,21.9-37.46,6.37-75.24,10.73-112.92,15.28-42.53,5.12-84.89,10.65-127.72,12.66-7.81.38-24.34,2.75-40.67,3-18.37,2-36.56,2.56-53.37.21-4.77-.67-5.89-6.46-4.23-10.07.82-1.84,1.76-3.51,2.62-5.28-4.23,1.69-8.36,3.54-12.38,5.61-1.08.57-2.64,1.34-4.31,2.21a78.73,78.73,0,0,0-14.35,30.52c13.73,7.46,26.95,14,39.61,21.71,1.13.65,2.27,1.34,3.37,2a161.89,161.89,0,0,1,31.74,25.54c2.44,2.57,4.76,5.24,7.15,7.84,7.36,6.78,14.58,13.69,21.5,21,22.81,24,39.38,54,72.8,63.61,29.83,8.59,70.09-3.67,99.68-8.3,33.13-5.17,68.27-8.8,99.87-20.36,20.68-7.55,36.83-26.39,47.12-45.07,8.87-16.1,16.75-32.67,24.94-49.11,2.72-5.47,5.48-10.94,8.22-16.41,1.12-2.52,2.25-5.06,3.38-7.49,6.71-14.52,14.78-32.68,29.37-41,12.84-7.3,21.19,4.69,27.45,15.33l.65-.94c.75,1.88,1.47,3.82,2.18,5.75.76,1.31,1.51,2.57,2.21,3.65,4.58,7,7.52,14.93,10.82,22.62,1.9,4.43,5,16.38,9,21.58A150.51,150.51,0,0,0,1246.3,1459.23Z"/><path class="cls-10" d="M1024.69,1647.37c-23.2,8.58-46.65,15-70.66,16.94-19.12,3.18-38.69,3.34-59.14-2.21a4.78,4.78,0,0,1-.64-.32,120.32,120.32,0,0,0,28.66,28.41,192.23,192.23,0,0,0,29.47,6.11c20.64,2.65,38.45-4.8,53.68-16.76C1012.66,1669,1019,1658.36,1024.69,1647.37Z"/><path class="cls-11" d="M1219.79,1417.4c-1.43-3.58-2.87-7-4.21-10.48-7.78-8.49-16.92-13.82-28.46-11.33-4.88,1.05-13.51,3.92-22.32,5.75,5.87,3.78,16.92,6.62,19.61,7.43.84.24,1.71.58,2.57.85a237.54,237.54,0,0,1-32.09,12.52,1020.87,1020.87,0,0,1-117.23,22.45c-73.46,9.86-153.12,22.55-229.84,23.28-26.16,2.15-52.51,1.62-77.44-3.37-5.82-1.16-8.7-9.31-4.17-13.55l6.79-6.33a50.61,50.61,0,0,0-20.61,11.18c-5.64,7.1-8.56,15.68-9.41,24.76a14,14,0,0,1,4-2c55.23,3.07,105.49,78.4,135.58,116.69,21.11,26.83,57.41,20.07,92.6,13.91,58.66-7,110.13-15.42,130.48-23.53,15.76-4.92,26.32-6.79,34.2-19.29,31.48-50.09,38.93-111.95,90.28-145.66a92.36,92.36,0,0,0,10.13-5,22.06,22.06,0,0,1,7.19,7.32c5.11,9.22,6.41,18.77,17.38,22.85.16,0,.31,0,.46,0C1222.74,1436.59,1223.48,1426.62,1219.79,1417.4Z"/><path class="cls-27" d="M1130.17,1480.32c-9.84,19-17.44,39.17-25.86,58.8-10.75,25.06-28.27,35.71-48.69,41.51-26.88,2.54-53.74,7.81-80.25,12-34.27,5.42-74.74,18.49-109.15,7.37-22.28-14.7-36.39-44.16-53.5-66.2-16.11-20.77-38.32-45.16-64.07-56.19,71.85-1.25,140.38-7.89,165.46-10.94,72.3-8.78,142.56-17.4,214.1-31.68,11.8-2.35,26.68-4.45,41.22-7.9C1153,1441,1140.91,1459.52,1130.17,1480.32Z"/><path class="cls-19" d="M1087.49,1471.4c-24.7,6.13-49.68,9.43-74.76,13.79-58.53,10.17-116.85,21.29-175.85,28.1-2.48,19.11,2.22,37.51,4.62,56.76.25,2,.51,4,.75,6,7.14,9.43,14.86,17.94,24,24,34.41,11.12,74.88-2,109.15-7.37,26.51-4.2,53.37-9.47,80.25-12,20.42-5.8,37.94-16.45,48.69-41.51,4.63-10.79,9-21.73,13.67-32.53C1112.34,1485.3,1103.12,1467.53,1087.49,1471.4Z"/><path class="cls-28" d="M1087.49,1471.4c-24.7,6.13-49.68,9.43-74.76,13.79-58.53,10.17-116.85,21.29-175.85,28.1-1.38,10.59-.5,21,.93,31.42a15.83,15.83,0,0,1,10.56-6.61c40.72-6.48,84.4-1,125.92-5.35,28.51-3,61.27-5.12,88.5-15.28,9.55-3.55,13.19-5.08,21.83-.47,11.48,6.13,10.57,24.94,8.14,41a74.79,74.79,0,0,0,11.55-18.89c4.63-10.79,9-21.73,13.67-32.53C1112.34,1485.3,1103.12,1467.53,1087.49,1471.4Z"/><path class="cls-19" d="M864.74,1528.29c43.86,1.41,88.24-.23,131.5-8,20.47-3.69,40.94-7.82,60.93-13.66,17.92-5.23,47-9.46,59.15-24.74,10.73-13.55,15.39-30.35,16.88-47.78-1.67.31-3.42.62-5,.93-71.54,14.28-141.8,22.9-214.1,31.68-21.42,2.6-74.57,7.82-134.37,10.08C801.23,1504.75,823.08,1526.94,864.74,1528.29Z"/><path class="cls-11" d="M952.26,1659.13c-19.21,1.48-38.3,3.51-56.24-1.19a79.14,79.14,0,0,0,23.12,18.58c21.59,3.93,48.18-2.12,69.81-10.25,5.25-4,10.25-8.46,15.15-13C987.2,1656.69,969.89,1657.77,952.26,1659.13Z"/><path class="cls-15" d="M825.9,1456.23c-31.35.82-63.72,3-93.09-9a1.78,1.78,0,0,0-.12.29c-4.74,35.86,160.3,7.55,181.81,5.82,1.65-.13,3.48-3.77,1.39-3.93C885.93,1452.48,856,1455.45,825.9,1456.23Z"/><path class="cls-15" d="M972.42,1626.36c-36.32.56-71,15.34-106.56-1.73-.14-.08-.3,0-.45,0,5.38,12.94,14.81,20.9,26.15,25.37,2.64.54,5.28,1,7.84,1.45,18.05,2.94,37.21-1.8,55-8.59A142.44,142.44,0,0,0,972.42,1626.36Z"/><path class="cls-18" d="M546.73,1074.28s72.91-56.59,153.68-40.45,105.34,79.76,105.34,79.76-52.39-28.2-126.62-39.18C618.3,1065.41,546.73,1074.28,546.73,1074.28Z"/><path class="cls-12" d="M533.53,1080.33s80.88-69.9,169.07-51.76,114,94.84,114,94.84-56.89-33.26-138-45.26C612.1,1068.31,533.53,1080.33,533.53,1080.33Z"/><g class="cls-17"><path class="cls-29" d="M748,1005.75a260.57,260.57,0,0,1,63.6,70.87,254.78,254.78,0,0,1,12.66,23.54,3.79,3.79,0,0,1-1.32,5c-1.6.93-4.18.48-5-1.32a252.75,252.75,0,0,0-54.07-74.95,244.26,244.26,0,0,0-19.55-16.81c-1.57-1.21-2.41-3.17-1.32-5,.91-1.54,3.45-2.54,5-1.32Z"/></g><g class="cls-17"><path class="cls-29" d="M651.57,1173.73a303.7,303.7,0,0,0,125.83-27A305.05,305.05,0,0,0,810,1129.54c4.06-2.47,7.76,3.89,3.72,6.35a310.36,310.36,0,0,1-124.7,43,304,304,0,0,1-37.42,2.18c-4.74,0-4.75-7.37,0-7.35Z"/></g></g></g></svg>