<svg width="106" height="106" viewBox="0 0 106 106" fill="none" xmlns="http://www.w3.org/2000/svg">
<g clip-path="url(#clip0_252_177)">
<path d="M99.9918 106H73.0799C72.9281 105.925 72.771 105.861 72.6098 105.809C69.3084 104.949 67.1904 102.333 67.124 98.9086C67.0825 96.9449 67.124 94.9785 67.124 93.012V91.8836H65.6088C52.6758 91.8836 39.7429 91.8836 26.8099 91.8836C23.5942 91.8836 21.2412 89.6268 21.2108 86.6093C21.1803 83.5919 23.5306 81.3406 26.7408 81.2853C27.7749 81.2659 28.8118 81.2521 29.8432 81.2853C30.0779 81.3241 30.3187 81.2727 30.5172 81.1414C30.7156 81.0101 30.8571 80.8086 30.9132 80.5773C31.5962 78.8127 32.3427 77.0703 33.0589 75.3223C33.1916 74.9932 33.2884 74.6503 33.446 74.1939H32.0303C23.3039 74.1939 14.5784 74.1939 5.85381 74.1939C3.08878 74.1939 1.11455 72.8415 0.271222 70.4325C0.193802 70.2112 0.0970257 69.9983 0.00854492 69.7798V4.34775C1.42424 0.862913 2.71274 0 6.48976 0H89.2718C93.3724 0 95.4102 2.05218 95.4102 6.18698C95.4102 17.8474 95.4102 29.5068 95.4102 41.1654V42.4183C96.7125 42.4183 97.8462 42.4017 98.9798 42.4183C102.895 42.4902 105.973 45.4882 105.978 49.3852C106.006 65.9409 106.006 82.4976 105.978 99.0552C105.962 100.588 105.444 102.072 104.503 103.282C103.563 104.492 102.252 105.36 100.772 105.754C100.512 105.829 100.252 105.928 99.9918 106ZM67.0521 56.5263H14.7572C10.9608 56.5263 8.85662 54.4327 8.85386 50.6519C8.85386 39.2681 8.85386 27.8833 8.85386 16.4977C8.84833 12.7224 10.9691 10.5873 14.7351 10.5845C36.7115 10.5845 58.6879 10.5845 80.6643 10.5845C84.4192 10.5873 86.5455 12.7224 86.5455 16.4977C86.5455 24.7101 86.5455 32.9216 86.5455 41.1322V42.3353H91.824C91.8461 42.0587 91.8737 41.8513 91.8737 41.6466C91.8737 29.6765 91.8737 17.7054 91.8737 5.73339C91.8737 4.1099 91.2157 3.5208 89.4571 3.5208H5.93676C4.09802 3.5208 3.52842 4.09054 3.52842 5.93253C3.52842 24.1865 3.52842 42.4404 3.52842 60.6943C3.52842 61.0566 3.55607 61.4217 3.57543 61.8006H67.0521V56.5263ZM43.295 26.8665L31.2948 38.8836H40.4885C41.7632 38.8836 43.0406 38.8587 44.3153 38.9113C44.7212 38.9404 45.1037 39.1121 45.3953 39.3961C45.6869 39.68 45.8687 40.0578 45.9088 40.4629C45.9488 40.868 45.8444 41.2741 45.6141 41.6097C45.3837 41.9452 45.0422 42.1885 44.6499 42.2966C44.2144 42.3928 43.7681 42.4309 43.3227 42.41C33.422 42.41 23.5223 42.41 13.6235 42.41H12.3848C12.3848 45.231 12.3848 47.8861 12.3848 50.5385C12.3848 52.4745 12.9019 52.9945 14.8263 52.9945H67.1185C67.1185 51.7222 67.0881 50.5883 67.1185 49.4543C67.2401 45.3997 70.2264 42.4653 74.2771 42.4127C75.7232 42.3961 77.1721 42.4127 78.621 42.4127H83.0201C83.0201 40.9137 83.0727 39.5363 82.9925 38.1673C82.9591 37.6429 82.7518 37.1446 82.4035 36.7512C77.4818 31.7729 72.5407 26.8121 67.5802 21.8688C67.3894 21.6779 67.1821 21.5064 67.0549 21.393L54.9524 33.4932C54.9729 33.5327 54.9989 33.569 55.0298 33.6011L60.217 38.8034C61.4142 40.0038 61.5995 40.9856 60.77 41.8264C59.9405 42.6672 58.9451 42.5316 57.6731 41.2732L50.3569 33.9551L43.295 26.8665ZM12.3848 38.8836C16.6263 38.8836 20.6799 38.867 24.7583 38.9002C25.0789 38.9158 25.3991 38.8605 25.6959 38.7381C25.9927 38.6157 26.2589 38.4293 26.4754 38.1922C31.0708 33.566 35.6792 28.9564 40.3005 24.3635C42.1696 22.4966 43.895 22.4938 45.7586 24.3635C47.9292 26.529 50.0942 28.7001 52.309 30.9155C52.6214 30.6168 52.9007 30.3624 53.1634 30.1024L63.9912 19.2662C66.1009 17.1559 67.8374 17.1449 69.936 19.2441C73.9914 23.3005 78.0394 27.3523 82.08 31.3995C82.3372 31.6567 82.6137 31.8918 83.0201 32.2707V31.2529C83.0201 26.3188 83.0201 21.3848 83.0201 16.4507C83.0201 14.6999 82.4312 14.1191 80.6339 14.1191H14.807C12.9406 14.1191 12.3876 14.6723 12.3876 16.5115C12.3876 23.5863 12.3876 30.6601 12.3876 37.7331L12.3848 38.8836ZM70.6964 77.7175C73.3536 77.7175 75.9002 77.7368 78.4385 77.6898C78.7509 77.6898 79.1049 77.3718 79.3592 77.1201C81.4938 75.0126 83.5925 72.8691 85.7326 70.7589C87.2976 69.2211 89.3271 69.2128 90.8866 70.7367C91.3705 71.2097 91.7161 71.8154 92.2387 72.4902C93.1678 71.4945 93.7927 70.8059 94.4507 70.1393C95.1088 69.4728 95.7475 68.8035 96.4277 68.1674C97.943 66.7485 99.9393 66.743 101.432 68.1674C101.709 68.4439 101.861 68.856 102.071 69.2073L102.397 68.903V60.1329H70.6964V77.7175ZM3.52842 65.4403C3.52842 66.3447 3.52842 67.1993 3.52842 68.0512C3.52842 70.0342 4.14226 70.6482 6.11925 70.6482H67.0576V65.4403H3.52842ZM99.1789 70.8031L95.0314 74.9517C95.9992 75.8893 97.0775 76.9043 98.1255 77.9498C99.0822 78.9067 99.1651 79.8858 98.402 80.6796C97.6388 81.4734 96.5577 81.3627 95.5927 80.403C94.118 78.9482 92.6562 77.4842 91.2074 76.011C90.2728 75.0596 89.3603 74.075 88.5999 73.2923L84.2699 77.6677C84.4386 77.6898 84.7787 77.7064 85.0994 77.7756C85.4986 77.8478 85.8597 78.0579 86.1197 78.3693C86.3797 78.6807 86.5222 79.0735 86.5222 79.4793C86.5222 79.885 86.3797 80.2778 86.1197 80.5892C85.8597 80.9006 85.4986 81.1107 85.0994 81.183C84.7254 81.2407 84.3468 81.2639 83.9685 81.2521C79.9666 81.2521 75.9665 81.2521 71.9683 81.2521H70.7185V86.4545H102.467C102.467 82.4469 102.467 78.5195 102.467 74.5922C102.463 74.3569 102.378 74.1302 102.226 73.9505C101.184 72.8664 100.125 71.7877 99.1789 70.8031ZM102.453 56.4821C102.453 53.9708 102.527 51.5563 102.431 49.1528C102.381 48.2612 101.981 47.4255 101.317 46.8284C100.653 46.2313 99.7802 45.9215 98.8886 45.9667C98.7039 45.9908 98.5265 46.0544 98.3686 46.1532C98.2107 46.252 98.0759 46.3836 97.9734 46.5392C97.2987 47.7396 96.7429 49.0063 96.0821 50.2149C95.0839 52.0348 93.494 52.9585 91.4369 52.9806C88.1926 53.0194 84.9501 53.0194 81.7095 52.9806C79.6026 52.9613 78.0127 51.9877 77.009 50.1375C76.4781 49.1722 76.0108 48.171 75.5186 47.1864C74.8384 45.8284 74.1637 45.585 72.7536 46.2405C71.7278 46.719 70.8678 47.5017 70.8181 48.6274C70.7047 51.2272 70.7821 53.8353 70.7821 56.4793L102.453 56.4821ZM60.9414 81.2078C60.0013 78.9178 59.122 76.7273 58.1764 74.5701C58.0879 74.3626 57.6234 74.2105 57.3469 74.2105C50.932 74.1884 44.5199 74.2105 38.1051 74.1829C37.5355 74.1829 37.2424 74.3516 37.035 74.8936C36.4184 76.4978 35.7382 78.0826 35.0995 79.6756C34.9004 80.1652 34.7234 80.6602 34.5105 81.2161L60.9414 81.2078ZM102.469 90.1633H70.76C70.1572 93.5846 71.9379 95.6395 75.1675 95.4431C77.056 95.3298 78.9583 95.4238 80.8551 95.4238C86.7538 95.4238 92.6525 95.4238 98.5513 95.4238C101.026 95.4238 102.455 93.9718 102.472 91.4964C102.472 91.0705 102.469 90.6584 102.469 90.1633ZM67.0576 84.8116H27.1362C26.8594 84.804 26.5824 84.8133 26.3067 84.8393C25.9033 84.883 25.5282 85.0671 25.2467 85.3593C24.9652 85.6516 24.7953 86.0335 24.7666 86.4383C24.738 86.8431 24.8524 87.2451 25.0899 87.5741C25.3274 87.9031 25.673 88.1382 26.0661 88.2384C26.4697 88.322 26.8819 88.3573 27.2938 88.3435C40.1586 88.3435 53.0233 88.3435 65.888 88.3435H67.0549L67.0576 84.8116ZM70.7489 97.9849C70.442 100.715 71.9296 102.452 74.4264 102.468C77.5316 102.487 80.6367 102.468 83.7418 102.468C88.7437 102.468 93.7457 102.485 98.7476 102.468C101.236 102.468 102.876 100.435 102.389 98.408C100.655 98.5906 98.9688 98.9086 97.2794 98.9225C90.447 98.9805 83.6174 98.9473 76.785 98.9446C74.761 98.9418 72.7204 99.1382 70.7489 97.9849ZM94.2517 46.0303H78.8754C79.3122 46.9015 79.5943 47.7451 80.1141 48.4033C80.4957 48.8846 81.1758 49.4073 81.7371 49.4239C84.9363 49.5207 88.141 49.5069 91.3428 49.4239C91.6409 49.3966 91.9306 49.3108 92.1954 49.1712C92.4601 49.0317 92.6947 48.8412 92.8857 48.6108C93.4581 47.8723 93.7844 46.9513 94.2517 46.0303ZM67.0576 74.2741H61.9368C62.8631 76.5476 63.7368 78.6993 64.6382 80.8566C64.6902 80.9563 64.7639 81.0431 64.8539 81.1106C64.9438 81.1781 65.0478 81.2246 65.1581 81.2466C65.7885 81.2936 66.4244 81.2632 67.0632 81.2632L67.0576 74.2741Z" fill="#191919"/>
<path d="M15.921 25.6551C15.943 24.0395 16.5974 22.497 17.7436 21.3587C18.8899 20.2203 20.4366 19.5768 22.0518 19.5663C23.6671 19.5558 25.222 20.1791 26.383 21.3025C27.5439 22.4259 28.2183 23.9597 28.2613 25.5749C28.2832 26.3957 28.1411 27.2127 27.8434 27.9779C27.5457 28.7431 27.0984 29.4413 26.5276 30.0315C25.9568 30.6216 25.2741 31.092 24.5193 31.4149C23.7645 31.7379 22.953 31.907 22.132 31.9123C21.3111 31.9177 20.4974 31.7591 19.7385 31.446C18.9796 31.1329 18.2908 30.6715 17.7124 30.0887C17.134 29.506 16.6777 28.8138 16.3701 28.0525C16.0625 27.2912 15.9098 26.4761 15.921 25.6551ZM24.7082 25.5887C24.7026 25.0674 24.5423 24.5595 24.2475 24.1295C23.9528 23.6995 23.5369 23.3668 23.0527 23.1737C22.5686 22.9807 22.038 22.9358 21.5283 23.045C21.0186 23.1541 20.5529 23.4123 20.1902 23.7868C19.8276 24.1612 19.5843 24.6351 19.4914 25.1481C19.3985 25.6611 19.4601 26.1901 19.6684 26.668C19.8767 27.146 20.2223 27.5512 20.6613 27.8322C21.1003 28.1133 21.6129 28.2575 22.134 28.2466C22.8275 28.2349 23.4881 27.9485 23.9707 27.4502C24.4533 26.9519 24.7186 26.2824 24.7082 25.5887Z" fill="#FE9286"/>
<path d="M79.4889 67.169C79.4847 67.4022 79.4342 67.6323 79.3403 67.8458C79.2463 68.0593 79.1107 68.2519 78.9415 68.4124C78.7723 68.5729 78.5728 68.6981 78.3547 68.7807C78.1365 68.8632 77.9042 68.9015 77.6711 68.8932C77.438 68.885 77.209 68.8303 76.9972 68.7325C76.7855 68.6347 76.5954 68.4957 76.4379 68.3236C76.2805 68.1515 76.1589 67.9498 76.0803 67.7302C76.0017 67.5105 75.9676 67.2775 75.98 67.0445C76.0046 66.5848 76.2085 66.1531 76.5481 65.8424C76.8876 65.5316 77.3356 65.3666 77.7956 65.3829C78.2555 65.3993 78.6906 65.5956 79.0073 65.9296C79.324 66.2636 79.4969 66.7087 79.4889 67.169Z" fill="#FE9286"/>
</g>
<defs>
<clipPath id="clip0_252_177">
<rect width="106" height="106" fill="white"/>
</clipPath>
</defs>
</svg>
