<svg width="88" height="97" viewBox="0 0 88 97" fill="none" xmlns="http://www.w3.org/2000/svg">
<g clip-path="url(#clip0_248_97)">
<path d="M73.2542 0C73.3916 0.0697351 73.5352 0.126506 73.6831 0.169572C79.0424 1.31608 81.849 6.86385 79.5753 11.827C79.4839 12.0244 79.3951 12.2243 79.2911 12.4572C79.6971 12.7811 80.1589 12.6166 80.5599 12.6343C82.2499 12.6838 83.8752 13.293 85.1797 14.3658C86.4841 15.4386 87.3933 16.914 87.764 18.5592C87.912 19.2385 87.9844 19.9319 87.9797 20.627C87.9898 36.6966 87.9898 52.7663 87.9797 68.8359C87.9797 71.9211 86.7109 74.3179 83.9957 75.8871C82.6711 76.6463 81.2044 76.8716 79.7022 76.8716H50.5228C51.2841 80.0479 52.0123 83.123 52.7635 86.2816H54.319C55.5522 86.2816 56.7931 86.2309 58.0213 86.3297C61.1171 86.5827 63.3096 88.9466 63.3705 92.0343C63.3705 92.3785 63.3705 92.7253 63.3705 93.1555C63.6775 93.1758 63.949 93.2087 64.218 93.2087C65.8979 93.2087 67.5752 93.1935 69.2525 93.2087C70.4705 93.2264 71.2648 94.0363 71.2318 95.155C71.2248 95.6019 71.056 96.0312 70.7567 96.3637C70.4573 96.6963 70.0474 96.9097 69.6027 96.9646C69.2873 96.9946 68.9702 97.0031 68.6536 96.9899H19.3692C19.1154 96.9899 18.8617 96.9899 18.6079 96.9899C17.5092 96.9114 16.7631 96.1344 16.7707 95.0892C16.7652 94.843 16.8096 94.5983 16.9013 94.3697C16.993 94.1411 17.1301 93.9333 17.3042 93.7589C17.4784 93.5844 17.6862 93.4469 17.915 93.3545C18.1438 93.2621 18.389 93.2168 18.6358 93.2213C20.2802 93.1834 21.9347 93.2213 23.5739 93.2087H24.6321C24.6321 92.7557 24.6321 92.3558 24.6321 91.9584C24.6381 90.5376 25.1799 89.1711 26.1498 88.1306C27.1198 87.09 28.4468 86.4516 29.8671 86.3423C31.25 86.2259 32.6584 86.2917 34.0413 86.279H35.234C35.98 83.1533 36.7134 80.096 37.4772 76.9146C37.0382 76.902 36.6779 76.8843 36.315 76.8843C26.9768 76.8843 17.6394 76.8843 8.30289 76.8843C6.55451 76.8843 4.90003 76.5704 3.43839 75.5657C1.29416 74.0775 0.164941 72.0224 0.0279131 69.4256C0 69.1093 0 68.7929 0 68.4791C0 52.6305 0 36.781 0 20.9307C0 19.0199 0.360333 17.2305 1.5606 15.6917C3.01969 13.8112 4.92286 12.7609 7.31578 12.6546C7.75985 12.6343 8.20393 12.6343 8.64546 12.6343C25.1075 12.6343 41.5677 12.6403 58.0264 12.6521C58.846 12.6521 59.3332 12.4344 59.7874 11.7283C61.4267 9.17964 63.17 6.69934 64.827 4.16083C66.2074 2.04498 68.0396 0.617544 70.5543 0.149324C70.638 0.134139 70.7091 0.0531493 70.7852 0.00253092L73.2542 0ZM84.2013 56.518V20.9914C84.2013 20.6776 84.2013 20.3587 84.1708 20.0449C83.9627 17.8835 82.4554 16.4763 80.2807 16.4257C79.1744 16.4029 78.0655 16.456 76.9591 16.4079C76.6951 16.3855 76.4299 16.4338 76.1908 16.5476C75.9517 16.6615 75.7474 16.837 75.599 17.0559C73.8759 19.197 72.1149 21.3103 70.369 23.4338C66.6591 27.9489 62.945 32.4616 59.2266 36.9717C59.0625 37.1333 58.9464 37.337 58.8913 37.5604C58.8362 37.7838 58.8443 38.018 58.9145 38.2371C59.3005 39.6744 59.3971 41.1738 59.1987 42.6485C58.9713 44.4309 58.2145 46.1046 57.0257 47.4545C55.8368 48.8045 54.2703 49.7688 52.5275 50.2236C50.9745 50.6057 49.3936 50.5981 47.8101 50.5096C46.9245 50.4615 46.0339 50.4083 45.1533 50.4184C43.0015 50.4412 41.0602 51.0183 39.4108 52.5014C38.1649 53.6201 36.6195 53.1265 36.1805 51.527C35.9268 50.6488 35.7263 49.7553 35.5512 48.8594C34.9447 45.7438 34.6351 42.6156 35.2594 39.4596C35.8481 36.4756 37.1955 33.9346 39.6747 32.0819C41.819 30.4799 44.2779 29.7358 46.9169 29.5789C47.5437 29.5434 47.9319 29.3764 48.2974 28.8196C50.8349 24.9726 53.4181 21.1534 55.9836 17.3216C56.1536 17.0685 56.311 16.8002 56.5571 16.4079H8.40186C8.05167 16.4079 7.70403 16.4079 7.35638 16.4307C6.57689 16.4891 5.83433 16.7855 5.2296 17.2795C4.62487 17.7735 4.1873 18.4412 3.97635 19.192C3.86003 19.6519 3.8029 20.1248 3.80634 20.5991C3.80634 32.3122 3.80634 44.0245 3.80634 55.7359C3.81938 55.9642 3.84564 56.1915 3.885 56.4167C3.96619 56.4539 4.05131 56.4819 4.13876 56.5002C5.59532 56.5002 7.05188 56.5002 8.50843 56.523C8.95028 56.5145 9.39156 56.5587 9.82289 56.6546C10.2046 56.7685 10.539 57.0026 10.776 57.3221C11.013 57.6415 11.1398 58.0289 11.1373 58.4263C11.1389 58.8079 11.0226 59.1807 10.8042 59.4941C10.5858 59.8074 10.276 60.0461 9.91678 60.1777C9.58085 60.2665 9.23398 60.3074 8.88653 60.2991C7.46042 60.3118 6.03685 60.2991 4.61328 60.2991C4.37221 60.2991 4.13115 60.3472 3.85201 60.3776C3.82918 60.6307 3.79619 60.8028 3.79619 60.9876C3.79619 63.64 3.79619 66.2924 3.79619 68.9448C3.79995 69.2598 3.83051 69.5739 3.88754 69.8837C4.0116 70.6364 4.36429 71.3329 4.89797 71.8792C5.43164 72.4255 6.12058 72.7953 6.87171 72.9386C7.46475 73.034 8.06516 73.0763 8.66576 73.0651C32.2143 73.0651 55.7637 73.0651 79.3139 73.0651C79.6641 73.0651 80.0118 73.0651 80.3594 73.0499C81.351 73.022 82.2961 72.6247 83.0086 71.9363C83.8765 71.0859 84.1911 70.0255 84.1886 68.8435C84.1886 66.2544 84.1886 63.6653 84.1886 61.0761C84.1721 60.8132 84.1416 60.5513 84.0972 60.2916H25.3756C24.9965 60.3021 24.617 60.2937 24.2388 60.2662C23.7947 60.2247 23.3805 60.0254 23.0715 59.7046C22.7625 59.3839 22.5793 58.9632 22.5553 58.519C22.5313 58.0748 22.6681 57.6369 22.9408 57.2849C23.2135 56.9329 23.6039 56.6904 24.0408 56.6015C24.5087 56.5246 24.9829 56.4933 25.4568 56.5078C44.6086 56.5078 63.7587 56.5078 82.9071 56.5078L84.2013 56.518ZM62.7741 26.6303C62.9949 26.3924 63.1497 26.238 63.2816 26.071C66.4502 22.2189 69.6188 18.3652 72.7873 14.5098C73.7694 13.3126 74.7869 12.1408 75.7106 10.9032C76.2742 10.1322 76.5747 9.20116 76.5678 8.24707C76.561 7.29297 76.2471 6.36629 75.6725 5.60345C75.109 4.85352 74.3256 4.29693 73.4309 4.01079C72.5361 3.72465 71.5743 3.72314 70.6786 4.00644C69.6216 4.36494 68.7238 5.08131 68.1411 6.03118C64.5885 11.3309 61.0359 16.6264 57.4833 21.9178C57.3666 22.0899 57.2803 22.2797 57.1661 22.4872L62.7741 26.6303ZM39.2535 47.9179C40.0275 47.6446 40.6999 47.3712 41.3952 47.1586C43.4252 46.5613 45.5086 46.5816 47.6021 46.6727C48.7363 46.7343 49.8735 46.7149 51.0049 46.6145C53.1568 46.3968 54.4839 45.0959 55.1995 43.1345C55.6715 41.8513 55.5573 40.5377 55.2477 39.2217C55.1426 38.6965 54.8357 38.2332 54.3926 37.9309C52.8015 36.792 51.2384 35.6126 49.6626 34.4509C47.9116 33.1576 47.9066 33.1373 45.7649 33.5271C42.3341 34.1497 40.0579 36.058 39.1672 39.495C38.4516 42.2891 38.7155 45.063 39.2535 47.9179ZM28.4892 93.1378H59.5058C59.8407 91.2422 59.1429 90.0172 56.8185 90.0349C48.2804 90.094 39.7416 90.094 31.2018 90.0349C28.9662 90.0298 28.1669 91.1131 28.4892 93.1378ZM39.1698 86.2031H48.8379L46.62 76.9399H41.38C40.6441 80.0226 39.9183 83.0749 39.1698 86.2132V86.2031ZM56.2577 34.6128L60.3939 29.589L55.0193 25.6154L51.3932 31.0139L56.2577 34.6128Z" fill="#191919"/>
<path d="M16.8012 60.2916C16.5555 60.2893 16.3127 60.2387 16.0866 60.1426C15.8606 60.0465 15.6558 59.9069 15.4839 59.7318C15.3121 59.5566 15.1766 59.3493 15.0852 59.1219C14.9938 58.8944 14.9483 58.6511 14.9513 58.4061C14.9501 58.1537 14.9997 57.9036 15.0971 57.6706C15.1945 57.4377 15.3378 57.2266 15.5184 57.0498C15.699 56.873 15.9134 56.7341 16.1487 56.6414C16.3841 56.5486 16.6357 56.5039 16.8887 56.5098C17.1417 56.5157 17.391 56.5722 17.6217 56.6758C17.8525 56.7795 18.06 56.9283 18.2322 57.1133C18.4043 57.2984 18.5374 57.5159 18.6238 57.7532C18.7101 57.9905 18.7479 58.2426 18.7348 58.4947C18.727 58.7396 18.6706 58.9805 18.569 59.2035C18.4675 59.4266 18.3226 59.6274 18.1429 59.7945C17.9632 59.9615 17.7521 60.0914 17.5218 60.1767C17.2916 60.2621 17.0467 60.3011 16.8012 60.2916Z" fill="#FE9286"/>
<path d="M59.2545 36.9767C59.0909 37.1386 58.9751 37.3424 58.9201 37.5656C58.865 37.7889 58.8727 38.023 58.9424 38.2421C59.3306 39.6782 59.428 41.177 59.2291 42.651C58.9999 44.4308 58.2429 46.1017 57.0552 47.4495C55.8675 48.7973 54.3032 49.7606 52.563 50.2159C51.01 50.5981 49.4316 50.5905 47.8457 50.5044C46.9626 50.4538 46.0694 50.4032 45.1914 50.4133C43.037 50.4336 41.0957 51.0131 39.4463 52.4937C38.2004 53.6149 36.655 53.1214 36.216 51.5219C35.9724 50.6411 35.7626 49.7519 35.5867 48.8543C34.9828 45.7362 34.6732 42.608 35.2949 39.4544C35.8861 36.4705 37.231 33.9294 39.7128 32.0743C41.8545 30.4722 44.3134 29.7281 46.955 29.5737C47.5817 29.5358 47.97 29.3687 48.3354 28.8145M39.2839 47.8976C40.0579 47.6242 40.7303 47.3534 41.4231 47.1383C43.4531 46.5435 45.5365 46.5638 47.63 46.6549C48.7651 46.7157 49.9031 46.6954 51.0354 46.5942C53.1847 46.379 54.5118 45.0756 55.2274 43.1167C55.6994 41.8335 55.5877 40.5174 55.2782 39.2039C55.1711 38.6796 54.8646 38.217 54.423 37.9131C52.832 36.7717 51.2663 35.5948 49.6905 34.4306C47.9395 33.1398 47.9345 33.1195 45.7953 33.5068C42.3645 34.1294 40.0858 36.0377 39.1977 39.4747C38.4795 42.2941 38.746 45.068 39.2839 47.9204V47.8976ZM51.4211 30.9936L56.2856 34.5951L51.4211 30.9936Z" fill="#FE9286"/>
</g>
<defs>
<clipPath id="clip0_248_97">
<rect width="88" height="97" fill="white"/>
</clipPath>
</defs>
</svg>
