<svg width="103" height="98" viewBox="0 0 103 98" fill="none" xmlns="http://www.w3.org/2000/svg">
<g clip-path="url(#clip0_248_101)">
<path d="M102.806 78.0423C101.833 72.2206 98.75 67.8839 93.5403 65.091C92.8307 64.7077 92.5565 64.3298 92.5565 63.5096C92.5833 44.592 92.5896 25.6736 92.5753 6.75418C92.6134 6.05334 92.5665 5.35047 92.4355 4.66086C91.7124 1.70984 89.3979 0.0158916 86.0215 0.0158916C68.6219 0.0158916 51.2213 0.0158916 33.8199 0.0158916C33.4851 0.00776348 33.1502 0.0211929 32.8172 0.0560962C32.3653 0.110017 31.9476 0.322935 31.6391 0.656551C31.3306 0.990167 31.1517 1.42259 31.1344 1.87602C31.0869 2.32999 31.2071 2.78564 31.4723 3.15764C31.7375 3.52965 32.1297 3.7925 32.5753 3.89697C33.0674 3.99284 33.5688 4.0324 34.0699 4.01491C51.3351 4.01491 68.6013 4.01491 85.8683 4.01491C87.9597 4.01491 88.5564 4.60993 88.5564 6.69521C88.5564 10.4744 88.5323 14.251 88.5753 18.0275C88.5753 18.8772 88.3199 19.0755 87.5 19.0702C80.6586 19.038 73.8199 19.0514 66.9812 19.0514C46.3719 19.0514 25.7527 19.0586 5.12366 19.0729C4.25538 19.0729 3.99462 18.8799 4.00806 17.9766C4.06452 14.1679 4.02957 10.3565 4.03226 6.54511C4.03226 4.6689 4.69086 4.01759 6.57796 4.01223C9.26613 4.01223 11.9409 4.01223 14.6237 4.01223C15.4651 4.01223 16.2366 3.84605 16.7204 3.07948C17.6102 1.71252 16.6667 0.0534159 14.9194 0.0292931C12.0699 -0.000190221 9.22043 -0.00019022 6.36828 0.0185719C2.45699 0.0426947 0 2.52734 0 6.45667C0 11.8387 0 17.2199 0 22.6001C0 39.2806 0 55.9592 0 72.6361C0 74.7803 0.758064 76.5413 2.48387 77.8493C3.76344 78.8008 5.21774 79.0179 6.76075 79.0152C26.7446 79.0152 46.7267 79.0152 66.707 79.0152C66.9756 79.0287 67.2448 79.0287 67.5134 79.0152C68.1156 78.9562 68.3548 79.1439 68.2769 79.8005C68.1835 80.9351 68.2413 82.077 68.4489 83.1965C69.6828 91.4331 76.6479 97.6889 84.8898 97.9971C88.9458 98.16 92.9314 96.9051 96.1581 94.4494C99.3847 91.9936 101.65 88.4912 102.562 84.5474C102.718 83.8719 102.691 83.1563 103.003 82.5157V78.8973C102.935 78.6132 102.855 78.329 102.806 78.0423ZM68.1102 75.0001H6.85753C4.6371 75.0001 4.02957 74.4024 4.02957 72.2287C4.02957 56.2183 4.02151 40.208 4.00538 24.1976C4.00538 23.2488 4.27419 23.0585 5.17473 23.0612C18.888 23.088 32.5977 23.0942 46.3038 23.0799C59.9812 23.0799 73.6595 23.0728 87.3387 23.0585C88.2823 23.0585 88.5726 23.2515 88.5699 24.2485C88.5323 36.9157 88.5323 49.5837 88.5699 62.2526C88.5699 63.0915 88.4651 63.3596 87.4946 63.2818C79.2446 62.6171 72.5672 66.7099 69.4462 74.322C69.1425 75.0671 68.672 75.0001 68.1102 75.0001ZM85.4839 93.9954C81.9256 93.9369 78.5359 92.4737 76.058 89.9267C73.5802 87.3798 72.2165 83.957 72.2661 80.409C72.379 73.0408 78.4489 67.0718 85.7312 67.1602C89.2776 67.2309 92.6527 68.6943 95.1231 71.2323C97.5934 73.7704 98.9593 77.178 98.9239 80.7145C98.8885 84.2511 97.4546 87.6308 94.9339 90.1192C92.4133 92.6075 89.0095 94.0034 85.4624 94.0035L85.4839 93.9954Z" fill="#191919"/>
<path d="M26.3441 13.5301C21.9534 13.5301 17.5627 13.5301 13.172 13.5301C12.2151 13.5301 11.4651 13.2246 11.0538 12.3213C10.9313 12.0457 10.8733 11.7459 10.8841 11.4446C10.8949 11.1434 10.9742 10.8485 11.1162 10.5823C11.2581 10.3161 11.4588 10.0856 11.7032 9.90811C11.9476 9.73064 12.2292 9.61089 12.5269 9.55791C12.7938 9.51866 13.0638 9.50519 13.3333 9.51771C22.0484 9.51771 30.7625 9.51771 39.4758 9.51771C40.4086 9.51771 41.2097 9.71605 41.6828 10.5898C42.4355 11.9943 41.4436 13.5087 39.7231 13.5167C35.25 13.5435 30.793 13.5301 26.3441 13.5301Z" fill="#191919"/>
<path d="M58.3171 11.5254C58.3092 11.0049 58.5073 10.5022 58.8686 10.1264C59.23 9.75054 59.7253 9.5319 60.2472 9.51785C60.7865 9.51488 61.3054 9.72294 61.6924 10.0973C62.0795 10.4717 62.3038 10.9825 62.3171 11.52C62.3098 12.04 62.1018 12.537 61.7363 12.9079C61.3708 13.2788 60.876 13.495 60.3548 13.5115C60.0883 13.5217 59.8225 13.4777 59.5737 13.3821C59.3249 13.2865 59.0982 13.1413 58.9075 12.9555C58.7168 12.7696 58.5661 12.5469 58.4646 12.3011C58.3631 12.0552 58.3129 11.7913 58.3171 11.5254Z" fill="#FE9286"/>
<path d="M81.7205 11.5654C81.7212 11.823 81.6707 12.0782 81.572 12.3163C81.4733 12.5543 81.3283 12.7705 81.1454 12.9524C80.9624 13.1343 80.7452 13.2783 80.5062 13.3761C80.2671 13.4739 80.0111 13.5235 79.7527 13.522C79.2142 13.5213 78.698 13.3075 78.3174 12.9276C77.9369 12.5477 77.7231 12.0327 77.7231 11.4957C77.7428 10.9758 77.9601 10.4828 78.3311 10.1169C78.7021 9.75103 79.1988 9.53964 79.7205 9.52571C79.9876 9.52341 80.2525 9.57495 80.4992 9.67722C80.7459 9.77949 80.9693 9.9304 81.1561 10.1209C81.3429 10.3114 81.4892 10.5375 81.5861 10.7857C81.6831 11.034 81.7288 11.2992 81.7205 11.5654Z" fill="#FE9286"/>
<path d="M72.0161 11.4851C72.0044 11.9993 71.7944 12.4892 71.4298 12.8531C71.0652 13.2169 70.574 13.4266 70.0583 13.4387C69.5426 13.4508 69.0421 13.2643 68.6608 12.9179C68.2794 12.5715 68.0466 12.092 68.0107 11.5789C67.9969 11.312 68.0369 11.0449 68.1284 10.7937C68.2198 10.5424 68.3609 10.312 68.5432 10.116C68.7255 9.92002 68.9454 9.76249 69.1899 9.65271C69.4343 9.54293 69.6984 9.48314 69.9664 9.47687C70.2344 9.4706 70.501 9.51797 70.7503 9.61619C70.9996 9.71441 71.2267 9.86148 71.418 10.0487C71.6094 10.2359 71.7611 10.4595 71.8643 10.7062C71.9675 10.9529 72.02 11.2178 72.0188 11.4851H72.0161Z" fill="#FE9286"/>
<path d="M22.0914 2.04251C22.0802 1.78321 22.1216 1.52431 22.2132 1.28136C22.3048 1.03841 22.4446 0.816412 22.6244 0.628679C22.8041 0.440947 23.0201 0.291351 23.2592 0.188867C23.4984 0.0863834 23.7558 0.033123 24.0161 0.0322815C24.2848 0.0218038 24.5528 0.0655868 24.804 0.161C25.0553 0.256412 25.2846 0.401485 25.4782 0.587501C25.6718 0.773516 25.8257 0.996635 25.9306 1.24345C26.0355 1.49026 26.0893 1.75568 26.0887 2.02375C26.0776 2.54792 25.8629 3.04734 25.4899 3.41681C25.1168 3.78628 24.6145 3.99697 24.0887 4.00449C23.5632 4.00735 23.058 3.8025 22.6837 3.43478C22.3093 3.06706 22.0964 2.56644 22.0914 2.04251Z" fill="#FE9286"/>
<path d="M76.0054 55.4554C73.7446 39.2396 58.8011 27.8777 42.457 29.9255C27.8575 31.7561 16.5645 44.3375 16.3199 59.047C16.285 61.1377 16.9489 61.8131 19.0592 61.8131H59.5807C64.3387 61.8131 69.0995 61.8131 73.8575 61.8131C75.5807 61.8131 76.2769 61.0653 76.2769 59.3552C76.2767 58.0506 76.186 56.7476 76.0054 55.4554ZM51.6532 57.8221C49.8468 57.7605 48.0376 57.8034 46.2285 57.8034C44.4194 57.8034 42.6102 57.7739 40.8038 57.8168C40.086 57.8328 39.9436 57.605 40.1049 56.943C40.4368 55.5663 41.2201 54.3395 42.3306 53.4571C43.4411 52.5746 44.8153 52.087 46.2353 52.0717C47.6552 52.0563 49.0397 52.5139 50.1692 53.3721C51.2987 54.2303 52.1086 55.4398 52.4704 56.809C52.6882 57.597 52.5054 57.8516 51.6532 57.8221ZM70.5188 57.8034H64.3871C62.1075 57.8034 59.8172 57.7792 57.5511 57.8168C56.9247 57.8168 56.6747 57.6372 56.5887 57.0127C56.424 55.6984 56 54.4297 55.3412 53.2797C54.6823 52.1296 53.8017 51.121 52.75 50.3119C52.3038 49.9581 52.3199 49.674 52.5242 49.221C53.2518 47.6128 53.9615 45.993 54.6532 44.3616C55.1909 43.0938 54.8253 41.9493 53.7661 41.4615C52.6452 40.9576 51.5376 41.4615 50.9489 42.7829C50.2581 44.3375 49.5618 45.8921 48.9274 47.4708C48.6882 48.0685 48.4086 48.2588 47.7473 48.173C41.9543 47.4198 36.8764 51.2607 36.0296 57.018C35.9436 57.6184 35.7446 57.7953 35.1586 57.7926C30.5323 57.7739 25.9086 57.7631 21.285 57.7926C20.4785 57.7926 20.4328 57.4549 20.5027 56.825C21.0437 51.8826 22.9923 47.1978 26.1183 43.3243C26.4973 42.8446 26.7446 42.8794 27.1156 43.3056C27.5119 43.7593 27.9414 44.183 28.4005 44.5734C28.7802 44.8804 29.2599 45.0374 29.7482 45.0147C30.2365 44.9919 30.6994 44.7909 31.0487 44.4499C31.398 44.1089 31.6094 43.6517 31.6425 43.1654C31.6757 42.6791 31.5283 42.1976 31.2285 41.8127C30.8698 41.3715 30.4712 40.9642 30.0376 40.5958C29.5 40.1401 29.5 39.8346 30.0753 39.3816C33.0567 36.9841 36.536 35.2784 40.2608 34.3882C41.2688 34.1497 42.3038 34.0237 43.3199 33.8227C44.0027 33.6886 44.4194 33.7851 44.3118 34.6268C44.2575 35.1614 44.2575 35.7002 44.3118 36.2349C44.4167 37.4545 45.285 38.2398 46.4247 38.1889C47.5242 38.1406 48.2554 37.3419 48.3065 36.1304C48.3065 36.0312 48.3065 35.9294 48.3065 35.8302C48.336 33.6592 48.3414 33.6377 50.4946 33.9996C54.9172 34.7282 59.0743 36.5892 62.5592 39.4004C63.1344 39.856 63.1667 40.1401 62.6075 40.5958C62.1722 40.9629 61.7709 41.3683 61.4086 41.8073C61.0723 42.1865 60.8929 42.679 60.9069 43.185C60.9209 43.6911 61.1271 44.173 61.4839 44.5332C61.8414 44.8937 62.3241 45.1037 62.8323 45.1196C63.3405 45.1356 63.8355 44.9564 64.2151 44.6189C64.6791 44.2348 65.1082 43.8106 65.4973 43.3511C65.9167 42.8473 66.1667 42.9196 66.5538 43.4101C69.4999 47.0791 71.3891 51.4783 72.0188 56.1362C72.2473 57.798 72.2124 57.8034 70.5188 57.8034Z" fill="#191919"/>
<path d="M93.5483 75.9626C93.533 76.5032 93.3153 77.0185 92.9381 77.4072C90.4596 80.3877 87.9749 83.3682 85.4838 86.3487C84.5564 87.453 83.4516 87.5388 82.3252 86.6034C81.0385 85.5312 79.7652 84.4448 78.5053 83.3441C77.5107 82.4703 77.3978 81.3205 78.1747 80.4253C78.9516 79.53 80.0779 79.4845 81.1317 80.3207C81.6969 80.7396 82.2314 81.1982 82.7311 81.693C83.3225 82.3202 83.6827 82.3229 84.258 81.6019C86.0887 79.2995 87.9919 77.0454 89.9032 74.8073C90.8037 73.7352 91.9919 73.6307 92.8978 74.4535C93.1127 74.6404 93.2827 74.873 93.3953 75.1342C93.5079 75.3954 93.5602 75.6785 93.5483 75.9626Z" fill="#FE9286"/>
</g>
<defs>
<clipPath id="clip0_248_101">
<rect width="103" height="98" fill="white"/>
</clipPath>
</defs>
</svg>
