<svg width="226" height="186" viewBox="0 0 226 186" fill="none" xmlns="http://www.w3.org/2000/svg">
<g clip-path="url(#clip0_14_71)">
<path d="M111.253 120.331C111.253 120.331 110.122 115.422 105.567 115.669C101.012 115.916 99.905 115.915 97.938 115.669C95.971 115.423 92.918 113.055 92.058 113.79C91.198 114.525 91.676 116.133 93.275 117.554C94.5903 118.58 96.0572 119.395 97.623 119.97L91.801 120.97C91.801 120.97 86.554 118.17 85.322 118.661C84.9665 118.818 84.6675 119.079 84.4652 119.411C84.263 119.743 84.1673 120.128 84.191 120.516C84.191 120.516 82.012 119.55 81.398 120.4C80.784 121.25 80.63 121.849 81.248 122.333C81.248 122.333 80.842 121.933 79.712 122.265C78.746 122.55 78.828 124.333 79.712 124.811L80.012 124.985C80.012 124.985 88.264 129.734 88.512 129.768C89.961 129.961 98.861 129.584 103.441 129.368C104.268 129.33 105.09 129.512 105.823 129.895C106.557 130.279 107.175 130.851 107.615 131.552L114.988 143.244L123.317 133.63L111.253 120.331Z" fill="#B78876"/>
<path d="M96.296 123.018C95.8548 123.151 95.4042 123.252 94.948 123.318C94.093 123.477 92.895 123.69 91.494 123.927H91.426L89.561 123.072L85.111 121.024L83.768 120.386C83.5965 120.316 83.4342 120.225 83.285 120.115C83.464 120.154 83.6376 120.214 83.802 120.294L85.179 120.859L87.203 121.733L89.662 122.854L91.522 123.719H91.45C92.85 123.497 94.059 123.319 94.919 123.197C95.3726 123.101 95.833 123.041 96.296 123.018V123.018Z" fill="#AA6550"/>
<path d="M94.252 125.206C92.8995 125.723 91.7389 126.644 90.928 127.844C91.1965 127.148 91.6463 126.536 92.2307 126.072C92.8152 125.609 93.513 125.309 94.252 125.206V125.206Z" fill="#AA6550"/>
<path d="M103.699 118.326C103.728 118.326 103.752 118.626 103.912 119.109C104.133 119.771 104.518 120.367 105.033 120.839L105.202 120.989L104.98 121.032C104.206 121.18 103.448 121.405 102.719 121.704C101.566 122.178 100.495 122.831 99.545 123.637C98.815 124.26 98.429 124.719 98.395 124.69C98.361 124.661 98.467 124.555 98.637 124.342C98.8818 124.047 99.145 123.768 99.425 123.506C100.36 122.637 101.444 121.943 102.625 121.458C103.371 121.152 104.149 120.93 104.944 120.796L104.886 120.989C104.353 120.486 103.972 119.843 103.786 119.134C103.7 118.874 103.67 118.598 103.699 118.326V118.326Z" fill="#AA6550"/>
<path d="M98.242 119.718C97.222 120.129 96.1564 120.416 95.068 120.573C94.174 120.737 93.358 120.853 92.768 120.911C92.4492 120.967 92.1243 120.98 91.802 120.95C91.802 120.873 93.251 120.66 95.02 120.327L97.291 119.878C97.6012 119.789 97.9207 119.736 98.243 119.719L98.242 119.718Z" fill="#AA6550"/>
<path d="M90.493 126.163C90.0231 126.006 89.5633 125.82 89.116 125.607C88.271 125.259 87.087 124.807 85.768 124.341C84.449 123.875 83.261 123.423 82.415 123.061C81.9476 122.891 81.4992 122.672 81.077 122.409C81.5539 122.539 82.0216 122.7 82.477 122.892L85.859 124.1C87.178 124.583 88.359 125.066 89.188 125.443C89.6473 125.633 90.0835 125.874 90.488 126.163H90.493Z" fill="#AA6550"/>
<path d="M92.5901 125.965C91.4772 126.476 90.2256 126.6 89.0341 126.318C89.0341 126.246 89.8461 126.289 90.8171 126.188C91.4036 126.082 91.9955 126.007 92.5901 125.965V125.965Z" fill="#AA6550"/>
<path d="M138.502 97.74C138.502 97.74 131.134 101.977 129.593 114.925C128.793 121.689 125.849 134.225 125.849 134.225L119.795 127.432L110.649 137.897C110.649 137.897 120.529 158.986 126.109 164.735C131.689 170.484 142.758 172.257 142.758 172.257L144.985 137.012L138.502 97.74Z" fill="#FE9286"/>
<path d="M194.367 91.918L177.35 88.937L155.65 90.014C155.65 90.014 137.581 97.474 138.504 97.744L134.98 132.617L143.705 149.469L141.536 185.369H201.444L198.318 160.41L194.4 130.337L201.835 153.619L202.961 185.37H219.63C221.393 171.543 221.944 152.333 221.944 152.333L208.339 107.885C206.475 101.696 202.365 96.4266 196.816 93.111C196.041 92.6344 195.22 92.2348 194.367 91.918V91.918Z" fill="#FE9286"/>
<path d="M138.309 115.336L138.348 115.515C138.372 115.645 138.406 115.815 138.448 116.042C138.53 116.525 138.648 117.192 138.801 118.061C139.096 119.815 139.521 122.361 140.001 125.501C140.481 128.641 141.054 132.401 141.537 136.574C142.02 140.747 142.547 145.357 142.827 150.208C142.851 150.662 142.875 151.108 142.899 151.527C142.648 160.943 142.358 169.403 142.092 175.51C141.957 178.559 141.836 181.023 141.73 182.723C141.675 183.564 141.632 184.208 141.6 184.655C141.6 184.868 141.571 185.037 141.561 185.162C141.565 185.22 141.565 185.278 141.561 185.336C141.556 185.278 141.556 185.22 141.561 185.162V184.65C141.561 184.191 141.609 183.534 141.648 182.718C141.711 181.003 141.807 178.544 141.928 175.5C142.145 169.393 142.411 160.934 142.658 151.522C142.658 151.106 142.61 150.657 142.586 150.203C142.306 145.372 141.818 140.758 141.315 136.583C140.812 132.408 140.281 128.655 139.815 125.51C139.349 122.365 138.955 119.828 138.689 118.055L138.389 116.026C138.36 115.804 138.336 115.626 138.317 115.499C138.309 115.445 138.307 115.39 138.309 115.336Z" fill="#263238"/>
<path d="M190.53 117.23C190.5 117.159 190.482 117.084 190.477 117.008C190.448 116.829 190.409 116.617 190.366 116.361C190.353 116.199 190.33 116.038 190.298 115.878C190.274 115.694 190.269 115.52 190.254 115.318C190.214 114.862 190.2 114.404 190.211 113.946V113.146C190.211 112.871 190.259 112.581 190.288 112.281C190.349 111.646 190.446 111.016 190.578 110.392C190.891 108.962 191.354 107.569 191.96 106.237C192.594 104.918 193.363 103.668 194.255 102.507C194.651 102.002 195.074 101.518 195.521 101.058C195.729 100.845 195.921 100.633 196.13 100.444L196.73 99.917C197.073 99.6155 197.433 99.3334 197.807 99.072C197.96 98.9514 198.122 98.8415 198.29 98.743L198.69 98.4969L199.255 98.1639C199.319 98.1245 199.385 98.091 199.455 98.064C199.4 98.1181 199.34 98.1667 199.276 98.209L198.745 98.581L198.354 98.8419C198.214 98.9419 198.069 99.064 197.914 99.185C197.55 99.4565 197.2 99.7469 196.866 100.055L196.281 100.586C196.081 100.774 195.89 100.992 195.687 101.204C195.253 101.664 194.845 102.148 194.465 102.654C192.682 104.949 191.436 107.614 190.817 110.454C190.681 111.07 190.578 111.692 190.508 112.319C190.474 112.614 190.431 112.894 190.416 113.169C190.401 113.444 190.392 113.705 190.382 113.961C190.343 114.444 190.382 114.927 190.382 115.319V115.879C190.389 116.041 190.407 116.202 190.435 116.362C190.459 116.618 190.479 116.845 190.493 117.009C190.515 117.081 190.527 117.155 190.53 117.23V117.23Z" fill="#263238"/>
<path d="M201.816 153.619C201.767 153.527 201.73 153.43 201.705 153.329C201.633 153.112 201.541 152.846 201.43 152.488C201.193 151.729 200.865 150.681 200.464 149.396C199.647 146.782 198.531 143.168 197.232 139.196C195.933 135.224 194.739 131.63 193.773 129.074C193.29 127.803 192.783 126.808 192.483 126.103C192.333 125.75 192.217 125.475 192.145 125.287C192.105 125.191 192.071 125.093 192.045 124.992C192.103 125.078 192.152 125.17 192.19 125.267L192.567 126.067C192.896 126.758 193.408 127.739 193.934 129.009C194.949 131.565 196.171 135.145 197.466 139.121C198.761 143.097 199.858 146.716 200.635 149.344C201.021 150.658 201.326 151.726 201.529 152.465C201.621 152.813 201.698 153.093 201.756 153.315C201.786 153.413 201.806 153.513 201.814 153.615L201.816 153.619Z" fill="#263238"/>
<path d="M214.373 152.508C214.373 152.551 213.726 152.368 212.673 152.208C211.309 152 209.924 151.966 208.552 152.108C207.181 152.257 205.835 152.582 204.547 153.074C203.581 153.46 202.982 153.779 202.957 153.741C203.073 153.637 203.203 153.549 203.343 153.48C203.71 153.267 204.089 153.077 204.478 152.91C205.766 152.358 207.129 152 208.522 151.847C209.916 151.694 211.324 151.751 212.701 152.016C213.118 152.092 213.53 152.195 213.933 152.325C214.088 152.365 214.236 152.427 214.373 152.508V152.508Z" fill="#263238"/>
<path d="M139.014 150.049C138.85 149.835 138.7 149.611 138.565 149.377C138.27 148.947 137.835 148.333 137.251 147.614C136.096 146.165 134.401 144.232 132.516 142.092C130.631 139.952 128.926 138.034 127.723 136.608C127.123 135.898 126.641 135.318 126.317 134.908C126.138 134.706 125.977 134.49 125.834 134.261C126.037 134.438 126.223 134.634 126.39 134.846L127.839 136.493L132.67 141.923C134.554 144.054 136.231 146.01 137.356 147.503C137.807 148.087 138.226 148.695 138.612 149.324C138.747 149.546 138.834 149.73 138.897 149.855C138.96 149.98 139.023 150.044 139.014 150.049Z" fill="#263238"/>
<g opacity="0.3">
<path d="M142.342 172.258C142.613 162.499 143.12 153.503 142.236 143.869C141.836 152.42 138.728 162.426 135.593 170.393L142.342 172.258Z" fill="black"/>
</g>
<g opacity="0.3">
<path d="M194.381 130.337C194.381 130.337 191.603 124.124 191.791 124.124C191.605 136.346 193.792 148.487 198.231 159.876L194.381 130.337Z" fill="black"/>
</g>
<path d="M186.743 163.287C186.636 163.364 186.525 163.435 186.41 163.499L185.444 164.064C184.599 164.547 183.376 165.281 181.883 166.204C180.39 167.127 178.607 168.214 176.569 169.359C174.383 170.617 172.098 171.696 169.738 172.586C167.37 173.494 164.867 174.004 162.332 174.093C161.221 174.096 160.115 173.934 159.052 173.61C158.124 173.326 157.257 172.87 156.496 172.267C155.374 171.407 154.566 170.201 154.196 168.837C154.105 168.468 154.055 168.091 154.046 167.711C154.044 167.58 154.052 167.45 154.07 167.32C154.092 167.824 154.167 168.324 154.292 168.813C154.691 170.136 155.5 171.298 156.601 172.132C157.353 172.709 158.204 173.143 159.113 173.412C160.159 173.713 161.243 173.858 162.331 173.842C164.836 173.737 167.308 173.226 169.65 172.33C171.998 171.443 174.274 170.375 176.457 169.137C178.477 168.006 180.264 166.924 181.771 166.03C183.278 165.136 184.515 164.43 185.371 163.957L186.371 163.43C186.49 163.37 186.615 163.322 186.743 163.287V163.287Z" fill="#263238"/>
<path d="M186.67 149.136C186.629 149.421 186.567 149.702 186.482 149.977C186.406 150.304 186.313 150.626 186.202 150.943C186.076 151.315 185.951 151.75 185.757 152.209C185.563 152.668 185.375 153.175 185.119 153.702C184.863 154.229 184.578 154.784 184.269 155.364C182.861 157.852 181.034 160.078 178.869 161.944C178.408 162.357 177.924 162.744 177.42 163.104C176.937 163.437 176.497 163.756 176.077 164.022C175.657 164.288 175.27 164.505 174.927 164.708C174.584 164.911 174.28 165.056 174.027 165.191C173.772 165.324 173.509 165.44 173.239 165.539C173.475 165.375 173.724 165.229 173.983 165.104C174.225 164.974 174.524 164.814 174.853 164.621C175.182 164.428 175.578 164.201 175.979 163.911C176.38 163.621 176.839 163.336 177.293 162.979C177.747 162.622 178.23 162.23 178.742 161.81C180.856 159.927 182.649 157.713 184.052 155.254C184.366 154.684 184.675 154.148 184.917 153.616C185.159 153.084 185.4 152.601 185.579 152.167C185.758 151.733 185.917 151.293 186.062 150.925C186.187 150.609 186.295 150.286 186.386 149.959C186.457 149.677 186.552 149.402 186.67 149.136V149.136Z" fill="#263238"/>
<path d="M139.163 126.853C139.163 126.921 136.631 126.423 133.544 125.742C130.457 125.061 127.959 124.457 127.978 124.389C127.997 124.321 130.505 124.814 133.597 125.495C136.689 126.176 139.178 126.786 139.163 126.853Z" fill="#FAFAFA"/>
<path d="M139.163 124.022C138.629 124.009 138.097 123.949 137.573 123.843C136.607 123.693 135.254 123.452 133.773 123.171L129.99 122.432C129.462 122.348 128.941 122.228 128.429 122.074C128.963 122.087 129.495 122.147 130.018 122.253C130.984 122.403 132.342 122.644 133.818 122.925L137.601 123.669C138.129 123.75 138.651 123.868 139.162 124.022H139.163Z" fill="#FAFAFA"/>
<path d="M190.622 124.404C190.622 124.472 179.747 124.447 166.33 124.346C152.913 124.245 142.043 124.104 142.043 124.037C142.043 123.97 152.918 123.994 166.335 124.095C179.752 124.196 190.622 124.317 190.622 124.404Z" fill="#FAFAFA"/>
<path d="M191.424 126.854C191.424 126.922 180.235 126.98 166.432 126.98C152.629 126.98 141.439 126.918 141.439 126.854C141.439 126.79 152.628 126.728 166.431 126.728C180.234 126.728 191.424 126.781 191.424 126.854Z" fill="#FAFAFA"/>
<path d="M211.79 121.114H211.848C211.906 121.114 211.805 121.114 211.776 121.143H211.732V121.095H211.945L211.795 121.148C210.906 121.477 207.167 122.742 202.756 124.424L196.256 126.924L194.285 127.678C194.048 127.782 193.802 127.866 193.551 127.929C193.773 127.794 194.007 127.681 194.251 127.591C194.71 127.391 195.372 127.108 196.184 126.76C197.831 126.074 200.117 125.151 202.663 124.19C207.084 122.509 210.876 121.32 211.78 121.098V121.151H211.722V121.103H211.765C211.78 121.1 211.795 121.103 211.808 121.11C211.821 121.117 211.831 121.128 211.837 121.142L211.79 121.114Z" fill="#FAFAFA"/>
<path d="M211.397 117.992C211.397 118.06 207.179 119.543 201.923 121.306C196.667 123.069 192.391 124.451 192.371 124.388C192.351 124.325 196.589 122.837 201.845 121.069C207.101 119.301 211.373 117.925 211.397 117.992Z" fill="#FAFAFA"/>
<path d="M179.08 89.3001C179.107 89.4287 179.121 89.5597 179.123 89.6911C179.156 90.0638 179.165 90.4382 179.152 90.8121C179.1 92.199 178.811 93.5669 178.297 94.8561C177.531 96.7782 176.299 98.4799 174.712 99.8081C172.729 101.398 170.302 102.335 167.764 102.49C165.227 102.645 162.704 102.01 160.542 100.673C158.804 99.5496 157.374 98.0101 156.382 96.1941C155.714 94.9775 155.26 93.6553 155.039 92.2851C154.98 91.914 154.945 91.5396 154.933 91.1641C154.919 91.0341 154.919 90.903 154.933 90.7731C154.964 90.9013 154.981 91.0323 154.986 91.1641C155.012 91.5359 155.064 91.9055 155.141 92.2701C155.398 93.6159 155.87 94.9114 156.541 96.1061C157.542 97.8695 158.958 99.362 160.667 100.454C162.792 101.753 165.265 102.368 167.751 102.216C170.237 102.064 172.616 101.152 174.567 99.6041C175.877 98.518 176.95 97.1756 177.722 95.6594C178.494 94.1431 178.948 92.485 179.055 90.7871C179.055 90.3041 179.084 89.9271 179.055 89.6711C179.051 89.5468 179.057 89.4223 179.074 89.2991L179.08 89.3001Z" fill="#FAFAFA"/>
<path d="M120.221 128.433C120.157 128.605 120.071 128.767 119.965 128.916C119.791 129.206 119.521 129.621 119.177 130.129C118.486 131.129 117.477 132.492 116.277 133.917C115.248 135.132 114.158 136.293 113.011 137.396C112.571 137.821 112.211 138.155 111.948 138.362C111.824 138.489 111.682 138.598 111.528 138.686C111.632 138.541 111.751 138.408 111.881 138.286L112.881 137.252C113.731 136.378 114.881 135.152 116.081 133.735C117.281 132.318 118.303 130.986 119.028 130.005L119.878 128.845C119.975 128.694 120.09 128.556 120.221 128.433Z" fill="#FAFAFA"/>
<g opacity="0.3">
<path d="M174.8 164.649C172.36 166.036 169.07 166.258 166.133 166.335C165.579 166.385 165.021 166.311 164.5 166.118C164.241 166.017 164.019 165.84 163.862 165.611C163.706 165.382 163.622 165.111 163.621 164.833C163.684 164.166 164.346 163.741 164.959 163.485C167.331 162.519 169.993 162.557 172.486 161.934C176.728 160.866 181.062 157.834 184.366 154.967C182.097 158.984 178.794 162.321 174.8 164.63" fill="black"/>
</g>
<path d="M165.664 100.731C162.916 100.511 160.353 99.2579 158.492 97.2238C156.631 95.1897 155.61 92.526 155.634 89.769C155.634 87.054 155.682 84.88 155.682 84.88C155.682 84.88 146.937 83.522 146.831 74.78C146.725 66.038 148.237 45.951 148.237 45.951C153.209 43.8135 158.662 43.0424 164.031 43.7177C169.401 44.393 174.493 46.49 178.781 49.792L180.076 50.792L177.409 90.592C177.314 92.0329 176.933 93.4405 176.289 94.733C175.645 96.0255 174.751 97.1772 173.658 98.1212C172.566 99.0652 171.296 99.7826 169.924 100.232C168.551 100.681 167.103 100.853 165.664 100.738V100.731Z" fill="#B78876"/>
<path d="M155.667 84.7441C159.704 84.8197 163.672 83.6929 167.067 81.5071C167.067 81.5071 164.376 87.7881 155.646 87.0071L155.667 84.7441Z" fill="#AA6550"/>
<path d="M178.998 59.8329C179.148 59.7699 185.008 58.0549 184.798 64.0329C184.588 70.0109 178.643 68.5839 178.638 68.4149C178.633 68.2459 178.998 59.8329 178.998 59.8329Z" fill="#B78876"/>
<path d="M180.554 66.21C180.583 66.21 180.654 66.287 180.829 66.374C181.074 66.486 181.352 66.5 181.607 66.4131C182.001 66.1799 182.326 65.8463 182.548 65.4464C182.77 65.0464 182.883 64.5946 182.873 64.137C182.906 63.6252 182.823 63.1126 182.631 62.637C182.58 62.4484 182.485 62.2748 182.353 62.131C182.221 61.9872 182.056 61.8775 181.872 61.811C181.753 61.7759 181.626 61.7832 181.513 61.8318C181.399 61.8804 181.306 61.9671 181.249 62.0771C181.162 62.2411 181.196 62.3621 181.167 62.3721C181.138 62.3821 181.041 62.272 181.094 62.024C181.133 61.8778 181.22 61.7486 181.34 61.6571C181.511 61.539 181.72 61.4907 181.925 61.522C182.17 61.5776 182.396 61.6958 182.582 61.8651C182.767 62.0345 182.906 62.2491 182.983 62.488C183.219 63.0137 183.322 63.5892 183.283 64.164C183.297 64.6976 183.152 65.2232 182.867 65.6746C182.583 66.1259 182.17 66.4828 181.683 66.7001C181.518 66.7446 181.346 66.7509 181.178 66.7183C181.011 66.6857 180.853 66.6151 180.717 66.512C180.559 66.355 180.535 66.22 180.554 66.21Z" fill="#AA6550"/>
<path d="M151.411 59.958C151.407 60.2832 151.53 60.5971 151.754 60.8328C151.979 61.0684 152.286 61.207 152.611 61.219C152.77 61.2322 152.93 61.2133 153.082 61.1634C153.234 61.1136 153.374 61.0338 153.494 60.9288C153.614 60.8238 153.712 60.6957 153.782 60.5522C153.852 60.4086 153.893 60.2524 153.901 60.093C153.904 59.7681 153.78 59.4549 153.556 59.2195C153.332 58.9842 153.026 58.8452 152.701 58.832C152.542 58.8188 152.382 58.8376 152.23 58.8875C152.078 58.9373 151.938 59.0171 151.818 59.1221C151.698 59.2271 151.6 59.3552 151.53 59.4988C151.46 59.6424 151.419 59.7985 151.411 59.958V59.958Z" fill="#263238"/>
<path d="M149.894 58.2391C150.049 58.4031 150.994 57.7031 152.339 57.7081C153.684 57.7131 154.668 58.3841 154.813 58.2201C154.885 58.1481 154.726 57.8531 154.296 57.5391C153.714 57.1367 153.022 56.9239 152.315 56.9301C151.62 56.9294 150.944 57.1493 150.382 57.5581C149.957 57.8721 149.816 58.1671 149.894 58.2391Z" fill="#263238"/>
<path d="M164.316 60.2529C164.313 60.5778 164.437 60.891 164.661 61.1263C164.885 61.3617 165.191 61.5007 165.516 61.5139C165.675 61.5261 165.835 61.5066 165.986 61.4564C166.137 61.4062 166.277 61.3263 166.397 61.2215C166.517 61.1167 166.615 60.9889 166.685 60.8458C166.756 60.7027 166.797 60.547 166.806 60.3879C166.81 60.0627 166.687 59.7487 166.463 59.5131C166.238 59.2775 165.931 59.1389 165.606 59.1269C165.447 59.1137 165.287 59.1326 165.135 59.1824C164.983 59.2322 164.843 59.312 164.723 59.417C164.602 59.522 164.505 59.6501 164.435 59.7937C164.365 59.9373 164.324 60.0934 164.316 60.2529V60.2529Z" fill="#263238"/>
<path d="M163.103 58.49C163.258 58.654 164.203 57.954 165.548 57.959C166.893 57.964 167.877 58.635 168.022 58.471C168.095 58.399 167.94 58.104 167.51 57.79C166.928 57.3882 166.236 57.1755 165.529 57.181C164.835 57.1796 164.158 57.3996 163.597 57.809C163.166 58.121 163.026 58.421 163.103 58.49Z" fill="#263238"/>
<path d="M158.22 68.4569C157.513 68.2376 156.781 68.1062 156.041 68.0659C155.698 68.0269 155.369 67.9599 155.311 67.7279C155.284 67.3727 155.365 67.0176 155.543 66.7089C155.867 65.8779 156.2 65.0089 156.558 64.0949C157.494 61.8804 158.256 59.5965 158.838 57.2639C157.721 59.3963 156.776 61.6143 156.012 63.8969L155.046 66.5249C154.831 66.9396 154.767 67.4165 154.867 67.8729C154.919 67.9908 154.996 68.0954 155.094 68.179C155.192 68.2627 155.308 68.3231 155.432 68.3559C155.621 68.4083 155.816 68.4359 156.012 68.4379C156.744 68.5438 157.487 68.5502 158.22 68.4569V68.4569Z" fill="#263238"/>
<path d="M162.755 53.228C162.89 53.595 164.229 53.4209 165.808 53.6099C167.387 53.7989 168.658 54.2329 168.866 53.9049C168.966 53.7459 168.74 53.4219 168.223 53.0499C167.536 52.6171 166.76 52.3461 165.953 52.2574C165.147 52.1687 164.33 52.2646 163.566 52.538C162.992 52.765 162.697 53.05 162.755 53.228Z" fill="#263238"/>
<path d="M150.387 54.35C150.624 54.659 151.547 54.35 152.663 54.326C153.779 54.302 154.716 54.526 154.934 54.21C155.034 54.055 154.881 53.727 154.451 53.461C153.9 53.1104 153.253 52.9415 152.601 52.978C151.946 52.9892 151.311 53.2038 150.784 53.592C150.411 53.867 150.281 54.205 150.387 54.35Z" fill="#263238"/>
<path d="M143.976 40.417C143.912 39.8721 143.989 39.32 144.197 38.8126C144.406 38.3053 144.74 37.8594 145.169 37.517C145.609 37.1949 146.149 37.0402 146.693 37.0809C147.237 37.1216 147.748 37.355 148.135 37.739C148.053 37.3736 148.048 36.995 148.121 36.6277C148.194 36.2604 148.344 35.9126 148.561 35.6069C148.777 35.3012 149.055 35.0445 149.377 34.8532C149.699 34.662 150.058 34.5406 150.43 34.497C151.879 34.41 153.073 35.487 154.454 35.864C155.831 36.1603 157.267 35.9903 158.536 35.381C159.831 34.85 161.036 34.139 162.348 33.661C165.117 32.6509 168.173 32.7745 170.852 34.0049C173.531 35.2353 175.616 37.4731 176.654 40.232C177.63 39.9899 178.657 40.0507 179.597 40.4064C180.538 40.762 181.348 41.3957 181.92 42.223C183.035 43.9145 183.48 45.9613 183.166 47.963C182.983 49.3201 182.648 50.6522 182.166 51.934C182.166 52.045 182.166 52.156 182.166 52.272C182.074 57.079 181.533 62.727 179.48 62.756C175.905 62.814 176.755 56.074 176.755 56.074C172.368 54.374 174.001 47.803 172.89 46.808C171.779 45.813 169.508 43.494 160.329 48.19C156.91 49.7181 153.096 50.1307 149.429 49.369L149.197 49.321H149.149C149.126 49.3093 149.102 49.2996 149.077 49.292C148.244 49.0816 147.449 48.7443 146.719 48.292C145.862 47.7951 145.185 47.0387 144.786 46.132C144.592 45.6778 144.535 45.177 144.62 44.6907C144.706 44.2044 144.932 43.7535 145.269 43.393C144.555 42.55 144.106 41.5145 143.979 40.417H143.976Z" fill="#263238"/>
<path d="M157.083 72.5929C157.271 73.1364 157.534 73.6505 157.866 74.1199C158.034 74.355 158.25 74.5515 158.5 74.6965C158.75 74.8416 159.028 74.9317 159.315 74.9609C159.622 74.962 159.924 74.8854 160.194 74.7384C160.463 74.5914 160.691 74.3786 160.856 74.1199C161.182 73.5959 161.333 72.9815 161.286 72.3659C161.262 71.8149 161.006 71.1579 160.46 71.0909C160.229 71.0828 159.999 71.1344 159.793 71.2409L156.893 72.4099" fill="#AA6550"/>
<path d="M158.237 74.961C158.756 74.998 159.278 74.9342 159.773 74.773C160.278 74.5752 160.692 74.1986 160.937 73.715C161.075 73.4212 161.15 73.1017 161.157 72.7772C161.163 72.4526 161.102 72.1303 160.976 71.831C160.91 71.6766 160.826 71.5306 160.725 71.396C160.609 71.28 160.625 71.285 160.508 71.296C160.343 71.347 160.182 71.4085 160.025 71.48L159.542 71.673C158.924 71.924 158.363 72.156 157.895 72.316C157.396 72.5467 156.868 72.7091 156.325 72.799C156.758 72.4616 157.238 72.1897 157.75 71.992C158.204 71.775 158.75 71.509 159.35 71.248L159.833 71.035C160.005 70.9537 160.181 70.8812 160.36 70.818C160.5 70.7729 160.65 70.7729 160.79 70.818C160.916 70.874 161.025 70.9603 161.109 71.069C161.419 71.4717 161.606 71.9556 161.647 72.4622C161.688 72.9688 161.582 73.4765 161.341 73.924C161.034 74.4948 160.513 74.9206 159.892 75.108C159.489 75.2372 159.058 75.2538 158.646 75.156C158.358 75.091 158.223 74.994 158.237 74.961Z" fill="#263238"/>
<path d="M173.206 45.968C173.242 45.6163 173.242 45.2617 173.206 44.91C173.054 43.9566 172.569 43.0875 171.839 42.456C170.744 41.5289 169.333 41.0629 167.901 41.156C166.146 41.2648 164.42 41.6495 162.785 42.296C161.916 42.5961 161.032 42.8524 160.137 43.064C159.297 43.2486 158.441 43.3537 157.581 43.378C156.123 43.4149 154.669 43.2225 153.271 42.808C152.332 42.529 151.426 42.1466 150.571 41.668C150.338 41.5404 150.113 41.4002 149.895 41.248C149.816 41.201 149.741 41.1461 149.673 41.084C149.673 41.084 150.006 41.268 150.639 41.567C151.502 42.0057 152.407 42.3584 153.339 42.62C155.544 43.2406 157.868 43.3038 160.103 42.804C160.958 42.611 161.833 42.321 162.726 42.041C164.387 41.3907 166.14 41.006 167.92 40.901C169.403 40.8289 170.856 41.3384 171.969 42.321C172.713 42.9911 173.19 43.9073 173.312 44.901C173.356 45.2601 173.32 45.6246 173.206 45.968V45.968Z" fill="#455A64"/>
<path d="M180.008 60.7451C179.964 60.6873 179.925 60.6258 179.892 60.561C179.79 60.3814 179.7 60.1957 179.621 60.005C179.314 59.3062 179.079 58.5777 178.921 57.8311C178.687 56.72 178.612 55.5812 178.699 54.449C178.863 53.0782 179.123 51.7206 179.477 50.3861C179.823 49.0684 179.823 47.6837 179.477 46.3661C179.31 45.8039 179.023 45.2846 178.636 44.8441C178.293 44.468 177.861 44.184 177.38 44.018C176.681 43.7598 175.909 43.7805 175.225 44.076C174.984 44.2119 174.759 44.3739 174.553 44.559C174.709 44.3215 174.923 44.1286 175.176 43.9991C175.525 43.826 175.904 43.7249 176.293 43.7017C176.681 43.6785 177.07 43.7337 177.437 43.8641C177.955 44.0266 178.422 44.3193 178.795 44.714C179.209 45.1734 179.519 45.7173 179.703 46.3081C180.066 47.6659 180.066 49.0952 179.703 50.453C179.352 51.7774 179.087 53.1233 178.911 54.4821C178.815 55.594 178.87 56.7139 179.075 57.811C179.217 58.5504 179.422 59.2761 179.689 59.9801C179.813 60.2273 179.92 60.4829 180.008 60.7451V60.7451Z" fill="#455A64"/>
<path d="M174.046 45.263C174.035 45.1456 174.035 45.0274 174.046 44.91C174.046 44.654 174.046 44.325 174.08 43.91C174.14 42.6855 174.004 41.4593 173.68 40.277C173.438 39.4718 173.041 38.7217 172.511 38.069C171.914 37.3185 171.093 36.7771 170.168 36.523C169.132 36.2834 168.05 36.3269 167.037 36.649C165.941 36.996 164.889 37.4727 163.906 38.069C162.91 38.6696 161.874 39.2021 160.806 39.663C159.785 40.0622 158.702 40.2798 157.606 40.306C156.616 40.3297 155.628 40.2091 154.673 39.948C153.848 39.7164 153.053 39.3924 152.301 38.982C151.215 38.3653 150.259 37.545 149.484 36.566C149.273 36.3038 149.083 36.026 148.914 35.735C148.85 35.6363 148.794 35.533 148.745 35.426C148.826 35.5109 148.898 35.6049 148.958 35.706C149.142 35.9843 149.342 36.2515 149.558 36.506C150.352 37.4383 151.31 38.2177 152.384 38.806C153.129 39.2012 153.914 39.5138 154.727 39.738C155.661 39.986 156.626 40.0968 157.592 40.067C158.658 40.0358 159.711 39.82 160.703 39.429C161.761 38.9673 162.788 38.4361 163.776 37.839C164.776 37.2284 165.847 36.7418 166.965 36.39C168.02 36.0589 169.145 36.0188 170.221 36.274C171.192 36.5456 172.051 37.1215 172.671 37.917C173.211 38.595 173.612 39.3733 173.85 40.207C174.164 41.4089 174.275 42.6546 174.179 43.893C174.155 44.333 174.121 44.671 174.092 44.893C174.09 45.0151 174.074 45.1366 174.044 45.255L174.046 45.263Z" fill="#455A64"/>
<path d="M225.644 185.371C225.644 185.439 176.544 185.497 115.973 185.497C55.402 185.497 6.302 185.439 6.302 185.371C6.302 185.303 55.393 185.245 115.973 185.245C176.553 185.245 225.644 185.279 225.644 185.371Z" fill="#263238"/>
<path d="M90.2039 165.534C91.1359 166.853 92.9339 166.404 93.7599 165.592C94.5171 164.705 95.0315 163.637 95.2529 162.492C95.9679 159.936 96.7019 157.26 96.1319 154.67C95.9977 153.883 95.6481 153.149 95.1219 152.549C94.8565 152.254 94.5181 152.034 94.1407 151.911C93.7633 151.788 93.3602 151.767 92.9719 151.849C92.5395 152.031 92.1498 152.301 91.8278 152.642C91.5058 152.983 91.2586 153.388 91.1019 153.83C89.9163 156.332 89.3041 159.066 89.3099 161.835C89.2268 163.13 89.5386 164.42 90.2039 165.535" fill="#FE9286"/>
<g opacity="0.2">
<path d="M90.2039 165.534C91.1359 166.853 92.9339 166.404 93.7599 165.592C94.5171 164.705 95.0315 163.637 95.2529 162.492C95.9679 159.936 96.7019 157.26 96.1319 154.67C95.9977 153.883 95.6481 153.149 95.1219 152.549C94.8565 152.254 94.5181 152.034 94.1407 151.911C93.7633 151.788 93.3602 151.767 92.9719 151.849C92.5395 152.031 92.1498 152.301 91.8278 152.642C91.5058 152.983 91.2586 153.388 91.1019 153.83C89.9163 156.332 89.3041 159.066 89.3099 161.835C89.2268 163.13 89.5386 164.42 90.2039 165.535" fill="black"/>
</g>
<path d="M93.7059 172.235C95.252 171.496 96.9949 171.274 98.6769 171.602C99.5961 171.677 100.464 172.058 101.141 172.684C101.463 173.009 101.648 173.446 101.655 173.903C101.662 174.361 101.492 174.803 101.18 175.138C100.727 175.447 100.18 175.589 99.6339 175.538C98.3149 175.538 96.8559 175.306 95.8079 176.103C95.2139 176.557 94.8179 177.311 94.1029 177.552C93.7449 177.637 93.3691 177.603 93.0319 177.456C92.6947 177.309 92.4143 177.056 92.2329 176.736C91.8873 176.078 91.8078 175.311 92.0109 174.596C92.0915 174.097 92.2871 173.624 92.5821 173.214C92.8772 172.804 93.2636 172.468 93.7109 172.233L93.7059 172.235Z" fill="#FE9286"/>
<path d="M87.676 167.447C88.1463 166.822 88.458 166.093 88.5842 165.321C88.7105 164.55 88.6476 163.759 88.401 163.017C87.8844 161.536 86.9699 160.225 85.758 159.229C84.3801 158.018 82.7802 157.086 81.047 156.485C80.3743 156.221 79.6527 156.104 78.931 156.142C78.5709 156.164 78.2218 156.274 77.9144 156.463C77.6069 156.651 77.3506 156.913 77.168 157.224C76.685 158.166 77.168 159.306 77.651 160.239C78.5659 161.876 79.606 163.439 80.762 164.916C81.619 166.168 82.7948 167.169 84.168 167.816C85.579 168.362 87.043 168.275 87.787 167.294" fill="#FE9286"/>
<path d="M90.2609 185.473C90.3066 185.276 90.3324 185.075 90.3379 184.873C90.3769 184.438 90.4299 183.907 90.4879 183.235C90.5646 182.424 90.6842 181.617 90.8459 180.819C91.0537 179.849 91.3396 178.897 91.7009 177.973C92.06 177.051 92.5479 176.184 93.1499 175.398C93.6365 174.759 94.2584 174.236 94.9709 173.866C95.456 173.625 95.976 173.462 96.5119 173.383C96.7143 173.374 96.9152 173.345 97.1119 173.296C96.9095 173.273 96.7053 173.273 96.5029 173.296C95.9452 173.342 95.4002 173.488 94.8939 173.726C94.1393 174.086 93.4779 174.615 92.9609 175.272C92.34 176.07 91.8403 176.956 91.4779 177.9C91.1091 178.84 90.823 179.81 90.6229 180.8C90.4774 181.599 90.3772 182.406 90.3229 183.216C90.2749 183.916 90.2599 184.477 90.2509 184.868C90.2302 185.069 90.2336 185.272 90.2609 185.473Z" fill="#263238"/>
<path d="M90.363 184.212C90.3753 184.121 90.3753 184.028 90.363 183.937V180.207C90.411 177.738 90.605 174.322 90.991 170.569C91.377 166.816 91.914 163.438 92.402 161.017C92.518 160.408 92.634 159.862 92.74 159.379C92.846 158.896 92.933 158.49 93.02 158.152C93.107 157.814 93.155 157.582 93.204 157.379C93.2312 157.29 93.2457 157.197 93.247 157.104C93.2077 157.188 93.1769 157.275 93.155 157.365C93.092 157.565 93.02 157.819 92.928 158.128C92.836 158.437 92.728 158.872 92.604 159.35C92.48 159.828 92.353 160.374 92.227 160.978C91.5635 164.138 91.0685 167.331 90.744 170.544C90.353 174.303 90.188 177.728 90.188 180.207C90.188 181.444 90.212 182.449 90.246 183.14C90.246 183.464 90.285 183.729 90.299 183.94C90.3119 184.032 90.3333 184.124 90.363 184.212Z" fill="#263238"/>
<path d="M90.324 177.611C90.3483 177.334 90.3483 177.056 90.324 176.78C90.2721 176.024 90.1816 175.271 90.053 174.524C89.6298 172.059 88.9096 169.655 87.908 167.364C86.943 165.04 85.5628 162.912 83.835 161.083C83.5322 160.769 83.2095 160.476 82.869 160.204C82.724 160.083 82.594 159.962 82.463 159.866L82.091 159.615C81.8708 159.447 81.6366 159.299 81.391 159.171C82.2031 159.799 82.9744 160.478 83.7 161.205C85.366 163.045 86.7087 165.154 87.671 167.442C88.2231 168.698 88.6908 169.989 89.071 171.307C89.438 172.515 89.685 173.621 89.871 174.558C90.057 175.495 90.151 176.258 90.214 176.79C90.2318 177.066 90.2686 177.34 90.324 177.611V177.611Z" fill="#263238"/>
<path d="M99.567 110.138L79.067 109.264V88.7688H99.567V110.138Z" fill="#FE9286"/>
<path d="M107.692 82.9028H87.193V103.402H107.692V82.9028Z" fill="#FE9286"/>
<path d="M99.566 109.263L107.692 103.403V82.9028L99.566 88.7678V109.263Z" fill="#FE9286"/>
<path d="M79.067 88.7678L87.193 82.9028H107.693L99.567 88.7678H79.067Z" fill="#FE9286"/>
<path d="M99.566 110.137L107.692 103.402V82.9028L99.566 88.7678V110.137Z" fill="#FE9286"/>
<path opacity="0.3" d="M79.067 88.7678L87.193 82.9028H107.693L99.567 88.7678H79.067Z" fill="white"/>
<path opacity="0.4" d="M99.566 110.137L107.692 103.402V82.9028L99.566 88.7678V110.137Z" fill="black"/>
<path d="M110.557 104.185C110.68 104.575 110.722 104.986 110.683 105.393C110.583 105.593 110.654 105.451 110.635 105.493H110.606L110.558 105.527L110.458 105.599L110.274 105.729C110.153 105.811 110.047 105.884 109.95 105.937C109.762 106.053 109.636 106.111 109.617 106.082C109.598 106.053 109.685 105.947 109.844 105.797L110.134 105.546L110.308 105.401L110.408 105.329L110.456 105.29C110.456 105.338 110.509 105.19 110.408 105.39C110.376 104.982 110.427 104.572 110.557 104.185V104.185Z" fill="#FE9286"/>
<path d="M110.558 99.0059C110.726 99.8611 110.726 100.741 110.558 101.596C110.39 100.741 110.39 99.8611 110.558 99.0059V99.0059Z" fill="#FE9286"/>
<path d="M110.558 93.8269C110.726 94.6821 110.726 95.5617 110.558 96.4169C110.39 95.5617 110.39 94.6821 110.558 93.8269V93.8269Z" fill="#FE9286"/>
<path d="M110.558 88.6528C110.726 89.508 110.726 90.3876 110.558 91.2428C110.39 90.3876 110.39 89.508 110.558 88.6528V88.6528Z" fill="#FE9286"/>
<path d="M110.558 83.469C110.726 84.3242 110.726 85.2038 110.558 86.059C110.39 85.2038 110.39 84.3242 110.558 83.469V83.469Z" fill="#FE9286"/>
<path d="M109.349 79.6708C109.739 79.5455 110.15 79.5026 110.557 79.5448L110.683 79.6708V80.1348C110.689 80.2645 110.679 80.3944 110.654 80.5218C110.654 80.7388 110.601 80.8748 110.567 80.8748C110.533 80.8748 110.499 80.7398 110.48 80.5218C110.484 80.3921 110.474 80.2625 110.451 80.1348V79.6518L110.577 79.7778C110.165 79.8263 109.748 79.7902 109.35 79.6718L109.349 79.6708Z" fill="#FE9286"/>
<path d="M104.716 79.671C105.48 79.5036 106.271 79.5036 107.035 79.671C106.271 79.8384 105.48 79.8384 104.716 79.671Z" fill="#FE9286"/>
<path d="M100.083 79.672C100.845 79.5045 101.635 79.5045 102.397 79.672C101.635 79.8395 100.845 79.8395 100.083 79.672V79.672Z" fill="#FE9286"/>
<path d="M95.45 79.672C96.2122 79.5045 97.0017 79.5045 97.7639 79.672C97.0017 79.8395 96.2122 79.8395 95.45 79.672Z" fill="#FE9286"/>
<path d="M90.807 79.672C91.5693 79.5045 92.3588 79.5045 93.121 79.672C92.3588 79.8395 91.5692 79.8395 90.807 79.672V79.672Z" fill="#FE9286"/>
<path d="M86.28 79.9559C86.3388 79.8212 86.4282 79.7021 86.541 79.6079H86.584C86.784 79.6079 87.038 79.5789 87.323 79.5789C87.7126 79.5368 88.1067 79.5798 88.478 79.7049C88.1061 79.8272 87.7126 79.8701 87.323 79.8309C87.0763 79.8376 86.8295 79.8279 86.584 79.8019L86.65 79.7759C86.5355 79.8526 86.411 79.9132 86.28 79.9559Z" fill="#FE9286"/>
<path d="M82.714 82.897C82.671 82.844 83.033 82.467 83.526 82.061C84.019 81.655 84.454 81.361 84.492 81.418C84.53 81.475 84.173 81.843 83.68 82.254C83.187 82.665 82.758 82.952 82.714 82.897Z" fill="#FE9286"/>
<path d="M79.149 85.8558C79.106 85.8028 79.468 85.4308 79.961 85.0198C80.454 84.6088 80.889 84.3198 80.927 84.3768C80.965 84.4338 80.608 84.8068 80.115 85.2128C79.622 85.6188 79.212 85.9138 79.149 85.8558Z" fill="#FE9286"/>
<path d="M76.424 89.3149C76.3049 88.9241 76.2654 88.5133 76.308 88.1069L76.356 88.0069H76.38L76.428 87.9679L76.52 87.8959L76.699 87.7559L77.013 87.5289C77.197 87.4079 77.313 87.3449 77.342 87.3739C77.371 87.4029 77.279 87.509 77.125 87.669C77.048 87.746 76.956 87.8379 76.85 87.9349L76.681 88.0849L76.589 88.1619L76.541 88.2009H76.517C76.517 88.1619 76.474 88.301 76.565 88.109C76.5988 88.5163 76.5509 88.9264 76.424 89.3149V89.3149Z" fill="#FE9286"/>
<path d="M76.376 94.1068C76.2569 93.7187 76.2191 93.3102 76.265 92.9068C76.2282 92.5018 76.2742 92.0935 76.4 91.7068C76.5656 92.5045 76.5574 93.3285 76.376 94.1228V94.1068Z" fill="#FE9286"/>
<path d="M76.313 98.8988C76.1907 98.5113 76.1511 98.1025 76.197 97.6988C76.1602 97.2938 76.2061 96.8855 76.332 96.4988C76.4543 96.8862 76.4938 97.2951 76.448 97.6988C76.4848 98.1038 76.4388 98.5121 76.313 98.8988Z" fill="#FE9286"/>
<path d="M76.2861 103.692C76.1667 103.304 76.1273 102.896 76.1701 102.492C76.1335 102.087 76.1812 101.678 76.3101 101.292C76.4292 101.68 76.4669 102.089 76.4211 102.492C76.4579 102.897 76.4119 103.305 76.2861 103.692V103.692Z" fill="#FE9286"/>
<path d="M76.235 108.485C76.1159 108.097 76.0781 107.688 76.124 107.285C76.0872 106.88 76.1332 106.472 76.259 106.085C76.3785 106.473 76.418 106.881 76.375 107.285C76.4116 107.69 76.3639 108.099 76.235 108.485V108.485Z" fill="#FE9286"/>
<path d="M77.41 112.109C77.0168 112.225 76.6044 112.261 76.197 112.215C75.951 111.959 76.129 112.143 76.076 112.085V111.616C76.0696 111.488 76.0794 111.359 76.105 111.234C76.129 111.017 76.163 110.881 76.197 110.881C76.231 110.881 76.265 111.016 76.284 111.234C76.281 111.363 76.289 111.492 76.308 111.62C76.3208 111.695 76.3208 111.772 76.308 111.847V112.074L76.182 111.948C76.5976 111.916 77.0152 111.971 77.409 112.107L77.41 112.109Z" fill="#FE9286"/>
<path d="M81.99 112.181C81.6212 112.302 81.2301 112.34 80.845 112.292C80.459 112.323 80.0708 112.274 79.705 112.147C80.0738 112.026 80.4652 111.989 80.85 112.041C81.2356 112.007 81.624 112.055 81.99 112.181V112.181Z" fill="#FE9286"/>
<path d="M86.56 112.259C86.1901 112.374 85.7999 112.41 85.415 112.365C85.029 112.401 84.6397 112.352 84.275 112.22C84.645 112.104 85.0352 112.068 85.42 112.114C85.806 112.08 86.1949 112.129 86.56 112.259V112.259Z" fill="#FE9286"/>
<path d="M91.14 112.326C90.383 112.481 89.6013 112.467 88.85 112.287C89.607 112.132 90.3887 112.146 91.14 112.326V112.326Z" fill="#FE9286"/>
<path d="M95.7151 112.413C94.958 112.567 94.1764 112.554 93.425 112.374C93.7969 112.259 94.1885 112.223 94.5751 112.268C94.961 112.235 95.3496 112.284 95.7151 112.413Z" fill="#FE9286"/>
<path d="M100.291 112.486C99.921 112.601 99.5309 112.638 99.146 112.592C98.76 112.626 98.3712 112.577 98.006 112.447C98.3759 112.331 98.7661 112.295 99.151 112.341C99.537 112.304 99.9265 112.353 100.291 112.486V112.486Z" fill="#FE9286"/>
<path d="M104.122 110.268C104.161 110.321 103.789 110.674 103.281 111.055C103.003 111.318 102.675 111.52 102.315 111.649C102.272 111.591 102.648 111.238 103.151 110.857C103.654 110.476 104.079 110.21 104.122 110.268Z" fill="#FE9286"/>
<path d="M107.769 107.495C107.812 107.548 107.436 107.906 106.933 108.287C106.654 108.547 106.326 108.747 105.967 108.876C105.928 108.818 106.3 108.465 106.803 108.084C107.306 107.703 107.716 107.446 107.769 107.495Z" fill="#FE9286"/>
<path d="M104.992 78.0269C105.06 78.0269 105.06 78.3219 104.992 78.6449C104.924 78.9679 104.804 79.2199 104.736 79.2049C104.668 79.1899 104.673 78.9149 104.736 78.5909C104.799 78.2669 104.924 77.9849 104.992 78.0269Z" fill="#FE9286"/>
<path d="M106.103 73.0908C106.135 73.5156 106.082 73.9425 105.948 74.3468C105.894 74.769 105.758 75.1765 105.548 75.5468C105.566 74.6992 105.755 73.864 106.103 73.0908V73.0908Z" fill="#FE9286"/>
<path d="M107.234 68.1768C107.214 69.0231 107.026 69.857 106.683 70.6308C106.703 69.7845 106.891 68.9505 107.234 68.1768V68.1768Z" fill="#FE9286"/>
<path d="M108.32 63.2639C108.3 64.1124 108.111 64.9485 107.764 65.7229C107.732 65.2981 107.785 64.8713 107.919 64.4669C107.973 64.0437 108.11 63.6351 108.32 63.2639V63.2639Z" fill="#FE9286"/>
<path d="M109.427 58.3499C109.459 58.7746 109.406 59.2015 109.272 59.6059C109.22 60.0285 109.084 60.4366 108.872 60.8058C108.892 59.9584 109.08 59.1234 109.427 58.3499Z" fill="#FE9286"/>
<path d="M110.538 53.4419C110.567 53.8666 110.514 54.2929 110.383 54.6979C110.329 55.12 110.193 55.5276 109.983 55.8979C109.951 55.4731 110.004 55.0463 110.138 54.6419C110.19 54.2192 110.326 53.8111 110.538 53.4419V53.4419Z" fill="#FE9286"/>
<path d="M111.351 49.8099C111.419 49.8099 111.414 50.0999 111.351 50.4239C111.288 50.7479 111.163 51.0039 111.095 50.9839C111.027 50.9639 111.032 50.6939 111.095 50.3699C111.158 50.0459 111.287 49.7899 111.351 49.8099Z" fill="#FE9286"/>
<path d="M86.063 78.5888C86.126 78.5598 86.295 78.7768 86.445 79.0718C86.595 79.3668 86.667 79.6368 86.604 79.6718C86.541 79.7068 86.372 79.4838 86.222 79.1888C86.072 78.8938 86 78.6218 86.063 78.5888Z" fill="#FE9286"/>
<path d="M83.942 74.3858C84.005 74.3518 84.295 74.8008 84.585 75.3858C84.7985 75.7223 84.9414 76.0985 85.005 76.4918C84.942 76.5258 84.652 76.0768 84.362 75.4918C84.1486 75.1554 84.0057 74.7791 83.942 74.3858V74.3858Z" fill="#FE9286"/>
<path d="M81.825 70.1778C82.3253 70.7954 82.6862 71.5138 82.8829 72.2838C82.6025 71.998 82.3836 71.6576 82.2399 71.2838C82.0257 70.9465 81.8843 70.5681 81.825 70.1729V70.1778Z" fill="#FE9286"/>
<path d="M79.6949 65.974C79.7579 65.94 80.043 66.389 80.338 66.974C80.5507 67.3103 80.692 67.6867 80.7529 68.08C80.6899 68.114 80.4049 67.664 80.1099 67.08C79.8972 66.7437 79.7559 66.3672 79.6949 65.974V65.974Z" fill="#FE9286"/>
<path d="M77.588 61.7659C77.8703 62.0503 78.0894 62.391 78.231 62.7659C78.4462 63.1033 78.5892 63.4815 78.651 63.8769C78.3688 63.5924 78.1497 63.2517 78.008 62.8769C77.7942 62.5388 77.6513 62.1608 77.588 61.7659V61.7659Z" fill="#FE9286"/>
<path d="M75.472 57.5628C75.535 57.5288 75.8201 57.9778 76.1151 58.5628C76.3278 58.8991 76.4691 59.2756 76.53 59.6688C76.0311 59.0527 75.6703 58.3365 75.472 57.5689V57.5628Z" fill="#FE9286"/>
<path d="M73.356 53.355C73.8549 53.9712 74.2157 54.6873 74.414 55.455C74.351 55.489 74.066 55.044 73.771 54.489C73.5546 54.1443 73.4132 53.7579 73.356 53.355V53.355Z" fill="#FE9286"/>
<path d="M71.235 49.152C71.298 49.118 71.588 49.563 71.878 50.152C72.0925 50.4879 72.2355 50.8643 72.298 51.258C72.0157 50.9735 71.7966 50.6328 71.655 50.258C71.4416 49.9215 71.2987 49.5453 71.235 49.152V49.152Z" fill="#FE9286"/>
<path d="M69.636 45.968C69.699 45.939 69.868 46.152 70.018 46.451C70.168 46.75 70.24 47.016 70.177 47.045C70.114 47.074 69.945 46.861 69.795 46.562C69.645 46.263 69.573 46.002 69.636 45.968Z" fill="#FE9286"/>
<path d="M48.229 85.8988C48.229 85.9668 47.949 86.0049 47.615 85.9759C47.281 85.9469 47.015 85.8758 47.021 85.8068C47.027 85.7378 47.301 85.7008 47.635 85.7248C47.969 85.7488 48.234 85.8318 48.229 85.8988Z" fill="#FE9286"/>
<path d="M53.122 86.2848C52.2994 86.3885 51.4642 86.3229 50.668 86.0918C51.0743 86.0005 51.4948 85.9906 51.905 86.0628C52.3215 86.0531 52.7357 86.1287 53.122 86.2848V86.2848Z" fill="#FE9286"/>
<path d="M58.0449 86.6668C57.2223 86.7705 56.3872 86.7048 55.5909 86.4738C56.4135 86.37 57.2487 86.4357 58.0449 86.6668V86.6668Z" fill="#FE9286"/>
<path d="M62.954 87.052C62.1314 87.1557 61.2963 87.09 60.5 86.859C60.9064 86.7679 61.3268 86.758 61.737 86.83C62.1537 86.8188 62.5681 86.8944 62.954 87.052V87.052Z" fill="#FE9286"/>
<path d="M67.867 87.435C67.4609 87.529 67.0399 87.5388 66.63 87.4639C66.2142 87.4734 65.8006 87.4007 65.413 87.25C65.818 87.1511 66.239 87.1364 66.65 87.207C67.0666 87.2033 67.4799 87.2807 67.867 87.435V87.435Z" fill="#FE9286"/>
<path d="M72.776 87.8208C72.3696 87.9119 71.9492 87.9218 71.539 87.8498C71.1225 87.8595 70.7083 87.784 70.322 87.6278C71.1446 87.5241 71.9797 87.5898 72.776 87.8208V87.8208Z" fill="#FE9286"/>
<path d="M76.4339 88.1068C76.4339 88.1798 76.1589 88.2128 75.8249 88.1888C75.4909 88.1648 75.2249 88.0828 75.2309 88.0148C75.2369 87.9468 75.5109 87.9088 75.8449 87.9378C76.1789 87.9668 76.4439 88.0388 76.4339 88.1068Z" fill="#FE9286"/>
<path d="M80.3371 32.7534C82.9804 21.3106 75.8471 9.89159 64.4044 7.24825C52.9616 4.6049 41.5426 11.7382 38.8992 23.181C36.2559 34.6237 43.3892 46.0428 54.832 48.6861C66.2747 51.3294 77.6937 44.1961 80.3371 32.7534Z" fill="white"/>
<path d="M80.908 27.9749C80.9048 27.8584 80.8951 27.7423 80.879 27.6269C80.85 27.3949 80.84 27.0569 80.811 26.6169C80.8097 26.37 80.7954 26.1233 80.768 25.8779C80.744 25.6029 80.686 25.3079 80.638 24.9889C80.59 24.6699 80.532 24.3219 80.474 23.9499C80.4015 23.5585 80.308 23.1713 80.194 22.7899C79.7007 20.8003 78.9072 18.8975 77.841 17.1469C76.4475 14.815 74.6167 12.7742 72.449 11.1369L71.531 10.4509C71.207 10.2429 70.869 10.0509 70.531 9.84188C70.1993 9.62027 69.854 9.41987 69.497 9.24188L68.397 8.71488L67.841 8.44888L67.255 8.24188L66.066 7.80688C65.66 7.67188 65.235 7.58988 64.82 7.47388C64.3983 7.34996 63.9691 7.25309 63.535 7.18388C62.6526 7.01918 61.7598 6.91593 60.863 6.87488C60.404 6.87488 59.945 6.81188 59.481 6.82188L58.081 6.89388C57.8452 6.88625 57.6092 6.90065 57.376 6.93688L56.671 7.04788C56.188 7.12488 55.705 7.17788 55.246 7.27988C54.2881 7.49125 53.3456 7.76722 52.425 8.10588C51.4791 8.44772 50.5574 8.85297 49.666 9.31888C49.222 9.56088 48.792 9.84088 48.347 10.1069C48.134 10.2419 47.903 10.3629 47.695 10.5179L47.072 11.0009C46.2221 11.6252 45.4146 12.3053 44.655 13.0369L43.578 14.2209L43.307 14.5209L43.065 14.8399L42.582 15.4869L42.099 16.1389L41.674 16.8389L41.249 17.5389L41.036 17.8919L40.852 18.2589L40.137 19.7519L39.591 21.3029C38.1385 25.634 38.1385 30.3207 39.591 34.6519C39.784 35.1739 39.978 35.6959 40.166 36.2169C40.354 36.7379 40.649 37.2169 40.886 37.7099L41.065 38.0769L41.278 38.4299L41.708 39.1299L42.133 39.8299L42.616 40.4819L43.099 41.1289L43.341 41.4529L43.612 41.7479L44.685 42.9319C45.4443 43.6659 46.2514 44.3487 47.101 44.9759L47.724 45.4589C47.932 45.6179 48.164 45.7339 48.376 45.8739C48.82 46.1349 49.25 46.4149 49.695 46.6619C50.5864 47.1278 51.5081 47.533 52.454 47.8749C53.3761 48.2091 54.3183 48.4849 55.275 48.7009C55.758 48.8009 56.241 48.8559 56.7 48.9329L57.405 49.0389C57.642 49.0729 57.888 49.0679 58.11 49.0869L59.51 49.1589C59.993 49.1589 60.433 49.1199 60.892 49.1059C61.7905 49.0632 62.685 48.9583 63.569 48.7919C64.0013 48.7221 64.4288 48.6253 64.849 48.5019C65.269 48.3909 65.69 48.3019 66.095 48.1689L67.288 47.7339L67.873 47.5209L68.433 47.2549L69.533 46.7279C69.8878 46.5459 70.233 46.3457 70.567 46.1279C70.905 45.9279 71.243 45.7279 71.567 45.5189L72.485 44.8379C74.6487 43.1976 76.4774 41.1574 77.872 38.8279C78.9237 37.0665 79.7022 35.1557 80.181 33.1609C80.295 32.7795 80.3885 32.3923 80.461 32.0009C80.519 31.6339 80.572 31.2859 80.625 30.9669C80.678 30.6479 80.731 30.3489 80.755 30.0779C80.779 29.8069 80.789 29.5559 80.798 29.3339C80.827 28.8939 80.851 28.5609 80.866 28.3239C80.881 28.0869 80.895 27.9809 80.895 27.9809V28.3239C80.895 28.5509 80.871 28.8989 80.856 29.3389C80.8607 29.5874 80.8494 29.8359 80.822 30.0829C80.788 30.3439 80.745 30.6529 80.701 30.9769C80.657 31.3009 80.601 31.6489 80.546 32.0159C80.479 32.4102 80.3902 32.8004 80.28 33.1849C79.8039 35.196 79.0218 37.1221 77.961 38.8959C76.5718 41.254 74.7379 43.3199 72.561 44.9789L71.643 45.6699C71.319 45.8829 70.976 46.0809 70.643 46.2879C70.3091 46.5114 69.9622 46.7148 69.604 46.8969L68.498 47.4329L67.933 47.7039L67.339 47.9209L66.139 48.3609C65.728 48.4959 65.303 48.5879 64.878 48.7039C64.4541 48.8272 64.0234 48.9257 63.588 48.9989C62.694 49.1649 61.7901 49.2714 60.882 49.3179C60.399 49.3179 59.959 49.3809 59.491 49.3759L58.075 49.3039C57.8359 49.3114 57.5965 49.297 57.36 49.2609L56.645 49.1549C56.162 49.0779 55.679 49.0199 55.196 48.9229C53.2345 48.4842 51.3378 47.7942 49.553 46.8699C49.099 46.6239 48.669 46.3389 48.22 46.0699C48.003 45.9299 47.766 45.8139 47.558 45.6549L46.925 45.1719C46.0756 44.5375 45.2686 43.8484 44.509 43.1089L43.417 41.9089L43.146 41.6089L42.9 41.2849L42.417 40.6279L41.934 39.9709L41.504 39.2659L41.05 38.5509L40.833 38.1979L40.649 37.8209C40.4077 37.3249 40.166 36.8225 39.924 36.3139C39.731 35.7869 39.537 35.2609 39.339 34.7289C37.868 30.3491 37.868 25.6087 39.339 21.2289L39.919 19.6439C40.161 19.1369 40.402 18.6339 40.649 18.1319L40.828 17.7599L41.045 17.4069L41.475 16.6969L41.91 15.9919L42.393 15.3349L42.876 14.6779L43.122 14.3539L43.397 14.0539L44.484 12.8539C45.2425 12.1147 46.0496 11.4272 46.9 10.7959L47.528 10.3129C47.736 10.1579 47.972 10.0379 48.19 9.89788C48.639 9.63188 49.069 9.34688 49.523 9.10588C51.3078 8.18158 53.2045 7.49154 55.166 7.05288C55.649 6.95288 56.132 6.89788 56.615 6.82088L57.33 6.71488C57.567 6.68088 57.813 6.68588 58.045 6.66688L59.461 6.59888C59.944 6.59888 60.393 6.63788 60.852 6.65188C61.7584 6.69738 62.6606 6.80564 63.552 6.97588C63.9896 7.04622 64.4222 7.14476 64.847 7.27088C65.272 7.38688 65.697 7.47088 66.103 7.60888L67.303 8.05288L67.897 8.26988L68.457 8.54088L69.568 9.07688C69.935 9.24588 70.268 9.48288 70.607 9.67688C70.946 9.87088 71.283 10.0829 71.607 10.2949L72.53 10.9859C74.7058 12.646 76.5395 14.7117 77.93 17.0689C78.9916 18.8362 79.777 20.7554 80.259 22.7599C80.3687 23.1445 80.4575 23.5347 80.525 23.9289C80.583 24.3009 80.631 24.6489 80.68 24.9679C80.729 25.2869 80.78 25.5909 80.801 25.8619C80.822 26.1329 80.825 26.3889 80.835 26.6109C80.835 27.0509 80.864 27.3889 80.874 27.6209C80.8776 27.7395 80.8889 27.8578 80.908 27.9749Z" fill="#FE9286"/>
<path d="M60.64 20.173C60.7028 20.1523 60.7675 20.1379 60.833 20.13C61.024 20.1067 61.2171 20.1067 61.408 20.13C62.1351 20.1849 62.8195 20.4944 63.341 21.004C63.7705 21.4251 64.0732 21.9583 64.2148 22.5429C64.3564 23.1275 64.3311 23.7401 64.1418 24.3111C63.9526 24.882 63.607 25.3884 63.1442 25.7728C62.6815 26.1571 62.1202 26.4039 61.5242 26.4851C60.9282 26.5663 60.3214 26.4787 59.7727 26.2322C59.224 25.9857 58.7555 25.5903 58.4203 25.0908C58.0852 24.5913 57.8969 24.0078 57.8769 23.4066C57.8569 22.8054 58.0059 22.2107 58.307 21.69C58.6663 21.0662 59.2323 20.5876 59.907 20.337C60.0875 20.2672 60.2754 20.2186 60.467 20.192C60.5332 20.1808 60.6008 20.1808 60.667 20.192C60.4184 20.2499 60.1756 20.3309 59.942 20.434C59.3105 20.7087 58.7875 21.1844 58.454 21.787C58.2119 22.2319 58.0851 22.7304 58.0851 23.237C58.0851 23.7435 58.2119 24.242 58.454 24.687C58.7317 25.2116 59.1587 25.6421 59.681 25.924C60.3162 26.2648 61.0526 26.3665 61.7563 26.2105C62.4601 26.0545 63.0845 25.6513 63.5162 25.074C63.9479 24.4967 64.1581 23.7837 64.1087 23.0645C64.0593 22.3454 63.7536 21.6678 63.247 21.155C62.7635 20.6636 62.1303 20.347 61.447 20.255C61.18 20.2108 60.9105 20.1834 60.64 20.173V20.173Z" fill="#263238"/>
<path d="M61.823 16.1869L61.78 16.0869L61.654 15.7869L61.171 14.5599H61.214L58.314 14.9759L58.367 14.9179C58.324 15.4489 58.275 16.0389 58.227 16.6669V16.7099H58.184C57.605 16.9577 57.0621 17.2826 56.57 17.6759L56.531 17.7049H56.488L54.888 16.9849L54.999 16.9559L53.245 19.2699V19.1489L54.376 20.4919L54.415 20.5399V20.5979C54.1756 21.174 54.0132 21.7792 53.932 22.3979V22.4699H53.869L52.223 23.0869L52.295 22.9659C52.421 23.8659 52.551 24.8449 52.695 25.8659L52.589 25.7659L54.338 25.9159H54.41V25.9839C54.6609 26.5598 54.9857 27.1007 55.376 27.5929L55.419 27.6509L55.39 27.7189L54.66 29.3129L54.626 29.1679L56.935 30.9219H56.78L58.128 29.7959L58.186 29.7479L58.254 29.7769C58.8303 30.016 59.4355 30.1784 60.054 30.2599V30.2599L60.16 30.3419V30.4189L60.199 30.5189L60.276 30.7269L60.426 31.1379C60.532 31.4129 60.634 31.6889 60.735 31.9589L60.6 31.8769L63.5 31.4899L63.394 31.6009C63.442 31.0119 63.494 30.4269 63.549 29.8519V29.7799L63.617 29.7509C64.1932 29.5125 64.7344 29.1973 65.226 28.8139L65.284 28.7709L65.352 28.7999L66.952 29.5299L66.807 29.5689C67.407 28.7762 67.9947 28.0065 68.57 27.2599V27.4049C68.188 26.9219 67.816 26.4969 67.444 26.0569L67.401 26.0039L67.43 25.9409C67.6688 25.3645 67.8312 24.7594 67.913 24.1409V24.0729L67.971 24.0489L69.618 23.4399L69.55 23.5509C69.415 22.5409 69.289 21.5849 69.168 20.6509L69.255 20.7329L67.506 20.5739H67.453V20.5259C67.2136 19.9475 66.8986 19.4034 66.516 18.9079L66.487 18.8649V18.8219L67.221 17.2279L67.245 17.3199L64.945 15.5419H65.013L63.66 16.6579H63.623C63.1847 16.4738 62.7301 16.3315 62.265 16.2329L61.922 16.1649L61.816 16.1889C61.856 16.1816 61.897 16.1816 61.937 16.1889C62.0539 16.1981 62.1701 16.2141 62.285 16.2369C62.757 16.3162 63.2188 16.4474 63.662 16.6279H63.623L64.956 15.4879L64.99 15.4589L65.029 15.4879L67.348 17.2319L67.396 17.2659L67.372 17.3239L66.647 18.9239V18.8419C67.0408 19.3455 67.3656 19.8994 67.613 20.4889L67.541 20.4359L69.29 20.5859H69.362V20.6629L69.762 23.5379V23.6249L69.685 23.6539L68.042 24.2719L68.114 24.1799C68.0357 24.8184 67.8733 25.4439 67.631 26.0399V25.9289C68.003 26.3689 68.38 26.8129 68.762 27.2719L68.82 27.3399L68.767 27.4169L67.008 29.7309L66.95 29.8029L66.863 29.7639L65.263 29.0389H65.389C64.8806 29.4336 64.3217 29.7585 63.727 30.0049L63.804 29.9049C63.751 30.4799 63.704 31.0649 63.649 31.6489V31.7489H63.549L60.649 32.1399H60.549L60.515 32.0399L60.215 31.2189L60.06 30.8079L59.983 30.5999L59.944 30.4999V30.4229L60.044 30.5049C59.404 30.4258 58.777 30.2635 58.179 30.0219H58.309L56.961 31.1479L56.884 31.2109L56.807 31.1529L54.498 29.3899L54.421 29.3319L54.46 29.2399L55.19 27.6459V27.7719C54.7943 27.2629 54.469 26.7028 54.223 26.1069L54.323 26.1789L52.579 26.0239H52.479V25.9319C52.344 24.9319 52.213 23.9559 52.092 23.0319V22.9449L52.179 22.9109L53.822 22.3019L53.754 22.3889C53.8329 21.7504 53.9953 21.1251 54.237 20.5289V20.6349C53.837 20.1519 53.459 19.7069 53.111 19.2869L53.063 19.2289L53.106 19.1659L54.874 16.8569L54.917 16.8039L54.985 16.8329L56.579 17.5669H56.492C56.998 17.1713 57.5555 16.8463 58.149 16.6009L58.106 16.6639C58.164 16.0309 58.222 15.4469 58.27 14.9149V14.8619H58.318L61.218 14.4949H61.252V14.5239C61.436 15.0509 61.581 15.4609 61.687 15.7509C61.73 15.8809 61.769 15.9879 61.793 16.0699C61.8084 16.1073 61.8185 16.1467 61.823 16.1869V16.1869Z" fill="#263238"/>
<path fill-rule="evenodd" clip-rule="evenodd" d="M56.722 33.2659C57.069 33.3093 57.4087 33.3988 57.732 33.5319L58.476 32.9139L59.751 33.8799L59.351 34.7589C59.566 35.034 59.7433 35.3367 59.878 35.6589L60.844 35.7459L61.057 37.3359L60.157 37.6739C60.1113 38.021 60.0202 38.3605 59.886 38.6839L60.509 39.4279L59.543 40.7029L58.664 40.3029C58.3869 40.5136 58.0845 40.689 57.764 40.8249L57.677 41.7909L56.088 42.0079L55.75 41.0999C55.403 41.0565 55.0634 40.967 54.74 40.8339L53.996 41.4569L52.721 40.4909L53.121 39.6069C52.905 39.3324 52.7277 39.0296 52.594 38.7069L51.628 38.6249L51.411 37.0359L52.319 36.6979C52.363 36.3494 52.4524 36.0082 52.585 35.6829L51.962 34.9439L52.928 33.6689L53.812 34.0689C54.0865 33.8529 54.3893 33.6755 54.712 33.5419L54.794 32.5759L56.384 32.3589L56.722 33.2669V33.2659ZM56.07 35.4739C55.732 35.5199 55.4152 35.6654 55.1601 35.892C54.9049 36.1185 54.7229 36.4158 54.6372 36.746C54.5515 37.0763 54.5659 37.4245 54.6787 37.7466C54.7914 38.0686 54.9974 38.3498 55.2704 38.5544C55.5434 38.7591 55.8711 38.8779 56.2118 38.8958C56.5525 38.9137 56.8909 38.8299 57.1838 38.655C57.4767 38.48 57.7111 38.222 57.8569 37.9136C58.0028 37.6051 58.0537 37.2603 58.003 36.9229C57.9359 36.4758 57.6955 36.0731 57.3337 35.8019C56.972 35.5307 56.518 35.4129 56.07 35.4739V35.4739Z" fill="#FE9286"/>
<path d="M132.822 45.1256C141.129 36.8183 141.129 23.3496 132.822 15.0424C124.515 6.73518 111.046 6.73518 102.739 15.0424C94.4314 23.3496 94.4314 36.8183 102.739 45.1256C111.046 53.4328 124.515 53.4328 132.822 45.1256Z" fill="white"/>
<path d="M139.052 30.0818C139.049 29.967 139.039 29.8525 139.023 29.7388C138.994 29.5118 138.984 29.1638 138.96 28.7288C138.96 28.5068 138.931 28.2458 138.917 27.9848C138.903 27.7238 138.83 27.4148 138.782 27.0958C138.734 26.7768 138.676 26.4288 138.618 26.0568C138.56 25.6848 138.434 25.3078 138.343 24.8968C137.846 22.9078 137.051 21.0054 135.985 19.2538C134.592 16.9233 132.763 14.8829 130.598 13.2438L129.68 12.5578C129.361 12.3498 129.023 12.1578 128.68 11.9488C128.349 11.7293 128.005 11.5289 127.651 11.3488L126.551 10.8218L125.991 10.5558L125.406 10.3428L124.213 9.90779C123.807 9.77779 123.387 9.69079 122.967 9.57479C122.546 9.45369 122.119 9.35686 121.687 9.28479C120.803 9.1198 119.908 9.01655 119.01 8.97579C118.551 8.97579 118.092 8.91779 117.628 8.92279L116.228 8.99479C115.992 8.98716 115.756 9.00155 115.523 9.03779L114.818 9.14879C114.335 9.22579 113.852 9.28379 113.393 9.38079C111.453 9.81889 109.578 10.5042 107.813 11.4198C107.369 11.6618 106.939 11.9468 106.499 12.2078C106.282 12.3478 106.05 12.4638 105.842 12.6188L105.224 13.1018C104.374 13.7272 103.567 14.4084 102.808 15.1408L101.731 16.3248L101.46 16.6248L101.218 16.9438L100.735 17.5908L100.252 18.2428L99.8271 18.9428L99.4021 19.6428L99.1891 19.9958L99.0101 20.3628L98.2901 21.8558L97.7201 23.4308C96.2641 27.7613 96.2641 32.4492 97.7201 36.7798L98.2951 38.3448L99.0101 39.8378L99.1941 40.2048L99.4071 40.5578L99.8321 41.2578L100.257 41.9578L100.74 42.6098L101.223 43.2568L101.465 43.5808L101.736 43.8758L102.821 45.0588C103.58 45.7913 104.387 46.4725 105.237 47.0978L105.86 47.5808C106.068 47.7398 106.3 47.8558 106.517 47.9958C106.957 48.2568 107.387 48.5418 107.831 48.7838C108.724 49.2506 109.647 49.6559 110.595 49.9968C111.517 50.3323 112.46 50.6082 113.417 50.8228C113.9 50.9228 114.383 50.9778 114.837 51.0548L115.542 51.1608C115.779 51.1948 116.025 51.1898 116.252 51.2088L117.652 51.2808C118.135 51.2808 118.575 51.2418 119.029 51.2278C119.927 51.1846 120.822 51.0814 121.706 50.9188C122.138 50.8449 122.565 50.7482 122.986 50.6288C123.406 50.5128 123.831 50.4288 124.232 50.2908L125.425 49.8608L126.014 49.6438L126.57 49.3778L127.67 48.8508C128.037 48.6868 128.361 48.4508 128.704 48.2568C129.047 48.0628 129.376 47.8568 129.704 47.6428L130.617 46.9618C132.783 45.3242 134.612 43.2835 136.004 40.9518C137.069 39.1981 137.864 37.2941 138.362 35.3038C138.454 34.8928 138.594 34.5158 138.637 34.1438C138.68 33.7718 138.748 33.4288 138.801 33.1098C138.854 32.7908 138.907 32.4918 138.936 32.2208C138.965 31.9498 138.965 31.6988 138.979 31.4768C139.003 31.0368 139.027 30.7038 139.042 30.4668C139.057 30.2298 139.071 30.1238 139.071 30.1238V30.4668C139.071 30.6938 139.071 31.0418 139.032 31.4818C139.036 31.7301 139.026 31.9785 139.003 32.2258C138.974 32.4868 138.921 32.7958 138.877 33.1198C138.833 33.4438 138.777 33.7918 138.727 34.1638C138.677 34.5358 138.548 34.9178 138.456 35.3278C137.979 37.3367 137.193 39.2595 136.127 41.0278C134.737 43.3837 132.903 45.4478 130.727 47.1058L129.804 47.7968C129.48 48.0138 129.137 48.2078 128.804 48.4198C128.471 48.6442 128.122 48.8447 127.76 49.0198L126.634 49.5198L126.069 49.7908L125.48 50.0078L124.28 50.4478C123.874 50.5828 123.444 50.6748 123.024 50.7908C122.598 50.9136 122.166 51.0121 121.729 51.0858C120.838 51.2561 119.935 51.3627 119.029 51.4048C118.546 51.4048 118.101 51.4678 117.629 51.4628L116.213 51.3908C115.974 51.3983 115.735 51.3839 115.498 51.3478L114.788 51.2418C114.305 51.1648 113.822 51.1068 113.339 51.0098C112.37 50.7951 111.417 50.5176 110.484 50.1788C109.527 49.8349 108.594 49.4266 107.692 48.9568C107.243 48.7108 106.808 48.4258 106.359 48.1568C106.142 48.0218 105.91 47.9008 105.697 47.7418L105.069 47.2588C104.22 46.6243 103.413 45.9352 102.653 45.1958L101.566 43.9958L101.291 43.6958L101.045 43.3718L100.562 42.7148L100.079 42.0578L99.6441 41.3528L99.2141 40.6478L98.9971 40.2898L98.8181 39.9178C98.5761 39.4348 98.3351 38.9178 98.0881 38.4058L97.5081 36.8208C96.0338 32.4415 96.0338 27.7 97.5081 23.3208L98.0881 21.7358L98.8181 20.2288L99.0021 19.8518L99.2151 19.4988L99.6501 18.7888L100.08 18.0838L100.563 17.4268L101.046 16.7748L101.292 16.4458L101.567 16.1458C101.929 15.7458 102.297 15.3458 102.654 14.9458C103.414 14.208 104.221 13.5205 105.07 12.8878L105.698 12.4048C105.911 12.2458 106.142 12.1248 106.36 11.9848C106.809 11.7188 107.244 11.4388 107.693 11.1928C108.594 10.7209 109.528 10.3126 110.486 9.97079C111.419 9.63201 112.372 9.35442 113.341 9.13979C113.824 9.03979 114.307 8.98479 114.79 8.90779L115.5 8.80179C115.737 8.76779 115.983 8.77279 116.215 8.75379L117.631 8.68579C118.114 8.68579 118.563 8.72479 119.022 8.74379C119.931 8.78547 120.835 8.89208 121.728 9.06279C122.164 9.13366 122.595 9.23219 123.018 9.35779C123.443 9.47379 123.868 9.55779 124.279 9.70079L125.479 10.1408L126.079 10.3868L126.644 10.6578L127.75 11.1938C128.117 11.3628 128.45 11.5998 128.789 11.7938C129.128 11.9878 129.47 12.1998 129.789 12.4118L130.707 13.1028C132.883 14.7629 134.717 16.8286 136.107 19.1858C137.171 20.9514 137.955 22.8712 138.431 24.8768C138.523 25.2918 138.658 25.6768 138.702 26.0458C138.746 26.4148 138.802 26.7658 138.852 27.0898C138.902 27.4138 138.952 27.7078 138.978 27.9788C139.004 28.2498 138.978 28.5058 139.007 28.7278C139.007 29.1678 139.036 29.5058 139.046 29.7428C139.056 29.9798 139.052 30.0818 139.052 30.0818Z" fill="#FE9286"/>
<path d="M126.916 34.6145C129.353 29.2273 126.962 22.8846 121.574 20.4476C116.187 18.0107 109.844 20.4023 107.407 25.7895C104.971 31.1767 107.362 37.5195 112.749 39.9564C118.137 42.3934 124.479 40.0017 126.916 34.6145Z" fill="#F5F5F5"/>
<path d="M106.476 29.493C106.48 29.5509 106.48 29.6091 106.476 29.667V30.551C106.471 30.7017 106.484 30.8524 106.515 31C106.542 31.3734 106.593 31.7446 106.67 32.111C106.858 33.1217 107.195 34.099 107.67 35.011C108.801 37.2042 110.66 38.9355 112.929 39.9078C115.197 40.8801 117.733 41.0329 120.101 40.34C120.584 40.1993 121.057 40.0265 121.517 39.823C121.984 39.6065 122.435 39.3561 122.865 39.074C123.308 38.7904 123.73 38.4773 124.131 38.137C124.527 37.7744 124.9 37.3869 125.247 36.977C125.96 36.1379 126.534 35.1903 126.947 34.17C127.363 33.1155 127.62 32.005 127.71 30.875C127.771 29.7375 127.66 28.5974 127.381 27.493C127.108 26.4253 126.665 25.4088 126.067 24.483C125.773 24.0314 125.45 23.5989 125.101 23.188C124.75 22.7959 124.372 22.4284 123.97 22.088C123.578 21.7528 123.163 21.446 122.728 21.17C120.412 19.7316 117.631 19.2383 114.961 19.7922C112.292 20.3461 109.937 21.9048 108.384 24.146C107.791 24.9864 107.329 25.9115 107.012 26.89C106.886 27.243 106.786 27.6046 106.712 27.972C106.678 28.131 106.64 28.272 106.612 28.412C106.584 28.552 106.573 28.673 106.559 28.784C106.53 28.997 106.506 29.161 106.491 29.267C106.485 29.3259 106.473 29.3841 106.457 29.441C106.449 29.3832 106.449 29.3247 106.457 29.267C106.457 29.137 106.486 28.972 106.505 28.76C106.505 28.644 106.529 28.518 106.544 28.383C106.559 28.248 106.597 28.098 106.631 27.939C106.698 27.566 106.791 27.1984 106.911 26.839C107.215 25.8447 107.67 24.9027 108.259 24.046C109.108 22.794 110.211 21.7357 111.498 20.9405C112.784 20.1452 114.225 19.6311 115.724 19.4317C117.223 19.2324 118.748 19.3523 120.197 19.7838C121.647 20.2152 122.989 20.9483 124.135 21.935C124.547 22.2811 124.935 22.6556 125.295 23.056C125.645 23.4743 125.968 23.9149 126.261 24.375C126.874 25.3227 127.329 26.3635 127.609 27.457C127.894 28.5818 128.008 29.7432 127.947 30.902C127.855 32.0618 127.591 33.2016 127.164 34.284C126.741 35.3376 126.152 36.3167 125.42 37.184C125.065 37.6032 124.682 37.9987 124.275 38.368C123.865 38.7182 123.432 39.0409 122.98 39.334C122.538 39.6201 122.076 39.875 121.598 40.097C119.351 41.0695 116.844 41.2665 114.472 40.657C112.99 40.2705 111.608 39.573 110.417 38.6109C109.225 37.6488 108.253 36.4441 107.563 35.077C107.094 34.1492 106.768 33.1556 106.597 32.13C106.528 31.7581 106.484 31.3819 106.467 31.004C106.467 30.84 106.438 30.69 106.438 30.55V30.173C106.432 30.0036 106.44 29.834 106.462 29.666C106.46 29.608 106.465 29.55 106.476 29.493V29.493Z" fill="#263238"/>
<path d="M122.017 30.5219C121.89 30.5351 121.762 30.5351 121.635 30.5219L120.596 30.5459H117.026V25.8159C117.026 25.3329 117.026 24.9159 117.05 24.6159C117.045 24.4675 117.053 24.3189 117.074 24.1719C117.096 24.3189 117.105 24.4673 117.103 24.6159V25.8159C117.103 26.8309 117.127 28.2319 117.127 29.7829V30.4829L117.055 30.4149C118.446 30.4149 119.674 30.4149 120.555 30.4389H121.594C121.738 30.4499 121.88 30.4777 122.017 30.5219Z" fill="#263238"/>
<path d="M117.128 21.2458C117.218 21.8424 117.218 22.4493 117.128 23.0458C117.038 22.4492 117.038 21.8424 117.128 21.2458Z" fill="#263238"/>
<path d="M122.007 22.6899C121.655 23.1706 121.232 23.5942 120.751 23.9459C120.908 23.6916 121.103 23.4635 121.331 23.2699C121.524 23.0421 121.752 22.8463 122.007 22.6899V22.6899Z" fill="#263238"/>
<path d="M124.858 25.8069C124.631 25.9953 124.383 26.1574 124.119 26.2899C123.879 26.4621 123.62 26.6048 123.346 26.7149C123.542 26.4899 123.78 26.3045 124.046 26.1689C124.292 25.999 124.567 25.8763 124.858 25.8069Z" fill="#263238"/>
<path d="M126.529 30.4309C125.713 30.5211 124.89 30.5211 124.075 30.4309C124.89 30.3407 125.713 30.3407 126.529 30.4309V30.4309Z" fill="#263238"/>
<path d="M109.528 30.2659C108.758 30.3561 107.979 30.3561 107.209 30.2659C107.979 30.1757 108.758 30.1757 109.528 30.2659V30.2659Z" fill="#263238"/>
<path d="M110.727 33.7058C110.471 34.0083 110.177 34.2771 109.853 34.5058C109.559 34.7718 109.235 35.0021 108.887 35.1918C109.438 34.6245 110.056 34.1264 110.728 33.7088L110.727 33.7058Z" fill="#263238"/>
<path d="M113.698 36.3679C113.524 36.7268 113.323 37.0724 113.098 37.4019C112.915 37.7553 112.703 38.0931 112.465 38.4119C112.582 38.0272 112.756 37.6623 112.982 37.3299C113.169 36.974 113.411 36.6494 113.698 36.3679V36.3679Z" fill="#263238"/>
<path d="M117.128 39.8029C117.038 38.9874 117.038 38.1644 117.128 37.3489C117.218 38.1644 117.218 38.9874 117.128 39.8029Z" fill="#263238"/>
<path d="M122.413 38.1708C122.04 37.9979 121.699 37.7644 121.403 37.4798C121.08 37.2239 120.801 36.9172 120.577 36.5718C120.899 36.8195 121.206 37.0867 121.495 37.3718C121.816 37.6202 122.123 37.887 122.413 38.1708Z" fill="#263238"/>
<path d="M124.897 35.508C124.598 35.3044 124.325 35.0642 124.085 34.793C123.811 34.5562 123.57 34.283 123.37 33.981C123.941 34.4235 124.454 34.9366 124.897 35.508V35.508Z" fill="#263238"/>
<path d="M110.615 26.9728C110.35 26.8002 110.109 26.5923 109.9 26.3548C109.66 26.1461 109.452 25.9036 109.282 25.6348C109.547 25.8073 109.788 26.0152 109.997 26.2528C110.237 26.4614 110.445 26.704 110.615 26.9728Z" fill="#263238"/>
<path d="M113.678 23.7429C113.413 23.5807 113.175 23.3782 112.973 23.1429C112.737 22.9407 112.532 22.7049 112.364 22.4429C112.629 22.6051 112.867 22.8075 113.069 23.0429C113.305 23.245 113.511 23.4809 113.678 23.7429V23.7429Z" fill="#263238"/>
<path d="M127.437 26.4459C130.305 25.2679 131.675 21.9879 130.497 19.1199C129.319 16.2519 126.039 14.8819 123.171 16.0599C120.303 17.2379 118.933 20.5179 120.111 23.3859C121.289 26.2539 124.569 27.6239 127.437 26.4459Z" fill="#FE9286"/>
<path d="M128.008 19.4968C127.809 19.8194 127.577 20.121 127.317 20.3968C126.873 20.9278 126.24 21.6578 125.529 22.4498C125.329 22.6668 125.138 22.8748 124.954 23.0828L124.872 23.1698L124.785 23.0928C124.142 22.5178 123.592 22.0058 123.205 21.6438C122.984 21.4624 122.787 21.253 122.62 21.0208C122.871 21.1595 123.103 21.3299 123.311 21.5278C123.726 21.8658 124.277 22.3538 124.944 22.9188H124.771C124.952 22.7128 125.14 22.5002 125.336 22.2808C126.046 21.4888 126.698 20.7808 127.182 20.2808C127.425 19.9878 127.703 19.7247 128.008 19.4968V19.4968Z" fill="#FAFAFA"/>
<path d="M74.404 113.703C74.361 113.655 74.723 113.249 75.22 112.803C75.4945 112.506 75.8222 112.264 76.186 112.088C75.9738 112.437 75.6969 112.743 75.37 112.988C74.873 113.432 74.453 113.775 74.404 113.703Z" fill="#FE9286"/>
<path d="M70.814 116.935C70.766 116.882 71.128 116.481 71.626 116.035C71.8992 115.738 72.2272 115.497 72.592 115.325C72.3805 115.673 72.1049 115.979 71.78 116.225C71.283 116.665 70.858 116.989 70.814 116.935Z" fill="#FE9286"/>
<path d="M67.22 120.169C67.172 120.116 67.539 119.686 68.037 119.269C68.3086 118.969 68.6369 118.726 69.003 118.554C69.046 118.607 68.684 119.008 68.187 119.454C67.9152 119.754 67.5865 119.997 67.22 120.169V120.169Z" fill="#FE9286"/>
<path d="M63.63 123.395C63.582 123.347 63.944 122.941 64.442 122.495C64.7175 122.199 65.045 121.957 65.408 121.78C65.1955 122.128 64.9201 122.433 64.596 122.68C64.323 122.978 63.995 123.221 63.63 123.395Z" fill="#FE9286"/>
<path d="M60.036 126.627C59.988 126.574 60.355 126.173 60.852 125.727C61.1265 125.43 61.4542 125.188 61.818 125.012C61.6058 125.361 61.3288 125.667 61.002 125.912C60.505 126.359 60.085 126.68 60.036 126.627Z" fill="#FE9286"/>
<path d="M67.7068 148.751C70.4089 137.32 63.3327 125.863 51.9017 123.161C40.4707 120.459 29.0136 127.535 26.3115 138.966C23.6094 150.397 30.6856 161.854 42.1166 164.556C53.5476 167.258 65.0047 160.182 67.7068 148.751Z" fill="white"/>
<path d="M68.293 143.87C68.2898 143.755 68.2801 143.64 68.264 143.527C68.235 143.3 68.23 142.957 68.201 142.517C68.201 142.295 68.172 142.034 68.158 141.773C68.144 141.512 68.071 141.203 68.023 140.884C67.975 140.565 67.917 140.217 67.859 139.85C67.7887 139.459 67.6969 139.072 67.584 138.691C67.0875 136.7 66.2925 134.796 65.226 133.043C63.8326 130.712 62.0037 128.672 59.839 127.033L58.921 126.333C58.597 126.12 58.259 125.927 57.921 125.719C57.5914 125.498 57.2476 125.3 56.892 125.125L55.792 124.598L55.232 124.332L54.647 124.115L53.454 123.685C53.048 123.55 52.628 123.463 52.208 123.347C51.7866 123.228 51.3594 123.131 50.928 123.057C50.0435 122.894 49.1492 122.791 48.251 122.748C47.797 122.748 47.333 122.69 46.869 122.695L45.469 122.767C45.2313 122.758 44.9934 122.774 44.759 122.815L44.054 122.921C43.571 122.998 43.088 123.056 42.634 123.153C41.6769 123.367 40.7346 123.643 39.813 123.979C38.8663 124.319 37.9445 124.724 37.054 125.192C36.605 125.434 36.175 125.719 35.735 125.98C35.518 126.12 35.286 126.236 35.083 126.395L34.46 126.878C33.6104 127.503 32.8033 128.184 32.044 128.917L30.971 130.101L30.7 130.401L30.454 130.725L29.971 131.372L29.488 132.019L29.063 132.719L28.638 133.419L28.425 133.772L28.246 134.144C28.004 134.627 27.763 135.134 27.526 135.632C27.289 136.13 27.144 136.676 26.951 137.202C25.495 141.531 25.495 146.217 26.951 150.546C27.144 151.068 27.333 151.594 27.526 152.111C27.719 152.628 28.009 153.111 28.241 153.604L28.425 153.976L28.638 154.324L29.063 155.024L29.488 155.724L29.971 156.371L30.454 157.018L30.696 157.342L30.967 157.642L32.044 158.826C32.8033 159.558 33.6104 160.239 34.46 160.865L35.078 161.348C35.286 161.503 35.518 161.619 35.735 161.759C36.175 162.02 36.605 162.305 37.049 162.547C37.9428 163.014 38.8677 163.42 39.817 163.761C40.7372 164.101 41.6798 164.377 42.638 164.587C43.121 164.687 43.604 164.742 44.058 164.819L44.763 164.93C45 164.959 45.246 164.959 45.473 164.973L46.873 165.045C47.356 165.045 47.796 165.006 48.25 164.992C49.1484 164.951 50.0429 164.848 50.927 164.683C51.3595 164.614 51.7871 164.517 52.207 164.393C52.627 164.277 53.052 164.193 53.453 164.06L54.646 163.625L55.235 163.412L55.791 163.146L56.891 162.615C57.258 162.451 57.582 162.215 57.925 162.021C58.268 161.827 58.597 161.621 58.925 161.407L59.838 160.726C62.0054 159.088 63.8363 157.048 65.23 154.716C66.2966 152.954 67.0915 151.042 67.588 149.044C67.7004 148.663 67.7922 148.276 67.863 147.885C67.921 147.513 67.979 147.17 68.027 146.846C68.075 146.522 68.133 146.232 68.162 145.957C68.191 145.682 68.191 145.435 68.205 145.213C68.234 144.778 68.253 144.44 68.268 144.203C68.283 143.966 68.297 143.86 68.297 143.86V144.208C68.297 144.44 68.297 144.778 68.258 145.218C68.262 145.468 68.2523 145.718 68.229 145.967C68.2 146.233 68.152 146.537 68.103 146.856C68.054 147.175 68.003 147.528 67.953 147.9C67.8832 148.294 67.7927 148.684 67.682 149.069C67.2033 151.074 66.4195 152.993 65.358 154.76C63.9658 157.114 62.1322 159.178 59.958 160.838L59.035 161.538C58.711 161.751 58.368 161.944 58.035 162.156C57.7015 162.38 57.3527 162.581 56.991 162.756L55.885 163.292L55.32 163.563L54.731 163.78L53.531 164.22C53.125 164.36 52.695 164.447 52.275 164.563C51.8498 164.688 51.4173 164.786 50.98 164.858C50.0887 165.028 49.1864 165.135 48.28 165.177C47.797 165.177 47.352 165.24 46.88 165.235L45.464 165.167C45.2263 165.175 44.9884 165.159 44.754 165.119L44.039 165.013C43.556 164.936 43.073 164.883 42.59 164.781C41.6207 164.568 40.6668 164.291 39.735 163.95C38.7774 163.606 37.8442 163.198 36.942 162.728C36.493 162.486 36.058 162.201 35.609 161.936C35.392 161.796 35.16 161.675 34.947 161.516L34.319 161.033C33.4685 160.4 32.6614 159.711 31.903 158.97L30.816 157.777L30.541 157.477L30.295 157.153L29.812 156.496L29.329 155.839L28.894 155.139L28.464 154.429L28.251 154.071L28.067 153.699L27.337 152.187L26.757 150.602C25.2827 146.223 25.2827 141.481 26.757 137.102L27.337 135.517C27.583 135.034 27.82 134.517 28.067 134.01L28.251 133.633L28.468 133.28L28.898 132.57L29.328 131.87L29.811 131.208L30.294 130.556L30.54 130.232L30.815 129.932L31.892 128.768C32.6516 128.028 33.4587 127.339 34.308 126.705L34.941 126.222C35.149 126.063 35.381 125.942 35.603 125.802C36.047 125.541 36.482 125.256 36.932 125.01C37.8352 124.542 38.7682 124.133 39.725 123.788C40.6628 123.453 41.6215 123.181 42.595 122.972C43.078 122.872 43.561 122.817 44.044 122.74L44.754 122.634C44.996 122.605 45.237 122.605 45.469 122.591L46.885 122.519C47.368 122.519 47.817 122.558 48.285 122.577C49.1914 122.619 50.0937 122.725 50.985 122.896C51.4203 122.969 51.8511 123.067 52.275 123.191C52.7 123.307 53.125 123.399 53.536 123.534L54.736 123.974L55.325 124.191L55.89 124.462L56.996 124.998C57.368 125.167 57.696 125.404 58.035 125.598C58.374 125.792 58.716 126.004 59.035 126.221L59.953 126.912C62.1285 128.57 63.9622 130.634 65.353 132.99C66.4191 134.758 67.2048 136.681 67.682 138.69C67.7932 139.073 67.8837 139.461 67.953 139.854C68.006 140.226 68.059 140.574 68.103 140.898C68.147 141.222 68.203 141.516 68.229 141.792C68.255 142.068 68.229 142.314 68.258 142.536C68.258 142.976 68.292 143.314 68.297 143.551C68.3007 143.657 68.2993 143.764 68.293 143.87V143.87Z" fill="#FE9286"/>
<path d="M57.693 153.393C57.5568 153.411 57.4194 153.419 57.282 153.417L56.108 153.441L51.76 153.484L37.483 153.528H36.348V153.393C36.348 148.079 36.377 143.276 36.387 139.793C36.387 138.088 36.421 136.701 36.43 135.711C36.43 135.228 36.43 134.88 36.454 134.605C36.4466 134.476 36.4466 134.347 36.454 134.218C36.4763 134.346 36.486 134.475 36.483 134.605V135.707C36.483 136.697 36.483 138.084 36.526 139.789C36.526 143.272 36.526 148.055 36.565 153.389L36.43 153.254H37.449L51.726 153.293L56.074 153.336L57.248 153.36C57.3971 153.356 57.5461 153.367 57.693 153.393V153.393Z" fill="#263238"/>
<path d="M55.336 138.869C55.1423 139.086 54.9305 139.287 54.703 139.469L52.915 141.039C51.393 142.358 49.282 144.165 46.943 146.146L46.585 146.446L46.493 146.523L46.406 146.441L43.749 143.972H43.942L40.042 147.19L38.911 148.09C38.78 148.204 38.6375 148.305 38.486 148.39C38.5965 148.255 38.7212 148.132 38.858 148.023L39.945 147.057L43.784 143.782L43.871 143.71L43.953 143.787L46.62 146.241H46.441L46.794 145.941C49.137 143.955 51.268 142.173 52.819 140.892L54.665 139.385C54.8773 139.196 55.1033 139.023 55.341 138.868L55.336 138.869Z" fill="#263238"/>
<path d="M55.335 143.31C55.2623 142.874 55.2315 142.432 55.243 141.991C55.243 141.17 55.2039 140.029 55.2039 138.764L55.334 138.899H55.1069C53.7879 138.899 52.595 138.899 51.725 138.86C51.2561 138.873 50.7871 138.84 50.325 138.76C50.7878 138.686 51.2563 138.652 51.725 138.66C52.59 138.66 53.7829 138.621 55.1069 138.621H55.4689V138.756C55.4689 140.022 55.469 141.172 55.43 141.983C55.4437 142.425 55.4101 142.867 55.3299 143.302L55.335 143.31Z" fill="#263238"/>
<path d="M46.4155 89.4063C49.2351 77.9988 42.2732 66.4655 30.8657 63.6459C19.4582 60.8263 7.92485 67.7882 5.10528 79.1957C2.28571 90.6032 9.24761 102.137 20.6551 104.956C32.0626 107.776 43.5959 100.814 46.4155 89.4063Z" fill="white"/>
<path d="M47.02 84.3038C47.017 84.1873 47.0073 84.0711 46.991 83.9558C46.962 83.7288 46.957 83.3858 46.928 82.9458C46.928 82.7238 46.899 82.4628 46.885 82.2018C46.871 81.9408 46.798 81.6368 46.75 81.3128C46.702 80.9888 46.644 80.6458 46.586 80.2788C46.528 79.9118 46.402 79.5298 46.311 79.1188C45.8117 77.1258 45.0136 75.2199 43.944 73.4658C42.551 71.1336 40.7221 69.0915 38.557 67.4508L37.663 66.7698C37.339 66.5618 37.001 66.3698 36.663 66.1608C36.3324 65.9402 35.9888 65.7398 35.634 65.5608L34.534 65.0338L33.974 64.7678L33.389 64.5548L32.196 64.1198C31.79 63.9848 31.37 63.8978 30.95 63.7868C30.5299 63.6633 30.1024 63.5665 29.67 63.4968C28.7849 63.3326 27.8894 63.2304 26.99 63.1908C26.536 63.1908 26.072 63.1278 25.608 63.1378L24.208 63.2098C23.9705 63.2021 23.7329 63.2165 23.498 63.2528L22.793 63.3638C22.31 63.4408 21.827 63.4938 21.373 63.5908C20.4153 63.8048 19.4729 64.0824 18.552 64.4218C17.6054 64.7618 16.6835 65.1671 15.793 65.6348C15.344 65.8768 14.914 66.1568 14.474 66.4228C14.257 66.5578 14.025 66.6788 13.822 66.8338L13.199 67.3168C12.3494 67.9422 11.5423 68.6234 10.783 69.3558L9.71004 70.5398L9.43904 70.8348L9.19304 71.1588L8.71004 71.8058L8.22704 72.4578L7.80204 73.1578L7.37704 73.8578L7.16404 74.2058L6.98504 74.5778L6.25504 76.0558L5.68004 77.6208C4.22407 81.9496 4.22407 86.6359 5.68004 90.9648C5.87304 91.4918 6.06204 92.0128 6.25504 92.5348C6.44804 93.0568 6.73804 93.5348 6.97004 94.0228L7.15404 94.3948L7.36704 94.7478L7.79204 95.4478L8.21704 96.1478L8.70004 96.7998L9.18304 97.4468L9.42504 97.7658L9.69604 98.0658L10.773 99.2498C11.5323 99.9822 12.3394 100.663 13.189 101.289L13.807 101.772C14.015 101.927 14.247 102.047 14.464 102.183C14.904 102.449 15.334 102.729 15.778 102.971C17.5455 103.886 19.4222 104.573 21.363 105.015C21.846 105.115 22.329 105.165 22.783 105.247L23.488 105.353C23.725 105.382 23.971 105.382 24.198 105.396L25.598 105.468C26.081 105.468 26.521 105.434 26.975 105.415C27.8735 105.374 28.768 105.271 29.652 105.106C30.0846 105.037 30.5121 104.94 30.932 104.816C31.352 104.705 31.777 104.616 32.178 104.483L33.371 104.048L33.96 103.835L34.516 103.569L35.616 103.042C35.983 102.873 36.307 102.636 36.65 102.442C36.993 102.248 37.322 102.042 37.65 101.833L38.563 101.152C40.7267 99.5065 42.5525 97.4591 43.94 95.1218C45.0051 93.3679 45.8007 91.464 46.3 89.4738C46.4125 89.0923 46.5043 88.7051 46.575 88.3138C46.633 87.9468 46.691 87.5988 46.739 87.2798C46.787 86.9608 46.845 86.6618 46.874 86.3908C46.903 86.1198 46.903 85.8688 46.917 85.6468C46.946 85.2068 46.965 84.8738 46.98 84.6368C46.995 84.3998 47.009 84.2938 47.009 84.2938V84.6368C47.009 84.8638 47.009 85.2118 46.97 85.6468C46.9741 85.8968 46.9644 86.1468 46.941 86.3958C46.912 86.6618 46.864 86.9658 46.815 87.2898C46.766 87.6138 46.715 87.9568 46.665 88.3288C46.5958 88.723 46.5053 89.1133 46.394 89.4978C45.9157 91.5036 45.1312 93.4238 44.068 95.1908C42.6787 97.5464 40.8479 99.6118 38.676 101.274L37.753 101.965C37.429 102.178 37.086 102.376 36.753 102.583C36.419 102.808 36.0706 103.011 35.71 103.191L34.604 103.727L34.039 103.993L33.45 104.21L32.25 104.654C31.844 104.789 31.414 104.876 30.994 104.992C30.569 105.119 30.1365 105.219 29.699 105.292C28.807 105.457 27.9051 105.564 26.999 105.611C26.516 105.611 26.071 105.674 25.599 105.669L24.183 105.597C23.9455 105.604 23.7078 105.589 23.473 105.553L22.758 105.442C22.275 105.365 21.792 105.312 21.309 105.215C20.3402 104.998 19.3865 104.719 18.454 104.379C17.4996 104.031 16.5698 103.62 15.671 103.147C15.222 102.905 14.787 102.62 14.338 102.355C14.121 102.215 13.889 102.099 13.676 101.94L13.048 101.457C12.1977 100.825 11.3905 100.138 10.632 99.3988L9.54504 98.1988L9.27004 97.8988L9.02404 97.5748L8.54104 96.9178L8.05804 96.2608L7.62304 95.5558L7.19304 94.8458L6.98004 94.4928L6.79604 94.1158C6.55404 93.6328 6.31304 93.1158 6.06604 92.6088L5.45704 91.0678C3.98275 86.6885 3.98275 81.947 5.45704 77.5678L6.03704 75.9828L6.76704 74.4708L6.95104 74.0988L7.16804 73.7408L7.59804 73.0358L8.02804 72.3308L8.51104 71.6738L8.99404 71.0168L9.24004 70.6928L9.51504 70.3928L10.607 69.1708C11.3655 68.4316 12.1727 67.7441 13.023 67.1128L13.656 66.6298C13.864 66.4748 14.096 66.3548 14.318 66.2148C14.762 65.9488 15.197 65.6638 15.647 65.4228C16.549 64.9527 17.4818 64.5444 18.439 64.2008C19.3709 63.8598 20.3247 63.5822 21.294 63.3698C21.777 63.2698 22.26 63.2148 22.743 63.1378L23.453 63.0268C23.695 62.9978 23.936 62.9978 24.168 62.9838L25.584 62.9158C26.067 62.9158 26.516 62.9548 26.984 62.9688C27.8901 63.0156 28.792 63.1221 29.684 63.2878C30.12 63.3603 30.5508 63.4605 30.974 63.5878C31.399 63.7038 31.824 63.7878 32.235 63.9258L33.435 64.3698L34.024 64.5868L34.589 64.8528L35.729 65.3988C36.101 65.5678 36.429 65.8098 36.768 66.0078C37.107 66.2058 37.449 66.4138 37.768 66.6258L38.686 67.3168C40.8618 68.9769 42.6955 71.0426 44.086 73.3998C45.1517 75.1651 45.9374 77.0848 46.415 79.0908C46.507 79.5058 46.642 79.8828 46.686 80.2598C46.73 80.6368 46.792 80.9748 46.836 81.2988C46.88 81.6228 46.936 81.9168 46.962 82.1928C46.988 82.4688 46.962 82.7148 46.991 82.9418C46.991 83.3818 47.02 83.7148 47.03 83.9518C47.039 84.0691 47.0357 84.1871 47.02 84.3038V84.3038Z" fill="#FE9286"/>
<path d="M26.299 75.0428L28.599 79.7148C28.6434 79.801 28.7078 79.8755 28.7868 79.9318C28.8657 79.9882 28.957 80.0248 29.053 80.0388L34.208 80.7878C34.3186 80.8043 34.4224 80.8515 34.5077 80.9239C34.5929 80.9963 34.6562 81.0911 34.6904 81.1976C34.7247 81.3041 34.7284 81.4181 34.7013 81.5266C34.6742 81.6351 34.6173 81.7339 34.537 81.8118L30.807 85.4448C30.738 85.513 30.6866 85.597 30.6571 85.6895C30.6277 85.782 30.6211 85.8802 30.638 85.9758L31.517 91.1068C31.536 91.2171 31.5237 91.3305 31.4816 91.4342C31.4395 91.5379 31.3692 91.6277 31.2787 91.6936C31.1882 91.7594 31.0811 91.7987 30.9695 91.8068C30.8578 91.815 30.7461 91.7918 30.647 91.7398L26.038 89.3238C25.9524 89.2784 25.8569 89.2547 25.76 89.2547C25.6631 89.2547 25.5677 89.2784 25.482 89.3238L20.874 91.7398C20.7753 91.7929 20.6635 91.8169 20.5517 91.8092C20.4398 91.8014 20.3325 91.7621 20.242 91.6959C20.1515 91.6297 20.0816 91.5393 20.0404 91.435C19.9992 91.3308 19.9883 91.217 20.009 91.1068L20.888 85.9758C20.9035 85.8798 20.8958 85.7815 20.8655 85.6891C20.8352 85.5968 20.7833 85.513 20.714 85.4448L16.984 81.8118C16.9037 81.7336 16.8468 81.6345 16.8199 81.5257C16.793 81.4169 16.7971 81.3027 16.8318 81.1961C16.8664 81.0895 16.9303 80.9948 17.016 80.9226C17.1018 80.8504 17.2061 80.8037 17.317 80.7878L22.472 80.0388C22.5674 80.0248 22.658 79.9881 22.7361 79.9317C22.8143 79.8753 22.8777 79.8009 22.921 79.7148L25.221 75.0428C25.2709 74.9432 25.3475 74.8595 25.4422 74.8009C25.537 74.7424 25.6462 74.7114 25.7575 74.7114C25.8689 74.7114 25.9781 74.7424 26.0728 74.8009C26.1676 74.8595 26.2442 74.9432 26.294 75.0428H26.299Z" fill="#FAFAFA"/>
<path d="M26.296 75.042C26.296 75.042 26.296 74.994 26.196 74.916C26.1282 74.8452 26.0438 74.7926 25.9505 74.763C25.8571 74.7333 25.7578 74.7276 25.6617 74.7463C25.5655 74.765 25.4756 74.8076 25.4002 74.8701C25.3248 74.9325 25.2662 75.013 25.23 75.104L24.781 76.041C24.443 76.746 24.027 77.602 23.544 78.597L23.167 79.37C23.104 79.505 23.037 79.641 22.967 79.776C22.8808 79.9318 22.7373 80.048 22.567 80.1C21.924 80.206 21.282 80.293 20.591 80.4L18.427 80.724L17.282 80.898C17.1987 80.9142 17.1212 80.9522 17.0572 81.0079C16.9932 81.0637 16.9451 81.1353 16.9176 81.2156C16.8901 81.2959 16.8843 81.3821 16.9007 81.4653C16.9171 81.5486 16.9551 81.6261 17.011 81.69L20.746 85.333C20.8476 85.4218 20.9226 85.537 20.9627 85.6659C21.0028 85.7947 21.0063 85.9322 20.973 86.063L20.857 86.763C20.775 87.246 20.698 87.7 20.615 88.174C20.456 89.14 20.286 90.107 20.132 91.074C20.1063 91.1736 20.1131 91.2789 20.1514 91.3744C20.1897 91.4699 20.2575 91.5507 20.345 91.605C20.4287 91.6611 20.5299 91.6852 20.63 91.673C20.7378 91.6586 20.8406 91.6188 20.93 91.557L22.297 90.842L25.096 89.387L25.454 89.199C25.6046 89.1281 25.7746 89.1095 25.937 89.146C26.0739 89.1878 26.2053 89.2462 26.328 89.32L26.676 89.504L28.063 90.234L30.763 91.654C30.8316 91.682 30.9058 91.6939 30.9798 91.6887C31.0537 91.6835 31.1255 91.6613 31.1895 91.6239C31.2535 91.5864 31.3081 91.5348 31.3489 91.4729C31.3897 91.411 31.4158 91.3405 31.425 91.267C31.4245 91.1549 31.4114 91.0432 31.386 90.934L31.14 89.485C30.981 88.519 30.821 87.606 30.657 86.692L30.541 86.016C30.5174 85.8859 30.5292 85.7518 30.5751 85.6278C30.6211 85.5038 30.6994 85.3944 30.802 85.311C31.121 84.997 31.44 84.693 31.768 84.388C32.396 83.7793 33.003 83.1883 33.589 82.615L34.459 81.774C34.5271 81.7257 34.5815 81.6607 34.6169 81.5852C34.6524 81.5097 34.6677 81.4263 34.6614 81.3431C34.655 81.26 34.6272 81.1798 34.5807 81.1106C34.5342 81.0413 34.4706 80.9853 34.396 80.948C34.2303 80.8848 34.056 80.8474 33.879 80.837L33.314 80.755L32.256 80.596L30.29 80.301L29.382 80.166C29.232 80.137 29.102 80.132 28.942 80.089C28.7901 80.0395 28.6614 79.9364 28.58 79.799L27.334 77.238L26.551 75.61L26.358 75.19C26.315 75.09 26.295 75.04 26.295 75.04C26.328 75.0813 26.3555 75.1266 26.377 75.175C26.435 75.281 26.507 75.417 26.594 75.59C26.794 75.972 27.077 76.508 27.41 77.19L28.69 79.722C28.7507 79.831 28.8481 79.915 28.965 79.959C29.081 79.993 29.245 80.002 29.385 80.027L30.285 80.153L32.256 80.433L33.314 80.583L33.865 80.66C34.0639 80.67 34.2598 80.7126 34.445 80.786C34.5428 80.8419 34.6257 80.9205 34.6868 81.0151C34.748 81.1098 34.7856 81.2177 34.7964 81.3298C34.8073 81.4419 34.7912 81.555 34.7493 81.6596C34.7075 81.7642 34.6412 81.8573 34.556 81.931L33.696 82.776L31.879 84.554L30.913 85.486C30.839 85.5403 30.782 85.6146 30.7487 85.7001C30.7154 85.7857 30.7072 85.8789 30.725 85.969L30.841 86.645C30.999 87.553 31.16 88.4836 31.324 89.437C31.406 89.92 31.488 90.403 31.575 90.886C31.6041 91.0172 31.6172 91.1516 31.614 91.286C31.6017 91.4376 31.5386 91.5806 31.435 91.692C31.335 91.8053 31.2015 91.8838 31.0538 91.916C30.9062 91.9482 30.7521 91.9324 30.614 91.871L27.894 90.451L26.546 89.722L26.198 89.538C26.0945 89.4755 25.9841 89.4251 25.869 89.388C25.7679 89.3669 25.6628 89.3789 25.569 89.422L25.216 89.606L22.428 91.055L21.061 91.775C20.9391 91.8505 20.8029 91.8999 20.661 91.92C20.5061 91.9325 20.3514 91.8935 20.221 91.809C20.0931 91.7277 19.9937 91.6086 19.9366 91.4683C19.8794 91.3281 19.8673 91.1734 19.902 91.026C20.0727 90.0406 20.2337 89.074 20.385 88.126C20.467 87.643 20.549 87.16 20.631 86.715L20.747 86.015C20.7777 85.9218 20.7794 85.8214 20.7517 85.7273C20.724 85.6331 20.6683 85.5497 20.592 85.488L16.843 81.811C16.7692 81.7175 16.7204 81.6068 16.701 81.4893C16.6815 81.3718 16.6922 81.2512 16.732 81.139C16.7694 81.0302 16.8331 80.9323 16.9173 80.854C17.0015 80.7757 17.1038 80.7194 17.215 80.69L18.375 80.521L20.539 80.221L22.501 79.941C22.6309 79.9023 22.7413 79.8158 22.81 79.699L23.01 79.299L23.397 78.531L24.672 75.995C24.851 75.647 25.005 75.338 25.155 75.067C25.2079 74.9441 25.2978 74.8408 25.4121 74.7714C25.5265 74.7021 25.6596 74.6701 25.793 74.68C25.8734 74.6856 25.9517 74.7078 26.0232 74.7451C26.0946 74.7825 26.1575 74.8342 26.208 74.897C26.2492 74.937 26.2795 74.9869 26.296 75.042V75.042Z" fill="#263238"/>
<path d="M46.4155 89.4063C49.2351 77.9988 42.2732 66.4655 30.8657 63.6459C19.4582 60.8263 7.92485 67.7882 5.10528 79.1957C2.28571 90.6032 9.24761 102.137 20.6551 104.956C32.0626 107.776 43.5959 100.814 46.4155 89.4063Z" fill="white"/>
<path d="M47.02 84.3038C47.017 84.1873 47.0073 84.0711 46.991 83.9558C46.962 83.7288 46.957 83.3858 46.928 82.9458C46.928 82.7238 46.899 82.4628 46.885 82.2018C46.871 81.9408 46.798 81.6368 46.75 81.3128C46.702 80.9888 46.644 80.6458 46.586 80.2788C46.528 79.9118 46.402 79.5298 46.311 79.1188C45.8117 77.1258 45.0136 75.2199 43.944 73.4658C42.551 71.1336 40.7221 69.0915 38.557 67.4508L37.663 66.7698C37.339 66.5618 37.001 66.3698 36.663 66.1608C36.3324 65.9402 35.9888 65.7398 35.634 65.5608L34.534 65.0338L33.974 64.7678L33.389 64.5548L32.196 64.1198C31.79 63.9848 31.37 63.8978 30.95 63.7868C30.5299 63.6633 30.1024 63.5665 29.67 63.4968C28.7849 63.3326 27.8894 63.2304 26.99 63.1908C26.536 63.1908 26.072 63.1278 25.608 63.1378L24.208 63.2098C23.9705 63.2021 23.7329 63.2165 23.498 63.2528L22.793 63.3638C22.31 63.4408 21.827 63.4938 21.373 63.5908C20.4153 63.8048 19.4729 64.0824 18.552 64.4218C17.6054 64.7618 16.6835 65.1671 15.793 65.6348C15.344 65.8768 14.914 66.1568 14.474 66.4228C14.257 66.5578 14.025 66.6788 13.822 66.8338L13.199 67.3168C12.3494 67.9422 11.5423 68.6234 10.783 69.3558L9.71004 70.5398L9.43904 70.8348L9.19304 71.1588L8.71004 71.8058L8.22704 72.4578L7.80204 73.1578L7.37704 73.8578L7.16404 74.2058L6.98504 74.5778L6.25504 76.0558L5.68004 77.6208C4.22407 81.9496 4.22407 86.6359 5.68004 90.9648C5.87304 91.4918 6.06204 92.0128 6.25504 92.5348C6.44804 93.0568 6.73804 93.5348 6.97004 94.0228L7.15404 94.3948L7.36704 94.7478L7.79204 95.4478L8.21704 96.1478L8.70004 96.7998L9.18304 97.4468L9.42504 97.7658L9.69604 98.0658L10.773 99.2498C11.5323 99.9822 12.3394 100.663 13.189 101.289L13.807 101.772C14.015 101.927 14.247 102.047 14.464 102.183C14.904 102.449 15.334 102.729 15.778 102.971C17.5455 103.886 19.4222 104.573 21.363 105.015C21.846 105.115 22.329 105.165 22.783 105.247L23.488 105.353C23.725 105.382 23.971 105.382 24.198 105.396L25.598 105.468C26.081 105.468 26.521 105.434 26.975 105.415C27.8735 105.374 28.768 105.271 29.652 105.106C30.0846 105.037 30.5121 104.94 30.932 104.816C31.352 104.705 31.777 104.616 32.178 104.483L33.371 104.048L33.96 103.835L34.516 103.569L35.616 103.042C35.983 102.873 36.307 102.636 36.65 102.442C36.993 102.248 37.322 102.042 37.65 101.833L38.563 101.152C40.7267 99.5065 42.5525 97.4591 43.94 95.1218C45.0051 93.3679 45.8007 91.464 46.3 89.4738C46.4125 89.0923 46.5043 88.7051 46.575 88.3138C46.633 87.9468 46.691 87.5988 46.739 87.2798C46.787 86.9608 46.845 86.6618 46.874 86.3908C46.903 86.1198 46.903 85.8688 46.917 85.6468C46.946 85.2068 46.965 84.8738 46.98 84.6368C46.995 84.3998 47.009 84.2938 47.009 84.2938V84.6368C47.009 84.8638 47.009 85.2118 46.97 85.6468C46.9741 85.8968 46.9644 86.1468 46.941 86.3958C46.912 86.6618 46.864 86.9658 46.815 87.2898C46.766 87.6138 46.715 87.9568 46.665 88.3288C46.5958 88.723 46.5053 89.1133 46.394 89.4978C45.9157 91.5036 45.1312 93.4238 44.068 95.1908C42.6787 97.5464 40.8479 99.6118 38.676 101.274L37.753 101.965C37.429 102.178 37.086 102.376 36.753 102.583C36.419 102.808 36.0706 103.011 35.71 103.191L34.604 103.727L34.039 103.993L33.45 104.21L32.25 104.654C31.844 104.789 31.414 104.876 30.994 104.992C30.569 105.119 30.1365 105.219 29.699 105.292C28.807 105.457 27.9051 105.564 26.999 105.611C26.516 105.611 26.071 105.674 25.599 105.669L24.183 105.597C23.9455 105.604 23.7078 105.589 23.473 105.553L22.758 105.442C22.275 105.365 21.792 105.312 21.309 105.215C20.3402 104.998 19.3865 104.719 18.454 104.379C17.4996 104.031 16.5698 103.62 15.671 103.147C15.222 102.905 14.787 102.62 14.338 102.355C14.121 102.215 13.889 102.099 13.676 101.94L13.048 101.457C12.1977 100.825 11.3905 100.138 10.632 99.3988L9.54504 98.1988L9.27004 97.8988L9.02404 97.5748L8.54104 96.9178L8.05804 96.2608L7.62304 95.5558L7.19304 94.8458L6.98004 94.4928L6.79604 94.1158C6.55404 93.6328 6.31304 93.1158 6.06604 92.6088L5.45704 91.0678C3.98275 86.6885 3.98275 81.947 5.45704 77.5678L6.03704 75.9828L6.76704 74.4708L6.95104 74.0988L7.16804 73.7408L7.59804 73.0358L8.02804 72.3308L8.51104 71.6738L8.99404 71.0168L9.24004 70.6928L9.51504 70.3928L10.607 69.1708C11.3655 68.4316 12.1727 67.7441 13.023 67.1128L13.656 66.6298C13.864 66.4748 14.096 66.3548 14.318 66.2148C14.762 65.9488 15.197 65.6638 15.647 65.4228C16.549 64.9527 17.4818 64.5444 18.439 64.2008C19.3709 63.8598 20.3247 63.5822 21.294 63.3698C21.777 63.2698 22.26 63.2148 22.743 63.1378L23.453 63.0268C23.695 62.9978 23.936 62.9978 24.168 62.9838L25.584 62.9158C26.067 62.9158 26.516 62.9548 26.984 62.9688C27.8901 63.0156 28.792 63.1221 29.684 63.2878C30.12 63.3603 30.5508 63.4605 30.974 63.5878C31.399 63.7038 31.824 63.7878 32.235 63.9258L33.435 64.3698L34.024 64.5868L34.589 64.8528L35.729 65.3988C36.101 65.5678 36.429 65.8098 36.768 66.0078C37.107 66.2058 37.449 66.4138 37.768 66.6258L38.686 67.3168C40.8618 68.9769 42.6955 71.0426 44.086 73.3998C45.1517 75.1651 45.9374 77.0848 46.415 79.0908C46.507 79.5058 46.642 79.8828 46.686 80.2598C46.73 80.6368 46.792 80.9748 46.836 81.2988C46.88 81.6228 46.936 81.9168 46.962 82.1928C46.988 82.4688 46.962 82.7148 46.991 82.9418C46.991 83.3818 47.02 83.7148 47.03 83.9518C47.039 84.0691 47.0357 84.1871 47.02 84.3038V84.3038Z" fill="#FE9286"/>
<path d="M26.299 75.0428L28.599 79.7148C28.6434 79.801 28.7078 79.8755 28.7868 79.9318C28.8657 79.9882 28.957 80.0248 29.053 80.0388L34.208 80.7878C34.3186 80.8043 34.4224 80.8515 34.5077 80.9239C34.5929 80.9963 34.6562 81.0911 34.6904 81.1976C34.7247 81.3041 34.7284 81.4181 34.7013 81.5266C34.6742 81.6351 34.6173 81.7339 34.537 81.8118L30.807 85.4448C30.738 85.513 30.6866 85.597 30.6571 85.6895C30.6277 85.782 30.6211 85.8802 30.638 85.9758L31.517 91.1068C31.536 91.2171 31.5237 91.3305 31.4816 91.4342C31.4395 91.5379 31.3692 91.6277 31.2787 91.6936C31.1882 91.7594 31.0811 91.7987 30.9695 91.8068C30.8578 91.815 30.7461 91.7918 30.647 91.7398L26.038 89.3238C25.9524 89.2784 25.8569 89.2547 25.76 89.2547C25.6631 89.2547 25.5677 89.2784 25.482 89.3238L20.874 91.7398C20.7753 91.7929 20.6635 91.8169 20.5517 91.8092C20.4398 91.8014 20.3325 91.7621 20.242 91.6959C20.1515 91.6297 20.0816 91.5393 20.0404 91.435C19.9992 91.3308 19.9883 91.217 20.009 91.1068L20.888 85.9758C20.9035 85.8798 20.8958 85.7815 20.8655 85.6891C20.8352 85.5968 20.7833 85.513 20.714 85.4448L16.984 81.8118C16.9037 81.7336 16.8468 81.6345 16.8199 81.5257C16.793 81.4169 16.7971 81.3027 16.8318 81.1961C16.8664 81.0895 16.9303 80.9948 17.016 80.9226C17.1018 80.8504 17.2061 80.8037 17.317 80.7878L22.472 80.0388C22.5674 80.0248 22.658 79.9881 22.7361 79.9317C22.8143 79.8753 22.8777 79.8009 22.921 79.7148L25.221 75.0428C25.2709 74.9432 25.3475 74.8595 25.4422 74.8009C25.537 74.7424 25.6462 74.7114 25.7575 74.7114C25.8689 74.7114 25.9781 74.7424 26.0728 74.8009C26.1676 74.8595 26.2442 74.9432 26.294 75.0428H26.299Z" fill="#FAFAFA"/>
<path d="M26.296 75.042C26.296 75.042 26.296 74.994 26.196 74.916C26.1282 74.8452 26.0438 74.7926 25.9505 74.763C25.8571 74.7333 25.7578 74.7276 25.6617 74.7463C25.5655 74.765 25.4756 74.8076 25.4002 74.8701C25.3248 74.9325 25.2662 75.013 25.23 75.104L24.781 76.041C24.443 76.746 24.027 77.602 23.544 78.597L23.167 79.37C23.104 79.505 23.037 79.641 22.967 79.776C22.8808 79.9318 22.7373 80.048 22.567 80.1C21.924 80.206 21.282 80.293 20.591 80.4L18.427 80.724L17.282 80.898C17.1987 80.9142 17.1212 80.9522 17.0572 81.0079C16.9932 81.0637 16.9451 81.1353 16.9176 81.2156C16.8901 81.2959 16.8843 81.3821 16.9007 81.4653C16.9171 81.5486 16.9551 81.6261 17.011 81.69L20.746 85.333C20.8476 85.4218 20.9226 85.537 20.9627 85.6659C21.0028 85.7947 21.0063 85.9322 20.973 86.063L20.857 86.763C20.775 87.246 20.698 87.7 20.615 88.174C20.456 89.14 20.286 90.107 20.132 91.074C20.1063 91.1736 20.1131 91.2789 20.1514 91.3744C20.1897 91.4699 20.2575 91.5507 20.345 91.605C20.4287 91.6611 20.5299 91.6852 20.63 91.673C20.7378 91.6586 20.8406 91.6188 20.93 91.557L22.297 90.842L25.096 89.387L25.454 89.199C25.6046 89.1281 25.7746 89.1095 25.937 89.146C26.0739 89.1878 26.2053 89.2462 26.328 89.32L26.676 89.504L28.063 90.234L30.763 91.654C30.8316 91.682 30.9058 91.6939 30.9798 91.6887C31.0537 91.6835 31.1255 91.6613 31.1895 91.6239C31.2535 91.5864 31.3081 91.5348 31.3489 91.4729C31.3897 91.411 31.4158 91.3405 31.425 91.267C31.4245 91.1549 31.4114 91.0432 31.386 90.934L31.14 89.485C30.981 88.519 30.821 87.606 30.657 86.692L30.541 86.016C30.5174 85.8859 30.5292 85.7518 30.5751 85.6278C30.6211 85.5038 30.6994 85.3944 30.802 85.311C31.121 84.997 31.44 84.693 31.768 84.388C32.396 83.7793 33.003 83.1883 33.589 82.615L34.459 81.774C34.5271 81.7257 34.5815 81.6607 34.6169 81.5852C34.6524 81.5097 34.6677 81.4263 34.6614 81.3431C34.655 81.26 34.6272 81.1798 34.5807 81.1106C34.5342 81.0413 34.4706 80.9853 34.396 80.948C34.2303 80.8848 34.056 80.8474 33.879 80.837L33.314 80.755L32.256 80.596L30.29 80.301L29.382 80.166C29.232 80.137 29.102 80.132 28.942 80.089C28.7901 80.0395 28.6614 79.9364 28.58 79.799L27.334 77.238L26.551 75.61L26.358 75.19C26.315 75.09 26.295 75.04 26.295 75.04C26.328 75.0813 26.3555 75.1266 26.377 75.175C26.435 75.281 26.507 75.417 26.594 75.59C26.794 75.972 27.077 76.508 27.41 77.19L28.69 79.722C28.7507 79.831 28.8481 79.915 28.965 79.959C29.081 79.993 29.245 80.002 29.385 80.027L30.285 80.153L32.256 80.433L33.314 80.583L33.865 80.66C34.0639 80.67 34.2598 80.7126 34.445 80.786C34.5428 80.8419 34.6257 80.9205 34.6868 81.0151C34.748 81.1098 34.7856 81.2177 34.7964 81.3298C34.8073 81.4419 34.7912 81.555 34.7493 81.6596C34.7075 81.7642 34.6412 81.8573 34.556 81.931L33.696 82.776L31.879 84.554L30.913 85.486C30.839 85.5403 30.782 85.6146 30.7487 85.7001C30.7154 85.7857 30.7072 85.8789 30.725 85.969L30.841 86.645C30.999 87.553 31.16 88.4836 31.324 89.437C31.406 89.92 31.488 90.403 31.575 90.886C31.6041 91.0172 31.6172 91.1516 31.614 91.286C31.6017 91.4376 31.5386 91.5806 31.435 91.692C31.335 91.8053 31.2015 91.8838 31.0538 91.916C30.9062 91.9482 30.7521 91.9324 30.614 91.871L27.894 90.451L26.546 89.722L26.198 89.538C26.0945 89.4755 25.9841 89.4251 25.869 89.388C25.7679 89.3669 25.6628 89.3789 25.569 89.422L25.216 89.606L22.428 91.055L21.061 91.775C20.9391 91.8505 20.8029 91.8999 20.661 91.92C20.5061 91.9325 20.3514 91.8935 20.221 91.809C20.0931 91.7277 19.9937 91.6086 19.9366 91.4683C19.8794 91.3281 19.8673 91.1734 19.902 91.026C20.0727 90.0406 20.2337 89.074 20.385 88.126C20.467 87.643 20.549 87.16 20.631 86.715L20.747 86.015C20.7777 85.9218 20.7794 85.8214 20.7517 85.7273C20.724 85.6331 20.6683 85.5497 20.592 85.488L16.843 81.811C16.7692 81.7175 16.7204 81.6068 16.701 81.4893C16.6815 81.3718 16.6922 81.2512 16.732 81.139C16.7694 81.0302 16.8331 80.9323 16.9173 80.854C17.0015 80.7757 17.1038 80.7194 17.215 80.69L18.375 80.521L20.539 80.221L22.501 79.941C22.6309 79.9023 22.7413 79.8158 22.81 79.699L23.01 79.299L23.397 78.531L24.672 75.995C24.851 75.647 25.005 75.338 25.155 75.067C25.2079 74.9441 25.2978 74.8408 25.4121 74.7714C25.5265 74.7021 25.6596 74.6701 25.793 74.68C25.8734 74.6856 25.9517 74.7078 26.0232 74.7451C26.0946 74.7825 26.1575 74.8342 26.208 74.897C26.2492 74.937 26.2795 74.9869 26.296 75.042V75.042Z" fill="#263238"/>
</g>
<defs>
<clipPath id="clip0_14_71">
<rect width="225.644" height="185.497" fill="white"/>
</clipPath>
</defs>
</svg>
