<svg width="256" height="177" viewBox="0 0 256 177" fill="none" xmlns="http://www.w3.org/2000/svg">
<g clip-path="url(#clip0_14_468)">
<path d="M230.959 33.833H96.883V111.958H230.959V33.833Z" fill="#263238"/>
<path d="M107.369 108.027C107.3 108.027 107.241 92.0519 107.241 72.3479C107.241 52.6439 107.31 36.6589 107.369 36.6589C107.428 36.6589 107.497 52.6289 107.497 72.3379C107.497 92.0469 107.443 108.027 107.369 108.027Z" fill="#E0E0E0"/>
<path d="M104.612 39.6771C103.137 39.8481 101.648 39.8481 100.173 39.6771C101.648 39.5061 103.137 39.5061 104.612 39.6771V39.6771Z" fill="#E0E0E0"/>
<path d="M104.612 44.378C103.137 44.549 101.648 44.549 100.173 44.378C101.648 44.207 103.137 44.207 104.612 44.378V44.378Z" fill="#E0E0E0"/>
<path d="M104.612 49.0831C103.137 49.2541 101.648 49.2541 100.173 49.0831C101.648 48.9121 103.137 48.9121 104.612 49.0831Z" fill="#E0E0E0"/>
<path d="M104.612 53.783C103.137 53.954 101.648 53.954 100.173 53.783C101.648 53.612 103.137 53.612 104.612 53.783V53.783Z" fill="#E0E0E0"/>
<path d="M104.612 58.484C103.137 58.6549 101.648 58.6549 100.173 58.484C101.648 58.313 103.137 58.313 104.612 58.484V58.484Z" fill="#E0E0E0"/>
<path d="M104.612 63.1891C103.137 63.3601 101.648 63.3601 100.173 63.1891C101.648 63.018 103.137 63.018 104.612 63.1891V63.1891Z" fill="#E0E0E0"/>
<path d="M104.612 67.889C103.137 68.06 101.648 68.06 100.173 67.889C101.648 67.718 103.137 67.718 104.612 67.889V67.889Z" fill="#E0E0E0"/>
<path d="M104.612 72.5899C103.137 72.7609 101.648 72.7609 100.173 72.5899C101.648 72.4189 103.137 72.4189 104.612 72.5899V72.5899Z" fill="#E0E0E0"/>
<path d="M104.612 77.295C103.137 77.466 101.648 77.466 100.173 77.295C101.648 77.124 103.137 77.124 104.612 77.295V77.295Z" fill="#E0E0E0"/>
<path d="M104.612 81.9949C103.137 82.166 101.648 82.166 100.173 81.9949C101.648 81.824 103.137 81.824 104.612 81.9949V81.9949Z" fill="#E0E0E0"/>
<path d="M104.612 86.6959C103.137 86.8669 101.648 86.8669 100.173 86.6959C101.648 86.5249 103.137 86.5249 104.612 86.6959V86.6959Z" fill="#E0E0E0"/>
<path d="M104.612 91.4061C103.137 91.577 101.648 91.577 100.173 91.4061C101.648 91.2351 103.137 91.2351 104.612 91.4061V91.4061Z" fill="#E0E0E0"/>
<path d="M104.612 96.1009C103.137 96.272 101.648 96.272 100.173 96.1009C101.648 95.9299 103.137 95.9299 104.612 96.1009V96.1009Z" fill="#E0E0E0"/>
<path d="M104.612 100.802C103.137 100.973 101.648 100.973 100.173 100.802C101.648 100.631 103.137 100.631 104.612 100.802Z" fill="#E0E0E0"/>
<path d="M104.612 105.507C103.137 105.678 101.648 105.678 100.173 105.507C101.648 105.336 103.137 105.336 104.612 105.507V105.507Z" fill="#E0E0E0"/>
<path d="M122.411 39.4009C122.411 39.4699 119.831 39.5289 116.65 39.5289C113.469 39.5289 110.884 39.4699 110.884 39.4009C110.884 39.3319 113.463 39.2729 116.65 39.2729C119.837 39.2729 122.411 39.3269 122.411 39.4009Z" fill="#FE9286"/>
<path d="M122.411 105.507C122.411 105.576 119.831 105.635 116.65 105.635C113.469 105.635 110.884 105.576 110.884 105.507C110.884 105.438 113.463 105.379 116.65 105.379C119.837 105.379 122.411 105.433 122.411 105.507Z" fill="#FE9286"/>
<path d="M138.458 49.0831C138.458 49.1521 133.629 49.2111 127.676 49.2111C121.723 49.2111 116.894 49.1521 116.894 49.0831C116.894 49.0141 121.723 48.9551 127.676 48.9551C133.629 48.9551 138.458 48.9901 138.458 49.0831Z" fill="#FE9286"/>
<path d="M163.389 49.0831C163.389 49.1521 158.565 49.2111 152.612 49.2111C146.659 49.2111 141.83 49.1521 141.83 49.0831C141.83 49.0141 146.654 48.9551 152.612 48.9551C158.57 48.9551 163.389 48.9901 163.389 49.0831Z" fill="#E0E0E0"/>
<path d="M153.864 53.783C153.864 53.852 146.747 53.911 137.977 53.911C129.207 53.911 122.086 53.852 122.086 53.783C122.086 53.714 129.198 53.655 137.977 53.655C146.756 53.655 153.864 53.714 153.864 53.783Z" fill="#E0E0E0"/>
<path d="M153.864 58.4839C153.864 58.5579 146.747 58.612 137.978 58.612C129.209 58.612 122.106 58.5579 122.106 58.4839C122.106 58.4099 129.218 58.356 137.998 58.356C146.778 58.356 153.864 58.4149 153.864 58.4839Z" fill="#E0E0E0"/>
<path d="M175.734 72.5899C175.734 72.6639 168.622 72.7179 159.848 72.7179C151.074 72.7179 143.961 72.6639 143.961 72.5899C143.961 72.5159 151.073 72.4619 159.848 72.4619C168.623 72.4619 175.734 72.5209 175.734 72.5899Z" fill="#E0E0E0"/>
<path d="M166.298 63.189C166.298 63.258 159.181 63.317 150.411 63.317C141.641 63.317 134.52 63.258 134.52 63.189C134.52 63.12 141.632 63.061 150.411 63.061C159.19 63.061 166.298 63.115 166.298 63.189Z" fill="#E0E0E0"/>
<path d="M205.124 63.189C205.124 63.258 198.012 63.317 189.238 63.317C180.464 63.317 173.352 63.258 173.352 63.189C173.352 63.12 180.464 63.061 189.238 63.061C198.012 63.061 205.124 63.115 205.124 63.189Z" fill="#E0E0E0"/>
<path d="M191.62 53.783C191.62 53.852 184.508 53.911 175.733 53.911C166.958 53.911 159.847 53.852 159.847 53.783C159.847 53.714 166.959 53.655 175.733 53.655C184.507 53.655 191.62 53.714 191.62 53.783Z" fill="#FAFAFA"/>
<path d="M213.573 72.5899C213.573 72.6639 206.456 72.7179 197.687 72.7179C188.918 72.7179 181.787 72.6639 181.787 72.5899C181.787 72.5159 188.899 72.4619 197.678 72.4619C206.457 72.4619 213.573 72.5209 213.573 72.5899Z" fill="#FAFAFA"/>
<path d="M209.188 58.4839C209.188 58.5579 198.14 58.612 184.527 58.612C170.914 58.612 159.866 58.5579 159.866 58.4839C159.866 58.4099 170.909 58.356 184.527 58.356C198.145 58.356 209.188 58.4149 209.188 58.4839Z" fill="#455A64"/>
<path d="M122.411 44.378C122.411 44.452 119.831 44.506 116.65 44.506C113.469 44.506 110.884 44.452 110.884 44.378C110.884 44.304 113.463 44.25 116.65 44.25C119.837 44.25 122.411 44.309 122.411 44.378Z" fill="#FAFAFA"/>
<path d="M122.411 100.802C122.411 100.876 119.831 100.93 116.65 100.93C113.469 100.93 110.884 100.876 110.884 100.802C110.884 100.728 113.463 100.674 116.65 100.674C119.837 100.674 122.411 100.733 122.411 100.802Z" fill="#FAFAFA"/>
<path d="M128.119 63.189C128.119 63.258 125.539 63.317 122.358 63.317C119.177 63.317 116.597 63.258 116.597 63.189C116.597 63.12 119.176 63.061 122.358 63.061C125.54 63.061 128.119 63.115 128.119 63.189Z" fill="#FAFAFA"/>
<path d="M220.478 63.189C220.478 63.258 217.898 63.317 214.717 63.317C211.536 63.317 208.956 63.258 208.956 63.189C208.956 63.12 211.535 63.061 214.717 63.061C217.899 63.061 220.478 63.115 220.478 63.189Z" fill="#FE9286"/>
<path d="M138.458 81.9659C138.458 82.0399 133.629 82.0939 127.676 82.0939C121.723 82.0939 116.894 82.0399 116.894 81.9659C116.894 81.8919 121.723 81.8379 127.676 81.8379C133.629 81.8379 138.458 81.8969 138.458 81.9659Z" fill="#FE9286"/>
<path d="M163.388 81.9659C163.388 82.0399 158.564 82.0939 152.611 82.0939C146.658 82.0939 141.835 82.0379 141.835 81.9659C141.835 81.8939 146.659 81.8379 152.617 81.8379C158.575 81.8379 163.388 81.8969 163.388 81.9659Z" fill="#E0E0E0"/>
<path d="M153.864 86.671C153.864 86.74 146.747 86.799 137.978 86.799C129.209 86.799 122.106 86.74 122.106 86.671C122.106 86.602 129.218 86.543 137.998 86.543C146.778 86.543 153.864 86.597 153.864 86.671Z" fill="#E0E0E0"/>
<path d="M153.864 91.3731C153.864 91.4421 146.747 91.5011 137.977 91.5011C129.207 91.5011 122.086 91.4421 122.086 91.3731C122.086 91.3041 129.198 91.2451 137.977 91.2451C146.756 91.2451 153.864 91.3021 153.864 91.3731Z" fill="#E0E0E0"/>
<path d="M166.298 96.0721C166.298 96.1461 159.181 96.2001 150.411 96.2001C141.641 96.2001 134.52 96.1461 134.52 96.0721C134.52 95.9981 141.632 95.9441 150.411 95.9441C159.19 95.9441 166.298 96.0031 166.298 96.0721Z" fill="#E0E0E0"/>
<path d="M205.124 96.0721C205.124 96.1461 198.012 96.2001 189.238 96.2001C180.464 96.2001 173.352 96.1461 173.352 96.0721C173.352 95.9981 180.464 95.9441 189.238 95.9441C198.012 95.9441 205.124 96.0031 205.124 96.0721Z" fill="#E0E0E0"/>
<path d="M191.62 86.671C191.62 86.74 184.508 86.799 175.733 86.799C166.958 86.799 159.847 86.74 159.847 86.671C159.847 86.602 166.959 86.543 175.733 86.543C184.507 86.543 191.62 86.597 191.62 86.671Z" fill="#FAFAFA"/>
<path d="M209.188 91.3731C209.188 91.4421 198.14 91.5011 184.527 91.5011C170.914 91.5011 159.866 91.4421 159.866 91.3731C159.866 91.3041 170.909 91.2451 184.527 91.2451C198.145 91.2451 209.188 91.3021 209.188 91.3731Z" fill="#455A64"/>
<path d="M128.119 96.0721C128.119 96.1461 125.539 96.2001 122.358 96.2001C119.177 96.2001 116.597 96.1461 116.597 96.0721C116.597 95.9981 119.176 95.9441 122.358 95.9441C125.54 95.9441 128.119 96.0031 128.119 96.0721Z" fill="#FAFAFA"/>
<path d="M220.478 96.0721C220.478 96.1461 217.898 96.2001 214.717 96.2001C211.536 96.2001 208.956 96.1461 208.956 96.0721C208.956 95.9981 211.535 95.9441 214.717 95.9441C217.899 95.9441 220.478 96.0031 220.478 96.0721Z" fill="#FE9286"/>
<path d="M26.485 72.896H173.195C174.077 72.896 174.922 73.2462 175.545 73.8696C176.169 74.4929 176.519 75.3384 176.519 76.22V167.465C176.519 169.371 175.762 171.199 174.414 172.546C173.067 173.894 171.239 174.651 169.333 174.651H29.851C27.9452 174.651 26.1174 173.894 24.7698 172.546C23.4221 171.199 22.665 169.371 22.665 167.465V76.713C22.6664 75.7006 23.0693 74.73 23.7855 74.0144C24.5017 73.2987 25.4726 72.8965 26.485 72.896V72.896Z" fill="#455A64"/>
<path d="M16.233 167.115H182.94V169.251C182.94 171.046 182.227 172.767 180.958 174.036C179.689 175.305 177.968 176.018 176.173 176.018H23C21.2053 176.018 19.4841 175.305 18.215 174.036C16.946 172.767 16.233 171.046 16.233 169.251V167.115Z" fill="#455A64"/>
<path d="M171.956 76.9399H26.793V162.858H171.956V76.9399Z" fill="#E0E0E0"/>
<path d="M84.425 167.115L86.491 170.405H115.591L117.515 167.115H84.425Z" fill="#263238"/>
<path d="M176.543 167.081H22.689V167.569H176.543V167.081Z" fill="#263238"/>
<path d="M168 81.917H31.103V162.859H168V81.917Z" fill="#263238"/>
<path d="M41.604 160.481C41.535 160.481 41.476 143.243 41.476 121.981C41.476 100.719 41.535 83.481 41.604 83.481C41.673 83.481 41.713 100.714 41.713 121.986C41.713 143.258 41.673 160.481 41.604 160.481Z" fill="#E0E0E0"/>
<path d="M38.8421 90.46C37.364 90.6309 35.8711 90.6309 34.3931 90.46C35.8678 90.2897 37.3573 90.2897 38.8321 90.46H38.8421Z" fill="#E0E0E0"/>
<path d="M39.015 86.09C37.537 86.261 36.0441 86.261 34.566 86.09C36.0408 85.9199 37.5303 85.9199 39.0051 86.09H39.015Z" fill="#E0E0E0"/>
<path d="M38.842 95.1711C37.3673 95.3413 35.8778 95.3413 34.403 95.1711C35.8778 95.0009 37.3673 95.0009 38.842 95.1711V95.1711Z" fill="#E0E0E0"/>
<path d="M38.842 99.88C37.3673 100.05 35.8778 100.05 34.403 99.88C35.8777 99.709 37.3673 99.709 38.842 99.88V99.88Z" fill="#E0E0E0"/>
<path d="M38.842 104.59C37.3673 104.76 35.8778 104.76 34.403 104.59C35.8777 104.419 37.3673 104.419 38.842 104.59V104.59Z" fill="#E0E0E0"/>
<path d="M38.842 109.3C37.3673 109.47 35.8778 109.47 34.403 109.3C35.8777 109.129 37.3673 109.129 38.842 109.3V109.3Z" fill="#E0E0E0"/>
<path d="M38.8421 114.006C37.3644 114.184 35.8708 114.184 34.3931 114.006C35.8678 113.836 37.3573 113.836 38.8321 114.006H38.8421Z" fill="#E0E0E0"/>
<path d="M38.8421 118.716C37.364 118.887 35.8711 118.887 34.3931 118.716C35.8678 118.546 37.3573 118.546 38.8321 118.716H38.8421Z" fill="#E0E0E0"/>
<path d="M38.8421 123.426C37.364 123.597 35.8711 123.597 34.3931 123.426C35.8678 123.256 37.3573 123.256 38.8321 123.426H38.8421Z" fill="#E0E0E0"/>
<path d="M38.8421 128.136C37.364 128.307 35.8711 128.307 34.3931 128.136C35.8678 127.966 37.3573 127.966 38.8321 128.136H38.8421Z" fill="#E0E0E0"/>
<path d="M38.842 132.837C37.3673 133.007 35.8778 133.007 34.403 132.837C35.8778 132.667 37.3673 132.667 38.842 132.837V132.837Z" fill="#E0E0E0"/>
<path d="M38.842 137.557C37.3673 137.727 35.8778 137.727 34.403 137.557C35.8777 137.386 37.3673 137.386 38.842 137.557Z" fill="#E0E0E0"/>
<path d="M38.842 142.267C37.3673 142.437 35.8778 142.437 34.403 142.267C35.8777 142.096 37.3673 142.096 38.842 142.267V142.267Z" fill="#E0E0E0"/>
<path d="M38.842 146.977C37.3673 147.147 35.8778 147.147 34.403 146.977C35.8777 146.806 37.3673 146.806 38.842 146.977V146.977Z" fill="#E0E0E0"/>
<path d="M38.842 151.687C37.3673 151.857 35.8778 151.857 34.403 151.687C35.8773 151.509 37.3677 151.509 38.842 151.687V151.687Z" fill="#E0E0E0"/>
<path d="M38.8421 156.393C37.364 156.564 35.8711 156.564 34.3931 156.393C35.8678 156.223 37.3573 156.223 38.8321 156.393H38.8421Z" fill="#E0E0E0"/>
<path d="M56.6721 90.1829C56.6721 90.2519 54.0881 90.3109 50.9011 90.3109C47.7141 90.3109 45.1251 90.2519 45.1251 90.1829C45.1251 90.1139 47.7091 90.0549 50.9011 90.0549C54.0931 90.0549 56.6721 90.1089 56.6721 90.1829Z" fill="#FE9286"/>
<path d="M56.6721 156.392C56.6721 156.466 54.0881 156.52 50.9011 156.52C47.7141 156.52 45.1251 156.466 45.1251 156.392C45.1251 156.318 47.7091 156.264 50.9011 156.264C54.0931 156.264 56.6721 156.323 56.6721 156.392Z" fill="#FE9286"/>
<path d="M72.746 99.8799C72.746 99.9489 67.9071 100.008 61.9461 100.008C55.9851 100.008 51.1461 99.9489 51.1461 99.8799C51.1461 99.8109 55.9791 99.752 61.9461 99.752C67.9131 99.752 72.746 99.7909 72.746 99.8799Z" fill="#FE9286"/>
<path d="M97.717 99.8799C97.717 99.9489 92.879 100.008 86.917 100.008C80.955 100.008 76.117 99.9489 76.117 99.8799C76.117 99.8109 80.951 99.752 86.917 99.752C92.883 99.752 97.717 99.7909 97.717 99.8799Z" fill="#E0E0E0"/>
<path d="M88.1761 104.592C88.1761 104.661 81.0491 104.72 72.2601 104.72C63.4711 104.72 56.3491 104.661 56.3491 104.592C56.3491 104.523 63.4711 104.464 72.2601 104.464C81.0491 104.464 88.1761 104.516 88.1761 104.592Z" fill="#E0E0E0"/>
<path d="M88.1761 109.3C88.1761 109.369 81.0491 109.428 72.2601 109.428C63.4711 109.428 56.3491 109.369 56.3491 109.3C56.3491 109.231 63.4711 109.172 72.2601 109.172C81.0491 109.172 88.1761 109.226 88.1761 109.3Z" fill="#E0E0E0"/>
<path d="M110.077 123.426C110.077 123.5 102.955 123.554 94.166 123.554C85.377 123.554 78.25 123.5 78.25 123.426C78.25 123.352 85.377 123.298 94.166 123.298C102.955 123.298 110.077 123.357 110.077 123.426Z" fill="#E0E0E0"/>
<path d="M100.627 114.005C100.627 114.079 93.5 114.138 84.711 114.138C75.922 114.138 68.8 114.079 68.8 114.005C68.8 113.931 75.922 113.877 84.711 113.877C93.5 113.877 100.627 113.936 100.627 114.005Z" fill="#E0E0E0"/>
<path d="M139.52 114.005C139.52 114.079 132.393 114.138 123.609 114.138C114.825 114.138 107.693 114.079 107.693 114.005C107.693 113.931 114.82 113.877 123.609 113.877C132.398 113.877 139.52 113.936 139.52 114.005Z" fill="#E0E0E0"/>
<path d="M125.993 104.592C125.993 104.661 118.866 104.72 110.077 104.72C101.288 104.72 94.166 104.661 94.166 104.592C94.166 104.523 101.288 104.464 110.077 104.464C118.866 104.464 125.993 104.516 125.993 104.592Z" fill="#FAFAFA"/>
<path d="M147.976 123.426C147.976 123.5 140.849 123.554 132.065 123.554C123.281 123.554 116.149 123.5 116.149 123.426C116.149 123.352 123.276 123.298 132.065 123.298C140.854 123.298 147.976 123.357 147.976 123.426Z" fill="#FAFAFA"/>
<path d="M143.586 109.3C143.586 109.369 132.523 109.428 118.876 109.428C105.229 109.428 94.166 109.369 94.166 109.3C94.166 109.231 105.229 109.172 118.876 109.172C132.523 109.172 143.586 109.226 143.586 109.3Z" fill="#455A64"/>
<path d="M56.6721 95.171C56.6721 95.24 54.0881 95.299 50.9011 95.299C47.7141 95.299 45.1251 95.24 45.1251 95.171C45.1251 95.102 47.7091 95.043 50.9011 95.043C54.0931 95.043 56.6721 95.1 56.6721 95.171Z" fill="#FAFAFA"/>
<path d="M56.6721 151.687C56.6721 151.756 54.0881 151.815 50.9011 151.815C47.7141 151.815 45.1251 151.756 45.1251 151.687C45.1251 151.618 47.7091 151.554 50.9011 151.554C54.0931 151.554 56.6721 151.613 56.6721 151.687Z" fill="#FAFAFA"/>
<path d="M62.388 114.005C62.388 114.079 59.804 114.138 56.617 114.138C53.43 114.138 50.846 114.079 50.846 114.005C50.846 113.931 53.425 113.877 56.617 113.877C59.809 113.877 62.388 113.936 62.388 114.005Z" fill="#FAFAFA"/>
<path d="M154.896 114.005C154.896 114.079 152.312 114.138 149.125 114.138C145.938 114.138 143.354 114.079 143.354 114.005C143.354 113.931 145.933 113.877 149.125 113.877C152.317 113.877 154.896 113.936 154.896 114.005Z" fill="#FE9286"/>
<path d="M72.746 132.836C72.746 132.91 67.9071 132.964 61.9461 132.964C55.9851 132.964 51.1461 132.91 51.1461 132.836C51.1461 132.762 55.9791 132.708 61.9461 132.708C67.9131 132.708 72.746 132.747 72.746 132.836Z" fill="#FE9286"/>
<path d="M97.717 132.836C97.717 132.91 92.879 132.964 86.917 132.964C80.955 132.964 76.117 132.91 76.117 132.836C76.117 132.762 80.951 132.708 86.917 132.708C92.883 132.708 97.717 132.747 97.717 132.836Z" fill="#E0E0E0"/>
<path d="M88.1761 137.527C88.1761 137.601 81.0491 137.655 72.2601 137.655C63.4711 137.655 56.3491 137.601 56.3491 137.527C56.3491 137.453 63.4711 137.399 72.2601 137.399C81.0491 137.399 88.1761 137.458 88.1761 137.527Z" fill="#E0E0E0"/>
<path d="M88.1761 142.237C88.1761 142.311 81.0491 142.365 72.2601 142.365C63.4711 142.365 56.3491 142.311 56.3491 142.237C56.3491 142.163 63.4711 142.109 72.2601 142.109C81.0491 142.109 88.1761 142.168 88.1761 142.237Z" fill="#E0E0E0"/>
<path d="M100.627 146.947C100.627 147.016 93.5 147.075 84.711 147.075C75.922 147.075 68.8 147.016 68.8 146.947C68.8 146.878 75.922 146.819 84.711 146.819C93.5 146.819 100.627 146.878 100.627 146.947Z" fill="#E0E0E0"/>
<path d="M139.52 146.947C139.52 147.016 132.393 147.075 123.609 147.075C114.825 147.075 107.693 147.016 107.693 146.947C107.693 146.878 114.82 146.819 123.609 146.819C132.398 146.819 139.52 146.878 139.52 146.947Z" fill="#E0E0E0"/>
<path d="M125.993 137.527C125.993 137.601 118.866 137.655 110.077 137.655C101.288 137.655 94.166 137.601 94.166 137.527C94.166 137.453 101.288 137.399 110.077 137.399C118.866 137.399 125.993 137.458 125.993 137.527Z" fill="#FAFAFA"/>
<path d="M143.586 142.237C143.586 142.311 132.523 142.365 118.876 142.365C105.229 142.365 94.166 142.311 94.166 142.237C94.166 142.163 105.229 142.109 118.876 142.109C132.523 142.109 143.586 142.168 143.586 142.237Z" fill="#455A64"/>
<path d="M62.388 146.947C62.388 147.016 59.804 147.075 56.617 147.075C53.43 147.075 50.846 147.016 50.846 146.947C50.846 146.878 53.425 146.819 56.617 146.819C59.809 146.819 62.388 146.878 62.388 146.947Z" fill="#FAFAFA"/>
<path d="M154.896 146.947C154.896 147.016 152.312 147.075 149.125 147.075C145.938 147.075 143.354 147.016 143.354 146.947C143.354 146.878 145.933 146.819 149.125 146.819C152.317 146.819 154.896 146.878 154.896 146.947Z" fill="#FE9286"/>
<path d="M255.869 176.023C255.869 176.092 198.585 176.151 127.942 176.151C57.299 176.151 0 176.095 0 176.023C0 175.951 57.272 175.895 127.943 175.895C198.614 175.895 255.869 175.949 255.869 176.023Z" fill="#263238"/>
<path d="M207.275 148.186L209.248 154.346C209.628 155.596 210.344 156.717 211.318 157.587C212.292 158.457 213.487 159.042 214.772 159.278L227.921 161.744L231.497 161.631L227.921 157.192L218.057 153.823C217.587 153.717 217.155 153.484 216.807 153.15C216.459 152.816 216.209 152.394 216.084 151.929L212.138 143.367L207.152 146.425L207.275 148.186Z" fill="#FFBE9D"/>
<path d="M197.855 106.81C197.921 105.842 197.66 104.88 197.115 104.078C196.893 103.664 196.585 103.301 196.213 103.014C195.841 102.727 195.412 102.521 194.955 102.411C194.422 102.35 193.884 102.464 193.422 102.737C192.96 103.009 192.6 103.424 192.395 103.92C192.203 104.419 192.138 104.959 192.207 105.489C192.276 106.02 192.477 106.524 192.79 106.958C193.109 107.409 193.518 107.79 193.99 108.078C192.619 108.98 191.58 110.304 191.031 111.851C190.849 112.374 190.725 112.916 190.498 113.42C190.291 113.94 189.904 114.369 189.408 114.628C189.033 114.796 188.614 114.81 188.229 114.954C187.91 115.08 187.626 115.28 187.4 115.537C187.174 115.795 187.013 116.102 186.929 116.434C186.78 117.112 186.906 117.822 187.279 118.407C187.502 118.67 187.655 118.986 187.723 119.324C187.71 119.559 187.661 119.79 187.58 120.01C187.486 120.399 187.519 120.808 187.675 121.177C187.83 121.546 188.1 121.856 188.444 122.06C188.788 122.265 189.189 122.354 189.587 122.314C189.986 122.275 190.361 122.108 190.658 121.84C190.857 122.433 191.259 122.938 191.792 123.265C192.354 123.531 193.183 123.29 193.272 122.678C193.412 122.975 193.646 123.217 193.938 123.366C194.231 123.515 194.564 123.563 194.886 123.502C195.209 123.441 195.502 123.275 195.719 123.029C195.937 122.783 196.066 122.472 196.088 122.145L206.688 110.545C205.115 106.336 198.925 106.696 197.855 106.81Z" fill="#FE9286"/>
<path d="M196.06 110.839C195.731 110.876 195.428 111.033 195.209 111.281C194.991 111.529 194.872 111.849 194.876 112.18V112.18L195.626 130.034C195.656 132.145 199.483 134.641 201.737 134.591C204.021 134.542 203.35 132.125 203.379 130.117C203.438 126.763 203.433 125.506 203.438 125.525C203.443 125.544 206.318 125.032 206.915 121.288C207.159 118.815 207.174 116.325 206.959 113.85C206.816 111.596 205.321 108.829 203.077 109.066L196.06 110.839Z" fill="#FFBE9D"/>
<path d="M205.983 116.284C205.983 116.41 205.935 116.531 205.849 116.623C205.763 116.714 205.645 116.77 205.519 116.777C205.458 116.781 205.397 116.773 205.339 116.753C205.282 116.734 205.228 116.703 205.182 116.662C205.137 116.622 205.099 116.573 205.072 116.518C205.046 116.464 205.03 116.404 205.026 116.343C205.026 116.217 205.074 116.096 205.16 116.004C205.246 115.913 205.364 115.857 205.49 115.85C205.551 115.846 205.612 115.854 205.67 115.874C205.727 115.894 205.781 115.925 205.827 115.965C205.872 116.005 205.91 116.054 205.937 116.109C205.963 116.164 205.979 116.223 205.983 116.284V116.284Z" fill="#263238"/>
<path d="M206.293 115.446C206.234 115.51 205.869 115.239 205.351 115.239C204.833 115.239 204.451 115.5 204.394 115.439C204.337 115.378 204.428 115.301 204.594 115.178C204.819 115.024 205.085 114.941 205.358 114.941C205.629 114.942 205.893 115.029 206.113 115.188C206.271 115.303 206.323 115.416 206.293 115.446Z" fill="#263238"/>
<path d="M200.916 116.284C200.916 116.41 200.868 116.531 200.782 116.623C200.696 116.714 200.578 116.77 200.452 116.777C200.391 116.781 200.33 116.773 200.272 116.753C200.215 116.734 200.161 116.703 200.115 116.662C200.07 116.622 200.032 116.573 200.005 116.518C199.979 116.464 199.963 116.404 199.959 116.343C199.959 116.217 200.007 116.096 200.093 116.004C200.179 115.913 200.297 115.857 200.423 115.85C200.484 115.846 200.545 115.854 200.603 115.874C200.66 115.894 200.714 115.925 200.759 115.965C200.805 116.005 200.843 116.054 200.87 116.109C200.896 116.164 200.912 116.223 200.916 116.284V116.284Z" fill="#263238"/>
<path d="M201.193 115.545C201.134 115.604 200.769 115.338 200.251 115.338C199.733 115.338 199.351 115.599 199.294 115.538C199.237 115.477 199.328 115.395 199.494 115.277C199.718 115.12 199.985 115.037 200.259 115.04C200.528 115.04 200.79 115.125 201.009 115.282C201.169 115.402 201.223 115.515 201.193 115.545Z" fill="#263238"/>
<path d="M203.078 119.396C203.351 119.308 203.634 119.256 203.921 119.243C204.054 119.243 204.178 119.203 204.202 119.11C204.212 118.974 204.181 118.838 204.113 118.72C203.985 118.399 203.857 118.064 203.718 117.709C203.354 116.855 203.06 115.972 202.84 115.07C203.272 115.894 203.636 116.752 203.93 117.635C204.058 117.99 204.187 118.325 204.305 118.646C204.389 118.807 204.413 118.992 204.374 119.169C204.355 119.215 204.325 119.257 204.287 119.29C204.25 119.323 204.205 119.347 204.157 119.361C204.083 119.382 204.007 119.392 203.93 119.391C203.647 119.428 203.361 119.43 203.078 119.396Z" fill="#263238"/>
<path d="M203.438 125.526C201.668 125.553 199.924 125.088 198.402 124.184C198.402 124.184 199.625 126.764 203.384 126.413L203.438 125.526Z" fill="#EB996E"/>
<path d="M202.856 120.64C202.758 120.516 202.63 120.42 202.484 120.359C202.338 120.299 202.179 120.277 202.022 120.295C201.907 120.305 201.796 120.339 201.694 120.393C201.592 120.447 201.503 120.521 201.43 120.611C201.361 120.697 201.32 120.803 201.313 120.913C201.306 121.024 201.333 121.134 201.391 121.228C201.474 121.322 201.583 121.388 201.705 121.419C201.826 121.45 201.954 121.444 202.072 121.401C202.317 121.315 202.541 121.181 202.733 121.006C202.791 120.964 202.841 120.912 202.881 120.853C202.9 120.825 202.91 120.791 202.91 120.757C202.91 120.723 202.9 120.689 202.881 120.661" fill="#EB996E"/>
<path d="M201.548 119.747C201.637 119.747 201.637 120.309 202.115 120.733C202.593 121.157 203.2 121.068 203.205 121.147C203.21 121.226 203.067 121.256 202.815 121.265C202.485 121.266 202.165 121.155 201.908 120.949C201.665 120.748 201.508 120.462 201.469 120.149C201.45 119.887 201.513 119.747 201.548 119.747Z" fill="#263238"/>
<path d="M201.43 114.641C201.376 114.779 200.858 114.715 200.251 114.789C199.644 114.863 199.151 115.026 199.067 114.897C198.983 114.768 199.116 114.705 199.319 114.572C199.581 114.401 199.88 114.294 200.192 114.261C200.504 114.225 200.819 114.262 201.114 114.37C201.337 114.459 201.454 114.587 201.43 114.641Z" fill="#FE9286"/>
<path d="M206.101 113.947C206.012 114.065 205.652 113.947 205.223 113.947C204.794 113.947 204.429 114.026 204.345 113.903C204.261 113.78 204.345 113.725 204.527 113.612C204.74 113.476 204.99 113.409 205.242 113.42C205.494 113.425 205.739 113.507 205.942 113.657C206.091 113.769 206.146 113.89 206.101 113.947Z" fill="#FE9286"/>
<path d="M195.294 116.851C195.141 116.768 194.968 116.729 194.794 116.737C194.62 116.746 194.451 116.802 194.307 116.9C193.956 117.101 193.686 117.417 193.544 117.795C193.401 118.173 193.394 118.589 193.524 118.971C193.654 119.354 193.913 119.679 194.256 119.892C194.6 120.104 195.007 120.191 195.407 120.136" fill="#FFBE9D"/>
<path d="M201.204 107.816C202.482 107.881 203.724 108.266 204.814 108.936C206.045 109.575 206.973 110.677 207.394 111.999C207.447 112.135 207.471 112.28 207.466 112.426C207.461 112.572 207.426 112.715 207.364 112.847C207.244 112.997 207.076 113.101 206.888 113.142C206.7 113.182 206.504 113.156 206.333 113.069C205.996 112.881 205.709 112.616 205.495 112.295C205.405 112.643 205.201 112.951 204.915 113.169C204.63 113.387 204.28 113.504 203.92 113.5C203.561 113.496 203.213 113.372 202.933 113.147C202.652 112.922 202.455 112.61 202.373 112.26C202.343 112.62 202.175 112.955 201.906 113.195C201.636 113.436 201.284 113.563 200.923 113.552C200.562 113.521 200.218 113.385 199.933 113.161C199.649 112.936 199.437 112.633 199.323 112.289C199.232 112.94 199.007 113.565 198.662 114.124C198.484 114.4 198.226 114.616 197.922 114.741C197.618 114.866 197.283 114.895 196.962 114.824C197.105 115.376 197.105 115.954 196.962 116.506C196.875 116.776 196.692 117.004 196.447 117.147C196.202 117.29 195.913 117.337 195.635 117.28C195.112 117.103 194.91 116.486 194.792 115.948C194.524 114.919 194.39 113.859 194.392 112.796C194.356 111.701 194.712 110.63 195.394 109.773C196.076 108.916 197.041 108.33 198.116 108.12C199.188 107.875 200.287 107.774 201.386 107.82" fill="#FE9286"/>
<path d="M195.033 119.027C195.033 119.002 194.885 119.062 194.702 118.978C194.592 118.914 194.504 118.819 194.447 118.705C194.39 118.591 194.367 118.463 194.382 118.337C194.383 118.208 194.421 118.082 194.492 117.974C194.563 117.866 194.664 117.782 194.782 117.73C194.892 117.7 195.004 117.678 195.117 117.666C195.064 117.627 195.002 117.601 194.937 117.59C194.872 117.579 194.805 117.583 194.742 117.602C194.597 117.635 194.467 117.714 194.372 117.829C194.259 117.969 194.193 118.142 194.185 118.322C194.169 118.488 194.208 118.655 194.298 118.796C194.387 118.937 194.521 119.045 194.678 119.101C194.738 119.125 194.803 119.131 194.867 119.118C194.93 119.104 194.988 119.073 195.033 119.027Z" fill="#EB996E"/>
<path d="M193.618 119.214C193.564 119.218 193.51 119.232 193.46 119.253C192.775 119.502 192.196 119.977 191.818 120.6C191.615 120.943 191.499 121.331 191.482 121.729C191.471 122.19 191.579 122.645 191.798 123.051C192.031 123.497 192.37 123.88 192.784 124.166C193.236 124.478 193.769 124.65 194.318 124.659C194.845 124.649 195.36 124.496 195.808 124.216C196.255 123.937 196.618 123.541 196.858 123.071C197.07 122.661 197.162 122.199 197.124 121.739C197.084 121.344 196.959 120.962 196.759 120.619C196.477 120.118 196.041 119.72 195.516 119.485C195.376 119.422 195.228 119.377 195.077 119.352C194.972 119.332 194.917 119.332 194.914 119.352C195.11 119.405 195.3 119.478 195.481 119.569C195.973 119.82 196.377 120.213 196.64 120.698C196.821 121.028 196.93 121.393 196.961 121.768C196.987 122.197 196.895 122.625 196.695 123.006C196.468 123.444 196.128 123.812 195.71 124.072C195.291 124.333 194.811 124.476 194.318 124.486C193.828 124.469 193.35 124.323 192.934 124.063C192.518 123.804 192.177 123.439 191.946 123.006C191.749 122.655 191.645 122.259 191.645 121.856C191.645 121.453 191.749 121.057 191.946 120.706C192.222 120.228 192.616 119.829 193.09 119.547C193.255 119.42 193.432 119.308 193.618 119.214V119.214Z" fill="#263238"/>
<path d="M196.705 107.561C196.666 107.561 196.587 107.231 196.355 106.742C196.057 106.103 195.613 105.542 195.058 105.105C194.504 104.668 193.855 104.368 193.164 104.227C192.631 104.114 192.286 104.119 192.286 104.074C192.582 103.99 192.893 103.979 193.194 104.044C193.932 104.146 194.63 104.442 195.216 104.902C195.8 105.363 196.249 105.973 196.516 106.668C196.652 106.946 196.717 107.252 196.705 107.561Z" fill="#E0E0E0"/>
<path d="M188.064 121.843C188.064 121.843 188 121.843 187.931 121.72C187.843 121.572 187.812 121.397 187.842 121.227C187.87 121.089 187.926 120.957 188.006 120.84C188.085 120.723 188.187 120.623 188.306 120.546C188.607 120.364 188.918 120.199 189.238 120.053C189.418 119.969 189.573 119.839 189.687 119.676C189.801 119.514 189.871 119.324 189.889 119.126C189.866 118.645 189.78 118.169 189.632 117.711C189.565 117.44 189.538 117.161 189.553 116.882C189.577 116.577 189.702 116.289 189.908 116.063C190.352 115.649 190.898 115.361 191.491 115.229C192.039 115.114 192.537 114.827 192.911 114.41C193.167 113.962 193.251 113.436 193.148 112.93C193.067 112.441 193.034 111.946 193.048 111.45C193.137 110.371 193.649 109.371 194.473 108.668C194.602 108.557 194.743 108.46 194.892 108.377C194.942 108.342 194.997 108.316 195.055 108.298C194.881 108.435 194.717 108.584 194.562 108.742C194.119 109.162 193.773 109.674 193.551 110.242C193.398 110.631 193.306 111.042 193.28 111.46C193.277 111.945 193.318 112.428 193.403 112.905C193.525 113.471 193.432 114.061 193.142 114.562C192.74 115.029 192.196 115.351 191.593 115.479C191.041 115.598 190.531 115.86 190.113 116.239C189.959 116.439 189.857 116.675 189.816 116.925C189.776 117.174 189.798 117.43 189.881 117.669C190.029 118.149 190.109 118.647 190.118 119.149C190.095 119.394 190.003 119.627 189.852 119.82C189.717 119.986 189.549 120.122 189.359 120.22C189.035 120.362 188.722 120.527 188.422 120.713C188.202 120.843 188.041 121.054 187.973 121.3C187.932 121.486 187.964 121.681 188.064 121.843V121.843Z" fill="#E0E0E0"/>
<path d="M201.459 112.122C201.42 112.122 201.385 111.722 201.188 111.136C200.934 110.35 200.498 109.636 199.916 109.05C199.327 108.474 198.613 108.042 197.83 107.787C197.23 107.587 196.844 107.56 196.844 107.516C197.197 107.469 197.557 107.503 197.895 107.616C198.732 107.825 199.497 108.257 200.11 108.864C200.723 109.472 201.161 110.234 201.377 111.069C201.488 111.409 201.516 111.77 201.459 112.122V112.122Z" fill="#E0E0E0"/>
<path d="M204.473 110.494C204.282 110.091 204.063 109.702 203.817 109.33C203.166 108.48 202.266 107.854 201.242 107.54C200.21 107.241 199.128 107.153 198.061 107.283C197.237 107.372 196.734 107.483 196.724 107.446C197.141 107.266 197.584 107.151 198.036 107.106C199.131 106.916 200.255 106.98 201.321 107.293C202.395 107.621 203.326 108.302 203.964 109.226C204.155 109.502 204.303 109.806 204.403 110.126C204.452 110.242 204.476 110.368 204.473 110.494Z" fill="#E0E0E0"/>
<path d="M197.934 106.622C197.841 106.827 197.71 107.012 197.549 107.169C197.161 107.553 196.693 107.845 196.178 108.027C195.666 108.213 195.12 108.281 194.578 108.227C194.35 108.225 194.127 108.162 193.932 108.045C194.663 108.081 195.395 107.993 196.097 107.784C196.769 107.501 197.39 107.108 197.934 106.622V106.622Z" fill="#263238"/>
<path d="M200.572 176.053C191.541 173.064 197.731 161.118 197.731 161.118L237.188 164.832C237.942 164.825 238.69 164.968 239.388 165.252C240.086 165.536 240.722 165.956 241.257 166.487C241.792 167.018 242.217 167.65 242.506 168.346C242.796 169.042 242.945 169.789 242.944 170.543V170.543C242.942 172.054 242.341 173.503 241.272 174.571C240.204 175.64 238.755 176.241 237.244 176.243L200.573 176.043" fill="#263238"/>
<path d="M191.329 176.043C182.529 173.084 188.596 161.113 188.596 161.113L227.067 164.743C230.825 164.792 232.66 166.607 232.66 170.443C232.66 173.595 231.486 176.253 227.082 176.164L191.324 176.046" fill="#263238"/>
<path d="M200.261 163.135H200.69L201.923 163.184L206.446 163.416L221.376 164.235C222.106 164.27 222.826 164.335 223.536 164.343C224.246 164.351 224.952 164.382 225.636 164.427C226.32 164.472 227.002 164.521 227.663 164.59C228.319 164.635 228.966 164.768 229.587 164.985C230.184 165.216 230.728 165.565 231.187 166.011C231.627 166.452 231.964 166.984 232.174 167.57C232.37 168.114 232.505 168.678 232.574 169.252C232.643 169.78 232.676 170.312 232.674 170.845C232.692 171.762 232.525 172.673 232.181 173.523C231.912 174.153 231.501 174.711 230.981 175.156C230.661 175.428 230.29 175.636 229.891 175.768C229.62 175.857 229.615 175.827 229.891 175.728C230.279 175.583 230.636 175.367 230.946 175.092C231.444 174.645 231.835 174.092 232.09 173.474C232.428 172.639 232.596 171.746 232.583 170.845C232.579 170.32 232.54 169.796 232.465 169.276C232.394 168.716 232.262 168.165 232.07 167.634C231.866 167.079 231.545 166.574 231.128 166.154C230.689 165.72 230.163 165.384 229.584 165.168C228.978 164.956 228.346 164.828 227.705 164.788C227.049 164.719 226.373 164.67 225.688 164.63C225.003 164.59 224.302 164.561 223.597 164.551C222.892 164.541 222.162 164.477 221.432 164.442L206.438 163.559L201.91 163.268L200.682 163.179L200.361 163.15L200.261 163.135Z" fill="#455A64"/>
<path d="M213.943 163.909L210.781 162.355L208.581 155.031L208.369 145.66L212.838 143.776L209.287 134.873C208.641 133.556 207.314 130.073 203.98 128.925C203.927 128.429 203.967 127.927 204.098 127.445C204.359 127.006 195.916 126.745 195.437 126.917C194.958 127.089 195.516 128.633 195.462 128.89C192.462 129.719 189.544 130.957 188.444 135.085C188.1 137.283 188.083 139.521 188.395 141.724L190.738 154.119L189.421 158.188C189.421 158.188 184.809 167.796 186.56 171.549C186.994 172.595 187.637 173.543 188.448 174.333C189.259 175.124 190.223 175.742 191.28 176.149L214.254 176.1L213.943 163.909Z" fill="#FE9286"/>
<g opacity="0.3">
<path d="M190.89 149.211C191.323 151.201 191.886 153.16 192.577 155.075C193.016 156.29 193.638 157.431 194.422 158.458C195.586 159.796 197.137 160.74 198.861 161.158C200.574 161.573 202.349 161.66 204.094 161.414L195.394 156.482L193.081 148.447L190.89 149.211Z" fill="black"/>
</g>
<path d="M208.572 154.76C208.53 154.541 208.509 154.318 208.508 154.094C208.508 153.63 208.459 153.019 208.419 152.284C208.355 150.755 208.281 148.639 208.207 146.301C208.133 143.963 208.084 141.862 208.059 140.318V138.503C208.041 138.282 208.041 138.059 208.059 137.837C208.097 138.055 208.117 138.277 208.118 138.498C208.143 138.962 208.172 139.573 208.207 140.313C208.271 141.842 208.35 143.958 208.419 146.296C208.488 148.634 208.542 150.735 208.572 152.279V154.098C208.59 154.318 208.59 154.54 208.572 154.76V154.76Z" fill="#263238"/>
<path d="M200.066 146.006C200.016 146.035 199.963 146.058 199.908 146.075L199.415 146.253L197.521 146.919L190.586 149.311L190.472 149.35L190.447 149.232C189.979 146.712 189.426 143.762 188.829 140.571C188.62 138.936 188.528 137.288 188.553 135.639C188.609 135.222 188.723 134.816 188.893 134.431C189.042 134.047 189.234 133.682 189.465 133.341C189.925 132.67 190.555 132.132 191.29 131.782C191.98 131.434 192.756 131.292 193.524 131.376C194.293 131.459 195.021 131.763 195.62 132.251C196.118 132.758 196.512 133.358 196.779 134.017C197.041 134.621 197.267 135.24 197.455 135.871C197.82 137.084 198.101 138.234 198.373 139.289L199.63 144.221C199.773 144.788 199.882 145.232 199.961 145.558C199.996 145.696 200.02 145.81 200.045 145.898C200.07 145.986 200.045 146.016 200.045 146.011C200.025 145.972 200.011 145.931 200.001 145.888C199.972 145.793 199.938 145.674 199.901 145.533C199.807 145.207 199.684 144.759 199.521 144.191C199.2 143.012 198.742 141.34 198.179 139.291C197.893 138.265 197.612 137.121 197.237 135.917C197.046 135.296 196.819 134.686 196.556 134.092C196.303 133.465 195.929 132.893 195.456 132.41C194.891 131.957 194.206 131.676 193.486 131.602C192.765 131.528 192.038 131.663 191.392 131.991C190.696 132.324 190.101 132.834 189.666 133.471C189.446 133.797 189.263 134.146 189.119 134.512C188.96 134.877 188.852 135.262 188.798 135.656C188.773 137.294 188.864 138.931 189.069 140.556V140.556C189.651 143.747 190.188 146.696 190.647 149.222L190.509 149.143L197.409 146.869L199.347 146.248L199.84 146.085L200.066 146.006Z" fill="#263238"/>
<path d="M193.13 148.299C192.93 148.05 192.79 147.758 192.721 147.446C192.558 146.953 192.489 146.534 192.558 146.514C192.627 146.494 192.81 146.874 192.967 147.367C193.124 147.86 193.214 148.279 193.13 148.299Z" fill="#263238"/>
<path d="M195.408 147.662C195.339 147.662 195.186 147.307 195.073 146.828C194.96 146.349 194.915 145.955 194.984 145.935C195.053 145.915 195.206 146.29 195.319 146.769C195.432 147.248 195.477 147.633 195.408 147.662Z" fill="#263238"/>
<path d="M197.692 146.844C197.623 146.844 197.47 146.558 197.352 146.163C197.234 145.768 197.194 145.433 197.263 145.408C197.332 145.383 197.48 145.694 197.598 146.089C197.716 146.484 197.756 146.82 197.692 146.844Z" fill="#263238"/>
<path d="M210.042 144.955C209.983 144.99 209.722 144.664 209.549 144.186C209.376 143.708 209.349 143.293 209.411 143.286C209.473 143.279 209.618 143.646 209.791 144.1C209.964 144.554 210.106 144.915 210.042 144.955Z" fill="#263238"/>
<path d="M211.758 143.978C211.694 144.013 211.487 143.727 211.294 143.347C211.101 142.967 210.994 142.632 211.062 142.597C211.13 142.562 211.333 142.848 211.526 143.228C211.719 143.608 211.822 143.948 211.758 143.978Z" fill="#263238"/>
<path d="M196.764 129.28C196.792 129.351 196.807 129.426 196.808 129.502H196.675C196.595 129.115 196.542 128.723 196.517 128.328C196.434 127.863 196.434 127.387 196.517 126.922C196.685 127.365 196.768 127.835 196.763 128.308C196.801 128.702 196.812 129.097 196.797 129.492H196.664C196.712 129.354 196.74 129.276 196.764 129.28Z" fill="#263238"/>
<path d="M198.817 129.28C198.667 128.918 198.595 128.528 198.605 128.136C198.532 127.751 198.547 127.355 198.65 126.977C198.8 127.339 198.872 127.729 198.862 128.121C198.935 128.506 198.919 128.902 198.817 129.28Z" fill="#263238"/>
<path d="M200.967 129.744C200.832 129.297 200.782 128.829 200.819 128.363C200.772 127.898 200.809 127.429 200.928 126.977C201.063 127.424 201.113 127.893 201.076 128.358C201.123 128.823 201.086 129.292 200.968 129.744H200.967Z" fill="#263238"/>
<path d="M202.719 129.453C202.594 129.073 202.551 128.672 202.591 128.274C202.551 127.875 202.594 127.472 202.719 127.09C202.849 127.47 202.895 127.874 202.852 128.274C202.895 128.672 202.85 129.075 202.719 129.453V129.453Z" fill="#263238"/>
<path d="M214.091 164.176C214.091 164.245 209.805 164.013 204.528 163.653C199.251 163.293 194.98 162.943 194.984 162.874C194.988 162.805 199.27 163.037 204.547 163.397C209.824 163.757 214.096 164.107 214.091 164.176Z" fill="#263238"/>
<path d="M191.911 148.886L194.027 155.786C194.398 157.045 195.11 158.178 196.082 159.06C197.055 159.942 198.251 160.539 199.541 160.786L212.69 163.286L216.266 163.168L215.053 160.115L202.806 155.272C202.334 155.162 201.901 154.925 201.553 154.587C201.205 154.249 200.956 153.822 200.833 153.353L198.983 146.423L191.911 148.886Z" fill="#FFBE9D"/>
<path d="M203.536 163.381L203.65 162.528L213.75 162.133L218.707 149.633L237.592 150.915L231.22 164.794L203.536 163.381Z" fill="#455A64"/>
<path d="M226.14 157.739C226.036 157.904 225.885 158.034 225.707 158.113C225.528 158.192 225.331 158.216 225.139 158.183C224.946 158.15 224.769 158.06 224.627 157.926C224.486 157.791 224.388 157.618 224.345 157.428C224.302 157.237 224.317 157.039 224.387 156.857C224.457 156.675 224.58 156.518 224.739 156.405C224.898 156.293 225.087 156.231 225.282 156.226C225.477 156.221 225.669 156.274 225.834 156.378C225.944 156.447 226.038 156.537 226.113 156.643C226.188 156.749 226.241 156.869 226.269 156.995C226.297 157.121 226.301 157.252 226.279 157.38C226.256 157.508 226.209 157.63 226.14 157.739Z" fill="white"/>
<path d="M66.373 73.597C74.605 70.608 70.373 58.197 70.373 58.197L28.598 62.024C27.8221 62.0201 27.0531 62.1695 26.3351 62.4637C25.6172 62.7578 24.9644 63.191 24.4144 63.7382C23.8644 64.2855 23.4279 64.936 23.1301 65.6525C22.8323 66.3689 22.6789 67.1371 22.679 67.913C22.679 68.6864 22.8313 69.4522 23.1272 70.1667C23.4232 70.8811 23.857 71.5303 24.4038 72.0772C24.9507 72.624 25.5999 73.0578 26.3143 73.3538C27.0288 73.6497 27.7946 73.802 28.568 73.802L66.378 73.602" fill="#263238"/>
<path d="M12.578 107.974L12.494 103.831L20.44 101.005L20.77 106.776L20.321 106.993C18.348 107.935 10.111 111.644 8.57797 111.787C6.86697 111.94 12.578 107.974 12.578 107.974Z" fill="#FE9286"/>
<g opacity="0.4">
<path d="M9.83098 110.021C9.83098 110.021 7.88798 111.55 8.31198 111.801C8.73598 112.052 17.19 108.615 20.771 106.775L20.692 106.612L10.877 110.706C10.877 110.706 10.27 109.863 9.83098 110.021Z" fill="white"/>
</g>
<path d="M20.805 106.564L20.682 106.628L20.327 106.801L19.027 107.401C17.907 107.894 16.354 108.58 14.627 109.285C12.9 109.99 11.308 110.602 10.158 111.021L8.79201 111.514L8.41701 111.642L8.284 111.677L8.412 111.623L8.77701 111.48L10.133 110.957C11.277 110.518 12.856 109.906 14.572 109.196C16.288 108.486 17.862 107.825 19.011 107.341L20.343 106.764L20.703 106.611C20.7353 106.592 20.7695 106.576 20.805 106.564V106.564Z" fill="#263238"/>
<path d="M10.926 110.82C10.7791 110.626 10.6141 110.445 10.433 110.282C10.2221 110.148 9.99711 110.037 9.76196 109.952C10.0235 109.962 10.2763 110.049 10.4874 110.204C10.6985 110.359 10.8582 110.574 10.946 110.82H10.926Z" fill="#263238"/>
<path d="M12.657 108.827C12.5337 108.778 12.4162 108.715 12.307 108.64C12.129 108.517 11.996 108.393 12.016 108.369C12.036 108.345 12.184 108.433 12.361 108.561C12.538 108.689 12.672 108.803 12.657 108.827Z" fill="#263238"/>
<path d="M13.106 108.265C13.106 108.29 12.948 108.265 12.776 108.196C12.604 108.127 12.465 108.063 12.476 108.038C12.487 108.013 12.634 108.038 12.806 108.107C12.978 108.176 13.135 108.241 13.106 108.265Z" fill="#263238"/>
<path d="M13.219 107.412C13.1127 107.505 12.9885 107.576 12.854 107.619C12.7306 107.687 12.5942 107.727 12.454 107.737C12.5602 107.644 12.6845 107.573 12.819 107.53C12.9424 107.463 13.0788 107.422 13.219 107.412V107.412Z" fill="#263238"/>
<path d="M13.15 106.869C13.0549 107.004 12.9229 107.108 12.77 107.169C12.6301 107.257 12.4659 107.299 12.301 107.287C12.4363 107.207 12.5781 107.137 12.725 107.08C12.86 106.997 13.0022 106.926 13.15 106.869V106.869Z" fill="#263238"/>
<path d="M12.119 108.285C11.9672 108.377 11.8002 108.44 11.626 108.472C11.4458 108.523 11.2607 108.554 11.074 108.566C10.9626 108.578 10.8503 108.578 10.739 108.566C10.6675 108.558 10.602 108.522 10.557 108.466C10.5375 108.432 10.5272 108.394 10.5272 108.355C10.5272 108.316 10.5375 108.278 10.557 108.244C10.7031 108.082 10.9008 107.975 11.1165 107.942C11.3323 107.909 11.5529 107.951 11.741 108.062C11.853 108.127 11.9503 108.214 12.027 108.318C12.076 108.392 12.096 108.436 12.091 108.441C11.9837 108.311 11.8531 108.202 11.706 108.12C11.5541 108.042 11.3834 108.007 11.213 108.02C11.1082 108.027 11.0059 108.054 10.9118 108.101C10.8178 108.147 10.7339 108.212 10.665 108.291C10.611 108.38 10.665 108.454 10.778 108.468C10.8829 108.481 10.989 108.481 11.094 108.468C11.2764 108.458 11.4578 108.435 11.637 108.399C11.956 108.344 12.119 108.27 12.119 108.285Z" fill="#263238"/>
<path d="M12.025 108.359C11.9285 108.28 11.8624 108.17 11.838 108.048C11.8051 107.917 11.8051 107.779 11.838 107.648C11.8478 107.561 11.8808 107.477 11.9335 107.407C11.9863 107.337 12.0569 107.282 12.138 107.248C12.1909 107.239 12.2452 107.251 12.2894 107.282C12.3336 107.312 12.3643 107.358 12.375 107.411C12.3921 107.492 12.3921 107.577 12.375 107.658C12.3532 107.787 12.3166 107.913 12.266 108.033C12.2277 108.149 12.1618 108.254 12.074 108.339C12.1228 108.231 12.1656 108.121 12.202 108.009C12.2442 107.891 12.2724 107.768 12.286 107.644C12.311 107.516 12.286 107.319 12.153 107.344C12.02 107.369 11.953 107.544 11.921 107.67C11.894 107.79 11.894 107.915 11.921 108.035C11.9463 108.146 11.981 108.254 12.025 108.359V108.359Z" fill="#263238"/>
<path d="M19.828 104.601C19.6411 104.664 19.4609 104.745 19.29 104.843C18.8736 105.068 18.5297 105.407 18.2983 105.82C18.067 106.233 17.9576 106.703 17.983 107.176C17.9891 107.374 18.0139 107.57 18.057 107.763C18.0294 107.715 18.0079 107.663 17.993 107.61C17.9518 107.47 17.9253 107.326 17.914 107.181C17.8676 106.692 17.9716 106.2 18.2121 105.771C18.4526 105.342 18.8182 104.997 19.26 104.781C19.3896 104.712 19.5269 104.659 19.669 104.623C19.7204 104.607 19.7741 104.6 19.828 104.601V104.601Z" fill="#263238"/>
<path d="M17.811 101.834C18.0665 102.314 18.2939 102.808 18.492 103.314C18.7211 103.811 18.9188 104.321 19.084 104.843C18.8277 104.364 18.6003 103.869 18.403 103.363C18.177 102.865 17.9794 102.354 17.811 101.834V101.834Z" fill="#263238"/>
<path d="M16.839 107.466C16.517 107.69 16.1692 107.874 15.803 108.014C15.4459 108.177 15.0696 108.295 14.683 108.364C14.683 108.339 15.176 108.172 15.763 107.92C16.35 107.668 16.825 107.441 16.839 107.466Z" fill="#263238"/>
<path d="M18.29 106.874C18.315 106.874 18.29 106.992 18.29 107.121V107.373C18.2312 107.301 18.2012 107.21 18.206 107.117C18.211 106.963 18.266 106.86 18.29 106.874Z" fill="#263238"/>
<path d="M18.556 105.972C18.5544 106.044 18.5429 106.115 18.522 106.184C18.487 106.292 18.422 106.376 18.394 106.366C18.366 106.356 18.394 106.257 18.433 106.149C18.472 106.041 18.531 105.962 18.556 105.972Z" fill="#263238"/>
<path d="M19.211 105.34C19.211 105.37 19.117 105.409 19.024 105.488C18.931 105.567 18.876 105.661 18.851 105.651C18.826 105.641 18.851 105.518 18.96 105.419C19.069 105.32 19.211 105.315 19.211 105.34Z" fill="#263238"/>
<path d="M19.71 104.97C19.7087 104.994 19.7023 105.017 19.6913 105.039C19.6803 105.06 19.6648 105.078 19.646 105.093C19.582 105.142 19.537 105.162 19.523 105.142C19.509 105.122 19.523 105.068 19.582 105.019C19.641 104.97 19.69 104.95 19.71 104.97Z" fill="#263238"/>
<path d="M44.469 61.459L21.14 61.898C19.3358 61.9309 17.6042 62.6142 16.2639 63.8223C14.9235 65.0304 14.0645 66.6819 13.845 68.473L9.21899 106.073H21.89L25.757 73.6H44.179L44.469 61.459Z" fill="#263238"/>
<path d="M9.37695 103.675C9.37695 103.734 12.1539 103.803 15.577 103.823C19 103.843 21.7179 103.759 21.7769 103.754C22.1719 103.715 19 103.626 15.577 103.606C12.1539 103.586 9.37695 103.619 9.37695 103.675Z" fill="#455A64"/>
<path d="M57.302 60.2751H56.843L55.521 60.3341L50.697 60.5611L34.806 61.3801C34.027 61.4151 33.262 61.4801 32.506 61.4881C31.75 61.4961 30.997 61.5321 30.262 61.5721C29.527 61.6121 28.812 61.6661 28.107 61.7401C27.4083 61.7822 26.7183 61.9167 26.055 62.1401C25.4246 62.3657 24.8464 62.7164 24.355 63.1711C23.8968 63.6117 23.5428 64.1492 23.319 64.7441C23.1138 65.2926 22.9732 65.8631 22.9 66.4441C22.8222 66.9766 22.7844 67.5141 22.787 68.0521C22.7721 68.9807 22.9573 69.9015 23.33 70.7521C23.6165 71.3936 24.0527 71.957 24.602 72.3951C24.9463 72.6725 25.3394 72.8831 25.761 73.0161C26.052 73.1001 26.061 73.0751 25.761 72.9771C25.3511 72.8292 24.9703 72.6106 24.636 72.3311C24.1095 71.89 23.6925 71.3327 23.418 70.7031C23.0679 69.8619 22.8999 68.956 22.925 68.0451C22.9284 67.5152 22.9695 66.9862 23.048 66.4621C23.127 65.8957 23.2692 65.3399 23.472 64.8051C23.6889 64.2459 24.0255 63.7408 24.458 63.3251C24.9356 62.8898 25.4956 62.5545 26.105 62.3391C26.7532 62.1298 27.4251 62.0021 28.105 61.9591C28.805 61.8901 29.525 61.8411 30.255 61.8011C30.985 61.7611 31.735 61.7321 32.484 61.7221C33.233 61.7121 34.008 61.6481 34.784 61.6131L50.69 60.7251L55.514 60.4251L56.821 60.3361L57.161 60.3061C57.2096 60.3052 57.2575 60.2946 57.302 60.2751Z" fill="#455A64"/>
<path d="M49.87 44.6799L47.843 51.0329C47.454 52.3252 46.7161 53.485 45.7104 54.3848C44.7048 55.2846 43.4703 55.8896 42.143 56.1329L30.365 59.3979L29.448 57.2179L28.59 53.9969L38.78 50.5439C39.2715 50.4368 39.7237 50.1958 40.0867 49.8476C40.4498 49.4994 40.7094 49.0575 40.837 48.5709L44.896 39.7419L50.035 42.894L49.87 44.6799Z" fill="#B78876"/>
<path d="M54.812 24.8231C50.496 25.3161 49.105 27.0821 47.345 29.6321C46.6134 30.6886 46.0262 31.8381 45.599 33.0501L42.329 42.3131L49.15 44.4191L48.923 51.9501L45.816 61.1581L72.016 63.2201L71.942 49.8391L71.755 41.7651C72.002 38.7071 72.638 32.2261 72.095 30.6871C69.762 24.1121 64.618 25.3751 60.845 24.4381C59.1162 24.2602 57.3737 24.2602 55.645 24.4381" fill="#FE9286"/>
<path d="M72.02 48.9901C72.02 49.0591 66.895 49.1181 60.572 49.1181C54.249 49.1181 49.11 49.0741 49.11 48.9901C49.11 48.9061 54.235 48.8621 60.558 48.8621C66.881 48.8621 72.02 48.9311 72.02 48.9901Z" fill="#FAFAFA"/>
<path d="M71.636 53.577C71.636 53.651 66.511 53.705 60.188 53.705C53.865 53.705 48.74 53.651 48.74 53.577C48.74 53.503 53.865 53.449 60.188 53.449C66.511 53.449 71.636 53.509 71.636 53.577Z" fill="#FAFAFA"/>
<path d="M71.759 58.825C71.759 58.899 66.334 58.953 59.659 58.953C52.984 58.953 47.551 58.899 47.551 58.825C47.551 58.751 52.976 58.697 59.659 58.697C66.342 58.697 71.759 58.756 71.759 58.825Z" fill="#FAFAFA"/>
<g opacity="0.3">
<path d="M68.578 46.081C68.3457 47.9008 67.9797 49.701 67.483 51.467C67.0848 52.7381 66.4943 53.9407 65.732 55.033C64.5933 56.4539 63.0426 57.4876 61.293 57.992C59.562 58.53 51.241 60.392 49.456 60.251L64.677 53.045L66.512 45.469L68.578 46.081Z" fill="black"/>
</g>
<path d="M67.69 45.815L66.018 52.256C65.6919 53.5759 65.0084 54.7805 64.0426 55.7375C63.0767 56.6945 61.8659 57.3669 60.543 57.681L47.108 60.828L43.414 60.867V55.782L56.938 52.127C57.4239 51.9965 57.8648 51.7352 58.2127 51.3717C58.5605 51.0081 58.8021 50.5562 58.911 50.065L60.211 44.3979L67.69 45.815Z" fill="#B78876"/>
<path d="M72.154 30.314C72.154 30.383 66.507 30.442 59.537 30.442C52.567 30.442 46.921 30.383 46.921 30.314C46.921 30.245 52.568 30.186 59.537 30.186C66.506 30.186 72.154 30.248 72.154 30.314Z" fill="#FAFAFA"/>
<path d="M72.292 34.6871C72.292 34.7611 66.206 34.8151 58.692 34.8151C51.178 34.8151 45.092 34.7611 45.092 34.6871C45.092 34.6131 51.178 34.5591 58.692 34.5591C66.206 34.5591 72.292 34.6081 72.292 34.6871Z" fill="#FAFAFA"/>
<path d="M71.961 39.3992C71.961 39.4732 65.549 39.5812 57.661 39.6412C49.773 39.7012 43.361 39.6952 43.361 39.6412C43.361 39.5872 49.773 39.4632 57.661 39.3992C65.549 39.3352 71.957 39.3292 71.961 39.3992Z" fill="#FAFAFA"/>
<path d="M71.7639 44.398C71.7639 44.467 66.64 44.526 60.317 44.526C53.994 44.526 48.869 44.467 48.869 44.398C48.869 44.329 53.994 44.27 60.317 44.27C66.64 44.27 71.7639 44.329 71.7639 44.398Z" fill="#FAFAFA"/>
<path d="M69.994 46.3511C69.9864 46.3155 69.9864 46.2788 69.994 46.2432L70.038 45.9321C70.082 45.6411 70.1469 45.2411 70.2209 44.7381C70.3839 43.6921 70.621 42.1782 70.882 40.2992C71.143 38.4202 71.444 36.1211 71.597 33.5471C71.7816 32.2113 71.6115 30.8505 71.1039 29.6011C70.7823 28.9695 70.3054 28.4299 69.718 28.0331C69.109 27.6243 68.4165 27.3565 67.6909 27.2491H67.6609C66.8295 27.0506 65.9571 27.1109 65.1609 27.4221C64.3205 27.6928 63.5378 28.1177 62.853 28.6751C62.7154 28.7901 62.5957 28.9249 62.498 29.0752C62.4019 29.2345 62.3148 29.3991 62.2369 29.5681C62.0855 29.9039 61.9586 30.2501 61.857 30.6041C61.667 31.3104 61.5155 32.0265 61.403 32.7491C61.147 34.1741 60.91 35.5651 60.658 36.9021C60.165 39.5751 59.7359 42.0411 59.3409 44.2261L59.267 44.1131L66.8669 45.7061L68.9529 46.1701L69.4999 46.2981C69.5623 46.3099 69.6233 46.328 69.6819 46.3521L69.49 46.3272L68.942 46.2271L66.8419 45.8181L59.227 44.2791H59.1379V44.1791C59.5229 41.9941 59.952 39.5231 60.42 36.8451C60.657 35.5081 60.9129 34.1182 61.1549 32.6872C61.2663 31.9573 61.4196 31.2344 61.614 30.5221C61.7152 30.154 61.8457 29.7946 62.004 29.4471C62.088 29.2785 62.1799 29.1141 62.2799 28.9541C62.3917 28.7851 62.5264 28.6323 62.68 28.5001C63.3919 27.9193 64.2058 27.476 65.08 27.1931C65.9272 26.8689 66.8534 26.812 67.7339 27.0301H67.7079C68.4752 27.1438 69.207 27.4289 69.8489 27.8641C70.4754 28.2835 70.9847 28.8555 71.3289 29.5261C71.4917 29.849 71.6208 30.1878 71.714 30.5371C71.7939 30.8793 71.845 31.2275 71.8669 31.5781L71.8969 32.0711V32.5641C71.8969 32.8991 71.872 33.2251 71.853 33.5501C71.685 36.1391 71.36 38.4181 71.084 40.3171C70.808 42.2161 70.5369 43.7252 70.3489 44.7562C70.2549 45.2492 70.1759 45.6561 70.1219 45.9451L70.058 46.2511C70.0398 46.2864 70.0184 46.3199 69.994 46.3511Z" fill="#263238"/>
<path d="M49.076 51.846C49.1052 51.6186 49.1169 51.3892 49.111 51.16V49.286C49.111 47.708 49.111 45.528 49.067 43.116C49.023 40.704 49.003 38.524 48.967 36.946C48.942 36.182 48.923 35.555 48.908 35.072C48.9089 34.8424 48.8925 34.6131 48.859 34.386C48.8267 34.6131 48.8149 34.8427 48.824 35.072V36.946C48.824 38.524 48.824 40.709 48.868 43.116C48.912 45.523 48.937 47.716 48.976 49.291C48.976 50.051 49.02 50.682 49.035 51.16C49.0279 51.3894 49.0417 51.619 49.076 51.846V51.846Z" fill="#263238"/>
<path d="M57.303 61.9531L57.535 60.8531L47.36 59.7651L42.921 47.0151L22.196 46.8721L28.988 61.6591L57.303 61.9531Z" fill="#455A64"/>
<path d="M35.478 55.0281C35.6772 54.9014 35.8263 54.7094 35.8999 54.485C35.9736 54.2607 35.9671 54.0177 35.8817 53.7975C35.7963 53.5773 35.6372 53.3936 35.4315 53.2775C35.2259 53.1615 34.9863 53.1203 34.7537 53.1611C34.5211 53.2018 34.3098 53.3219 34.1558 53.5009C34.0018 53.6799 33.9146 53.9068 33.9091 54.1429C33.9036 54.379 33.9801 54.6097 34.1256 54.7957C34.271 54.9818 34.4765 55.1116 34.707 55.1631C34.838 55.1924 34.9736 55.1956 35.1059 55.1725C35.2382 55.1493 35.3646 55.1002 35.478 55.0281" fill="white"/>
<path d="M49.604 3.81715C49.0454 3.90495 48.5274 4.16268 48.1205 4.55529C47.7136 4.9479 47.4375 5.45633 47.3297 6.01142C47.222 6.56651 47.2878 7.14131 47.5183 7.65765C47.7489 8.17398 48.1328 8.60677 48.618 8.89716C48.8182 9.03548 49.0494 9.12227 49.2912 9.14983C49.533 9.17739 49.7778 9.14487 50.004 9.05515C50.195 8.93339 50.3597 8.77468 50.4885 8.58836C50.6173 8.40203 50.7076 8.19185 50.754 7.97015C51.183 6.56683 51.0651 5.05313 50.424 3.73315" fill="#263238"/>
<path d="M58.132 28.991C57.5462 28.991 56.9662 28.8751 56.4254 28.6499C55.8846 28.4247 55.3937 28.0947 54.9811 27.6789C54.5684 27.2631 54.2421 26.7697 54.0211 26.2272C53.8 25.6847 53.6885 25.1038 53.693 24.518C53.693 22.984 53.732 21.652 53.732 21.652C52.7469 21.5578 51.826 21.1213 51.1294 20.4184C50.4328 19.7156 50.0045 18.7909 49.919 17.805C49.658 14.288 49.771 6.17002 49.771 6.17002C51.7192 5.18888 53.8937 4.74479 56.0706 4.88347C58.2475 5.02215 60.348 5.7386 62.156 6.95903L62.699 7.32902L62.531 24.592C62.5205 25.7555 62.0537 26.8683 61.231 27.691C60.4083 28.5138 59.2954 28.9806 58.132 28.991V28.991Z" fill="#B78876"/>
<path d="M53.742 21.6022C55.3692 21.5332 56.9388 20.9803 58.25 20.0142C57.8692 20.8465 57.2345 21.5367 56.437 21.9859C55.6394 22.435 54.7202 22.62 53.811 22.5142L53.742 21.6022Z" fill="#AA6550"/>
<path d="M61.81 11.217C61.879 11.217 64.039 10.911 63.832 13.466C63.625 16.021 61.119 14.946 61.119 14.891C61.119 14.836 61.81 11.217 61.81 11.217Z" fill="#B78876"/>
<path d="M61.974 14.0551C62.0118 14.0835 62.0512 14.1099 62.092 14.1341C62.1938 14.1868 62.3123 14.1976 62.422 14.1641C62.5945 14.0732 62.7398 13.9381 62.843 13.7726C62.9461 13.607 63.0034 13.417 63.009 13.2221C63.0332 13.0023 63.0079 12.7798 62.935 12.5711C62.9189 12.4894 62.8825 12.413 62.829 12.3492C62.7755 12.2854 62.7066 12.2361 62.629 12.2061C62.5793 12.1877 62.5247 12.1876 62.475 12.206C62.4253 12.2243 62.3838 12.2598 62.358 12.3061C62.319 12.3751 62.328 12.4291 62.314 12.4341C62.3 12.4391 62.265 12.3851 62.314 12.2811C62.3334 12.2189 62.3732 12.165 62.427 12.1281C62.4638 12.1045 62.505 12.0884 62.5481 12.0809C62.5911 12.0733 62.6353 12.0744 62.678 12.0841C62.7808 12.1134 62.8743 12.1687 62.9494 12.2448C63.0246 12.3208 63.0788 12.4149 63.107 12.5181C63.2013 12.7456 63.2357 12.9935 63.207 13.2381C63.2015 13.4662 63.1288 13.6876 62.9981 13.8745C62.8673 14.0615 62.6843 14.2057 62.472 14.2891C62.402 14.3023 62.3301 14.3002 62.261 14.2829C62.192 14.2656 62.1274 14.2336 62.0719 14.1891C61.9739 14.1211 61.964 14.0601 61.974 14.0551Z" fill="#AA6550"/>
<path d="M52.218 7.62804C52.8097 7.2855 53.3649 6.88341 53.875 6.42804C54.0887 6.76498 54.3747 7.05011 54.7123 7.26275C55.0499 7.4754 55.4307 7.61021 55.8269 7.65741C56.2231 7.70461 56.6248 7.66302 57.0029 7.53565C57.381 7.40828 57.7261 7.19834 58.013 6.92104C58.0284 7.1496 58.1005 7.37073 58.2227 7.5645C58.3449 7.75827 58.5134 7.9186 58.713 8.03104C58.9135 8.14027 59.1381 8.1975 59.3664 8.1975C59.5948 8.1975 59.8195 8.14027 60.02 8.03104L60.074 12.1C60.0381 12.4928 60.1281 12.8868 60.331 13.225C60.3852 13.3022 60.4558 13.3665 60.5376 13.4134C60.6193 13.4604 60.7104 13.4889 60.8044 13.4969C60.8983 13.5049 60.9929 13.4922 61.0815 13.4598C61.17 13.4273 61.2504 13.3759 61.3169 13.309C61.2296 12.8123 61.2772 12.3011 61.4549 11.829C61.5527 11.5996 61.7336 11.4156 61.9614 11.3142C62.1893 11.2127 62.447 11.2012 62.6829 11.282C62.8264 10.4883 62.8744 9.6802 62.826 8.87504C62.8161 8.62608 62.85 8.37732 62.926 8.14004C63.064 7.91304 63.1259 8.08604 63.3899 8.03204C63.7625 7.93812 64.0959 7.72867 64.3422 7.43371C64.5884 7.13876 64.735 6.77342 64.7609 6.39004C64.7755 6.00472 64.6927 5.62195 64.5202 5.27711C64.3477 4.93226 64.091 4.63645 63.7739 4.41704C63.1363 3.98057 62.3602 3.79438 61.594 3.89404C61.8229 3.63956 61.9496 3.30935 61.9496 2.96704C61.9496 2.62473 61.8229 2.29452 61.594 2.04004C61.3565 1.79383 61.0663 1.60465 60.7451 1.4867C60.424 1.36875 60.0804 1.32511 59.74 1.35904C59.054 1.40304 58.285 1.78304 58.201 2.45904C58.1168 1.79318 57.7972 1.1794 57.2999 0.728682C56.8026 0.27796 56.1605 0.0200369 55.4896 0.00155507C54.8187 -0.0169268 54.1633 0.205253 53.6419 0.627913C53.1206 1.05057 52.7676 1.64582 52.647 2.30604C51.8057 1.81939 50.8085 1.67781 49.865 1.91104C49.3891 2.09989 48.977 2.42073 48.6773 2.8358C48.3775 3.25087 48.2026 3.74291 48.173 4.25404C48.173 4.25404 47.966 7.04604 49.736 7.60804C51.506 8.17004 52.218 7.62804 52.218 7.62804Z" fill="#263238"/>
<path d="M50.718 11.8019C50.7077 11.9014 50.7278 12.0017 50.7756 12.0896C50.8234 12.1775 50.8968 12.2488 50.986 12.2941C51.0752 12.3395 51.176 12.3568 51.2752 12.3437C51.3744 12.3306 51.4673 12.2877 51.5416 12.2207C51.616 12.1538 51.6683 12.0659 51.6916 11.9686C51.715 11.8713 51.7084 11.7692 51.6726 11.6758C51.6368 11.5824 51.5735 11.502 51.4911 11.4452C51.4087 11.3885 51.311 11.358 51.211 11.3579C51.0883 11.3573 50.9698 11.4025 50.8786 11.4846C50.7874 11.5667 50.7302 11.6798 50.718 11.8019Z" fill="#263238"/>
<path d="M50.59 11.2451C50.649 11.3091 51.024 11.0331 51.576 11.0381C52.128 11.0431 52.493 11.3041 52.562 11.2381C52.631 11.1721 52.527 11.0901 52.362 10.9671C52.1315 10.8083 51.8579 10.7239 51.578 10.7251C51.3014 10.7256 51.0322 10.8139 50.809 10.9771C50.705 11.036 50.6269 11.1316 50.59 11.2451V11.2451Z" fill="#263238"/>
<path d="M55.917 11.925C55.9067 12.0245 55.9268 12.1248 55.9746 12.2127C56.0225 12.3005 56.0958 12.3718 56.185 12.4172C56.2742 12.4625 56.375 12.4798 56.4742 12.4667C56.5734 12.4536 56.6663 12.4107 56.7406 12.3438C56.815 12.2768 56.8673 12.1889 56.8907 12.0916C56.914 11.9944 56.9074 11.8923 56.8716 11.7988C56.8358 11.7054 56.7725 11.625 56.6901 11.5683C56.6077 11.5115 56.5101 11.4811 56.41 11.481C56.2873 11.4804 56.1688 11.5255 56.0776 11.6076C55.9865 11.6897 55.9292 11.8029 55.917 11.925Z" fill="#263238"/>
<path d="M55.828 11.343C55.887 11.412 56.262 11.131 56.814 11.136C57.366 11.141 57.731 11.402 57.8 11.336C57.869 11.27 57.766 11.188 57.6 11.065C57.3695 10.9062 57.0959 10.8218 56.816 10.823C56.5395 10.8235 56.2702 10.9118 56.047 11.075C55.853 11.2 55.799 11.318 55.828 11.343Z" fill="#263238"/>
<path d="M53.9 15.2839C53.6218 15.1952 53.3335 15.1421 53.042 15.1259C52.904 15.1259 52.776 15.0869 52.751 14.9929C52.7404 14.8531 52.7732 14.7134 52.845 14.5929L53.245 13.5569C53.6159 12.6821 53.9168 11.7793 54.145 10.8569C53.7017 11.6983 53.3271 12.5742 53.025 13.4759C52.892 13.8409 52.764 14.1859 52.645 14.5169C52.557 14.6799 52.5308 14.8691 52.571 15.0499C52.5915 15.0972 52.622 15.1396 52.6603 15.1741C52.6986 15.2086 52.7438 15.2344 52.793 15.2499C52.8686 15.2706 52.9467 15.2807 53.025 15.2799C53.3154 15.3171 53.6093 15.3184 53.9 15.2839V15.2839Z" fill="#263238"/>
<path d="M55.463 15.6491C55.379 15.6491 55.374 16.2211 54.881 16.6351C54.388 17.0491 53.781 16.98 53.771 17.059C53.761 17.138 53.909 17.1721 54.166 17.1771C54.5034 17.1844 54.8323 17.0705 55.093 16.8561C55.3449 16.6502 55.5075 16.355 55.547 16.032C55.566 15.787 55.521 15.6441 55.463 15.6491Z" fill="#263238"/>
<path d="M55.69 9.26697C55.744 9.40997 56.272 9.34098 56.89 9.41498C57.508 9.48898 58.019 9.66198 58.103 9.53298C58.187 9.40398 58.049 9.33298 57.847 9.19298C57.5761 9.01897 57.2675 8.91233 56.947 8.88198C56.6288 8.84119 56.3055 8.87861 56.005 8.99098C55.783 9.08498 55.67 9.19797 55.69 9.26697Z" fill="#263238"/>
<path d="M50.808 9.71094C50.902 9.82894 51.267 9.71094 51.708 9.71094C52.149 9.71094 52.517 9.78994 52.608 9.66694C52.699 9.54394 52.608 9.48493 52.426 9.36693C52.207 9.23024 51.9524 9.16147 51.6943 9.1693C51.4363 9.17713 51.1863 9.26122 50.976 9.41094C50.817 9.53294 50.763 9.65194 50.808 9.71094Z" fill="#263238"/>
<path d="M51.813 3.64901C51.7649 3.64479 51.7181 3.63156 51.675 3.61001C51.6109 3.59862 51.5452 3.60112 51.4822 3.61734C51.4193 3.63356 51.3605 3.66311 51.31 3.70401C51.2322 3.76603 51.175 3.85013 51.1459 3.94526C51.1168 4.04038 51.1172 4.14209 51.147 4.237C51.1837 4.36779 51.2506 4.48813 51.3423 4.58835C51.434 4.68856 51.5479 4.76585 51.675 4.814C51.8276 4.87347 51.9914 4.899 52.155 4.88881C52.3185 4.87863 52.4778 4.83297 52.622 4.755C52.7831 4.65963 52.9191 4.52708 53.0186 4.36843C53.1182 4.20978 53.1783 4.02963 53.194 3.84301C53.214 3.63524 53.1841 3.42569 53.1069 3.23176C53.0297 3.03784 52.9073 2.86513 52.75 2.728C52.584 2.57537 52.387 2.46056 52.1724 2.3915C51.9578 2.32244 51.7307 2.30077 51.5069 2.328C51.0476 2.38424 50.6213 2.59597 50.299 2.92801C50.0028 3.24154 49.8026 3.63331 49.722 4.057C49.5746 4.79195 49.7027 5.55544 50.082 6.202C50.3271 6.64267 50.6632 7.02616 51.068 7.327C51.359 7.534 51.5609 7.627 51.5609 7.643C51.3741 7.59758 51.197 7.519 51.038 7.411C50.585 7.1323 50.2046 6.75018 49.928 6.296C49.5021 5.616 49.3472 4.80083 49.494 4.01201C49.5767 3.53851 49.796 3.09951 50.125 2.74901C50.4836 2.37156 50.9636 2.13226 51.481 2.073C51.741 2.04114 52.0049 2.06613 52.2544 2.14624C52.5039 2.22635 52.733 2.35968 52.926 2.53701C53.1077 2.7031 53.2472 2.91011 53.3329 3.14089C53.4186 3.37166 53.4481 3.61955 53.4189 3.864C53.397 4.08681 53.3214 4.30098 53.1986 4.48819C53.0759 4.6754 52.9095 4.83008 52.7139 4.939C52.5407 5.02756 52.3502 5.07697 52.1558 5.08371C51.9614 5.09045 51.7679 5.05436 51.5889 4.978C51.4398 4.91705 51.3078 4.82046 51.2046 4.69668C51.1014 4.57291 51.0301 4.42572 50.997 4.268C50.9664 4.14726 50.9736 4.02003 51.0178 3.90357C51.062 3.78711 51.141 3.68706 51.244 3.617C51.3065 3.57356 51.3782 3.54517 51.4534 3.53407C51.5287 3.52297 51.6056 3.52945 51.678 3.55301C51.789 3.61001 51.818 3.64501 51.813 3.64901Z" fill="#455A64"/>
</g>
<defs>
<clipPath id="clip0_14_468">
<rect width="255.869" height="176.24" fill="white"/>
</clipPath>
</defs>
</svg>
