<svg width="126" height="84" viewBox="0 0 126 84" fill="none" xmlns="http://www.w3.org/2000/svg">
<g clip-path="url(#clip0_247_53)">
<path d="M4.20771 50.3977H5.61029C21.0993 50.3977 36.5849 50.3977 52.067 50.3977C52.4842 50.3977 52.898 50.31 53.3258 50.5204C54.1603 50.9272 54.6231 51.5163 54.6231 52.4665C54.6524 52.8866 54.5454 53.3049 54.318 53.6592C54.0906 54.0136 53.7549 54.2852 53.3608 54.4336C53.1771 54.528 52.9747 54.5807 52.7682 54.5879H4.32343C4.09551 54.9035 4.21823 55.2646 4.21823 55.5942C4.21823 58.75 4.21823 61.9058 4.21823 65.0441C4.1815 65.4639 4.28332 65.8843 4.50812 66.2408C4.73292 66.5973 5.06832 66.8703 5.46302 67.0182C5.64479 67.1165 5.84583 67.1739 6.0521 67.1865H6.83754C21.976 67.1865 37.1109 67.1865 52.2423 67.1865C53.189 67.1865 53.9324 67.3828 54.3707 68.3646C55.0369 69.8549 54.1954 71.3767 52.5859 71.3837C49.0795 71.4012 45.573 71.3837 42.0877 71.3837H39.9838C39.7489 74.4834 38.476 77.1518 36.5861 79.7816H38.0553C42.8708 79.7816 47.6827 79.7816 52.4912 79.7816C52.9099 79.7495 53.3278 79.8541 53.6819 80.0799C54.036 80.3056 54.3072 80.6402 54.4548 81.0334C55.0369 82.3518 54.1708 83.9157 52.7647 83.9858H52.5964C44.1529 83.9858 35.7106 83.9858 27.2695 83.9858C26.8493 84.0063 26.4338 83.8903 26.085 83.6552C25.7361 83.4202 25.4727 83.0785 25.3339 82.6814C25.1999 82.3741 25.1426 82.0388 25.1671 81.7045C25.1916 81.3701 25.2971 81.0468 25.4745 80.7623C25.652 80.4779 25.896 80.2409 26.1855 80.0719C26.475 79.9028 26.8013 79.8068 27.1362 79.7921C28.36 79.764 29.5907 79.7921 30.8215 79.7921C33.297 77.5304 35.1064 74.8831 35.7901 71.3942H6.17833C5.42806 71.4045 4.68356 71.2618 3.99027 70.9749C3.29698 70.6879 2.66943 70.2627 2.14593 69.7251C1.74618 69.3896 1.38723 69.0083 1.07647 68.5891C0.39663 67.544 0.0236685 66.3291 0 65.0826C0.018701 45.4934 0.018701 25.903 0 6.31137C0 4.00064 1.12206 2.3421 2.93488 1.05173C3.91872 0.348462 5.10239 -0.0202835 6.31157 -0.000197425C32.902 -0.000197425 59.4959 -0.000197425 86.0933 -0.000197425C88.4006 -0.000197425 90.0591 1.11485 91.353 2.92066C92.0944 3.93473 92.4657 5.17236 92.4049 6.42709C92.3976 6.95392 92.1843 7.45695 91.8108 7.82853C91.4373 8.20011 90.9331 8.4107 90.4062 8.41523C89.165 8.43627 88.2288 7.66486 88.2112 6.51475C88.2112 5.55048 87.9517 4.8001 86.9734 4.41089C86.7971 4.30495 86.5995 4.23911 86.3949 4.21804C86.1354 4.21804 85.8724 4.21804 85.6094 4.21804H6.73936C6.23794 4.21804 5.74704 4.16544 5.26666 4.46349C4.95074 4.62602 4.68555 4.87223 4.50005 5.17523C4.31454 5.47822 4.21584 5.82636 4.21473 6.18164C4.21473 6.40254 4.21473 6.61994 4.21473 6.84084L4.20771 50.3977Z" fill="#191919"/>
<path d="M109.201 18.9348C109.203 17.7298 108.845 16.5517 108.173 15.5511C107.853 15.0993 107.486 14.6821 107.079 14.3063C106.545 13.7494 105.899 13.3102 105.185 13.0167C104.471 12.7233 103.703 12.5821 102.931 12.6022C90.3362 12.6022 77.7387 12.6022 65.139 12.6022C63.9327 12.5988 62.7529 12.9567 61.7518 13.6296C61.3011 13.9528 60.8841 14.3205 60.507 14.7271C59.9527 15.2618 59.5152 15.9055 59.2219 16.6176C58.9286 17.3297 58.7859 18.0948 58.8029 18.8647C58.8029 38.4633 58.8029 58.0596 58.8029 77.6535C58.7978 78.8601 59.1557 80.0403 59.8302 81.0407C60.1502 81.4919 60.5143 81.9101 60.9172 82.289C61.4536 82.8432 62.0985 83.2809 62.8116 83.5747C63.5247 83.8685 64.2907 84.0122 65.0618 83.9966H89.8628C90.0802 83.9966 90.3011 83.9966 90.5185 83.9966C90.8508 83.9688 91.1715 83.8614 91.4535 83.6836C91.7356 83.5058 91.9708 83.2628 92.1393 82.9751C92.3077 82.6873 92.4045 82.3633 92.4214 82.0303C92.4384 81.6973 92.375 81.3651 92.2367 81.0617C91.8229 80.122 91.1286 79.7889 90.1328 79.7924C81.9979 79.7924 73.8618 79.7924 65.7246 79.7924C65.4616 79.7924 65.1986 79.7924 64.9356 79.7924C64.431 79.7864 63.9481 79.5864 63.587 79.2338C63.226 78.8813 63.0145 78.4033 62.9966 77.8989C62.9966 74.361 62.9966 70.823 62.9966 67.1938H84.9117C86.7491 67.1938 88.5865 67.2113 90.4238 67.1938C91.9316 67.1938 92.8117 65.6264 92.1946 64.2274C91.7738 63.2631 91.055 62.9931 90.0907 62.9931C81.3878 62.9931 72.6836 62.9931 63.9784 62.9931C63.6523 62.9931 63.2771 63.1264 63.0456 62.9125V25.2464H105V26.4281C105 28.1813 104.979 29.9345 105 31.6877C105.014 32.023 105.109 32.3498 105.278 32.6397C105.447 32.9297 105.684 33.1741 105.969 33.3517C106.254 33.5293 106.577 33.6347 106.912 33.6588C107.247 33.6829 107.582 33.625 107.889 33.49C108.303 33.3362 108.654 33.0514 108.89 32.6791C109.126 32.3069 109.234 31.8675 109.197 31.4282C109.188 27.2533 109.189 23.0888 109.201 18.9348ZM104.993 20.9861H63.0036C63.0036 20.1936 62.986 19.4187 63.0036 18.6438C63.0442 18.1654 63.2546 17.7173 63.5967 17.3803C63.9387 17.0434 64.39 16.8398 64.869 16.8064C64.9987 16.8064 65.132 16.8064 65.2617 16.8064C77.7633 16.8064 90.2614 16.8064 102.756 16.8064C103.741 16.8064 104.421 17.1571 104.86 18.0793C104.96 18.309 105.006 18.5583 104.997 18.8086C105.007 19.4959 105 20.1901 105 20.9861H104.993Z" fill="#191919"/>
<path d="M124.976 40.7658C124.635 40.279 124.241 39.831 123.802 39.4299C123.294 38.9084 122.686 38.4957 122.014 38.2172C121.341 37.9387 120.619 37.8001 119.892 37.8099C114.254 37.7888 108.615 37.8099 102.977 37.8099C101.733 37.8286 100.519 38.1928 99.4704 38.8618C99.0488 39.1643 98.666 39.5176 98.3308 39.9137C97.7739 40.4464 97.3327 41.088 97.0347 41.7987C96.7366 42.5093 96.5882 43.2738 96.5987 44.0443C96.5987 45.4855 96.5987 46.9301 96.5987 48.3712C96.5987 58.2056 96.5987 68.04 96.5987 77.8743C96.6403 78.8236 96.8791 79.7539 97.2999 80.6058C97.6821 81.5175 98.5062 82.1522 99.225 82.8184C99.8211 83.3689 101.655 84.0281 102.381 84.0281C108.323 84.0281 114.268 84.0281 120.214 84.0281C120.468 84.0595 120.725 84.0368 120.968 83.9615C122.199 83.4636 123.423 82.9902 124.324 81.9172C125.302 80.7426 125.997 79.4627 125.997 77.8884C125.997 72.25 125.997 66.6129 125.997 60.9769C125.997 55.3806 125.997 49.7855 125.997 44.1916C126.005 42.9736 125.65 41.7807 124.976 40.7658ZM100.803 44.0583C100.792 43.7873 100.837 43.5169 100.936 43.2641C101.034 43.0113 101.184 42.7815 101.375 42.589C101.566 42.3965 101.795 42.2455 102.047 42.1454C102.299 42.0453 102.569 41.9982 102.84 42.0071C104.674 42.0071 106.508 42.0071 108.342 42.0071C112.097 42.0071 115.852 42.0071 119.608 42.0071C120.047 41.9764 120.484 42.0863 120.856 42.3208C121.228 42.5554 121.515 42.9024 121.677 43.3115C121.763 43.5016 121.802 43.7096 121.792 43.9181C121.792 44.6544 121.792 45.3908 121.792 46.1692H100.799C100.799 45.4399 100.789 44.7491 100.803 44.0583ZM121.754 50.4471V71.3769H100.841V50.5277C101.914 50.3419 117.816 50.2752 121.754 50.4471ZM121.792 77.9445C121.758 78.4224 121.552 78.872 121.214 79.2112C120.875 79.5504 120.426 79.7566 119.948 79.7924C119.468 79.8134 118.987 79.7924 118.507 79.7924C113.352 79.7924 108.2 79.7924 103.05 79.7924C101.599 79.7924 100.806 78.9999 100.799 77.5552C100.799 76.9416 100.799 76.3315 100.799 75.6127H121.796C121.796 76.3981 121.817 77.1695 121.792 77.9445Z" fill="#191919"/>
<path d="M8.41542 37.8029C8.41542 35.699 8.41542 33.5952 8.41542 31.4913C8.41542 30.4639 9.14125 29.5312 10.0214 29.3875C10.5176 29.2829 11.0348 29.3554 11.4832 29.5924C11.9315 29.8294 12.2828 30.2159 12.4759 30.6848C12.5739 30.9172 12.6136 31.17 12.5916 31.4212C12.5916 35.664 12.5916 39.9067 12.5916 44.1495C12.5825 44.4295 12.5182 44.705 12.4023 44.9601C12.2864 45.2151 12.1212 45.4447 11.9162 45.6357C11.7112 45.8267 11.4705 45.9752 11.2079 46.0728C10.9453 46.1704 10.666 46.2151 10.386 46.2043C9.84256 46.1887 9.32734 45.9587 8.95287 45.5645C8.5784 45.1703 8.3751 44.644 8.38737 44.1004C8.41542 42.0001 8.41542 39.8997 8.41542 37.8029Z" fill="#FE9286"/>
<path d="M71.4014 50.433C71.4014 52.5368 71.4014 54.6407 71.4014 56.7445C71.3955 57.2031 71.2472 57.6485 70.9771 58.0191C70.707 58.3898 70.3284 58.6673 69.8937 58.8133C68.8803 59.0553 67.9301 58.5328 67.3866 57.5896C67.246 57.3313 67.1839 57.0376 67.2077 56.7445C67.2077 52.5018 67.2077 48.259 67.2077 44.0162C67.2077 43.4582 67.4294 42.9231 67.824 42.5286C68.2185 42.134 68.7536 41.9124 69.3116 41.9124C69.8696 41.9124 70.4047 42.134 70.7993 42.5286C71.1938 42.9231 71.4155 43.4582 71.4155 44.0162C71.412 46.1446 71.4014 48.2905 71.4014 50.433Z" fill="#FE9286"/>
<path d="M42.0176 61.7132V59.96C42.2455 59.732 42.4664 59.5216 42.6768 59.3007C42.8533 59.1215 43.0668 58.9828 43.3023 58.8944C43.5379 58.806 43.7899 58.77 44.0408 58.7888C45.4854 58.7888 46.9266 58.8098 48.3712 58.7888C48.6521 58.795 48.9289 58.8575 49.1853 58.9724C49.4417 59.0873 49.6724 59.2525 49.864 59.458C50.0555 59.6636 50.2039 59.9055 50.3004 60.1693C50.3969 60.4332 50.4396 60.7137 50.426 60.9943C50.4077 61.54 50.1744 62.0563 49.777 62.4307C49.3796 62.8051 48.8504 63.0072 48.3046 62.993C47.1229 62.993 45.9413 62.9404 44.7631 63.0105C43.6551 63.0772 42.7364 62.8282 42.0176 61.7132Z" fill="#FE9286"/>
<path d="M8.41541 20.8703C8.41541 20.169 8.41541 19.4677 8.41541 18.7665C8.43713 18.2443 8.65499 17.7496 9.02548 17.3811C9.39597 17.0125 9.89184 16.7973 10.4141 16.7783C11.4064 16.6906 12.5881 17.5217 12.6091 18.6998C12.6301 20.2333 12.6301 21.7645 12.6091 23.2933C12.6091 24.4714 11.4099 25.3024 10.4176 25.2148C9.89588 25.1968 9.40012 24.9829 9.02906 24.6158C8.65801 24.2486 8.4389 23.7551 8.41541 23.2336C8.41541 22.4412 8.41541 21.6593 8.41541 20.8703Z" fill="#FE9286"/>
<path d="M67.2043 33.6616C67.2043 32.9183 67.2043 32.1749 67.2043 31.4315C67.2253 30.2394 68.0809 29.4644 69.2801 29.3943C69.822 29.3857 70.3457 29.5897 70.739 29.9627C71.1323 30.3356 71.3638 30.8478 71.3839 31.3895C71.3839 32.8762 71.3839 34.3629 71.3839 35.8496C71.3765 36.3754 71.1608 36.8767 70.7841 37.2436C70.4074 37.6104 69.9005 37.8128 69.3747 37.8062C68.1405 37.8273 67.2288 37.0383 67.1937 35.8917C67.1832 35.1413 67.2043 34.398 67.2043 33.6616Z" fill="#FE9286"/>
<path d="M84.0035 75.5951C83.2601 75.5951 82.5168 75.5951 81.7734 75.5951C81.2513 75.5734 80.7566 75.3555 80.388 74.985C80.0195 74.6145 79.8042 74.1187 79.7853 73.5964C79.6941 72.6041 80.5251 71.4224 81.7033 71.4014C83.2356 71.3769 84.7644 71.3804 86.2967 71.4014C87.4749 71.4189 88.3094 72.6041 88.2182 73.5964C88.2001 74.1183 87.9856 74.6142 87.6177 74.9848C87.2497 75.3553 86.7554 75.5733 86.2336 75.5951C85.4902 75.6091 84.7469 75.5951 84.0035 75.5951Z" fill="#FE9286"/>
</g>
<defs>
<clipPath id="clip0_247_53">
<rect width="126" height="84" fill="white"/>
</clipPath>
</defs>
</svg>
