<svg width="211" height="180" viewBox="0 0 211 180" fill="none" xmlns="http://www.w3.org/2000/svg">
<g clip-path="url(#clip0_14_2)">
<path d="M105.435 179.994C163.665 179.994 210.87 177.238 210.87 173.838C210.87 170.438 163.665 167.682 105.435 167.682C47.2049 167.682 0 170.438 0 173.838C0 177.238 47.2049 179.994 105.435 179.994Z" fill="#F5F5F5"/>
<path opacity="0.1" d="M125.342 3.93701L124.32 35.337L148.937 33.637L125.342 3.93701Z" fill="#FE9286"/>
<path opacity="0.1" d="M107.881 100.53L108.517 77.3049L16.302 78.5559L107.881 100.53Z" fill="#FE9286"/>
<path d="M14.785 6.73804H126.261V76.888C126.261 77.1123 126.217 77.3344 126.131 77.5415C126.045 77.7487 125.919 77.9369 125.761 78.0954C125.602 78.254 125.414 78.3797 125.207 78.4654C124.999 78.5511 124.777 78.5952 124.553 78.595H16.492C16.0393 78.595 15.6051 78.4152 15.285 78.0951C14.9649 77.775 14.785 77.3408 14.785 76.888V6.73804Z" fill="#FE9286"/>
<path opacity="0.7" d="M14.785 6.73804H126.261V76.888C126.261 77.1123 126.217 77.3344 126.131 77.5415C126.045 77.7487 125.919 77.9369 125.761 78.0954C125.602 78.254 125.414 78.3797 125.207 78.4654C124.999 78.5511 124.777 78.5952 124.553 78.595H16.492C16.0393 78.595 15.6051 78.4152 15.285 78.0951C14.9649 77.775 14.785 77.3408 14.785 76.888V6.73804Z" fill="white"/>
<path opacity="0.9" d="M113.752 11.425H27.278C25.715 11.425 24.448 12.6921 24.448 14.255V36.703C24.448 38.266 25.715 39.533 27.278 39.533H113.752C115.315 39.533 116.582 38.266 116.582 36.703V14.255C116.582 12.6921 115.315 11.425 113.752 11.425Z" fill="white"/>
<path opacity="0.7" d="M49.52 43.8401H27.278C25.715 43.8401 24.448 45.1071 24.448 46.6701V49.2101C24.448 50.7731 25.715 52.0401 27.278 52.0401H49.52C51.083 52.0401 52.35 50.7731 52.35 49.2101V46.6701C52.35 45.1071 51.083 43.8401 49.52 43.8401Z" fill="#FE9286"/>
<path opacity="0.7" d="M81.6361 43.8401H59.3941C57.8311 43.8401 56.5641 45.1071 56.5641 46.6701V49.2101C56.5641 50.7731 57.8311 52.0401 59.3941 52.0401H81.6361C83.1991 52.0401 84.4661 50.7731 84.4661 49.2101V46.6701C84.4661 45.1071 83.1991 43.8401 81.6361 43.8401Z" fill="#FE9286"/>
<path opacity="0.7" d="M113.747 43.8401H91.505C89.9421 43.8401 88.675 45.1071 88.675 46.6701V49.2101C88.675 50.7731 89.9421 52.0401 91.505 52.0401H113.747C115.31 52.0401 116.577 50.7731 116.577 49.2101V46.6701C116.577 45.1071 115.31 43.8401 113.747 43.8401Z" fill="#FE9286"/>
<path opacity="0.3" d="M25.9871 55.3569H50.8111C51.2192 55.3569 51.6107 55.5191 51.8993 55.8077C52.1879 56.0963 52.3501 56.4878 52.3501 56.8959V78.5439H24.4501V56.8969C24.4498 56.4889 24.6116 56.0975 24.8998 55.8088C25.188 55.52 25.5791 55.3575 25.9871 55.3569V55.3569Z" fill="#FE9286"/>
<path opacity="0.3" d="M58.1251 55.3579H82.9491C83.3572 55.3579 83.7487 55.5201 84.0373 55.8087C84.3259 56.0973 84.4881 56.4887 84.4881 56.8969V78.5449H56.5641V56.8979C56.5641 56.6939 56.6046 56.492 56.6833 56.3038C56.762 56.1157 56.8774 55.945 57.0226 55.8018C57.1678 55.6586 57.3401 55.5457 57.5294 55.4697C57.7186 55.3936 57.9211 55.356 58.1251 55.3589V55.3579Z" fill="#FE9286"/>
<path opacity="0.3" d="M90.208 55.3569H115.032C115.44 55.3569 115.832 55.5191 116.12 55.8077C116.409 56.0963 116.571 56.4878 116.571 56.8959V78.5439H88.671V56.8969C88.6708 56.4889 88.8325 56.0975 89.1207 55.8088C89.4089 55.52 89.8 55.3575 90.208 55.3569V55.3569Z" fill="#FE9286"/>
<path d="M48.761 0H46.042V0.544H48.761V0Z" fill="#FE9286"/>
<path d="M121.411 1.90311H19.619C18.9819 1.9031 18.3511 2.02903 17.7628 2.27364C17.1746 2.51826 16.6405 2.87675 16.1912 3.32849C15.742 3.78023 15.3865 4.31631 15.1452 4.90592C14.9038 5.49553 14.7814 6.12703 14.785 6.76411H126.261C126.265 6.12559 126.142 5.49271 125.899 4.90198C125.657 4.31126 125.3 3.77442 124.849 3.32245C124.398 2.87048 123.862 2.51234 123.271 2.26873C122.681 2.02512 122.049 1.90085 121.41 1.90311H121.411Z" fill="#FE9286"/>
<path d="M21.6311 4.31702C21.632 4.5089 21.576 4.69674 21.47 4.85669C21.364 5.01664 21.2129 5.14148 21.0358 5.21537C20.8587 5.28925 20.6637 5.30884 20.4754 5.27165C20.2872 5.23446 20.1143 5.14217 19.9786 5.00649C19.8429 4.87081 19.7506 4.69787 19.7134 4.50963C19.6762 4.3214 19.6958 4.12635 19.7697 3.94927C19.8436 3.77219 19.9684 3.62106 20.1284 3.51507C20.2883 3.40909 20.4762 3.35303 20.6681 3.35402C20.9231 3.35533 21.1672 3.45721 21.3475 3.63753C21.5279 3.81784 21.6297 4.06202 21.6311 4.31702Z" fill="white"/>
<path d="M24.747 4.26598C24.747 4.45644 24.6906 4.64263 24.5848 4.80099C24.4789 4.95936 24.3285 5.08278 24.1526 5.15567C23.9766 5.22856 23.783 5.24763 23.5962 5.21047C23.4094 5.17331 23.2378 5.0816 23.1031 4.94692C22.9684 4.81224 22.8767 4.64065 22.8396 4.45385C22.8024 4.26705 22.8215 4.07342 22.8943 3.89745C22.9672 3.72149 23.0907 3.57109 23.249 3.46527C23.4074 3.35946 23.5936 3.30298 23.784 3.30298C24.0395 3.30298 24.2844 3.40444 24.465 3.58504C24.6456 3.76563 24.747 4.01057 24.747 4.26598V4.26598Z" fill="white"/>
<path d="M27.852 4.26598C27.852 4.45644 27.7955 4.64263 27.6897 4.801C27.5839 4.95936 27.4335 5.08278 27.2575 5.15567C27.0816 5.22856 26.888 5.24763 26.7012 5.21047C26.5143 5.17332 26.3428 5.0816 26.2081 4.94692C26.0734 4.81224 25.9817 4.64065 25.9445 4.45385C25.9074 4.26705 25.9264 4.07342 25.9993 3.89745C26.0722 3.72149 26.1956 3.57109 26.354 3.46527C26.5124 3.35946 26.6986 3.30298 26.889 3.30298C27.0155 3.30285 27.1408 3.32767 27.2577 3.37602C27.3746 3.42436 27.4808 3.49529 27.5703 3.58474C27.6597 3.67419 27.7306 3.78041 27.779 3.8973C27.8273 4.0142 27.8522 4.13948 27.852 4.26598Z" fill="white"/>
<path d="M107.006 39.0549H149.965V98.8009C149.965 99.3778 149.736 99.931 149.328 100.339C148.92 100.747 148.367 100.976 147.79 100.976H109.154C108.577 100.976 108.024 100.747 107.616 100.339C107.208 99.931 106.979 99.3778 106.979 98.8009V39.0549H107.006Z" fill="#FE9286"/>
<path opacity="0.8" d="M107.006 39.0549H149.965V98.8009C149.965 99.3778 149.736 99.931 149.328 100.339C148.92 100.747 148.367 100.976 147.79 100.976H109.154C108.577 100.976 108.024 100.747 107.616 100.339C107.208 99.931 106.979 99.3778 106.979 98.8009V39.0549H107.006Z" fill="white"/>
<path opacity="0.9" d="M144.073 42.2849H112.881C111.799 42.2849 110.921 43.1624 110.921 44.2449V53.7889C110.921 54.8714 111.799 55.7489 112.881 55.7489H144.073C145.155 55.7489 146.033 54.8714 146.033 53.7889V44.2449C146.033 43.1624 145.155 42.2849 144.073 42.2849Z" fill="white"/>
<path opacity="0.7" d="M142.473 58.4141H114.481C112.515 58.4141 110.921 60.0079 110.921 61.9741V65.1701C110.921 67.1362 112.515 68.7301 114.481 68.7301H142.473C144.439 68.7301 146.033 67.1362 146.033 65.1701V61.9741C146.033 60.0079 144.439 58.4141 142.473 58.4141Z" fill="#FE9286"/>
<path opacity="0.7" d="M142.473 72.144H114.481C112.515 72.144 110.921 73.7379 110.921 75.704V78.9C110.921 80.8662 112.515 82.46 114.481 82.46H142.473C144.439 82.46 146.033 80.8662 146.033 78.9V75.704C146.033 73.7379 144.439 72.144 142.473 72.144Z" fill="#FE9286"/>
<path opacity="0.7" d="M142.473 85.875H114.481C112.515 85.875 110.921 87.4689 110.921 89.435V92.631C110.921 94.5971 112.515 96.191 114.481 96.191H142.473C144.439 96.191 146.033 94.5971 146.033 92.631V89.435C146.033 87.4689 144.439 85.875 142.473 85.875Z" fill="#FE9286"/>
<path d="M109.829 32.9749H147.122C147.872 32.9749 148.591 33.2728 149.122 33.8032C149.652 34.3335 149.95 35.0528 149.95 35.8029V39.0659H106.989V35.8029C106.989 35.4305 107.063 35.0618 107.205 34.7179C107.348 34.374 107.558 34.0617 107.822 33.7989C108.085 33.5362 108.399 33.3281 108.743 33.1867C109.088 33.0453 109.457 32.9733 109.829 32.9749V32.9749Z" fill="#FE9286"/>
<path d="M166.948 170.569H162.967L162.972 161.341H166.958L166.948 170.569Z" fill="#FFB573"/>
<path d="M198.955 162.952L195.143 164.105L190.943 155.736L194.755 154.583L198.955 162.952Z" fill="#FFB573"/>
<path d="M193.669 164.794C193.417 164.892 193.139 164.901 192.88 164.821C192.796 164.782 192.723 164.722 192.669 164.646C192.615 164.571 192.581 164.483 192.57 164.391C192.558 164.337 192.56 164.281 192.576 164.229C192.592 164.176 192.622 164.129 192.662 164.091C193.021 163.748 194.451 164.14 194.614 164.183C194.63 164.19 194.644 164.202 194.655 164.216C194.665 164.231 194.672 164.248 194.673 164.265C194.675 164.283 194.672 164.301 194.664 164.317C194.656 164.333 194.645 164.347 194.63 164.357C194.327 164.539 194.005 164.685 193.669 164.794V164.794ZM192.897 164.169C192.854 164.178 192.814 164.198 192.783 164.229C192.768 164.244 192.757 164.264 192.752 164.285C192.747 164.306 192.749 164.328 192.756 164.349C192.762 164.413 192.784 164.474 192.82 164.526C192.856 164.579 192.906 164.621 192.963 164.649C193.447 164.716 193.938 164.593 194.333 164.306C193.868 164.166 193.38 164.12 192.897 164.169V164.169Z" fill="#FE9286"/>
<path d="M194.616 164.364H194.567C194.121 164.264 193.142 163.652 193.11 163.195C193.107 163.123 193.127 163.052 193.168 162.993C193.21 162.934 193.269 162.89 193.338 162.869C193.402 162.838 193.473 162.822 193.544 162.822C193.616 162.822 193.686 162.838 193.751 162.869C194.295 163.097 194.665 164.185 194.681 164.234C194.689 164.249 194.693 164.266 194.693 164.284C194.693 164.301 194.689 164.318 194.681 164.334L194.616 164.364ZM193.447 163.032C193.433 163.027 193.418 163.027 193.404 163.032C193.295 163.081 193.295 163.132 193.295 163.163C193.295 163.429 193.964 163.924 194.431 164.109C194.306 163.794 194.018 163.179 193.675 163.021C193.598 162.996 193.515 163 193.441 163.032H193.447Z" fill="#FE9286"/>
<path d="M194.757 163.739L199.042 162.445C199.116 162.422 199.196 162.426 199.267 162.456C199.339 162.485 199.398 162.539 199.434 162.608L201.065 165.816C201.103 165.897 201.124 165.984 201.125 166.074C201.126 166.163 201.108 166.251 201.071 166.333C201.035 166.414 200.982 166.487 200.915 166.546C200.848 166.605 200.769 166.649 200.684 166.675C199.184 167.099 198.433 167.219 196.546 167.801C195.388 168.149 191.652 170.031 190.075 170.52C188.498 171.009 187.856 169.465 188.475 169.12C190.713 167.893 192.665 166.205 194.202 164.167C194.33 163.963 194.527 163.811 194.757 163.739V163.739Z" fill="#263238"/>
<path d="M161.325 170.802C160.987 170.835 160.648 170.748 160.368 170.557C160.305 170.5 160.258 170.429 160.23 170.349C160.202 170.269 160.196 170.183 160.21 170.1C160.214 170.047 160.231 169.996 160.261 169.952C160.29 169.908 160.331 169.873 160.379 169.85C160.874 169.578 162.44 170.394 162.614 170.486C162.633 170.494 162.648 170.509 162.657 170.527C162.666 170.545 162.668 170.566 162.663 170.586C162.658 170.605 162.648 170.623 162.634 170.636C162.619 170.65 162.601 170.659 162.581 170.662C162.168 170.749 161.747 170.796 161.325 170.802V170.802ZM160.64 169.981C160.579 169.978 160.517 169.99 160.461 170.014C160.444 170.025 160.429 170.039 160.417 170.057C160.406 170.074 160.399 170.094 160.396 170.114C160.389 170.168 160.394 170.224 160.411 170.276C160.429 170.328 160.458 170.375 160.496 170.414C161.055 170.661 161.685 170.697 162.269 170.514C161.761 170.24 161.209 170.056 160.638 169.97L160.64 169.981Z" fill="#FE9286"/>
<path d="M162.565 170.666H162.528C162.055 170.448 161.141 169.578 161.234 169.138C161.234 169.038 161.334 168.899 161.598 168.877C161.695 168.86 161.794 168.866 161.888 168.893C161.982 168.92 162.069 168.969 162.142 169.035C162.485 169.476 162.675 170.016 162.686 170.574C162.686 170.59 162.682 170.606 162.675 170.62C162.667 170.634 162.656 170.647 162.643 170.656C162.619 170.668 162.591 170.672 162.565 170.666V170.666ZM161.665 169.035H161.611C161.437 169.035 161.426 169.122 161.421 169.144C161.367 169.41 161.965 170.09 162.46 170.384C162.437 169.934 162.271 169.504 161.987 169.155C161.896 169.083 161.782 169.048 161.666 169.055L161.665 169.035Z" fill="#FE9286"/>
<path d="M163.01 170.107H167.36C167.438 170.106 167.513 170.133 167.573 170.183C167.633 170.233 167.673 170.302 167.686 170.379L168.32 173.927C168.336 174.014 168.332 174.104 168.309 174.19C168.286 174.275 168.244 174.355 168.187 174.422C168.13 174.49 168.058 174.544 167.977 174.581C167.896 174.617 167.809 174.635 167.72 174.634C166.154 174.607 163.913 174.514 161.92 174.514C159.614 174.514 157.613 174.639 154.911 174.639C153.28 174.639 152.894 173.008 153.584 172.839C156.733 172.154 159.277 172.083 162.045 170.419C162.335 170.23 162.672 170.123 163.018 170.109L163.01 170.107Z" fill="#263238"/>
<path d="M177.181 25.21C176.481 28.125 176.039 31.735 177.991 33.682C177.991 33.682 176.691 36.64 171.275 36.64C166.327 36.64 168.931 33.682 168.931 33.682C172.194 32.91 172.221 28.882 171.759 26.613L177.181 25.21Z" fill="#FFB573"/>
<path opacity="0.2" d="M162.972 161.346L162.967 166.099H166.953L166.958 161.346H162.972Z" fill="black"/>
<path opacity="0.2" d="M194.757 154.582L190.945 155.74L193.109 160.052L196.926 158.899L194.757 154.582Z" fill="black"/>
<path d="M185.959 37.325L180.847 40.261C180.847 40.261 186.209 52.768 185.681 54.791C184.958 57.51 184.593 63.062 183.481 66.667C184.182 67.3448 185.058 67.8151 186.01 68.026C188.185 63.676 191.731 56.253 191.524 53.735C191.054 47.983 185.959 37.325 185.959 37.325Z" fill="#FFB573"/>
<path d="M183.479 66.668L179.979 68.114L183.492 71.034C183.492 71.034 186.515 69.669 185.961 67.102L183.479 66.668Z" fill="#FFB573"/>
<path d="M178.019 71.2458L181.331 73.7308L183.49 71.0308L179.977 68.1108L178.019 71.2458Z" fill="#FFB573"/>
<path d="M185.094 34.5839C188.803 35.3399 191.815 48.5839 191.815 48.5839L183.462 52.6029C181.855 49.0036 180.478 45.3058 179.34 41.5319C178.02 36.6179 181.109 33.7739 185.094 34.5839Z" fill="#FE9286"/>
<path opacity="0.2" d="M182.108 39.141C180.553 37.51 181.26 44.002 181.651 48.32C181.983 49.179 182.304 49.951 182.581 50.609C184.827 47.358 184.284 41.425 182.108 39.141Z" fill="black"/>
<path d="M169.058 34.8889C169.058 33.4749 168.851 32.8059 169.237 32.2889C169.623 31.7719 177.28 31.1469 178.601 31.7449C179.052 31.9449 179.313 33.9799 178.748 34.8879C177.921 36.1989 169.058 34.8889 169.058 34.8889Z" fill="#FE9286"/>
<path opacity="0.2" d="M169.058 34.8889C169.058 33.4749 168.851 32.8059 169.237 32.2889C169.623 31.7719 177.28 31.1469 178.601 31.7449C179.052 31.9449 179.313 33.9799 178.748 34.8879C177.921 36.1989 169.058 34.8889 169.058 34.8889Z" fill="black"/>
<path d="M162.756 34.791C162.756 34.791 157.525 46.82 161.005 69.224H182.317C182.605 65.961 181.229 49.996 185.09 34.585C182.746 34.1302 180.374 33.8296 177.99 33.685C174.973 33.5109 171.948 33.5109 168.931 33.685C166.847 33.8952 164.781 34.266 162.754 34.794L162.756 34.791Z" fill="#FE9286"/>
<path d="M165.795 40.3809L160.515 38.2549C160.515 38.2549 153.381 50.3709 151.891 51.3869C148.438 49.4949 147.28 50.2609 144.591 48.2769C143.755 48.5526 143.023 49.0757 142.491 49.7769C144.666 53.9639 151.891 59.1459 155.466 55.9869C159.89 52.0779 165.795 40.3809 165.795 40.3809Z" fill="#FFB573"/>
<path opacity="0.2" d="M166.459 38.9459C166.191 38.066 165.61 37.315 164.825 36.8357C164.04 36.3564 163.106 36.1821 162.201 36.3459C160.66 41.6481 159.862 47.1384 159.83 52.6599L161.896 53.1279C161.896 53.1279 167.824 42.4419 166.459 38.9459Z" fill="black"/>
<path d="M167.367 37.516C168.552 41.083 161.287 51.578 161.287 51.578L153.511 47.228C154.856 43.9545 156.536 40.8291 158.525 37.902C161.532 33.72 166.067 33.606 167.367 37.516Z" fill="#FE9286"/>
<path d="M144.723 48.3908L141.172 46.3408L139.095 50.4738C140.53 50.9459 142.032 51.1824 143.543 51.1738L144.723 48.3908Z" fill="#FFB573"/>
<path d="M139.421 46.3408L136.882 48.7548L139.095 50.4728L141.172 46.3398L139.421 46.3408Z" fill="#FFB573"/>
<path d="M168.351 21.0128C168.318 21.3338 168.123 21.5568 167.916 21.5568C167.709 21.5568 167.563 21.2738 167.595 20.9568C167.627 20.6398 167.823 20.4128 168.035 20.4128C168.247 20.4128 168.384 20.6958 168.351 21.0128Z" fill="#263238"/>
<path d="M168.633 21.0439C168.152 22.005 167.545 22.8975 166.828 23.698C167.034 23.868 167.276 23.9899 167.536 24.0547C167.795 24.1196 168.066 24.1258 168.328 24.073L168.633 21.0439Z" fill="#ED893E"/>
<path d="M167.97 19.908L167.888 19.875C167.868 19.861 167.85 19.843 167.837 19.8222C167.824 19.8014 167.815 19.7781 167.811 19.7538C167.807 19.7295 167.808 19.7046 167.813 19.6806C167.819 19.6566 167.829 19.634 167.844 19.614C168.015 19.3578 168.243 19.1445 168.51 18.9908C168.777 18.8372 169.076 18.7472 169.383 18.728C169.432 18.7296 169.478 18.7505 169.512 18.7861C169.545 18.8217 169.563 18.8691 169.562 18.918C169.559 18.9693 169.537 19.0177 169.5 19.053C169.463 19.0884 169.413 19.1081 169.362 19.108C169.122 19.1279 168.889 19.203 168.682 19.3276C168.476 19.4521 168.301 19.6227 168.171 19.826C168.149 19.8576 168.118 19.8821 168.083 19.8967C168.047 19.9112 168.008 19.9152 167.97 19.908Z" fill="#263238"/>
<path d="M179.178 20.7399C178.531 24.6659 178.357 26.9879 176.165 28.8969C175.469 29.527 174.613 29.9531 173.691 30.1284C172.769 30.3038 171.817 30.2216 170.938 29.8909C170.06 29.5602 169.29 28.9938 168.712 28.2539C168.135 27.514 167.772 26.6293 167.665 25.6969C167.181 22.1079 168.312 16.2969 172.32 14.9459C173.177 14.6317 174.101 14.5499 175 14.709C175.898 14.8681 176.739 15.2623 177.435 15.8516C178.132 16.4409 178.66 17.2042 178.966 18.0639C179.272 18.9236 179.345 19.849 179.177 20.7459L179.178 20.7399Z" fill="#FFB573"/>
<path d="M170.993 22.431C170.177 19.848 169.117 15.857 172.015 14.378C174.913 12.899 177.197 14.954 180.357 16.858C183.919 19.001 181.744 25.7979 177.448 27.3969C173.843 28.7389 170.324 26.041 170.993 22.431Z" fill="#263238"/>
<path d="M171.31 17.6399C168.754 18.3309 166.992 16.6879 168.254 14.7959C169.854 12.3869 176.139 13.0179 178.493 15.6229C180.847 18.2279 173.084 19.4729 171.31 17.6399Z" fill="#263238"/>
<path d="M172.282 15.7349C169.161 15.1589 167.882 12.6139 170.498 11.0349C172.967 9.54993 179.905 12.1229 181.064 16.2229C182.223 20.3229 173.23 18.6459 172.282 15.7349Z" fill="#263238"/>
<path d="M180.602 17.6889C180.826 17.4914 181.103 17.3633 181.399 17.32C181.695 17.2767 181.997 17.3201 182.269 17.445C182.54 17.5699 182.77 17.7709 182.93 18.0236C183.09 18.2763 183.173 18.57 183.169 18.8689C182.483 18.1803 181.571 17.7615 180.602 17.6889Z" fill="#263238"/>
<path d="M181.949 15.0679C182.144 15.2942 182.27 15.5723 182.311 15.8686C182.352 16.1648 182.306 16.4666 182.179 16.7374C182.052 17.0082 181.85 17.2364 181.596 17.3946C181.342 17.5528 181.048 17.6342 180.749 17.6289C181.442 16.9457 181.867 16.0374 181.949 15.0679V15.0679Z" fill="#263238"/>
<path d="M173.24 22.251C172.956 23.0991 172.359 23.8069 171.571 24.23C170.527 24.774 169.804 23.915 169.94 22.805C170.054 21.805 170.734 20.32 171.86 20.233C172.106 20.2183 172.351 20.2674 172.572 20.3758C172.793 20.4841 172.983 20.6478 173.122 20.8511C173.261 21.0543 173.345 21.2901 173.365 21.5355C173.386 21.7808 173.343 22.0274 173.24 22.251Z" fill="#FFB573"/>
<path d="M168.563 69.2239C168.563 69.2239 171.744 99.6759 173.724 111.096C175.899 123.603 191.124 159.71 191.124 159.71L198.112 157.6C198.112 157.6 187.236 124.4 186.212 112.036C185.124 98.6099 182.34 69.2359 182.34 69.2359L168.563 69.2239Z" fill="#263238"/>
<path opacity="0.2" d="M173.463 79.871C173.148 79.392 172.848 79.229 172.563 79.327H172.509C172.442 79.3539 172.38 79.3907 172.324 79.436C172.266 79.4844 172.211 79.5372 172.161 79.594C172.128 79.627 172.101 79.665 172.069 79.703C172.037 79.741 171.987 79.817 171.944 79.882C171.845 80.0415 171.756 80.2068 171.678 80.377C171.634 80.477 171.586 80.589 171.542 80.698C171.498 80.807 171.433 80.975 171.379 81.128C171.325 81.281 171.238 81.541 171.172 81.764C171.161 81.8241 171.143 81.8826 171.118 81.938C171.102 81.998 171.047 82.188 171.009 82.313L170.927 82.639C170.867 82.856 170.813 83.074 170.758 83.302C170.703 83.53 170.649 83.797 170.595 84.052C170.585 84.1427 170.565 84.232 170.535 84.318C170.47 84.644 170.405 84.981 170.335 85.318C171.21 92.898 172.26 101.588 173.174 107.651C173.239 107.451 173.304 107.251 173.374 107.026C173.654 106.016 173.881 104.993 174.054 103.959C175.404 96.1461 175.507 82.987 173.463 79.871Z" fill="black"/>
<path d="M161.004 69.2239C161.004 69.2239 159.144 99.0129 159.041 111.166C158.932 123.804 161.526 165.18 161.526 165.18H168.274C168.274 165.18 170.313 124.543 171.162 112.128C172.081 98.5989 175.012 69.2279 175.012 69.2279L161.004 69.2239Z" fill="#263238"/>
<path d="M168.813 163.114C168.84 163.114 168.713 165.314 168.713 165.314H160.931L160.714 162.84L168.813 163.114Z" fill="#FE9286"/>
<path d="M197.558 155.12C197.732 155.463 198.472 157.611 198.472 157.611L190.81 159.933L189.554 157.867L197.558 155.12Z" fill="#FE9286"/>
</g>
<defs>
<clipPath id="clip0_14_2">
<rect width="210.869" height="179.993" fill="white"/>
</clipPath>
</defs>
</svg>
