<svg width="100" height="100" viewBox="0 0 100 100" fill="none" xmlns="http://www.w3.org/2000/svg">
<g clip-path="url(#clip0_250_160)">
<path d="M47.9525 100H27.173C25.5712 100 24.784 99.2049 24.7675 97.5702C24.7511 95.8148 24.7511 93.9305 24.7675 91.8103C24.7675 90.0467 25.53 89.2924 27.2827 89.2815H28.0123H29.7841C30.607 89.2815 31.279 89.2815 31.9153 89.3034H32.4063L32.5105 88.8838C32.9164 87.2381 33.3827 85.5924 33.9368 83.8123L34.1589 83.0992H33.4101C29.6744 83.0992 26.0046 83.0992 21.9507 83.0992H20.4284C16.9688 83.0992 13.5092 83.0992 10.0496 83.0992H10.0003C7.0161 83.0992 4.671 82.2242 2.83606 80.4222C0.951754 78.59 0 76.2202 0 73.3924C0.0109712 66.4147 0.0109712 59.4388 0 52.4648V38.5944C0 32.6133 0 26.6312 0 20.6482C0 14.5976 3.93044 10.6973 9.99753 10.6973H59.859L59.5189 9.90738C59.1792 9.19415 58.7345 8.53588 58.1996 7.9545C57.2945 6.91772 57.2671 5.78768 58.1338 4.93741C58.3138 4.74612 58.5303 4.59292 58.7706 4.48691C59.0109 4.3809 59.27 4.32424 59.5326 4.32028C60.1336 4.34773 60.7061 4.58447 61.1509 4.98952C62.7527 6.29784 64.3709 6.96435 65.9618 6.9616C67.5526 6.95886 69.2147 6.28139 70.8549 4.93741C71.2845 4.55395 71.8346 4.33274 72.4101 4.31205C72.9255 4.32001 73.4175 4.52861 73.7815 4.89353C74.6592 5.71637 74.6619 6.97806 73.7815 7.94627C73.2438 8.52981 72.7956 9.18975 72.4512 9.90463L72.0892 10.6973H72.9587H76.9193C78.2377 10.6973 79.556 10.6973 80.8744 10.6973H81.4888L81.423 10.0857C81.2232 7.93476 80.3672 5.89722 78.9709 4.24897C78.8914 4.15297 78.8091 4.06246 78.7295 3.97469C78.65 3.88692 78.5732 3.79915 78.4991 3.70041C77.1277 2.08215 78.0905 0.913713 78.4168 0.592805C78.7768 0.219855 79.27 0.00483526 79.7883 -0.00512695C80.4413 0.0326535 81.0584 0.306577 81.5245 0.765602C83.7489 2.70751 86.2969 3.73332 88.8861 3.73332C91.4754 3.73332 94.0125 2.71299 96.2341 0.779316C96.8211 0.274639 97.419 0.000358661 97.9813 0.000358661C98.4892 0.010956 98.973 0.218468 99.3307 0.579091C99.6736 0.902742 100.683 2.09586 99.2183 3.7772C95.2165 8.37963 95.2248 13.8762 99.2348 18.4814C100.189 19.5785 100.255 20.7086 99.4185 21.5835C99.2385 21.7803 99.02 21.938 98.7766 22.047C98.5331 22.156 98.2699 22.2139 98.0032 22.2171C97.554 22.2063 97.1168 22.0694 96.7415 21.8221L95.9187 21.3037V34.4473C95.9187 47.4299 95.9187 60.4125 95.9187 73.3951C95.9187 78.0936 93.0607 81.8046 88.6448 82.8523C87.6652 83.0533 86.6657 83.1408 85.6661 83.1129H75.4519C71.6339 83.1129 67.111 83.1129 62.4894 83.091H61.7433L61.9628 83.8041C62.44 85.3538 62.8843 86.9556 63.3342 88.7027C63.3542 88.7872 63.379 88.8706 63.4082 88.9523L63.5344 89.2897L63.8964 89.3062H64.0884C64.7001 89.2787 65.3474 89.2623 66.1318 89.2623C66.727 89.2623 67.3222 89.2623 67.9174 89.2787H68.7402C70.3503 89.2924 71.1374 90.0851 71.1512 91.6979C71.1676 93.6398 71.1676 95.6119 71.1512 97.5565C71.1374 99.2022 70.353 99.9894 68.7485 99.9894L47.9525 100ZM30.7688 91.6677C30.286 91.6348 29.8012 91.683 29.3343 91.8103L28.9942 91.942V92.3068C28.9668 93.2805 28.9558 94.9591 28.9476 96.5828V97.7074L29.5126 97.6909C32.9987 97.5894 36.4245 97.5785 39.0192 97.5785H42.6013H43.7176C45.1347 97.5785 46.5546 97.5785 47.9772 97.5785H65.2075C65.6684 97.6084 66.1312 97.5658 66.5789 97.4523L66.9327 97.3261V96.9504C66.9601 96.0205 66.9766 94.4599 66.9903 93.0802C66.9903 93.0802 66.9903 92.2053 66.9903 92.134V91.654L66.5158 91.5882C66.4385 91.5788 66.3606 91.5742 66.2827 91.5744C59.006 91.6458 51.7897 91.654 45.6897 91.654L30.7688 91.6677ZM53.4847 89.276C55.1304 89.276 56.7834 89.276 58.4437 89.276H59.1898L58.9703 88.5629C58.4904 86.9967 58.0268 85.3401 57.5496 83.4969L57.4426 83.0855H57.0175C53.9986 83.0855 50.9815 83.0855 47.9662 83.0855C44.951 83.0855 41.9284 83.0855 38.8985 83.0855H38.4706L38.3636 83.4969C37.8836 85.3593 37.4201 87.0187 36.9456 88.5629L36.7262 89.276H37.4722C39.1179 89.276 40.77 89.276 42.4285 89.276H53.4847ZM4.18004 68.0604C4.18004 68.9271 4.18004 69.7993 4.18004 70.6441C4.18004 71.711 4.18004 72.8164 4.20198 73.8971C4.24586 75.6415 4.99191 76.9964 6.484 78.0387C7.53449 78.7683 8.72213 78.9164 10.1868 78.9164H85.699C86.083 78.9164 86.5356 78.9164 86.9799 78.8698C89.5856 78.6229 91.5138 76.7002 91.6701 74.207C91.7634 72.7588 91.7469 71.2695 91.7332 69.8185V69.7829C91.7332 69.2343 91.7332 68.6473 91.7332 68.0713V67.5228H83.9985L84.5854 68.3813C85.2355 69.333 85.1971 70.282 84.4812 71.0583C84.2998 71.2665 84.076 71.4337 83.8249 71.5487C83.5737 71.6636 83.301 71.7236 83.0248 71.7248C82.4017 71.6979 81.8094 71.4465 81.3571 71.0171C80.5657 70.2774 79.6138 69.7311 78.5759 69.4208C77.8915 69.2312 77.1851 69.1325 76.4749 69.1273C74.7442 69.1273 73.2 69.7554 71.7546 71.0473C71.3232 71.4692 70.7503 71.7156 70.1473 71.7385C69.8802 71.7349 69.6166 71.6777 69.3721 71.5703C69.1275 71.4628 68.9071 71.3074 68.7238 71.1131C67.975 70.3671 67.9009 69.3413 68.5619 68.3703L69.1352 67.5173H8.19276C7.03804 67.5173 5.88606 67.5173 4.73409 67.5173H4.17181L4.18004 68.0604ZM74.8622 62.1606C74.9376 62.8946 74.9376 63.6345 74.8622 64.3686L74.7909 65.0433L75.4656 64.972C75.8701 64.9288 76.2766 64.9069 76.6834 64.9061C77.0153 64.9061 77.3472 64.9226 77.6681 64.9528L78.3428 65.0186L78.266 64.3439C78.1823 63.6203 78.1823 62.8896 78.266 62.1661L78.3483 61.4776L77.6598 61.5572C77.2957 61.6006 76.9294 61.6226 76.5627 61.623C76.2007 61.6225 75.839 61.6014 75.4793 61.5599L74.7963 61.4804L74.8622 62.1606ZM82.8931 54.7989C83.1412 54.8004 83.3871 54.845 83.62 54.9306C83.9425 55.0315 84.2344 55.2121 84.4688 55.4556C84.7032 55.6991 84.8726 55.9977 84.9612 56.3239C85.0411 56.7068 85.0245 57.1035 84.9129 57.4784C84.8014 57.8533 84.5983 58.1946 84.3221 58.4715C83.2449 59.6457 82.577 61.1373 82.4186 62.7229L82.35 63.3427H82.9754C84.4318 63.3153 85.7758 63.3016 87.0896 63.3016C88.461 63.3016 89.8022 63.3181 91.0639 63.3482H91.7332L91.7496 62.8161C91.7496 62.775 91.7496 62.7256 91.7496 62.6708C91.7222 52.2261 91.725 41.6087 91.725 31.3397V20.6976C91.725 20.4233 91.725 20.1188 91.6948 19.8336C91.6948 19.6855 91.6811 19.5346 91.6756 19.3865C91.6733 19.3277 91.6678 19.2691 91.6591 19.211L91.6098 18.8928L91.3053 18.7858C91.2159 18.7557 91.1241 18.7328 91.031 18.7173C90.3065 18.5899 89.5724 18.5247 88.8368 18.5225C86.1187 18.5225 83.7516 19.4578 81.6012 21.3833C80.9759 21.9456 80.3615 22.2336 79.7773 22.2336C79.2747 22.2186 78.7972 22.0103 78.4443 21.6521C77.8957 21.1255 77.1908 20.0064 78.661 18.3826C79.4056 17.5653 80.0233 16.6407 80.4932 15.6398L80.8634 14.8527H79.994C78.8283 14.8527 77.6598 14.8664 76.5079 14.8664C75.3559 14.8664 74.1408 14.8664 72.9587 14.8527H72.0892L72.443 15.6344C72.7903 16.3595 73.2412 17.0303 73.7815 17.6256C74.6181 18.5664 74.6619 19.7541 73.8885 20.5796C73.7008 20.7846 73.4723 20.9481 73.2177 21.0595C72.9631 21.171 72.688 21.228 72.4101 21.2269C71.8296 21.2136 71.2719 20.9983 70.833 20.618C69.1873 19.2741 67.5581 18.5938 65.9618 18.5938C64.3655 18.5938 62.7719 19.2658 61.1646 20.5906C60.7168 20.9897 60.1431 21.2188 59.5436 21.2379C59.2783 21.2361 59.0161 21.1811 58.7725 21.076C58.5289 20.9709 58.3089 20.818 58.1256 20.6263C57.2698 19.7541 57.3027 18.6213 58.2106 17.6092C58.7392 17.0171 59.1798 16.352 59.5189 15.6344L59.8947 14.8472H59.0252C47.3655 14.8691 35.5331 14.8691 24.0873 14.8691H9.92348C6.28103 14.8691 4.19101 16.9427 4.19101 20.555V30.8021C4.19101 41.2659 4.19101 52.0835 4.16632 62.7229V63.3263H4.69569H4.79168C11.3744 63.3098 17.9572 63.3071 22.9354 63.3071H51.6471C57.097 63.3071 63.5563 63.3071 70.1418 63.3318H70.7452L70.6904 62.7311C70.5464 61.1059 69.8561 59.5773 68.732 58.3947C67.8817 57.4594 67.8625 56.269 68.6854 55.4325C68.8779 55.2276 69.1092 55.063 69.3657 54.9481C69.6223 54.8332 69.8992 54.7704 70.1802 54.7632C70.4563 54.7686 70.7285 54.8286 70.9813 54.9397C71.2341 55.0508 71.4624 55.2108 71.6531 55.4105C72.9647 56.6973 74.7308 57.4148 76.5682 57.4073C77.4714 57.4136 78.3669 57.2414 79.2033 56.9006C80.0397 56.5599 80.8006 56.0572 81.4422 55.4215C81.6306 55.2267 81.856 55.0713 82.1051 54.9644C82.3542 54.8575 82.6221 54.8013 82.8931 54.7989ZM65.7917 16.0677C66.7654 16.0677 67.7912 16.1198 68.839 16.2241L69.5027 16.2899L69.4396 15.6344C69.2546 13.7473 69.2546 11.8466 69.4396 9.95949L69.5082 9.27927L68.8307 9.35882C67.8801 9.46792 66.9241 9.52286 65.9672 9.52339C65.0287 9.5228 64.091 9.46877 63.1586 9.36156L62.4702 9.28202L62.5497 9.96772C62.7623 11.8387 62.7623 13.7277 62.5497 15.5987L62.4729 16.2762L63.1504 16.2049C64.0279 16.1145 64.9095 16.0687 65.7917 16.0677ZM88.8669 14.359C89.8269 14.362 90.7846 14.4538 91.7277 14.6332L92.5176 14.7813L92.375 13.9887C92.0196 12.0999 92.0196 10.1614 92.375 8.27267L92.5121 7.49371L91.7332 7.63908C90.8076 7.81806 89.8673 7.90989 88.9245 7.91336C87.9554 7.91125 86.9886 7.81943 86.0364 7.63908L85.2492 7.49371L85.3973 8.28089C85.7538 10.1695 85.7538 12.1082 85.3973 13.9969L85.2519 14.7813L86.0364 14.636C86.9692 14.4559 87.9169 14.3632 88.8669 14.359Z" fill="#191919"/>
<path d="M70.0047 71.8259C69.7374 71.8228 69.4734 71.7662 69.2284 71.6592C68.9834 71.5523 68.7624 71.3972 68.5784 71.2033C67.7556 70.3804 67.772 69.2147 68.6333 68.1862C68.7238 68.0765 68.8225 67.9695 68.9213 67.8653C69.0799 67.72 69.2134 67.5495 69.3162 67.3606L69.3629 67.2564C69.3629 67.2317 69.3821 67.207 69.393 67.185C70.3201 64.9908 70.5971 63.3945 70.556 62.8542C70.534 62.525 70.4764 62.1959 70.4764 62.1931C70.4043 61.794 70.2969 61.4021 70.1555 61.022C69.8069 60.09 69.2774 59.2361 68.5976 58.5095C67.7473 57.577 67.7281 56.3866 68.551 55.5473C68.7371 55.3387 68.9649 55.1715 69.2197 55.0562C69.4744 54.941 69.7504 54.8804 70.03 54.8784C70.3095 54.8763 70.5864 54.9328 70.8428 55.0442C71.0993 55.1557 71.3295 55.3196 71.5187 55.5254C72.8299 56.8126 74.5963 57.5302 76.4338 57.5221C77.337 57.5284 78.2325 57.3563 79.0689 57.0155C79.9053 56.6747 80.6662 56.172 81.3078 55.5363C81.4955 55.3399 81.7205 55.1829 81.9696 55.0746C82.2188 54.9663 82.4871 54.9088 82.7587 54.9055C83.0068 54.907 83.2527 54.9516 83.4856 55.0372C83.8076 55.139 84.0991 55.3199 84.3334 55.5633C84.5676 55.8067 84.7373 56.1048 84.8268 56.4305C84.9068 56.8136 84.8901 57.2106 84.778 57.5856C84.6659 57.9606 84.4621 58.3017 84.185 58.5781C83.6883 59.1237 83.2743 59.7391 82.9562 60.4048C82.5718 61.2005 82.3393 62.0609 82.2705 62.9419C82.208 64.3072 82.5702 65.6583 83.3073 66.8093C83.6419 67.2756 83.9546 67.7501 84.2344 68.2218C84.7582 69.0831 84.9639 69.5329 84.8789 70.0787C84.809 70.4851 84.6178 70.8609 84.3304 71.1566C84.1478 71.3636 83.9239 71.5298 83.673 71.6446C83.4221 71.7595 83.1498 71.8203 82.8739 71.8231C82.2516 71.7966 81.66 71.5451 81.209 71.1155C80.4231 70.3745 79.4771 69.8245 78.4443 69.5082C77.7598 69.319 77.0534 69.2203 76.3433 69.2147C74.6098 69.2147 73.0656 69.8428 71.6229 71.1347C71.1885 71.5587 70.6114 71.8052 70.0047 71.8259ZM74.629 61.5458C74.8361 62.7419 74.8361 63.9647 74.629 65.1609C75.2639 65.058 75.9059 65.0048 76.549 65.0018C77.1005 65.0011 77.651 65.047 78.1947 65.1389H78.2331C78.0027 63.9495 78.0027 62.727 78.2331 61.5376C77.6338 61.6531 77.0249 61.7118 76.4146 61.7131C75.8155 61.7144 75.2175 61.6584 74.629 61.5458ZM79.6813 22.2167C79.1722 22.2095 78.6868 22.0003 78.3318 21.6352C77.5666 20.9002 77.4706 19.9649 78.0576 19.0022C78.201 18.7786 78.3654 18.5692 78.5485 18.3768C78.9583 17.924 79.3307 17.4388 79.6621 16.9258L79.8459 16.6516L87.3831 17.5265V18.6236C85.779 18.8238 84.2451 19.4009 82.9068 20.3077C82.4135 20.6399 81.9442 21.0065 81.5025 21.4049C80.8744 21.9699 80.26 22.2551 79.6758 22.2551L79.6813 22.2167ZM59.4476 21.2211C59.1821 21.2209 58.9194 21.1666 58.6756 21.0614C58.4318 20.9562 58.2119 20.8024 58.0296 20.6094C57.1711 19.74 57.2067 18.6072 58.1146 17.5924C58.2827 17.4019 58.4402 17.2022 58.5864 16.9944C58.6714 16.882 58.7427 16.7832 58.8168 16.6955C58.8908 16.6077 58.9073 16.583 58.9539 16.5199L59.3626 16.7942L58.9704 16.4925C59.3359 15.975 59.601 15.3935 59.7521 14.7782L59.8727 14.3147L72.4101 15.7684L72.5473 16.018C72.864 16.5928 73.2469 17.1285 73.6883 17.6143C73.9197 17.8684 74.0987 18.1657 74.2149 18.4893C74.3265 18.7946 74.3631 19.1223 74.3217 19.4448C74.2802 19.7673 74.1619 20.0751 73.9767 20.3423C73.7914 20.6095 73.5447 20.8283 73.2573 20.9803C72.9699 21.1322 72.6502 21.2129 72.3251 21.2156C71.7446 21.2023 71.1868 20.9869 70.748 20.6067C69.1023 19.2627 67.4731 18.5825 65.8795 18.5825C64.2859 18.5825 62.6732 19.2545 61.0686 20.571C60.6215 20.9723 60.048 21.2042 59.4476 21.2266V21.2211Z" fill="#FE9286"/>
<path d="M97.866 22.2167C97.1983 22.1795 96.5664 21.903 96.0859 21.4378C95.8117 21.1992 95.5374 20.966 95.1342 20.6314L94.8873 20.4257C93.7377 19.6255 92.4425 19.058 91.0748 18.7553H91.0474C90.9987 18.7417 90.9492 18.7308 90.8993 18.7224C90.2067 18.5833 89.502 18.5126 88.7956 18.5112C88.3683 18.5115 87.9414 18.5381 87.5174 18.5907H87.4543H87.394L87.3117 18.6072H87.2185L79.1436 17.6719L79.6264 16.9286C79.835 16.6062 80.0264 16.273 80.1996 15.9302C80.3669 15.6011 80.5178 15.2582 80.6549 14.9099C80.707 14.7728 80.7564 14.6603 80.803 14.5506C80.9489 14.22 81.0637 13.8766 81.1459 13.5248H81.1239L81.1459 13.4809L81.1925 13.3959C81.39 12.8034 81.368 11.1221 81.3242 10.5104C81.18 8.21827 80.3074 6.03208 78.8337 4.27055C78.7459 4.16358 78.6554 4.0621 78.5594 3.96061L78.3619 3.7357C77.4349 2.63858 77.4047 1.47563 78.2742 0.622617C78.4519 0.437223 78.6646 0.288916 78.9 0.186281C79.1354 0.0836458 79.3888 0.0287208 79.6456 0.0246853C80.2972 0.0626231 80.9131 0.335466 81.379 0.792671C83.6062 2.73458 86.1542 3.76313 88.7435 3.76313C91.3272 3.76313 93.867 2.74006 96.0859 0.809128C96.6949 0.274281 97.2818 0 97.8441 0C98.3533 0.00814676 98.8389 0.215982 99.1963 0.578732C99.6351 0.995639 100.507 2.13939 99.0811 3.77685C95.1397 8.31071 95.1479 13.9444 99.0975 18.481C100.403 19.9813 99.7723 21.0675 99.2813 21.5832C99.1018 21.7806 98.8834 21.9388 98.6399 22.0478C98.3963 22.1568 98.1329 22.2143 97.866 22.2167ZM88.738 14.3586C89.983 14.3644 91.223 14.5163 92.4325 14.8112C91.8411 12.4034 91.8307 9.88945 92.4024 7.47689C91.2194 7.76193 90.0069 7.90647 88.7901 7.90751C87.545 7.90487 86.3043 7.75853 85.0928 7.47141C85.6756 9.88143 85.6756 12.3957 85.0928 14.8057C86.2863 14.5152 87.5096 14.3652 88.738 14.3586ZM59.6286 15.4091L59.6971 14.8605C59.7355 14.5506 59.763 14.2023 59.7822 13.7991C59.8425 12.2494 59.6834 10.6915 59.5079 10.2087C59.1644 9.37761 58.6759 8.61419 58.0652 7.95414C57.1573 6.9201 57.1326 5.78732 57.9966 4.93705C58.1765 4.74576 58.3931 4.59257 58.6334 4.48655C58.8737 4.38054 59.1328 4.32388 59.3954 4.31992C59.9971 4.34811 60.5701 4.58471 61.0164 4.98917C62.6182 6.30023 64.2337 6.96399 65.8246 6.96399C67.4154 6.96399 69.0775 6.28103 70.7177 4.93705C71.1469 4.55001 71.6982 4.32579 72.2756 4.30346C72.7909 4.312 73.2827 4.52051 73.647 4.88494C73.958 5.17127 74.1726 5.54687 74.2614 5.96012C74.4315 6.75828 73.9872 7.42478 73.7129 7.88008C73.1232 8.78521 72.731 9.35023 72.4731 9.72051C72.2317 10.0327 72.0265 10.3713 71.8615 10.7299C71.5909 11.3903 71.4655 12.1012 71.4939 12.8144C71.5037 13.528 71.648 14.2333 71.9191 14.8934C72.0726 15.2781 72.2656 15.6458 72.4951 15.9906L73.1369 16.9725L59.6286 15.4091ZM64.017 10.9685C64.2273 12.0539 64.2468 13.1677 64.0746 14.2599C64.0746 14.3641 64.0445 14.4683 64.0253 14.578C64.5992 14.4756 65.1812 14.4251 65.7642 14.4272C66.3923 14.4295 67.0194 14.4781 67.6403 14.5725C67.4572 13.3785 67.4646 12.163 67.6622 10.9712C67.0597 11.0828 66.4483 11.1397 65.8355 11.1413C65.2281 11.1426 64.6219 11.0856 64.0253 10.9712L64.017 10.9685Z" fill="#FE9286"/>
<path d="M55.0096 49.3897C55.0096 49.0852 55.0096 48.7862 55.0096 48.4928V48.4598C55.0096 47.7632 55.0096 47.1131 54.9959 46.4686C54.9822 46.0517 55.0782 45.536 55.9669 45.2398C56.0212 45.2243 56.0743 45.205 56.1259 45.1822L62.9089 42.3571L68.8416 39.8886L66.8558 39.0657C63.4822 37.6779 60.1442 36.3065 56.8116 34.9268C56.6806 34.8783 56.5469 34.837 56.4112 34.8034C55.8105 34.6388 55.2153 34.4249 55.0974 33.7968C54.9433 32.7687 54.9257 31.7247 55.0453 30.6919C55.0442 30.5966 55.0621 30.5021 55.0979 30.4138C55.1336 30.3255 55.1867 30.2451 55.2538 30.1775C55.3209 30.1099 55.4008 30.0562 55.4889 30.0198C55.5769 29.9833 55.6713 29.9647 55.7666 29.9651C55.9743 29.9781 56.1756 30.0411 56.3536 30.1489L56.4304 30.1873H56.4496C58.0953 30.8766 59.7547 31.5733 61.4278 32.2773L62.289 32.6421L65.2705 33.9038C67.931 35.0338 70.682 36.2022 73.4139 37.3131C74.3876 37.7108 74.7715 38.2977 74.7469 39.3373V39.4634C74.692 41.6906 74.5384 41.91 72.4264 42.8124L68.4 44.5321L56.8062 49.4857C56.5977 49.5734 56.3838 49.6557 56.1369 49.7462L55.7557 49.8888L55.0096 50.1631V49.3897Z" fill="#191919"/>
<path d="M39.4634 49.6449L38.1963 49.0963C36.973 48.5752 35.7506 48.0513 34.5291 47.5247L34.2548 47.4068C30.3957 45.7611 26.4132 44.0441 22.48 42.3984C21.52 41.9979 21.1415 41.4082 21.1662 40.3715V40.248C21.2238 38.0264 21.3499 37.8426 23.4208 36.9567L27.1537 35.396C31.0842 33.7503 35.149 32.0278 39.1562 30.3163C39.427 30.178 39.7225 30.095 40.0257 30.0722C40.1369 30.0698 40.2475 30.0899 40.3508 30.1314C40.454 30.1728 40.5478 30.2348 40.6264 30.3136C40.9007 30.5879 40.9336 31.0267 40.9254 31.4519V31.5753C40.8787 34.0877 40.7334 34.2934 38.3581 35.2644L29.6058 38.83L27.0522 39.875L28.6979 40.5525L35.3191 43.2953L35.9499 43.5559C37.2555 44.1044 38.6049 44.653 39.9517 45.2015C40.6648 45.4758 40.9665 45.9257 40.9308 46.6251C40.9007 47.2257 40.9089 47.8374 40.9144 48.4847C40.9144 48.7782 40.9144 49.0799 40.9144 49.3953V50.2181L39.4634 49.6449Z" fill="#191919"/>
<path d="M44.6694 54.8919C44.5112 54.8899 44.3542 54.865 44.2032 54.8178L44.1291 54.7959H43.5805C43.5029 54.7916 43.4251 54.7916 43.3474 54.7959H43.1444C42.9839 54.8088 42.8225 54.7829 42.674 54.7204C42.5256 54.6578 42.3943 54.5605 42.2914 54.4366C41.9979 54.0471 42.1461 53.5232 42.2091 53.301C44.9903 43.4269 47.5165 34.3976 49.9329 25.7111C50.2072 24.7484 50.8654 24.614 51.4798 24.614H51.5374C52.736 24.614 53.2352 24.6332 53.5589 25.0583C53.8825 25.4835 53.7646 25.9717 53.4409 27.1264L51.5649 33.871C49.8012 40.1959 47.9773 46.7348 46.1999 53.1694C45.9448 54.0635 45.591 54.8919 44.6694 54.8919Z" fill="#191919"/>
</g>
<defs>
<clipPath id="clip0_250_160">
<rect width="100" height="100" fill="white"/>
</clipPath>
</defs>
</svg>
