<svg width="101" height="95" viewBox="0 0 101 95" fill="none" xmlns="http://www.w3.org/2000/svg">
<g clip-path="url(#clip0_248_123)">
<path d="M0 87.2561C0.39528 85.8362 0.628495 84.3568 1.18584 83.0044C3.88363 76.4324 8.83253 72.6526 15.7717 71.4271C16.0286 71.3815 16.2875 71.3359 16.5425 71.2784C16.5978 71.2665 16.6413 71.203 16.7065 71.1495C9.52032 69.8446 6.02012 63.7624 6.5656 58.2475C6.83863 55.327 8.17875 52.6111 10.3279 50.6227C12.4771 48.6343 15.2834 47.5139 18.2066 47.4773C24.2821 47.4119 29.3041 51.8282 30.1006 58.069C30.7587 63.2409 27.6222 69.6959 19.9992 71.2228C24.4184 71.8178 28.3376 73.4796 31.6461 76.6545C33.7767 73.9912 36.2314 71.7999 39.1841 70.1857C42.1052 68.5873 45.228 67.6929 48.5621 67.2626C43.7615 66.4297 39.9154 64.1095 37.2749 60.0085C34.6344 55.9074 34.0139 51.4296 35.4487 46.7495C37.6662 39.5132 44.7022 34.8053 52.1414 35.7156C60.2782 36.7071 66.077 43.1343 66.2707 51.0687C66.4525 58.5529 61.1735 65.8705 52.4359 67.2527C59.3395 68.0459 64.9781 71.1217 69.3361 76.6525C72.6307 73.5252 76.5203 71.792 80.983 71.2129C77.6429 70.5506 74.9293 68.9462 72.9845 66.1699C71.0081 63.3559 70.3658 60.2206 71.0852 56.8593C71.6912 54.0429 73.2952 51.5428 75.5992 49.8232C77.9033 48.1036 80.751 47.2813 83.6136 47.509C89.5033 48.0008 94.2387 52.9169 94.466 58.7789C94.7052 64.9265 90.5429 70.0072 84.3192 71.2407C84.5998 71.3002 84.8785 71.3795 85.1631 71.4192C89.5398 71.9988 93.5577 74.1536 96.4696 77.4829C99.3816 80.8122 100.989 85.0893 100.994 89.5188C100.994 90.5738 101.01 91.6308 100.994 92.6918C100.966 94.191 100.225 94.9386 98.7509 94.9882C98.5532 94.9882 98.3556 94.9882 98.1579 94.9882C66.3721 94.9882 34.585 94.9941 2.79661 95.006C1.57124 95.006 0.622566 94.7086 0.0039528 93.604L0 87.2561ZM70.269 90.9724C69.846 83.1432 66.5138 77.1225 59.6418 73.551C52.2936 69.7335 45.0481 70.4375 38.4351 75.4349C33.3636 79.2702 30.9524 84.577 30.7706 90.9724H70.269ZM50.5247 39.5608C48.1854 39.5553 45.897 40.2457 43.9487 41.5447C42.0003 42.8437 40.4793 44.693 39.578 46.859C38.6767 49.0249 38.4354 51.4104 38.8847 53.7139C39.334 56.0173 40.4537 58.1355 42.1023 59.8008C43.7509 61.466 45.8544 62.6036 48.1471 63.0698C50.4397 63.536 52.8187 63.3098 54.9833 62.4199C57.1479 61.53 59.0011 60.0163 60.3087 58.07C61.6163 56.1238 62.3196 53.8323 62.3297 51.4851C62.3345 48.3356 61.0945 45.3127 58.8817 43.0789C56.6688 40.8452 53.6636 39.5829 50.5247 39.5687V39.5608ZM26.7091 90.9824C26.9601 89.1539 27.0609 87.3632 27.4838 85.6538C27.9147 83.9087 28.6914 82.2528 29.2468 80.5354C29.3318 80.2717 29.1341 79.7977 28.9147 79.5677C24.201 74.61 16.0148 73.7533 10.2931 77.6619C5.64262 80.8349 3.57333 85.3008 3.98838 90.9824H26.7091ZM97.1757 90.9824C97.0195 89.3423 97.0571 87.736 96.6875 86.2329C95.3692 80.8468 91.9026 77.3407 86.6691 75.8157C81.2637 74.2411 76.4333 75.6055 72.2414 79.3575C71.6722 79.8671 71.5892 80.2816 71.8896 81.0391C72.5921 82.7717 73.1726 84.5516 73.6269 86.3657C73.9866 87.8511 74.0577 89.4078 74.2652 90.9804L97.1757 90.9824ZM18.3351 51.4474C16.259 51.4705 14.274 52.3062 12.8031 53.7765C11.3323 55.2468 10.4919 57.2353 10.4611 59.3183C10.4275 63.6296 14.0483 67.2765 18.3548 67.2666C20.4307 67.2435 22.4155 66.4077 23.8861 64.9374C25.3566 63.4671 26.1966 61.4785 26.2268 59.3957C26.2624 55.0844 22.6416 51.4375 18.3351 51.4474ZM90.533 59.3362C90.5064 57.2536 89.6706 55.2637 88.2036 53.7903C86.7366 52.3168 84.7543 51.4762 82.6788 51.4474C78.3761 51.4217 74.7475 55.0606 74.7732 59.3798C74.7997 61.4598 75.6336 63.4474 77.0977 64.9202C78.5618 66.393 80.5406 67.2347 82.6135 67.2666C86.9221 67.2924 90.5508 63.6573 90.533 59.3362Z" fill="#191919"/>
<path d="M39.949 28.1183C40.372 25.6116 40.7929 22.9424 41.2851 20.2871C41.3464 20.0547 41.3393 19.8094 41.2646 19.581C41.1899 19.3525 41.0507 19.1508 40.8641 19C39.0853 17.2886 37.3382 15.5415 35.5594 13.8301C34.8618 13.1618 34.4566 12.4122 34.7847 11.4504C35.1128 10.4886 35.9231 10.1852 36.8658 10.0622C39.2375 9.74692 41.6092 9.38004 43.9809 9.05284C44.2538 9.03787 44.5166 8.94448 44.7381 8.78379C44.9595 8.6231 45.1303 8.40191 45.23 8.14656C46.2676 5.90765 47.3902 3.7084 48.4554 1.48139C48.8705 0.610814 49.4436 -0.0138603 50.4635 0.00200444C51.4378 0.0178692 51.9853 0.642543 52.3826 1.46949C53.4518 3.69452 54.5566 5.89972 55.608 8.13466C55.7066 8.39139 55.8765 8.61435 56.0975 8.7771C56.3186 8.93985 56.5815 9.03555 56.8551 9.05284C59.2268 9.3741 61.5985 9.74295 63.9702 10.0622C64.907 10.1891 65.7153 10.4727 66.0553 11.4504C66.413 12.4677 65.9387 13.2173 65.2272 13.9035C63.5196 15.5475 61.8535 17.2351 60.1261 18.8612C59.8883 19.054 59.7103 19.311 59.6133 19.602C59.5163 19.8929 59.5043 20.2056 59.5786 20.5032C60.0194 22.8988 60.3929 25.3082 60.8376 27.7038C61.0095 28.6378 60.8534 29.4311 60.0826 29.9923C59.3118 30.5535 58.5371 30.4187 57.7564 30.0062C55.5191 28.8262 53.2917 27.6265 51.0366 26.4941C50.8431 26.4117 50.6351 26.3692 50.4249 26.3692C50.2147 26.3692 50.0067 26.4117 49.8132 26.4941C47.5265 27.6463 45.2813 28.8857 42.9986 30.0478C41.4412 30.8272 39.9016 29.913 39.949 28.1183ZM50.4239 6.47283C49.5958 8.17829 48.831 9.737 48.0799 11.3017C47.9219 11.6829 47.6642 12.0142 47.3341 12.2606C47.004 12.507 46.6136 12.6595 46.2043 12.7017C44.4967 12.9298 42.795 13.2114 41.0084 13.4831C42.0875 14.5876 43.0223 15.6942 44.1093 16.6163C45.3446 17.6634 45.6746 18.8315 45.2952 20.3842C44.9493 21.7585 44.8031 23.1843 44.5402 24.747C45.8822 24.041 47.1095 23.5254 48.1847 22.8016C49.75 21.7526 51.169 21.7882 52.7304 22.8234C53.7996 23.5354 55.0033 24.045 56.3413 24.747C56.0507 23.0198 55.865 21.5205 55.5329 20.053C55.2325 18.7184 55.5566 17.7229 56.5745 16.7968C57.701 15.7676 58.6912 14.5876 59.7565 13.4573C58.1457 13.2153 56.5033 12.9337 54.8511 12.7354C53.7878 12.6065 53.1336 12.0612 52.6948 11.1133C51.9794 9.60413 51.2224 8.11087 50.422 6.47283H50.4239Z" fill="#191919"/>
<path d="M8.82267 38.0854C9.05588 36.7428 9.31282 35.1107 9.63102 33.5024C9.77727 32.7568 9.65473 32.2154 9.05193 31.6839C7.9906 30.7519 7.03007 29.7009 5.99642 28.7371C5.26712 28.0549 4.82441 27.2914 5.1604 26.284C5.49639 25.2766 6.30276 25.0188 7.23957 24.8958C8.70606 24.7114 10.1646 24.4655 11.6292 24.2791C11.9037 24.265 12.1681 24.1702 12.3894 24.0066C12.6108 23.843 12.7794 23.6178 12.8743 23.3589C13.5028 21.9489 14.2341 20.5826 14.9041 19.1944C15.2993 18.4012 15.8527 17.834 16.7757 17.8063C17.7481 17.7845 18.341 18.3556 18.7521 19.1944C19.4221 20.5826 20.1356 21.9589 20.7779 23.3589C20.8742 23.6166 21.0436 23.8404 21.2653 24.0025C21.4869 24.1646 21.751 24.258 22.025 24.2711C23.4915 24.4536 24.9481 24.7094 26.4146 24.8859C27.4028 25.0069 28.2151 25.3519 28.5313 26.3673C28.8397 27.3489 28.3436 28.0708 27.6617 28.7212C26.5411 29.7881 25.4205 30.855 24.3532 31.9755C24.0969 32.2795 23.9711 32.6732 24.0034 33.0701C24.2149 34.6368 24.4995 36.1915 24.794 37.7463C24.962 38.6545 24.8671 39.4696 24.0983 40.0665C23.3294 40.6634 22.5171 40.5543 21.695 40.118C20.3115 39.3764 18.8964 38.6664 17.5208 37.899C17.3224 37.7639 17.0887 37.6906 16.8489 37.6881C16.6092 37.6857 16.3741 37.7542 16.1729 37.8851C14.7084 38.7001 13.234 39.4953 11.726 40.2231C10.218 40.9509 8.7614 40.003 8.82267 38.0854ZM22.3551 28.3167C19.3055 28.5249 17.6275 27.0891 16.8014 24.2632C16.0662 27.218 14.2103 28.4277 11.2497 28.3385C13.7854 29.9745 14.4436 32.1063 13.3585 34.9025C15.6907 33.0443 17.9042 32.973 20.2463 34.9025C19.2087 32.0905 19.8628 29.9666 22.3551 28.3167Z" fill="#FE9286"/>
<path d="M75.8938 38.0893C76.129 36.7447 76.3859 35.1146 76.7022 33.5044C76.8484 32.7587 76.7279 32.2153 76.1251 31.6859C75.0637 30.7538 74.1032 29.7028 73.0695 28.739C72.3422 28.0568 71.8975 27.2933 72.2335 26.2839C72.5576 25.3063 73.3739 25.0187 74.3107 24.8958C75.7772 24.7113 77.2358 24.4654 78.7003 24.279C78.9746 24.265 79.2388 24.1706 79.4602 24.0074C79.6815 23.8442 79.8502 23.6194 79.9454 23.3608C80.5917 21.9211 81.3289 20.523 82.0226 19.1031C82.3981 18.3317 82.9713 17.83 83.8468 17.8062C84.7738 17.7824 85.3786 18.304 85.7719 19.1031C86.4695 20.5211 87.1909 21.9271 87.8392 23.3668C87.9361 23.6241 88.1057 23.8474 88.3272 24.0094C88.5487 24.1715 88.8125 24.2651 89.0863 24.279C90.5528 24.4615 92.0094 24.7173 93.4759 24.8938C94.4641 25.0128 95.2764 25.3598 95.5946 26.3732C95.9009 27.3548 95.4068 28.0766 94.725 28.7271C93.6063 29.796 92.4837 30.8629 91.4184 31.9833C91.2904 32.1334 91.1933 32.3073 91.1325 32.4952C91.0718 32.6831 91.0488 32.8811 91.0647 33.078C91.2761 34.6426 91.5627 36.1994 91.8552 37.7521C92.0232 38.6604 91.9264 39.4774 91.1595 40.0743C90.3452 40.7069 89.5112 40.5364 88.6712 40.0743C87.3134 39.3406 85.93 38.6525 84.5821 37.8929C84.3834 37.7584 84.1498 37.6854 83.9102 37.6829C83.6706 37.6805 83.4355 37.7487 83.2342 37.8791C81.7716 38.6941 80.2953 39.4893 78.7873 40.2151C77.2793 40.9409 75.8286 40.0049 75.8938 38.0893ZM87.2067 34.9917C87.1119 33.5361 86.7008 32.2312 87.0466 31.1742C87.3925 30.1172 88.4953 29.2784 89.4361 28.1401C86.3766 28.5248 84.6927 27.0871 83.8745 24.2631C83.1393 27.2199 81.2815 28.4276 78.3228 28.3384C80.8605 29.9764 81.5147 32.1063 80.4316 34.9024C82.7578 33.0443 84.9714 32.9729 87.2008 34.9917H87.2067Z" fill="#FE9286"/>
<path d="M58.3216 77.5051C58.6813 77.6191 59.0273 77.7727 59.3533 77.9632C61.586 79.486 63.3942 81.5556 64.6065 83.976C65.1876 85.1261 64.899 86.2565 63.9049 86.7999C62.9108 87.3432 61.8198 87.0537 61.2269 85.9452C60.1857 83.9991 58.7171 82.316 56.9322 81.0231C56.5694 80.7842 56.3028 80.424 56.1798 80.0064C56.0567 79.5888 56.0852 79.141 56.2602 78.7426C56.5665 77.9196 57.201 77.5131 58.3216 77.5051Z" fill="#FE9286"/>
<path d="M52.4537 77.174C52.4529 77.5623 52.3374 77.9417 52.1217 78.2641C51.9061 78.5865 51.6 78.8375 51.2422 78.9854C50.8843 79.1333 50.4908 79.1713 50.1114 79.0948C49.732 79.0183 49.3838 78.8306 49.1107 78.5555C48.8376 78.2804 48.652 77.9302 48.5772 77.5492C48.5025 77.1682 48.542 76.7735 48.6909 76.4151C48.8397 76.0566 49.0911 75.7505 49.4133 75.5355C49.7355 75.3204 50.114 75.206 50.501 75.2068C51.0146 75.2247 51.5021 75.4379 51.8647 75.8032C52.2274 76.1686 52.4379 76.6586 52.4537 77.174Z" fill="#FE9286"/>
</g>
<defs>
<clipPath id="clip0_248_123">
<rect width="101" height="95" fill="white"/>
</clipPath>
</defs>
</svg>
