<svg xmlns="http://www.w3.org/2000/svg" xmlns:xlink="http://www.w3.org/1999/xlink" width="1455.672" height="1691.546" viewBox="0 0 1455.672 1691.546">
  <defs>
    <linearGradient id="linear-gradient" x1="0.265" y1="0.949" x2="0.668" y2="0.131" gradientUnits="objectBoundingBox">
      <stop offset="0" stop-color="#78c324"/>
      <stop offset="1" stop-color="#bedd62"/>
    </linearGradient>
    <filter id="Path_251" x="0" y="0" width="1455.672" height="1691.546" filterUnits="userSpaceOnUse">
      <feOffset input="SourceAlpha"/>
      <feGaussianBlur stdDeviation="1" result="blur"/>
      <feFlood flood-opacity="0.149"/>
      <feComposite operator="in" in2="blur"/>
      <feComposite in="SourceGraphic"/>
    </filter>
  </defs>
  <g transform="matrix(1, 0, 0, 1, 0, 0)" filter="url(#Path_251)">
    <path id="Path_251-2" data-name="Path 251" d="M170.874,903.667c-46.3-34.52-82.8-78.646-106.778-124.619-33.767-64.774-48.1-135.013-57.921-204.862C-25.554,348.4,60.918,88,360.816,18.559c201.168-46.583,419.3,1.113,603.358,70.146,270.438,101.427,651.56,417.163,333,651.881-171.258,126.183-447.894,78.573-650.348,147.295-94.848,32.195-184.146,91.5-292.324,84.442C283.948,967.713,221.548,941.44,170.874,903.667Z" transform="matrix(0.39, -0.92, 0.92, 0.39, 3, 1308.4)" opacity="0.1" fill="url(#linear-gradient)"/>
  </g>
</svg>
