<svg xmlns="http://www.w3.org/2000/svg" width="225.644" height="185.497" viewBox="0 0 225.644 185.497">
  <g id="Features_Overview-pana" data-name="Features Overview-pana" transform="translate(-14.046 -79.505)">
    <g id="freepik--Character--inject-3" transform="translate(93.066 112.487)">
      <path id="Path_1257" data-name="Path 1257" d="M209.836,321.421s-1.131-4.909-5.686-4.662-5.662.246-7.629,0-5.02-2.614-5.88-1.879-.382,2.343,1.217,3.764a16.084,16.084,0,0,0,4.348,2.416l-5.822,1s-5.247-2.8-6.479-2.309a1.9,1.9,0,0,0-1.131,1.855s-2.179-.966-2.793-.116-.768,1.449-.15,1.933c0,0-.406-.4-1.536-.068-.966.285-.884,2.068,0,2.546l.3.174s8.252,4.749,8.5,4.783c1.449.193,10.349-.184,14.929-.4a4.672,4.672,0,0,1,4.174,2.184l7.373,11.692,8.329-9.614Z" transform="translate(-177.603 -234.072)" fill="#b78876"/>
      <path id="Path_1258" data-name="Path 1258" d="M199.441,331.024a9.287,9.287,0,0,1-1.348.3c-.855.159-2.053.372-3.454.609h-.068l-1.865-.855-4.45-2.048-1.343-.638a2.245,2.245,0,0,1-.483-.271,2.264,2.264,0,0,1,.517.179l1.377.565,2.024.874,2.459,1.121,1.86.865h-.072c1.4-.222,2.609-.4,3.469-.522a8.769,8.769,0,0,1,1.377-.179Z" transform="translate(-182.165 -240.988)" fill="#aa6550"/>
      <path id="Path_1259" data-name="Path 1259" d="M205.574,338.66a7.054,7.054,0,0,0-3.324,2.638A4.184,4.184,0,0,1,205.574,338.66Z" transform="translate(-190.342 -246.436)" fill="#aa6550"/>
      <path id="Path_1260" data-name="Path 1260" d="M223,324.42c.029,0,.053.3.213.783a4.111,4.111,0,0,0,1.121,1.73l.169.15-.222.043a11.758,11.758,0,0,0-2.261.672,11.923,11.923,0,0,0-3.174,1.933c-.73.623-1.116,1.082-1.15,1.053s.072-.135.242-.348a9.083,9.083,0,0,1,.788-.836,10.657,10.657,0,0,1,3.2-2.048,10.905,10.905,0,0,1,2.319-.662l-.058.193a3.913,3.913,0,0,1-1.1-1.855A1.933,1.933,0,0,1,223,324.42Z" transform="translate(-198.321 -239.076)" fill="#aa6550"/>
      <path id="Path_1261" data-name="Path 1261" d="M210.5,327.3a13.753,13.753,0,0,1-3.174.855c-.894.164-1.71.28-2.3.338a3.628,3.628,0,0,1-.966.039c0-.077,1.449-.29,3.218-.623l2.271-.449a4.233,4.233,0,0,1,.952-.159Z" transform="translate(-191.278 -240.564)" fill="#aa6550"/>
      <path id="Path_1262" data-name="Path 1262" d="M191.276,336.624a12.175,12.175,0,0,1-1.377-.556c-.845-.348-2.029-.8-3.348-1.266s-2.507-.918-3.353-1.28a7.163,7.163,0,0,1-1.338-.652,11.142,11.142,0,0,1,1.4.483l3.382,1.208c1.319.483,2.5.966,3.329,1.343a6.537,6.537,0,0,1,1.3.72Z" transform="translate(-179.803 -243.443)" fill="#aa6550"/>
      <path id="Path_1263" data-name="Path 1263" d="M201.886,340.213a5.493,5.493,0,0,1-3.556.353c0-.072.812-.029,1.783-.13A16.433,16.433,0,0,1,201.886,340.213Z" transform="translate(-188.316 -247.23)" fill="#aa6550"/>
      <path id="Path_1264" data-name="Path 1264" d="M270.923,281.81s-7.368,4.237-8.909,17.185c-.8,6.764-3.744,19.3-3.744,19.3l-6.054-6.793-9.146,10.465s9.88,21.089,15.46,26.838,16.649,7.522,16.649,7.522l2.227-35.245Z" transform="translate(-211.441 -217.052)" fill="#00a0df"/>
      <path id="Path_1265" data-name="Path 1265" d="M352.817,266.571,335.8,263.59l-21.7,1.077s-18.069,7.46-17.146,7.73L293.43,307.27l8.725,16.852-2.169,35.9h59.908l-3.126-24.959L352.85,304.99l7.435,23.282,1.126,31.751H378.08c1.763-13.827,2.314-33.037,2.314-33.037l-13.605-44.448a25.92,25.92,0,0,0-11.523-14.774A13.946,13.946,0,0,0,352.817,266.571Z" transform="translate(-237.47 -207.635)" fill="#00a0df"/>
      <path id="Path_1266" data-name="Path 1266" d="M300.318,318.23l.039.179c.024.13.058.3.1.527.082.483.2,1.15.353,2.019.295,1.754.72,4.3,1.2,7.44s1.053,6.9,1.536,11.073,1.01,8.783,1.29,13.634c.024.454.048.9.072,1.319h0c-.251,9.416-.541,17.876-.807,23.983-.135,3.049-.256,5.513-.362,7.213q-.082,1.261-.13,1.932c0,.213-.029.382-.039.507a1.217,1.217,0,0,1,0,.174.963.963,0,0,1,0-.174v-.512c0-.459.048-1.116.087-1.932.063-1.715.159-4.174.28-7.218.217-6.107.483-14.566.73-23.978h0c0-.416-.048-.865-.072-1.319-.28-4.831-.768-9.445-1.271-13.62s-1.034-7.928-1.5-11.073-.86-5.682-1.126-7.455l-.3-2.029c-.029-.222-.053-.4-.072-.527A.874.874,0,0,1,300.318,318.23Z" transform="translate(-241.029 -235.876)" fill="#263238"/>
      <path id="Path_1267" data-name="Path 1267" d="M408.065,301.646a.694.694,0,0,1-.053-.222c-.029-.179-.068-.391-.111-.647a4.27,4.27,0,0,0-.068-.483c-.024-.184-.029-.358-.044-.56a12.183,12.183,0,0,1-.043-1.372v-.8c0-.275.048-.565.077-.865a17,17,0,0,1,.29-1.889,20.734,20.734,0,0,1,1.382-4.155,21.184,21.184,0,0,1,2.295-3.73,18.2,18.2,0,0,1,1.266-1.449c.208-.213.4-.425.609-.614l.6-.527a12.274,12.274,0,0,1,1.077-.845,4.27,4.27,0,0,1,.483-.329l.4-.246.565-.333a1.2,1.2,0,0,1,.2-.1,1.157,1.157,0,0,1-.179.145l-.531.372-.391.261c-.14.1-.285.222-.44.343a13.046,13.046,0,0,0-1.048.87l-.585.531c-.2.188-.391.406-.594.618A17.071,17.071,0,0,0,412,287.07a19.48,19.48,0,0,0-3.648,7.8,17.84,17.84,0,0,0-.309,1.865c-.034.295-.077.575-.092.85s-.024.536-.034.792c-.039.483,0,.966,0,1.358v.56a3.8,3.8,0,0,0,.053.483c.024.256.044.483.058.647A.864.864,0,0,1,408.065,301.646Z" transform="translate(-296.555 -217.398)" fill="#263238"/>
      <path id="Path_1268" data-name="Path 1268" d="M421.319,366.846a1.263,1.263,0,0,1-.111-.29c-.072-.217-.164-.483-.275-.841-.237-.759-.565-1.807-.966-3.092-.817-2.614-1.933-6.228-3.232-10.2s-2.493-7.566-3.459-10.122c-.483-1.271-.99-2.266-1.29-2.971-.15-.353-.266-.628-.338-.816a2.123,2.123,0,0,1-.1-.295,1.454,1.454,0,0,1,.145.275l.377.8c.329.691.841,1.672,1.367,2.942,1.015,2.556,2.237,6.136,3.532,10.112s2.392,7.595,3.169,10.223c.386,1.314.691,2.382.894,3.121.092.348.169.628.227.85a1.4,1.4,0,0,1,.058.3Z" transform="translate(-298.523 -246.209)" fill="#263238"/>
      <path id="Path_1269" data-name="Path 1269" d="M445.552,394.372c0,.043-.647-.14-1.7-.3a16.263,16.263,0,0,0-4.121-.1,16.091,16.091,0,0,0-4.005.966c-.966.386-1.565.705-1.59.667a1.723,1.723,0,0,1,.386-.261,10.542,10.542,0,0,1,1.135-.57,14.186,14.186,0,0,1,4.044-1.063,14.011,14.011,0,0,1,4.179.169,9.755,9.755,0,0,1,1.232.309A1.7,1.7,0,0,1,445.552,394.372Z" transform="translate(-310.199 -274.846)" fill="#263238"/>
      <path id="Path_1270" data-name="Path 1270" d="M287.68,373.189a6.1,6.1,0,0,1-.449-.672c-.295-.43-.73-1.044-1.314-1.763-1.155-1.449-2.85-3.382-4.735-5.522s-3.59-4.058-4.793-5.484c-.6-.71-1.082-1.29-1.406-1.7a4.9,4.9,0,0,1-.483-.647,4.388,4.388,0,0,1,.556.585l1.449,1.647,4.831,5.43c1.884,2.131,3.561,4.087,4.686,5.58a20.529,20.529,0,0,1,1.256,1.821c.135.222.222.406.285.531S287.689,373.184,287.68,373.189Z" transform="translate(-227.686 -256.122)" fill="#263238"/>
      <g id="Group_711" data-name="Group 711" transform="translate(56.573 110.887)" opacity="0.3">
        <path id="Path_1271" data-name="Path 1271" d="M301.449,405.679c.271-9.759.778-18.755-.106-28.389-.4,8.551-3.508,18.557-6.643,26.524Z" transform="translate(-294.7 -377.29)"/>
      </g>
      <g id="Group_712" data-name="Group 712" transform="translate(112.75 91.142)" opacity="0.3">
        <path id="Path_1272" data-name="Path 1272" d="M413.586,342.633s-2.778-6.213-2.59-6.213a94.487,94.487,0,0,0,6.44,35.752Z" transform="translate(-410.975 -336.42)"/>
      </g>
      <path id="Path_1273" data-name="Path 1273" d="M365.588,417.48a3.259,3.259,0,0,1-.333.212l-.966.565c-.845.483-2.068,1.217-3.561,2.14s-3.276,2.01-5.314,3.155a46.785,46.785,0,0,1-6.831,3.227,22.95,22.95,0,0,1-7.406,1.507,11.148,11.148,0,0,1-3.28-.483,7.778,7.778,0,0,1-2.556-1.343,6.454,6.454,0,0,1-2.3-3.43,5.168,5.168,0,0,1-.15-1.126,2.483,2.483,0,0,1,.024-.391,7.279,7.279,0,0,0,.222,1.493,6.532,6.532,0,0,0,2.309,3.319,7.73,7.73,0,0,0,2.512,1.28,11.03,11.03,0,0,0,3.218.43,23.224,23.224,0,0,0,7.319-1.512,48.728,48.728,0,0,0,6.807-3.193c2.02-1.131,3.807-2.213,5.314-3.107s2.744-1.6,3.6-2.073l1-.527A2.021,2.021,0,0,1,365.588,417.48Z" transform="translate(-257.865 -287.175)" fill="#263238"/>
      <path id="Path_1274" data-name="Path 1274" d="M386.051,388.19a5.5,5.5,0,0,1-.188.841,9.187,9.187,0,0,1-.28.966c-.126.372-.251.807-.445,1.266s-.382.966-.638,1.493-.541,1.082-.85,1.662a24.837,24.837,0,0,1-5.4,6.58,16.914,16.914,0,0,1-1.449,1.16c-.483.333-.923.652-1.343.918s-.807.483-1.15.686-.647.348-.9.483a6.583,6.583,0,0,1-.788.348,5.557,5.557,0,0,1,.744-.435c.242-.13.541-.29.87-.483s.725-.42,1.126-.71.86-.575,1.314-.932.937-.749,1.449-1.169a26.088,26.088,0,0,0,5.31-6.556c.314-.57.623-1.106.865-1.638s.483-1.015.662-1.449.338-.874.483-1.242a9.835,9.835,0,0,0,.324-.966A5.166,5.166,0,0,1,386.051,388.19Z" transform="translate(-278.401 -272.036)" fill="#263238"/>
      <path id="Path_1275" data-name="Path 1275" d="M290.124,339.427c0,.068-2.532-.43-5.619-1.111s-5.585-1.285-5.566-1.353,2.527.425,5.619,1.106S290.139,339.36,290.124,339.427Z" transform="translate(-229.981 -245.556)" fill="#fafafa"/>
      <path id="Path_1276" data-name="Path 1276" d="M290.605,334.127a9.092,9.092,0,0,1-1.59-.179c-.966-.15-2.319-.391-3.8-.672l-3.783-.739a11.884,11.884,0,0,1-1.561-.358,9.1,9.1,0,0,1,1.589.179c.966.15,2.324.391,3.8.672l3.783.744a11.5,11.5,0,0,1,1.561.353Z" transform="translate(-230.462 -243.087)" fill="#fafafa"/>
      <path id="Path_1277" data-name="Path 1277" d="M356.629,336.566c0,.068-10.875.043-24.292-.058s-24.287-.242-24.287-.309,10.875-.043,24.292.058S356.629,336.479,356.629,336.566Z" transform="translate(-245.027 -245.144)" fill="#fafafa"/>
      <path id="Path_1278" data-name="Path 1278" d="M356.785,341.936c0,.068-11.189.126-24.992.126S306.8,342,306.8,341.936s11.189-.126,24.992-.126S356.785,341.863,356.785,341.936Z" transform="translate(-244.381 -248.064)" fill="#fafafa"/>
      <path id="Path_1279" data-name="Path 1279" d="M432.9,330.169h.058c.058,0-.043,0-.072.029h-.044v-.048h.213l-.15.053c-.889.329-4.628,1.594-9.039,3.276l-6.5,2.5-1.971.754a4.7,4.7,0,0,1-.734.251,4.073,4.073,0,0,1,.7-.338c.459-.2,1.121-.483,1.933-.831,1.647-.686,3.933-1.609,6.479-2.57,4.421-1.681,8.213-2.87,9.117-3.092v.053h-.058v-.048h.043a.065.065,0,0,1,.072.039Z" transform="translate(-300.13 -242.037)" fill="#fafafa"/>
      <path id="Path_1280" data-name="Path 1280" d="M431.246,323.727c0,.068-4.218,1.551-9.474,3.314s-9.532,3.145-9.552,3.082,4.218-1.551,9.474-3.319S431.222,323.66,431.246,323.727Z" transform="translate(-298.869 -238.717)" fill="#fafafa"/>
      <path id="Path_1281" data-name="Path 1281" d="M358.866,264.34a2.032,2.032,0,0,1,.043.391,9.173,9.173,0,0,1,.029,1.121,12.137,12.137,0,0,1-.855,4.044,12.49,12.49,0,0,1-3.585,4.952,12.305,12.305,0,0,1-14.17.865,12.431,12.431,0,0,1-4.16-4.479,12.131,12.131,0,0,1-1.343-3.909,8.913,8.913,0,0,1-.106-1.121,1.85,1.85,0,0,1,0-.391,1.989,1.989,0,0,1,.053.391,8.037,8.037,0,0,0,.155,1.106,12.691,12.691,0,0,0,1.4,3.836,12.461,12.461,0,0,0,4.126,4.348,12.16,12.16,0,0,0,13.9-.85,12.479,12.479,0,0,0,4.488-8.817c0-.483.029-.86,0-1.116a2.207,2.207,0,0,1,.019-.372Z" transform="translate(-258.806 -208.022)" fill="#fafafa"/>
      <path id="Path_1282" data-name="Path 1282" d="M253.582,345.34a2.1,2.1,0,0,1-.256.483c-.174.29-.444.705-.788,1.213-.691,1-1.7,2.363-2.9,3.788a46.733,46.733,0,0,1-3.266,3.479c-.44.425-.8.759-1.063.966a1.933,1.933,0,0,1-.42.324,2.713,2.713,0,0,1,.353-.4l1-1.034c.85-.874,2-2.1,3.2-3.517s2.222-2.749,2.947-3.73l.85-1.16A2.2,2.2,0,0,1,253.582,345.34Z" transform="translate(-212.381 -249.889)" fill="#fafafa"/>
      <g id="Group_713" data-name="Group 713" transform="translate(84.6 121.985)" opacity="0.3">
        <path id="Path_1283" data-name="Path 1283" d="M363.89,409.942c-2.44,1.387-5.73,1.609-8.667,1.686a3.735,3.735,0,0,1-1.633-.217,1.382,1.382,0,0,1-.879-1.285c.063-.667.725-1.092,1.338-1.348,2.372-.966,5.034-.928,7.527-1.551,4.242-1.068,8.576-4.1,11.88-6.967a25.843,25.843,0,0,1-9.566,9.663" transform="translate(-352.71 -400.26)"/>
      </g>
      <path id="Path_1284" data-name="Path 1284" d="M336.787,226.749h0a10.9,10.9,0,0,1-10.03-10.962c0-2.715.048-4.889.048-4.889s-8.745-1.358-8.851-10.1,1.406-28.829,1.406-28.829h0a30.389,30.389,0,0,1,30.544,3.841l1.295,1-2.667,39.8a10.9,10.9,0,0,1-11.745,10.146Z" transform="translate(-250.143 -159)" fill="#b78876"/>
      <path id="Path_1285" data-name="Path 1285" d="M336.229,251.447a20.354,20.354,0,0,0,11.4-3.237s-2.691,6.281-11.421,5.5Z" transform="translate(-259.582 -199.685)" fill="#aa6550"/>
      <path id="Path_1286" data-name="Path 1286" d="M384.152,203.056c.15-.063,6.01-1.778,5.8,4.2s-6.155,4.551-6.16,4.382S384.152,203.056,384.152,203.056Z" transform="translate(-284.174 -176.205)" fill="#b78876"/>
      <path id="Path_1287" data-name="Path 1287" d="M387.754,211.526c.029,0,.1.077.275.164a1.053,1.053,0,0,0,.778.039,2.582,2.582,0,0,0,1.266-2.276,3.421,3.421,0,0,0-.242-1.5,1.213,1.213,0,0,0-.759-.826.531.531,0,0,0-.623.266c-.087.164-.053.285-.082.295s-.126-.1-.073-.348a.681.681,0,0,1,.246-.367.812.812,0,0,1,.585-.135,1.449,1.449,0,0,1,1.058.966,3.517,3.517,0,0,1,.3,1.676,2.7,2.7,0,0,1-1.6,2.536,1.116,1.116,0,0,1-.966-.188C387.759,211.671,387.735,211.536,387.754,211.526Z" transform="translate(-286.22 -178.298)" fill="#aa6550"/>
      <path id="Path_1288" data-name="Path 1288" d="M327.44,202.4a1.246,1.246,0,0,0,1.2,1.261,1.193,1.193,0,0,0,1.29-1.126,1.251,1.251,0,0,0-1.2-1.261,1.193,1.193,0,0,0-1.29,1.126Z" transform="translate(-255.049 -175.424)" fill="#263238"/>
      <path id="Path_1289" data-name="Path 1289" d="M324.278,198.649c.155.164,1.1-.536,2.445-.531s2.329.676,2.474.512c.072-.072-.087-.367-.517-.681a3.43,3.43,0,0,0-1.981-.609,3.28,3.28,0,0,0-1.933.628C324.341,198.282,324.2,198.577,324.278,198.649Z" transform="translate(-253.404 -173.392)" fill="#263238"/>
      <path id="Path_1290" data-name="Path 1290" d="M354.15,203.011a1.251,1.251,0,0,0,1.2,1.261,1.2,1.2,0,0,0,1.29-1.126,1.246,1.246,0,0,0-1.2-1.261,1.193,1.193,0,0,0-1.29,1.126Z" transform="translate(-268.854 -175.74)" fill="#263238"/>
      <path id="Path_1291" data-name="Path 1291" d="M351.618,199.169c.155.164,1.1-.536,2.445-.531s2.329.676,2.474.512c.073-.072-.082-.367-.512-.681a3.44,3.44,0,0,0-1.981-.609,3.266,3.266,0,0,0-1.932.628C351.681,198.8,351.541,199.1,351.618,199.169Z" transform="translate(-267.535 -173.661)" fill="#263238"/>
      <path id="Path_1292" data-name="Path 1292" d="M337.9,209.223a9.015,9.015,0,0,0-2.179-.391c-.343-.039-.672-.106-.73-.338a1.773,1.773,0,0,1,.232-1.019c.324-.831.657-1.7,1.015-2.614a46.4,46.4,0,0,0,2.28-6.831,45.3,45.3,0,0,0-2.826,6.633l-.966,2.628a2,2,0,0,0-.179,1.348.855.855,0,0,0,.565.483,2.256,2.256,0,0,0,.58.082A8.194,8.194,0,0,0,337.9,209.223Z" transform="translate(-258.7 -173.748)" fill="#263238"/>
      <path id="Path_1293" data-name="Path 1293" d="M350.912,188.6c.135.367,1.474.193,3.053.382s2.85.623,3.058.295c.1-.159-.126-.483-.643-.855a5.353,5.353,0,0,0-4.657-.512C351.149,188.137,350.854,188.422,350.912,188.6Z" transform="translate(-267.177 -168.354)" fill="#263238"/>
      <path id="Path_1294" data-name="Path 1294" d="M325.282,190.527c.237.309,1.16,0,2.276-.024s2.053.2,2.271-.116c.1-.155-.053-.483-.483-.749a3.121,3.121,0,0,0-1.85-.483,3.155,3.155,0,0,0-1.817.614C325.306,190.044,325.176,190.382,325.282,190.527Z" transform="translate(-253.915 -169.159)" fill="#263238"/>
      <path id="Path_1295" data-name="Path 1295" d="M312.027,155.207a3.232,3.232,0,0,1,1.193-2.9,2.29,2.29,0,0,1,2.966.222,2.672,2.672,0,0,1,2.295-3.242c1.449-.087,2.643.99,4.024,1.367a6.347,6.347,0,0,0,4.082-.483c1.295-.531,2.5-1.242,3.812-1.72a11.189,11.189,0,0,1,14.306,6.571,4.952,4.952,0,0,1,5.266,1.991,8.138,8.138,0,0,1,1.246,5.74,18.2,18.2,0,0,1-1,3.971c0,.111,0,.222,0,.338-.092,4.807-.633,10.455-2.686,10.484-3.575.058-2.725-6.682-2.725-6.682-4.387-1.7-2.754-8.271-3.865-9.266s-3.382-3.314-12.561,1.382a17.828,17.828,0,0,1-10.9,1.179l-.232-.048H317.2a.453.453,0,0,0-.072-.029,8.372,8.372,0,0,1-2.358-1,4.672,4.672,0,0,1-1.933-2.16,2.546,2.546,0,0,1,.483-2.739,5.6,5.6,0,0,1-1.29-2.976Z" transform="translate(-247.071 -147.772)" fill="#263238"/>
      <path id="Path_1296" data-name="Path 1296" d="M338.978,228.152a6.083,6.083,0,0,0,.783,1.527,2.034,2.034,0,0,0,1.449.841,1.821,1.821,0,0,0,1.541-.841,2.9,2.9,0,0,0,.43-1.754c-.024-.551-.28-1.208-.826-1.275a1.348,1.348,0,0,0-.667.15l-2.9,1.169" transform="translate(-260.915 -188.541)" fill="#aa6550"/>
      <path id="Path_1297" data-name="Path 1297" d="M339.522,230.2a4.034,4.034,0,0,0,1.536-.188,2.208,2.208,0,0,0,1.164-1.058,2.319,2.319,0,0,0,.039-1.884,2.129,2.129,0,0,0-.251-.435c-.116-.116-.1-.111-.217-.1a4.053,4.053,0,0,0-.483.184l-.483.193c-.618.251-1.179.483-1.647.643a6.133,6.133,0,0,1-1.57.483,5.6,5.6,0,0,1,1.425-.807c.454-.217,1-.483,1.6-.744l.483-.213a5.526,5.526,0,0,1,.527-.217.7.7,0,0,1,.43,0,.831.831,0,0,1,.319.251,2.633,2.633,0,0,1,.232,2.855,2.45,2.45,0,0,1-1.449,1.184,2.324,2.324,0,0,1-1.246.048C339.643,230.33,339.508,230.233,339.522,230.2Z" transform="translate(-260.305 -188.221)" fill="#263238"/>
      <path id="Path_1298" data-name="Path 1298" d="M347.379,169.221a5.156,5.156,0,0,0,0-1.058,4.1,4.1,0,0,0-1.367-2.454,5.537,5.537,0,0,0-3.938-1.3,16.727,16.727,0,0,0-5.116,1.14,27.536,27.536,0,0,1-2.648.768,13.721,13.721,0,0,1-2.556.314,13.924,13.924,0,0,1-4.31-.57,13.256,13.256,0,0,1-2.7-1.14,7.308,7.308,0,0,1-.676-.42,1.364,1.364,0,0,1-.222-.164s.333.184.966.483a14.766,14.766,0,0,0,2.7,1.053,13.827,13.827,0,0,0,6.764.184c.855-.193,1.73-.483,2.623-.763a16.987,16.987,0,0,1,5.194-1.14,5.7,5.7,0,0,1,4.049,1.42,4.155,4.155,0,0,1,1.343,2.58A2.44,2.44,0,0,1,347.379,169.221Z" transform="translate(-253.193 -156.235)" fill="#455a64"/>
      <path id="Path_1299" data-name="Path 1299" d="M380.795,187a1.206,1.206,0,0,1-.116-.184,5.053,5.053,0,0,1-.271-.556,11.164,11.164,0,0,1-.7-2.174,11.943,11.943,0,0,1-.222-3.382,29.577,29.577,0,0,1,.778-4.063,7.919,7.919,0,0,0,0-4.02,4.054,4.054,0,0,0-.841-1.522,3.044,3.044,0,0,0-1.256-.826,2.9,2.9,0,0,0-2.155.058,3.767,3.767,0,0,0-.672.483,1.638,1.638,0,0,1,.623-.56,2.9,2.9,0,0,1,2.261-.135,3.174,3.174,0,0,1,1.358.85,4.276,4.276,0,0,1,.908,1.594,8.024,8.024,0,0,1,0,4.145,31.585,31.585,0,0,0-.792,4.029,12.334,12.334,0,0,0,.164,3.329,13.046,13.046,0,0,0,.614,2.169A5.928,5.928,0,0,1,380.795,187Z" transform="translate(-279.807 -159.237)" fill="#455a64"/>
      <path id="Path_1300" data-name="Path 1300" d="M347.222,162.667a1.928,1.928,0,0,1,0-.353c0-.256,0-.585.034-1a11.6,11.6,0,0,0-.4-3.633,6.445,6.445,0,0,0-1.169-2.208,4.527,4.527,0,0,0-2.343-1.546,5.928,5.928,0,0,0-3.131.126,14.445,14.445,0,0,0-3.131,1.42,25.827,25.827,0,0,1-3.1,1.594,9.407,9.407,0,0,1-3.2.643,10.2,10.2,0,0,1-2.933-.358,11.365,11.365,0,0,1-2.372-.966,9.711,9.711,0,0,1-2.817-2.416,6.687,6.687,0,0,1-.57-.831,2.416,2.416,0,0,1-.169-.309,1.54,1.54,0,0,1,.213.28,8.434,8.434,0,0,0,.6.8,10.064,10.064,0,0,0,2.826,2.3,11.555,11.555,0,0,0,2.343.932,9.967,9.967,0,0,0,2.865.329,9.223,9.223,0,0,0,3.111-.638,26.221,26.221,0,0,0,3.073-1.59,14.435,14.435,0,0,1,3.189-1.449,6.141,6.141,0,0,1,3.256-.116,4.716,4.716,0,0,1,2.45,1.643,6.562,6.562,0,0,1,1.179,2.29,11.174,11.174,0,0,1,.329,3.686c-.024.44-.058.778-.087,1a1.59,1.59,0,0,1-.048.362Z" transform="translate(-252.196 -150.386)" fill="#455a64"/>
    </g>
    <g id="freepik--Desk--inject-3" transform="translate(20.348 264.75)">
      <path id="Path_1301" data-name="Path 1301" d="M246.432,463.056c0,.068-49.1.126-109.671.126s-109.671-.058-109.671-.126,49.091-.126,109.671-.126S246.432,462.964,246.432,463.056Z" transform="translate(-27.09 -462.93)" fill="#263238"/>
    </g>
    <g id="freepik--Plant--inject-3" transform="translate(91.014 231.307)">
      <path id="Path_1302" data-name="Path 1302" d="M199.8,407.44c.932,1.319,2.73.87,3.556.058a6.748,6.748,0,0,0,1.493-3.1c.715-2.556,1.449-5.232.879-7.822a4.319,4.319,0,0,0-1.01-2.121,2.261,2.261,0,0,0-2.15-.7,3.37,3.37,0,0,0-1.87,1.981,18.6,18.6,0,0,0-1.792,8.005,6.417,6.417,0,0,0,.894,3.7" transform="translate(-186.564 -393.708)" fill="#00a0df"/>
      <g id="Group_714" data-name="Group 714" transform="translate(12.346 0)" opacity="0.2">
        <path id="Path_1303" data-name="Path 1303" d="M199.8,407.44c.932,1.319,2.73.87,3.556.058a6.748,6.748,0,0,0,1.493-3.1c.715-2.556,1.449-5.232.879-7.822a4.319,4.319,0,0,0-1.01-2.121,2.261,2.261,0,0,0-2.15-.7,3.37,3.37,0,0,0-1.87,1.981,18.6,18.6,0,0,0-1.792,8.005,6.417,6.417,0,0,0,.894,3.7" transform="translate(-198.91 -393.708)"/>
      </g>
      <path id="Path_1304" data-name="Path 1304" d="M206.068,435.165a7.981,7.981,0,0,1,4.971-.633,4.126,4.126,0,0,1,2.464,1.082,1.77,1.77,0,0,1,.039,2.454,2.357,2.357,0,0,1-1.546.4c-1.319,0-2.778-.232-3.826.565-.594.454-.99,1.208-1.705,1.449a1.7,1.7,0,0,1-1.87-.816,2.9,2.9,0,0,1-.222-2.14,3.256,3.256,0,0,1,1.7-2.363Z" transform="translate(-189.33 -414.732)" fill="#00a0df"/>
      <path id="Path_1305" data-name="Path 1305" d="M184.064,413.988a4.831,4.831,0,0,0,.725-4.43,8.546,8.546,0,0,0-2.643-3.788,14.165,14.165,0,0,0-4.711-2.744,5.054,5.054,0,0,0-2.116-.343,2.2,2.2,0,0,0-1.763,1.082c-.483.942,0,2.082.483,3.015a36.392,36.392,0,0,0,3.111,4.677,8.529,8.529,0,0,0,3.406,2.9c1.411.546,2.875.459,3.619-.522" transform="translate(-173.356 -398.343)" fill="#00a0df"/>
      <path id="Path_1306" data-name="Path 1306" d="M200.842,450.357a3.018,3.018,0,0,0,.077-.6c.039-.435.092-.966.15-1.638a23.156,23.156,0,0,1,.358-2.416,18.4,18.4,0,0,1,.855-2.846,10.494,10.494,0,0,1,1.449-2.575,5.446,5.446,0,0,1,1.821-1.532,5.151,5.151,0,0,1,1.541-.483,3.08,3.08,0,0,0,.6-.087,2.707,2.707,0,0,0-.609,0,4.678,4.678,0,0,0-1.609.43,5.44,5.44,0,0,0-1.933,1.546,10.281,10.281,0,0,0-1.483,2.628,17.352,17.352,0,0,0-.855,2.9,21.524,21.524,0,0,0-.3,2.416c-.048.7-.063,1.261-.072,1.652A2.551,2.551,0,0,0,200.842,450.357Z" transform="translate(-187.549 -416.686)" fill="#263238"/>
      <path id="Path_1307" data-name="Path 1307" d="M200.894,431.789a1.025,1.025,0,0,0,0-.275v-3.73c.048-2.469.242-5.885.628-9.638s.923-7.131,1.411-9.552c.116-.609.232-1.155.338-1.638s.193-.889.28-1.227.135-.57.184-.773a.989.989,0,0,0,.043-.275,1.392,1.392,0,0,0-.092.261c-.063.2-.135.454-.227.763s-.2.744-.324,1.222-.251,1.024-.377,1.628a91.141,91.141,0,0,0-1.483,9.566c-.391,3.759-.556,7.184-.556,9.663,0,1.237.024,2.242.058,2.933,0,.324.039.589.053.8A1.517,1.517,0,0,0,200.894,431.789Z" transform="translate(-187.499 -399.379)" fill="#263238"/>
      <path id="Path_1308" data-name="Path 1308" d="M191.443,427.4a4.747,4.747,0,0,0,0-.831,22.274,22.274,0,0,0-.271-2.256,30.955,30.955,0,0,0-2.145-7.16,20.716,20.716,0,0,0-4.073-6.281,10.148,10.148,0,0,0-.966-.879c-.145-.121-.275-.242-.406-.338l-.372-.251a4.84,4.84,0,0,0-.7-.444,24.148,24.148,0,0,1,2.309,2.034,22,22,0,0,1,3.971,6.237,30.838,30.838,0,0,1,1.4,3.865c.367,1.208.614,2.314.8,3.251s.28,1.7.343,2.232A6.043,6.043,0,0,0,191.443,427.4Z" transform="translate(-178.087 -401.591)" fill="#263238"/>
    </g>
    <g id="freepik--Features--inject-3" transform="translate(14.046 79.505)">
      <path id="Path_1309" data-name="Path 1309" d="M198.2,284.609l-20.5-.874V263.24h20.5Z" transform="translate(-98.633 -174.471)" fill="#00a0df"/>
      <rect id="Rectangle_886" data-name="Rectangle 886" width="20.499" height="20.499" transform="translate(87.193 82.903)" fill="#00a0df"/>
      <path id="Path_1310" data-name="Path 1310" d="M220.13,277.46l8.126-5.86V251.1l-8.126,5.865Z" transform="translate(-120.564 -168.197)" fill="#00a0df"/>
      <path id="Path_1311" data-name="Path 1311" d="M177.7,256.965l8.126-5.865h20.5l-8.126,5.865Z" transform="translate(-98.633 -168.197)" fill="#00a0df"/>
      <path id="Path_1312" data-name="Path 1312" d="M220.13,278.334l8.126-6.735V251.1l-8.126,5.865Z" transform="translate(-120.564 -168.197)" fill="#00a0df"/>
      <path id="Path_1313" data-name="Path 1313" d="M177.7,256.965l8.126-5.865h20.5l-8.126,5.865Z" transform="translate(-98.633 -168.197)" fill="#fff" opacity="0.3"/>
      <path id="Path_1314" data-name="Path 1314" d="M220.13,278.334l8.126-6.735V251.1l-8.126,5.865Z" transform="translate(-120.564 -168.197)" opacity="0.4"/>
      <path id="Path_1315" data-name="Path 1315" d="M241.874,295.15a3.049,3.049,0,0,1,.126,1.208c-.1.2-.029.058-.048.1h-.029l-.048.034-.1.072-.184.13c-.121.082-.227.155-.324.208-.188.116-.314.174-.333.145s.068-.135.227-.285l.29-.251.174-.145.1-.072.048-.039h0c0,.048.053-.1-.048.1A3.049,3.049,0,0,1,241.874,295.15Z" transform="translate(-131.317 -190.965)" fill="#00a0df"/>
      <path id="Path_1316" data-name="Path 1316" d="M242.746,284.43a6.735,6.735,0,0,1,0,2.59A6.736,6.736,0,0,1,242.746,284.43Z" transform="translate(-132.188 -185.424)" fill="#00a0df"/>
      <path id="Path_1317" data-name="Path 1317" d="M242.746,273.71a6.735,6.735,0,0,1,0,2.59A6.735,6.735,0,0,1,242.746,273.71Z" transform="translate(-132.188 -179.883)" fill="#00a0df"/>
      <path id="Path_1318" data-name="Path 1318" d="M242.746,263a6.735,6.735,0,0,1,0,2.59A6.735,6.735,0,0,1,242.746,263Z" transform="translate(-132.188 -174.347)" fill="#00a0df"/>
      <path id="Path_1319" data-name="Path 1319" d="M242.746,252.27a6.735,6.735,0,0,1,0,2.59A6.735,6.735,0,0,1,242.746,252.27Z" transform="translate(-132.188 -168.801)" fill="#00a0df"/>
      <path id="Path_1320" data-name="Path 1320" d="M240.38,244.259a2.952,2.952,0,0,1,1.208-.126l.126.126h0v.464a1.594,1.594,0,0,1-.029.387c0,.217-.053.353-.087.353s-.068-.135-.087-.353a1.894,1.894,0,0,0-.029-.387v-.483h0l.126.126a3.048,3.048,0,0,1-1.227-.106Z" transform="translate(-131.031 -164.588)" fill="#00a0df"/>
      <path id="Path_1321" data-name="Path 1321" d="M230.79,244.276a5.416,5.416,0,0,1,2.319,0A5.416,5.416,0,0,1,230.79,244.276Z" transform="translate(-126.074 -164.605)" fill="#00a0df"/>
      <path id="Path_1322" data-name="Path 1322" d="M221.2,244.276a5.392,5.392,0,0,1,2.314,0A5.391,5.391,0,0,1,221.2,244.276Z" transform="translate(-121.117 -164.604)" fill="#00a0df"/>
      <path id="Path_1323" data-name="Path 1323" d="M211.61,244.276a5.392,5.392,0,0,1,2.314,0A5.391,5.391,0,0,1,211.61,244.276Z" transform="translate(-116.16 -164.604)" fill="#00a0df"/>
      <path id="Path_1324" data-name="Path 1324" d="M202,244.276a5.392,5.392,0,0,1,2.314,0A5.391,5.391,0,0,1,202,244.276Z" transform="translate(-111.193 -164.604)" fill="#00a0df"/>
      <path id="Path_1325" data-name="Path 1325" d="M192.63,244.58a.946.946,0,0,1,.261-.348h.043c.2,0,.454-.029.739-.029a2.705,2.705,0,0,1,1.155.126,2.8,2.8,0,0,1-1.155.126,5.6,5.6,0,0,1-.739-.029L193,244.4A1.5,1.5,0,0,1,192.63,244.58Z" transform="translate(-106.35 -164.624)" fill="#00a0df"/>
      <path id="Path_1326" data-name="Path 1326" d="M185.246,249.5c-.043-.053.319-.43.812-.836s.928-.7.966-.643-.319.425-.812.836S185.29,249.555,185.246,249.5Z" transform="translate(-102.532 -166.603)" fill="#00a0df"/>
      <path id="Path_1327" data-name="Path 1327" d="M177.866,255.622c-.043-.053.319-.425.812-.836s.928-.7.966-.643-.319.43-.812.836S177.929,255.68,177.866,255.622Z" transform="translate(-98.717 -169.766)" fill="#00a0df"/>
      <path id="Path_1328" data-name="Path 1328" d="M172.088,262.29a3.053,3.053,0,0,1-.116-1.208l.048-.1h.024l.048-.039.092-.072.179-.14.314-.227c.184-.121.3-.184.329-.155s-.063.135-.217.295c-.077.077-.169.169-.275.266l-.169.15-.092.077-.048.039h-.024c0-.039-.043.1.048-.092A3.068,3.068,0,0,1,172.088,262.29Z" transform="translate(-95.664 -172.975)" fill="#00a0df"/>
      <path id="Path_1329" data-name="Path 1329" d="M171.991,271.726a2.952,2.952,0,0,1-.111-1.2,3,3,0,0,1,.135-1.2,5.672,5.672,0,0,1-.024,2.416Z" transform="translate(-95.615 -177.619)" fill="#00a0df"/>
      <path id="Path_1330" data-name="Path 1330" d="M171.856,281.646a2.9,2.9,0,0,1-.116-1.2,3,3,0,0,1,.135-1.2,2.9,2.9,0,0,1,.116,1.2A3,3,0,0,1,171.856,281.646Z" transform="translate(-95.543 -182.747)" fill="#00a0df"/>
      <path id="Path_1331" data-name="Path 1331" d="M171.8,291.566a3.005,3.005,0,0,1-.116-1.2,2.952,2.952,0,0,1,.14-1.2,2.953,2.953,0,0,1,.111,1.2A3,3,0,0,1,171.8,291.566Z" transform="translate(-95.514 -187.874)" fill="#00a0df"/>
      <path id="Path_1332" data-name="Path 1332" d="M171.7,301.486a2.952,2.952,0,0,1-.111-1.2,3,3,0,0,1,.135-1.2,3,3,0,0,1,.116,1.2A2.952,2.952,0,0,1,171.7,301.486Z" transform="translate(-95.465 -193.001)" fill="#00a0df"/>
      <path id="Path_1333" data-name="Path 1333" d="M172.829,310.237a3.073,3.073,0,0,1-1.213.106c-.246-.256-.068-.072-.121-.13h0v-.469a1.532,1.532,0,0,1,.029-.382c.024-.217.058-.353.092-.353s.068.135.087.353a2.264,2.264,0,0,0,.024.386.676.676,0,0,1,0,.227v.227h0l-.126-.126a3.048,3.048,0,0,1,1.227.159Z" transform="translate(-95.419 -198.128)" fill="#00a0df"/>
      <path id="Path_1334" data-name="Path 1334" d="M181.3,311.526a2.619,2.619,0,0,1-1.145.111,2.792,2.792,0,0,1-1.14-.145,2.575,2.575,0,0,1,1.145-.106A2.763,2.763,0,0,1,181.3,311.526Z" transform="translate(-99.31 -199.345)" fill="#00a0df"/>
      <path id="Path_1335" data-name="Path 1335" d="M190.765,311.685a2.755,2.755,0,0,1-1.145.106,2.628,2.628,0,0,1-1.14-.145,2.754,2.754,0,0,1,1.145-.106A2.694,2.694,0,0,1,190.765,311.685Z" transform="translate(-104.205 -199.426)" fill="#00a0df"/>
      <path id="Path_1336" data-name="Path 1336" d="M200.24,311.844a5.285,5.285,0,0,1-2.29-.039,5.286,5.286,0,0,1,2.29.039Z" transform="translate(-109.1 -199.518)" fill="#00a0df"/>
      <path id="Path_1337" data-name="Path 1337" d="M209.71,312a5.286,5.286,0,0,1-2.29-.039,2.8,2.8,0,0,1,1.15-.106A2.734,2.734,0,0,1,209.71,312Z" transform="translate(-113.995 -199.587)" fill="#00a0df"/>
      <path id="Path_1338" data-name="Path 1338" d="M219.185,312.155a2.755,2.755,0,0,1-1.145.106,2.7,2.7,0,0,1-1.14-.145,2.753,2.753,0,0,1,1.145-.106A2.609,2.609,0,0,1,219.185,312.155Z" transform="translate(-118.894 -199.669)" fill="#00a0df"/>
      <path id="Path_1339" data-name="Path 1339" d="M227.623,307.732c.039.053-.333.406-.841.787a2.768,2.768,0,0,1-.966.594c-.043-.058.333-.411.836-.792S227.58,307.674,227.623,307.732Z" transform="translate(-123.501 -197.464)" fill="#00a0df"/>
      <path id="Path_1340" data-name="Path 1340" d="M235.179,301.994c.043.053-.333.411-.836.792a2.8,2.8,0,0,1-.966.589c-.039-.058.333-.411.836-.792S235.126,301.945,235.179,301.994Z" transform="translate(-127.41 -194.499)" fill="#00a0df"/>
      <path id="Path_1341" data-name="Path 1341" d="M231.034,241c.068,0,.068.295,0,.618s-.188.575-.256.56-.063-.29,0-.614S230.966,240.958,231.034,241Z" transform="translate(-126.042 -162.973)" fill="#00a0df"/>
      <path id="Path_1342" data-name="Path 1342" d="M233.066,230.79a3.233,3.233,0,0,1-.155,1.256,3.285,3.285,0,0,1-.4,1.2A6.32,6.32,0,0,1,233.066,230.79Z" transform="translate(-126.963 -157.699)" fill="#00a0df"/>
      <path id="Path_1343" data-name="Path 1343" d="M235.411,220.62a6.431,6.431,0,0,1-.551,2.454A6.43,6.43,0,0,1,235.411,220.62Z" transform="translate(-128.177 -152.443)" fill="#00a0df"/>
      <path id="Path_1344" data-name="Path 1344" d="M237.646,210.45a6.367,6.367,0,0,1-.556,2.459,3.227,3.227,0,0,1,.155-1.256A3.29,3.29,0,0,1,237.646,210.45Z" transform="translate(-129.326 -147.186)" fill="#00a0df"/>
      <path id="Path_1345" data-name="Path 1345" d="M239.946,200.28a3.227,3.227,0,0,1-.155,1.256,3.189,3.189,0,0,1-.4,1.2A6.368,6.368,0,0,1,239.946,200.28Z" transform="translate(-130.519 -141.93)" fill="#00a0df"/>
      <path id="Path_1346" data-name="Path 1346" d="M242.236,190.12a3.348,3.348,0,0,1-.155,1.256,3.285,3.285,0,0,1-.4,1.2,3.232,3.232,0,0,1,.155-1.256A3.183,3.183,0,0,1,242.236,190.12Z" transform="translate(-131.698 -136.678)" fill="#00a0df"/>
      <path id="Path_1347" data-name="Path 1347" d="M244.2,182.6c.068,0,.063.29,0,.614s-.188.58-.256.56-.063-.29,0-.614S244.136,182.58,244.2,182.6Z" transform="translate(-132.849 -132.79)" fill="#00a0df"/>
      <path id="Path_1348" data-name="Path 1348" d="M192.156,242.167c.063-.029.232.188.382.483s.222.565.159.6-.232-.188-.382-.483S192.093,242.2,192.156,242.167Z" transform="translate(-106.093 -163.578)" fill="#00a0df"/>
      <path id="Path_1349" data-name="Path 1349" d="M187.79,233.468c.063-.034.353.415.643,1a2.942,2.942,0,0,1,.42,1.106c-.063.034-.353-.415-.643-1A2.942,2.942,0,0,1,187.79,233.468Z" transform="translate(-103.848 -159.082)" fill="#00a0df"/>
      <path id="Path_1350" data-name="Path 1350" d="M183.41,224.76a5.512,5.512,0,0,1,1.058,2.106,2.928,2.928,0,0,1-.643-1,2.866,2.866,0,0,1-.415-1.111Z" transform="translate(-101.585 -154.582)" fill="#00a0df"/>
      <path id="Path_1351" data-name="Path 1351" d="M179,216.058c.063-.034.348.415.643,1a2.9,2.9,0,0,1,.415,1.106c-.063.034-.348-.416-.643-1A2.9,2.9,0,0,1,179,216.058Z" transform="translate(-99.305 -150.084)" fill="#00a0df"/>
      <path id="Path_1352" data-name="Path 1352" d="M174.64,207.35a2.85,2.85,0,0,1,.643,1,2.9,2.9,0,0,1,.42,1.111,2.851,2.851,0,0,1-.643-1A2.952,2.952,0,0,1,174.64,207.35Z" transform="translate(-97.052 -145.584)" fill="#00a0df"/>
      <path id="Path_1353" data-name="Path 1353" d="M170.26,198.648c.063-.034.348.415.643,1a2.9,2.9,0,0,1,.415,1.106,5.538,5.538,0,0,1-1.058-2.1Z" transform="translate(-94.788 -141.085)" fill="#00a0df"/>
      <path id="Path_1354" data-name="Path 1354" d="M165.88,189.94a5.539,5.539,0,0,1,1.058,2.1c-.063.034-.348-.411-.643-.966A2.9,2.9,0,0,1,165.88,189.94Z" transform="translate(-92.524 -136.585)" fill="#00a0df"/>
      <path id="Path_1355" data-name="Path 1355" d="M161.49,181.238c.063-.034.353.411.643,1a2.9,2.9,0,0,1,.42,1.106,2.85,2.85,0,0,1-.643-1A2.943,2.943,0,0,1,161.49,181.238Z" transform="translate(-90.255 -132.086)" fill="#00a0df"/>
      <path id="Path_1356" data-name="Path 1356" d="M158.156,174.647c.063-.029.232.184.382.483s.222.565.159.594-.232-.184-.382-.483S158.093,174.681,158.156,174.647Z" transform="translate(-88.52 -128.679)" fill="#00a0df"/>
      <path id="Path_1357" data-name="Path 1357" d="M112.578,257.106c0,.068-.28.106-.614.077s-.6-.1-.594-.169.28-.106.614-.082S112.583,257.039,112.578,257.106Z" transform="translate(-64.349 -171.207)" fill="#00a0df"/>
      <path id="Path_1358" data-name="Path 1358" d="M121.374,257.811a6.078,6.078,0,0,1-2.454-.193,3.151,3.151,0,0,1,1.237-.029,3.058,3.058,0,0,1,1.217.222Z" transform="translate(-68.252 -171.526)" fill="#00a0df"/>
      <path id="Path_1359" data-name="Path 1359" d="M131.564,258.632a6.078,6.078,0,0,1-2.454-.193A6.077,6.077,0,0,1,131.564,258.632Z" transform="translate(-73.519 -171.965)" fill="#00a0df"/>
      <path id="Path_1360" data-name="Path 1360" d="M141.724,259.4a6.078,6.078,0,0,1-2.454-.193,3.16,3.16,0,0,1,1.237-.029,3.005,3.005,0,0,1,1.217.222Z" transform="translate(-78.77 -172.348)" fill="#00a0df"/>
      <path id="Path_1361" data-name="Path 1361" d="M151.894,260.185a3.053,3.053,0,0,1-1.237.029A3.16,3.16,0,0,1,149.44,260a3.044,3.044,0,0,1,1.237-.043A3.212,3.212,0,0,1,151.894,260.185Z" transform="translate(-84.027 -172.75)" fill="#00a0df"/>
      <path id="Path_1362" data-name="Path 1362" d="M162.054,261.022a3.159,3.159,0,0,1-1.237.029,3.058,3.058,0,0,1-1.217-.222A6.077,6.077,0,0,1,162.054,261.022Z" transform="translate(-89.278 -173.201)" fill="#00a0df"/>
      <path id="Path_1363" data-name="Path 1363" d="M170.963,261.679c0,.073-.275.106-.609.082s-.6-.106-.594-.174.28-.106.614-.077S170.973,261.611,170.963,261.679Z" transform="translate(-94.529 -173.572)" fill="#00a0df"/>
      <circle id="Ellipse_83" data-name="Ellipse 83" cx="21.272" cy="21.272" r="21.272" transform="matrix(0.225, -0.974, 0.974, 0.225, 34.113, 43.9)" fill="#fff"/>
      <path id="Path_1364" data-name="Path 1364" d="M135.853,114.533a3.159,3.159,0,0,0-.029-.348c-.029-.232-.039-.57-.068-1.01a6.988,6.988,0,0,0-.043-.739c-.024-.275-.082-.57-.13-.889s-.106-.667-.164-1.039a11.136,11.136,0,0,0-.28-1.16,20.19,20.19,0,0,0-2.353-5.643,21.089,21.089,0,0,0-5.392-6.01l-.918-.686c-.324-.208-.662-.4-1-.609a9.454,9.454,0,0,0-1.034-.6l-1.1-.527-.556-.266L122.2,94.8l-1.189-.435c-.406-.135-.831-.217-1.246-.333a10.325,10.325,0,0,0-1.285-.29,19.4,19.4,0,0,0-2.672-.309c-.459,0-.918-.063-1.382-.053l-1.4.072a3.792,3.792,0,0,0-.705.043l-.705.111c-.483.077-.966.13-1.425.232a21.74,21.74,0,0,0-2.821.826,22.366,22.366,0,0,0-2.759,1.213c-.444.242-.874.522-1.319.788-.213.135-.444.256-.652.411l-.623.483A23.768,23.768,0,0,0,99.6,99.595l-1.077,1.184-.271.3-.242.319-.483.647-.483.652-.425.7-.425.7-.213.353-.184.367-.715,1.493-.546,1.551a20.992,20.992,0,0,0,0,13.349c.193.522.387,1.044.575,1.565s.483,1,.72,1.493l.179.367.213.353.43.7.425.7.483.652.483.647.242.324.271.295,1.073,1.184a23.873,23.873,0,0,0,2.416,2.044l.623.483c.208.159.44.275.652.415.444.261.874.541,1.319.788a22.363,22.363,0,0,0,2.759,1.213,23.4,23.4,0,0,0,2.821.826c.483.1.966.155,1.425.232l.705.106c.237.034.483.029.705.048l1.4.072c.483,0,.923-.039,1.382-.053a19.472,19.472,0,0,0,2.677-.314,10.447,10.447,0,0,0,1.28-.29c.42-.111.841-.2,1.246-.333l1.193-.435.585-.213.56-.266,1.1-.527a11.509,11.509,0,0,0,1.034-.6c.338-.2.676-.4,1-.609l.918-.681a21.219,21.219,0,0,0,5.387-6.01,20.292,20.292,0,0,0,2.309-5.667,11.137,11.137,0,0,0,.28-1.16c.058-.367.111-.715.164-1.034s.106-.618.13-.889.034-.522.043-.744c.029-.44.053-.773.068-1.01s.029-.343.029-.343v.343c0,.227-.024.575-.039,1.015a5.77,5.77,0,0,1-.034.744c-.034.261-.077.57-.121.894s-.1.672-.155,1.039a10.81,10.81,0,0,1-.266,1.169,20.189,20.189,0,0,1-2.319,5.711,21.137,21.137,0,0,1-5.4,6.083l-.918.691c-.324.213-.667.411-1,.618a10.076,10.076,0,0,1-1.039.609l-1.106.536-.565.271-.594.217-1.2.44c-.411.135-.836.227-1.261.343a11.361,11.361,0,0,1-1.29.295,20.589,20.589,0,0,1-2.706.319c-.483,0-.923.063-1.391.058l-1.416-.072a3.924,3.924,0,0,1-.715-.043l-.715-.106c-.483-.077-.966-.135-1.449-.232a23.355,23.355,0,0,1-5.643-2.053c-.454-.246-.884-.531-1.333-.8-.217-.14-.454-.256-.662-.415l-.633-.483a24.343,24.343,0,0,1-2.416-2.063l-1.092-1.2-.271-.3-.246-.324-.483-.657-.483-.657-.43-.705-.454-.715-.217-.353-.184-.377q-.362-.744-.725-1.507c-.193-.527-.387-1.053-.585-1.585a21.2,21.2,0,0,1,0-13.5l.58-1.585c.242-.507.483-1.01.73-1.512l.179-.372.217-.353.43-.71.435-.705.483-.657.483-.657.246-.324.275-.3,1.087-1.2a23.717,23.717,0,0,1,2.416-2.058l.628-.483c.208-.155.444-.275.662-.415.449-.266.879-.551,1.333-.792a23.355,23.355,0,0,1,5.643-2.053c.483-.1.966-.155,1.449-.232l.715-.106c.237-.034.483-.029.715-.048l1.416-.068c.483,0,.932.039,1.391.053a19.645,19.645,0,0,1,2.7.324,10.289,10.289,0,0,1,1.295.295c.425.116.85.2,1.256.338l1.2.444.594.217.56.271,1.111.536c.367.169.7.406,1.039.6s.676.406,1,.618l.923.691a21.2,21.2,0,0,1,5.4,6.083,20.244,20.244,0,0,1,2.329,5.691,11.073,11.073,0,0,1,.266,1.169c.058.372.106.72.155,1.039s.1.623.121.894.024.527.034.749c0,.44.029.778.039,1.01A2.7,2.7,0,0,0,135.853,114.533Z" transform="translate(-54.945 -86.558)" fill="#00a0df"/>
      <path id="Path_1365" data-name="Path 1365" d="M131.663,111.217a6.918,6.918,0,0,1,1.831.483l1.348-1.131,2.309,1.759-.73,1.6a7,7,0,0,1,.966,1.638l1.749.155.391,2.875-1.647.618a6.967,6.967,0,0,1-.483,1.831l1.131,1.343-1.759,2.314-1.6-.73a7.246,7.246,0,0,1-1.638.966l-.155,1.749-2.9.391-.614-1.643a7.306,7.306,0,0,1-1.831-.483l-1.343,1.126-2.314-1.759.73-1.6a7.049,7.049,0,0,1-.966-1.633l-1.749-.155-.391-2.9,1.643-.614a7.305,7.305,0,0,1,.483-1.831L123,114.241l1.759-2.309,1.6.725a7.247,7.247,0,0,1,1.633-.966l.155-1.749,2.9-.391Zm-1.179,4a3.116,3.116,0,1,0,3.5,2.667,3.116,3.116,0,0,0-3.5-2.667Z" transform="translate(-69.844 -95.034)" fill="none"/>
      <path id="Path_1366" data-name="Path 1366" d="M136.6,121.195a1.009,1.009,0,0,1,.193-.043,2.382,2.382,0,0,1,.575,0,3.1,3.1,0,0,1,1.933.874,3.215,3.215,0,1,1-5.034.686,3.087,3.087,0,0,1,1.6-1.353,2.512,2.512,0,0,1,.56-.145.6.6,0,0,1,.2,0,4.106,4.106,0,0,0-.725.242,3.126,3.126,0,0,0-1.488,1.353,3.034,3.034,0,0,0,0,2.9,3,3,0,0,0,1.227,1.237,3.011,3.011,0,0,0,3.566-4.769,3.107,3.107,0,0,0-1.8-.9A6.493,6.493,0,0,0,136.6,121.195Z" transform="translate(-75.96 -101.022)" fill="#263238"/>
      <path id="Path_1367" data-name="Path 1367" d="M131.6,111.2l-.043-.1-.126-.3-.483-1.227h.043l-2.9.416.053-.058c-.043.531-.092,1.121-.14,1.749v.043h-.043a6.991,6.991,0,0,0-1.614.966l-.039.029h-.043l-1.6-.72.111-.029-1.754,2.314v-.121l1.131,1.343.039.048v.058a7.092,7.092,0,0,0-.483,1.8v.072h-.063L122,118.1l.072-.121c.126.9.256,1.879.4,2.9l-.106-.1,1.749.15h.072v.068a7.247,7.247,0,0,0,.966,1.609l.043.058-.029.068-.73,1.594-.034-.145,2.309,1.754h-.155l1.348-1.126.058-.048.068.029a7.122,7.122,0,0,0,1.8.483h0l.106.082h0v.077l.039.1.077.208.15.411c.106.275.208.551.309.821l-.135-.082,2.9-.387-.106.111c.048-.589.1-1.174.155-1.749v-.072l.068-.029a6.914,6.914,0,0,0,1.609-.937l.058-.043.068.029,1.6.73-.145.039q.9-1.189,1.763-2.309v.145c-.382-.483-.754-.908-1.126-1.348l-.043-.053.029-.063a7.159,7.159,0,0,0,.483-1.8v-.068l.058-.024,1.647-.609-.068.111c-.135-1.01-.261-1.966-.382-2.9l.087.082-1.749-.159h-.053v-.048a7.077,7.077,0,0,0-.937-1.618l-.029-.043v-.043l.734-1.594.024.092-2.3-1.778h.068l-1.353,1.116H133.4a7.561,7.561,0,0,0-1.358-.425l-.343-.068-.106.024a.338.338,0,0,1,.121,0,3.01,3.01,0,0,1,.348.048,6.517,6.517,0,0,1,1.377.391H133.4l1.333-1.14.034-.029.039.029,2.319,1.744.048.034-.024.058-.725,1.6v-.082a7.194,7.194,0,0,1,.966,1.647l-.072-.053,1.749.15h.072v.077l.4,2.875v.087l-.077.029-1.643.618.072-.092a7.3,7.3,0,0,1-.483,1.86v-.111c.372.44.749.884,1.131,1.343l.058.068-.053.077-1.759,2.314-.058.072-.087-.039-1.6-.725h.126a7.209,7.209,0,0,1-1.662.966l.077-.1c-.053.575-.1,1.16-.155,1.744v.1h-.1l-2.9.391h-.1l-.034-.1-.3-.821-.155-.411-.077-.208-.039-.1v-.077h0l.1.082h0a7.4,7.4,0,0,1-1.865-.483h.13l-1.348,1.126-.077.063-.077-.058-2.309-1.763-.077-.058.039-.092.73-1.594v.126A7.166,7.166,0,0,1,124,121.12l.1.072-1.744-.155h-.1v-.092c-.135-1-.266-1.976-.387-2.9v-.087l.087-.034,1.643-.609-.068.087a7.349,7.349,0,0,1,.483-1.86v.106c-.4-.483-.778-.928-1.126-1.348l-.048-.058.043-.063,1.768-2.309.043-.053.068.029,1.594.734h-.087a7.088,7.088,0,0,1,1.657-.966l-.043.063c.058-.633.116-1.217.164-1.749v-.053h.048l2.9-.367h.034v.029c.184.527.329.937.435,1.227.043.13.082.237.106.319A.435.435,0,0,1,131.6,111.2Z" transform="translate(-69.777 -95.013)" fill="#263238"/>
      <path id="Path_1368" data-name="Path 1368" d="M125.759,147.388a3.937,3.937,0,0,1,1.01.266l.744-.618,1.275.966-.4.879a3.914,3.914,0,0,1,.527.9l.966.087.213,1.59-.9.338a4,4,0,0,1-.271,1.01l.623.744-.966,1.275-.879-.4a4.188,4.188,0,0,1-.9.522l-.087.966-1.589.217-.338-.908a3.936,3.936,0,0,1-1.01-.266l-.744.623-1.275-.966.4-.884a3.816,3.816,0,0,1-.527-.9l-.966-.082-.217-1.589.908-.338a4.024,4.024,0,0,1,.266-1.015l-.623-.739.966-1.275.884.4a3.817,3.817,0,0,1,.9-.527l.082-.966,1.59-.217.338.908Zm-.652,2.208a1.72,1.72,0,1,0,1.933,1.449,1.72,1.72,0,0,0-1.933-1.449Z" transform="translate(-69.037 -114.122)" fill="#00a0df" fill-rule="evenodd"/>
      <circle id="Ellipse_84" data-name="Ellipse 84" cx="21.272" cy="21.272" r="21.272" transform="translate(87.697 30.084) rotate(-45)" fill="#fff"/>
      <path id="Path_1369" data-name="Path 1369" d="M256.231,118.878a3.044,3.044,0,0,0-.029-.343c-.029-.227-.039-.575-.063-1.01,0-.222-.029-.483-.043-.744s-.087-.57-.135-.889-.106-.667-.164-1.039-.184-.749-.275-1.16a20.369,20.369,0,0,0-2.358-5.643,21.156,21.156,0,0,0-5.387-6.01l-.918-.686c-.319-.208-.657-.4-1-.609a10.385,10.385,0,0,0-1.029-.6l-1.1-.527-.56-.266-.585-.213-1.193-.435c-.406-.13-.826-.217-1.246-.333a11.429,11.429,0,0,0-1.28-.29,19.38,19.38,0,0,0-2.677-.309c-.459,0-.918-.058-1.382-.053l-1.4.072a3.792,3.792,0,0,0-.705.043l-.705.111c-.483.077-.966.135-1.425.232a23.235,23.235,0,0,0-5.58,2.039c-.444.242-.874.527-1.314.788-.217.14-.449.256-.657.411l-.618.483a23.825,23.825,0,0,0-2.416,2.039l-1.077,1.184-.271.3-.242.319-.483.647-.483.652-.425.7-.425.7-.213.353-.179.367-.72,1.493-.57,1.575a20.944,20.944,0,0,0,0,13.349l.575,1.565.715,1.493.184.367.213.353.425.7.425.7.483.652.483.647.242.324.271.295L220,133.855a23.768,23.768,0,0,0,2.416,2.039l.623.483c.208.159.44.275.657.415.44.261.87.546,1.314.788a22.107,22.107,0,0,0,2.764,1.213,22.891,22.891,0,0,0,2.822.826c.483.1.966.155,1.42.232l.705.106c.237.034.483.029.71.048l1.4.072c.483,0,.923-.039,1.377-.053a20.158,20.158,0,0,0,2.677-.309,12.31,12.31,0,0,0,1.28-.29c.42-.116.845-.2,1.246-.338l1.193-.43.589-.217.556-.266,1.1-.527c.367-.164.691-.4,1.034-.594s.672-.4,1-.614l.913-.681a21.075,21.075,0,0,0,5.387-6.01,20.45,20.45,0,0,0,2.358-5.648c.092-.411.232-.788.275-1.16s.111-.715.164-1.034.106-.618.135-.889.029-.522.043-.744c.024-.44.048-.773.063-1.01s.029-.343.029-.343v.343c0,.227,0,.575-.039,1.015a6.73,6.73,0,0,1-.029.744c-.029.261-.082.57-.126.894s-.1.672-.15,1.044-.179.754-.271,1.164a19.982,19.982,0,0,1-2.329,5.7,21.165,21.165,0,0,1-5.4,6.078l-.923.691c-.324.217-.667.411-1,.623a8.515,8.515,0,0,1-1.044.6l-1.126.5-.565.271-.589.217-1.2.44c-.406.135-.836.227-1.256.343a11.692,11.692,0,0,1-1.295.295,19.1,19.1,0,0,1-2.7.319c-.483,0-.928.063-1.4.058l-1.416-.072a3.922,3.922,0,0,1-.715-.043l-.71-.106c-.483-.077-.966-.135-1.449-.232a22.825,22.825,0,0,1-2.855-.831,22.549,22.549,0,0,1-2.792-1.222c-.449-.246-.884-.531-1.333-.8-.217-.135-.449-.256-.662-.415l-.628-.483a24.4,24.4,0,0,1-2.416-2.063l-1.087-1.2-.275-.3-.246-.324-.483-.657-.483-.657-.435-.705-.43-.705-.217-.358-.179-.372c-.242-.483-.483-1-.73-1.512l-.58-1.585a21.156,21.156,0,0,1,0-13.5l.58-1.585.73-1.507.184-.377.213-.353.435-.71.43-.705.483-.657.483-.652.246-.329.275-.3c.362-.4.73-.8,1.087-1.2a24.345,24.345,0,0,1,2.416-2.058l.628-.483c.213-.159.444-.28.662-.42.449-.266.884-.546,1.333-.792a21.848,21.848,0,0,1,2.793-1.222,22.819,22.819,0,0,1,2.855-.831c.483-.1.966-.155,1.449-.232l.71-.106c.237-.034.483-.029.715-.048l1.416-.068c.483,0,.932.039,1.391.058a19.072,19.072,0,0,1,2.706.319,10.408,10.408,0,0,1,1.29.295c.425.116.85.2,1.261.343l1.2.44.6.246.565.271,1.106.536c.367.169.7.406,1.039.6s.681.406,1,.618l.918.691a21.2,21.2,0,0,1,5.4,6.083,19.958,19.958,0,0,1,2.324,5.691c.092.415.227.8.271,1.169s.1.72.15,1.044.1.618.126.889,0,.527.029.749c0,.44.029.778.039,1.015S256.231,118.878,256.231,118.878Z" transform="translate(-117.179 -88.796)" fill="#00a0df"/>
      <circle id="Ellipse_85" data-name="Ellipse 85" cx="10.706" cy="10.706" r="10.706" transform="translate(102.995 35.544) rotate(-65.66)" fill="#f5f5f5"/>
      <path id="Path_1370" data-name="Path 1370" d="M234.4,129.688a1.182,1.182,0,0,1,0,.174v.884a1.883,1.883,0,0,0,.039.449,8.329,8.329,0,0,0,.155,1.111,10.417,10.417,0,0,0,1,2.9,10.629,10.629,0,0,0,12.431,5.329,11.338,11.338,0,0,0,1.416-.517,10.57,10.57,0,0,0,1.348-.749,11.726,11.726,0,0,0,1.266-.937,12.674,12.674,0,0,0,1.116-1.16,10.328,10.328,0,0,0,1.7-2.807,11.455,11.455,0,0,0,.763-3.295,11.34,11.34,0,0,0-.329-3.382,10.2,10.2,0,0,0-1.314-3.01,12.794,12.794,0,0,0-.966-1.295,11.52,11.52,0,0,0-1.131-1.1,10.828,10.828,0,0,0-1.242-.918,10.629,10.629,0,0,0-14.344,2.976,10.214,10.214,0,0,0-1.372,2.744,7.775,7.775,0,0,0-.3,1.082c-.034.159-.072.3-.1.44s-.039.261-.053.372c-.029.213-.053.377-.068.483a1,1,0,0,1-.034.174.673.673,0,0,1,0-.174c0-.13.029-.295.048-.507,0-.116.024-.242.039-.377s.053-.285.087-.444a7.854,7.854,0,0,1,.28-1.1,10.189,10.189,0,0,1,1.348-2.793,10.726,10.726,0,0,1,15.876-2.111,11.509,11.509,0,0,1,1.16,1.121,12.607,12.607,0,0,1,.966,1.319,10.441,10.441,0,0,1,1.348,3.082,11.542,11.542,0,0,1,.338,3.445,11.76,11.76,0,0,1-.783,3.382,10.629,10.629,0,0,1-1.744,2.9,12.623,12.623,0,0,1-1.145,1.184,12.238,12.238,0,0,1-1.295.966,11.356,11.356,0,0,1-1.382.763,11.03,11.03,0,0,1-7.126.56,10.788,10.788,0,0,1-6.909-5.58,10.267,10.267,0,0,1-.966-2.947,8.214,8.214,0,0,1-.13-1.126c0-.164-.029-.314-.029-.454v-.377a3,3,0,0,1,.024-.507A.8.8,0,0,1,234.4,129.688Z" transform="translate(-127.924 -100.195)" fill="#263238"/>
      <path id="Path_1371" data-name="Path 1371" d="M261.261,135.883a1.84,1.84,0,0,1-.382,0l-1.039.024h-3.57v-4.73c0-.483,0-.9.024-1.2a2.512,2.512,0,0,1,.024-.444,2.756,2.756,0,0,1,.029.444v1.2c0,1.015.024,2.416.024,3.967v.7l-.072-.068c1.391,0,2.619,0,3.5.024h1.039A1.839,1.839,0,0,1,261.261,135.883Z" transform="translate(-139.244 -105.361)" fill="#263238"/>
      <path id="Path_1372" data-name="Path 1372" d="M256.408,123.48a6,6,0,0,1,0,1.8A6.008,6.008,0,0,1,256.408,123.48Z" transform="translate(-139.28 -102.234)" fill="#263238"/>
      <path id="Path_1373" data-name="Path 1373" d="M265.236,126.47a5.8,5.8,0,0,1-1.256,1.256,2.855,2.855,0,0,1,.58-.676,2.823,2.823,0,0,1,.676-.58Z" transform="translate(-143.229 -103.78)" fill="#263238"/>
      <path id="Path_1374" data-name="Path 1374" d="M270.862,132.92a3.9,3.9,0,0,1-.739.483,3.674,3.674,0,0,1-.773.425,2.338,2.338,0,0,1,.7-.546A2.416,2.416,0,0,1,270.862,132.92Z" transform="translate(-146.004 -107.113)" fill="#263238"/>
      <path id="Path_1375" data-name="Path 1375" d="M273.314,142.418a11.165,11.165,0,0,1-2.454,0,11.166,11.166,0,0,1,2.454,0Z" transform="translate(-146.785 -111.987)" fill="#263238"/>
      <path id="Path_1376" data-name="Path 1376" d="M238.269,142.078a9.973,9.973,0,0,1-2.319,0A9.97,9.97,0,0,1,238.269,142.078Z" transform="translate(-128.741 -111.812)" fill="#263238"/>
      <path id="Path_1377" data-name="Path 1377" d="M241.261,149.27a4.7,4.7,0,0,1-.874.8,5.021,5.021,0,0,1-.966.686,9.726,9.726,0,0,1,1.841-1.483Z" transform="translate(-130.534 -115.564)" fill="#263238"/>
      <path id="Path_1378" data-name="Path 1378" d="M248.062,154.78a8.147,8.147,0,0,1-.6,1.034,7.3,7.3,0,0,1-.633,1.01,3.971,3.971,0,0,1,.517-1.082A3.865,3.865,0,0,1,248.062,154.78Z" transform="translate(-134.364 -118.412)" fill="#263238"/>
      <path id="Path_1379" data-name="Path 1379" d="M256.408,159.264a11.166,11.166,0,0,1,0-2.454A11.159,11.159,0,0,1,256.408,159.264Z" transform="translate(-139.28 -119.461)" fill="#263238"/>
      <path id="Path_1380" data-name="Path 1380" d="M265.456,156.8a3.71,3.71,0,0,1-1.01-.691,3.8,3.8,0,0,1-.826-.908,9.973,9.973,0,0,1,.918.8A10.553,10.553,0,0,1,265.456,156.8Z" transform="translate(-143.043 -118.629)" fill="#263238"/>
      <path id="Path_1381" data-name="Path 1381" d="M270.927,151.367a4.349,4.349,0,0,1-.812-.715,3.967,3.967,0,0,1-.715-.812,8.564,8.564,0,0,1,1.527,1.527Z" transform="translate(-146.03 -115.859)" fill="#263238"/>
      <path id="Path_1382" data-name="Path 1382" d="M241.573,133.9a3.482,3.482,0,0,1-.715-.618,3.266,3.266,0,0,1-.618-.72,3.483,3.483,0,0,1,.715.618A3.267,3.267,0,0,1,241.573,133.9Z" transform="translate(-130.958 -106.927)" fill="#263238"/>
      <path id="Path_1383" data-name="Path 1383" d="M247.934,127.254a2.991,2.991,0,0,1-.705-.6,3.164,3.164,0,0,1-.609-.7,2.99,2.99,0,0,1,.705.6A3.163,3.163,0,0,1,247.934,127.254Z" transform="translate(-134.256 -103.511)" fill="#263238"/>
      <circle id="Ellipse_86" data-name="Ellipse 86" cx="5.614" cy="5.614" r="5.614" transform="translate(117.978 18.193) rotate(-22.33)" fill="#00a0df"/>
      <path id="Path_1384" data-name="Path 1384" d="M273.237,119.86a5.606,5.606,0,0,1-.691.9c-.444.531-1.077,1.261-1.788,2.053-.2.217-.391.425-.575.633l-.082.087-.087-.077c-.643-.575-1.193-1.087-1.58-1.449a3.3,3.3,0,0,1-.585-.623,3.342,3.342,0,0,1,.691.507c.415.338.966.826,1.633,1.391H270q.271-.309.565-.638c.71-.792,1.362-1.5,1.846-2A4.83,4.83,0,0,1,273.237,119.86Z" transform="translate(-145.229 -100.363)" fill="#fafafa"/>
      <path id="Path_1385" data-name="Path 1385" d="M168.046,313.118c-.043-.048.319-.454.816-.9a3.238,3.238,0,0,1,.966-.715,3.205,3.205,0,0,1-.816.9C168.515,312.847,168.095,313.19,168.046,313.118Z" transform="translate(-93.642 -199.415)" fill="#00a0df"/>
      <path id="Path_1386" data-name="Path 1386" d="M160.615,319.807c-.048-.053.314-.454.812-.9a3.127,3.127,0,0,1,.966-.71,3.233,3.233,0,0,1-.812.9C161.084,319.537,160.659,319.861,160.615,319.807Z" transform="translate(-89.801 -202.872)" fill="#00a0df"/>
      <path id="Path_1387" data-name="Path 1387" d="M153.175,326.5c-.048-.053.319-.483.817-.9a3.058,3.058,0,0,1,.966-.715c.043.053-.319.454-.816.9A3.058,3.058,0,0,1,153.175,326.5Z" transform="translate(-85.955 -206.331)" fill="#00a0df"/>
      <path id="Path_1388" data-name="Path 1388" d="M145.745,333.178c-.048-.048.314-.454.812-.9a3.3,3.3,0,0,1,.966-.715,3.288,3.288,0,0,1-.812.9A3.143,3.143,0,0,1,145.745,333.178Z" transform="translate(-82.115 -209.783)" fill="#00a0df"/>
      <path id="Path_1389" data-name="Path 1389" d="M138.305,339.868c-.048-.053.319-.454.816-.9a3.237,3.237,0,0,1,.966-.715,3.206,3.206,0,0,1-.816.9C138.774,339.6,138.354,339.921,138.305,339.868Z" transform="translate(-78.269 -213.241)" fill="#00a0df"/>
      <circle id="Ellipse_87" data-name="Ellipse 87" cx="21.272" cy="21.272" r="21.272" transform="matrix(0.23, -0.973, 0.973, 0.23, 21.419, 159.664)" fill="#fff"/>
      <path id="Path_1390" data-name="Path 1390" d="M109.776,354.429a3.045,3.045,0,0,0-.029-.343c-.029-.227-.034-.57-.063-1.01,0-.222-.029-.483-.043-.744s-.087-.57-.135-.889-.106-.667-.164-1.034a10.794,10.794,0,0,0-.275-1.159,20.331,20.331,0,0,0-2.358-5.648,21.155,21.155,0,0,0-5.387-6.01l-.918-.7c-.324-.213-.662-.406-1-.614a9.036,9.036,0,0,0-1.029-.594l-1.1-.527-.56-.266-.585-.217-1.193-.43c-.406-.135-.826-.222-1.246-.338a12.591,12.591,0,0,0-1.28-.29,20.158,20.158,0,0,0-2.677-.309c-.454,0-.918-.058-1.382-.053l-1.4.072a3.466,3.466,0,0,0-.71.048l-.705.106c-.483.077-.966.135-1.42.232a22.892,22.892,0,0,0-2.821.826,21.744,21.744,0,0,0-2.759,1.213c-.449.242-.879.527-1.319.788-.217.14-.449.256-.652.415l-.623.483a23.825,23.825,0,0,0-2.416,2.039l-1.073,1.184-.271.3-.246.324-.483.647-.483.647-.425.7-.425.7-.213.353-.179.372c-.242.483-.483.99-.72,1.488s-.382,1.044-.575,1.57a20.929,20.929,0,0,0,0,13.344c.193.522.382,1.048.575,1.565s.483,1,.715,1.493l.184.372.213.348.425.7.425.7.483.647.483.647.242.324.271.3,1.077,1.184a23.823,23.823,0,0,0,2.416,2.039l.618.483c.208.155.44.271.657.411.44.261.87.546,1.314.788A22.1,22.1,0,0,0,81.3,374.32a21.324,21.324,0,0,0,2.821.826c.483.1.966.155,1.42.232l.705.111c.237.029.483.029.71.043l1.4.072c.483,0,.923-.039,1.377-.053a19.378,19.378,0,0,0,2.677-.309,10.059,10.059,0,0,0,1.28-.29c.42-.116.845-.2,1.246-.333l1.193-.435.589-.213.556-.266,1.1-.531c.367-.164.691-.4,1.034-.594s.672-.4,1-.614l.913-.681a21.1,21.1,0,0,0,5.392-6.01,20.484,20.484,0,0,0,2.358-5.672,11.062,11.062,0,0,0,.275-1.159c.058-.372.116-.715.164-1.039s.106-.614.135-.889.029-.522.043-.744c.029-.435.048-.773.063-1.01s.029-.343.029-.343v.348c0,.232,0,.57-.039,1.01a6.85,6.85,0,0,1-.029.749c-.029.266-.077.57-.126.889s-.1.672-.15,1.044a11.434,11.434,0,0,1-.271,1.169,20.127,20.127,0,0,1-2.324,5.691,21.258,21.258,0,0,1-5.4,6.078l-.923.7c-.324.213-.667.406-1,.618a8.52,8.52,0,0,1-1.044.6l-1.106.536-.565.271-.589.217-1.2.44c-.406.14-.836.227-1.256.343a10.7,10.7,0,0,1-1.295.295,19.111,19.111,0,0,1-2.7.319c-.483,0-.928.063-1.4.058l-1.416-.068a3.466,3.466,0,0,1-.71-.048l-.715-.106c-.483-.077-.966-.13-1.449-.232a22.038,22.038,0,0,1-2.855-.831,22.467,22.467,0,0,1-2.793-1.222c-.449-.242-.884-.527-1.333-.792-.217-.14-.449-.261-.662-.42l-.628-.483a23.768,23.768,0,0,1-2.416-2.063l-1.087-1.193-.275-.3-.246-.324-.483-.657-.483-.657-.435-.7-.43-.71-.213-.358-.184-.372-.73-1.512-.58-1.585a21.156,21.156,0,0,1,0-13.5l.58-1.585c.246-.483.483-1,.73-1.507l.184-.377.217-.353.43-.71.43-.7.483-.662.483-.652.246-.324.275-.3,1.077-1.164a24.39,24.39,0,0,1,2.416-2.063l.633-.483c.208-.159.44-.28.662-.42.444-.261.879-.546,1.329-.792a23.189,23.189,0,0,1,2.793-1.222,22.814,22.814,0,0,1,2.87-.816c.483-.1.966-.155,1.449-.232l.71-.106c.242-.029.483-.029.715-.043l1.416-.072c.483,0,.932.039,1.4.058a19.093,19.093,0,0,1,2.7.319,11.364,11.364,0,0,1,1.29.295c.425.116.85.208,1.261.343l1.2.44.589.217.565.271,1.106.536c.372.169.7.406,1.039.6s.681.406,1,.623l.918.691a21.186,21.186,0,0,1,5.4,6.078,19.982,19.982,0,0,1,2.329,5.7,11.071,11.071,0,0,1,.271,1.164c.053.372.106.72.15,1.044s.1.618.126.894,0,.522.029.744c0,.44.034.778.039,1.015A3.376,3.376,0,0,1,109.776,354.429Z" transform="translate(-41.483 -210.559)" fill="#00a0df"/>
      <path id="Path_1391" data-name="Path 1391" d="M110.625,376.486a2.7,2.7,0,0,1-.411.024l-1.174.024-4.348.043-14.277.044H89.28v-.135c0-5.314.029-10.117.039-13.6,0-1.705.034-3.092.043-4.082,0-.483,0-.831.024-1.106a3.385,3.385,0,0,1,0-.387,1.981,1.981,0,0,1,.029.387V358.8c0,.99,0,2.377.043,4.082,0,3.483,0,8.266.039,13.6l-.135-.135h1.019l14.277.039,4.348.043,1.174.024A2.256,2.256,0,0,1,110.625,376.486Z" transform="translate(-52.932 -223.093)" fill="#263238"/>
      <path id="Path_1392" data-name="Path 1392" d="M110.552,366.94a5.151,5.151,0,0,1-.633.6l-1.788,1.57c-1.522,1.319-3.633,3.126-5.972,5.107l-.358.3-.092.077-.087-.082-2.657-2.469h.193l-3.9,3.218-1.131.9a2.535,2.535,0,0,1-.425.3,2.451,2.451,0,0,1,.372-.367l1.087-.966L99,371.853l.087-.072.082.077,2.667,2.454h-.179l.353-.3c2.343-1.986,4.474-3.768,6.025-5.049l1.846-1.507a5.794,5.794,0,0,1,.676-.517Z" transform="translate(-55.216 -228.071)" fill="#263238"/>
      <path id="Path_1393" data-name="Path 1393" d="M123.22,371.122a6.933,6.933,0,0,1-.092-1.319c0-.821-.039-1.962-.039-3.227l.13.135h-.227c-1.319,0-2.512,0-3.382-.039a7.032,7.032,0,0,1-1.4-.1,8.071,8.071,0,0,1,1.4-.1c.865,0,2.058-.039,3.382-.039h.362v.135c0,1.266,0,2.416-.039,3.227a6.213,6.213,0,0,1-.1,1.319Z" transform="translate(-67.885 -227.812)" fill="#263238"/>
      <circle id="Ellipse_88" data-name="Ellipse 88" cx="21.272" cy="21.272" r="21.272" transform="matrix(0.24, -0.971, 0.971, 0.24, 0, 99.851)" fill="#fff"/>
      <path id="Path_1394" data-name="Path 1394" d="M65.72,231.113a3.074,3.074,0,0,0-.029-.348c-.029-.227-.034-.57-.063-1.01,0-.222-.029-.483-.043-.744s-.087-.565-.135-.889-.106-.667-.164-1.034-.184-.749-.275-1.16a20.369,20.369,0,0,0-2.367-5.653,21.166,21.166,0,0,0-5.387-6.015l-.894-.681c-.324-.208-.662-.4-1-.609a9.858,9.858,0,0,0-1.029-.6l-1.1-.527-.56-.266-.585-.213-1.193-.435c-.406-.135-.826-.222-1.246-.333a10.443,10.443,0,0,0-1.28-.29A19.38,19.38,0,0,0,45.69,210c-.454,0-.918-.063-1.382-.053l-1.4.072a3.845,3.845,0,0,0-.71.043l-.705.111c-.483.077-.966.13-1.42.227a22.1,22.1,0,0,0-2.821.831,21.746,21.746,0,0,0-2.759,1.213c-.449.242-.879.522-1.319.788-.217.135-.449.256-.652.411l-.623.483a23.825,23.825,0,0,0-2.416,2.039l-1.073,1.184-.271.295-.246.324-.483.647-.483.652-.425.7-.425.7-.213.348-.179.372-.73,1.478-.575,1.565a20.929,20.929,0,0,0,0,13.344c.193.527.382,1.048.575,1.57s.483,1,.715,1.488l.184.372.213.353.425.7.425.7.483.652.483.647.242.319.271.3,1.077,1.184a23.823,23.823,0,0,0,2.416,2.039l.618.483c.208.155.44.275.657.411.44.266.87.546,1.314.788a23.462,23.462,0,0,0,5.585,2.044c.483.1.966.15,1.42.232l.705.106c.237.029.483.029.71.043l1.4.072c.483,0,.923-.034,1.377-.053a19.384,19.384,0,0,0,2.677-.309,10.056,10.056,0,0,0,1.28-.29c.42-.111.845-.2,1.246-.333l1.193-.435.589-.213.556-.266,1.1-.527c.367-.169.691-.406,1.034-.6s.672-.4,1-.609l.913-.681a21.118,21.118,0,0,0,5.377-6.03A20.485,20.485,0,0,0,65,236.283a11.061,11.061,0,0,0,.275-1.16c.058-.367.116-.715.164-1.034s.106-.618.135-.889.029-.522.043-.744c.029-.44.048-.773.063-1.01s.029-.343.029-.343v.343c0,.227,0,.575-.039,1.01a6.81,6.81,0,0,1-.029.749c-.029.266-.077.57-.126.894s-.1.667-.15,1.039a11.14,11.14,0,0,1-.271,1.169A20.074,20.074,0,0,1,62.768,242a21.258,21.258,0,0,1-5.392,6.083l-.923.691c-.324.213-.667.411-1,.618A9.217,9.217,0,0,1,54.41,250l-1.106.536-.565.266-.589.217-1.2.444c-.406.135-.836.222-1.256.338a10.7,10.7,0,0,1-1.295.3,20.616,20.616,0,0,1-2.7.319c-.483,0-.928.063-1.4.058l-1.416-.072a3.842,3.842,0,0,1-.71-.044l-.715-.111c-.483-.077-.966-.13-1.449-.227a22.848,22.848,0,0,1-2.855-.836,22.46,22.46,0,0,1-2.783-1.232c-.449-.242-.884-.527-1.333-.792-.217-.14-.449-.256-.662-.415l-.628-.483a23.715,23.715,0,0,1-2.416-2.058l-1.087-1.2-.275-.3-.246-.324-.483-.657-.483-.657-.435-.705-.43-.71-.213-.353-.184-.377c-.242-.483-.483-1-.73-1.507l-.609-1.541a21.156,21.156,0,0,1,0-13.5l.58-1.585.73-1.512.184-.372.217-.358.43-.705.43-.705.483-.657.483-.657.246-.324.275-.3,1.092-1.222a23.72,23.72,0,0,1,2.416-2.058l.633-.483c.208-.155.44-.275.662-.415.444-.266.879-.551,1.329-.792a22.467,22.467,0,0,1,2.792-1.222,22.032,22.032,0,0,1,2.855-.831c.483-.1.966-.155,1.449-.232l.71-.111c.242-.029.483-.029.715-.043l1.416-.068c.483,0,.932.039,1.4.053a20.618,20.618,0,0,1,2.7.319,10.42,10.42,0,0,1,1.29.3c.425.116.85.2,1.261.338l1.2.444.589.217.565.266,1.14.546c.372.169.7.411,1.039.609s.681.406,1,.618l.918.691a21.2,21.2,0,0,1,5.4,6.083,19.958,19.958,0,0,1,2.329,5.691c.092.415.227.792.271,1.169s.106.715.15,1.039.1.618.126.894,0,.522.029.749c0,.44.029.773.039,1.01A1.68,1.68,0,0,1,65.72,231.113Z" transform="translate(-18.7 -146.809)" fill="#00a0df"/>
      <path id="Path_1395" data-name="Path 1395" d="M58.325,234.475l2.3,4.672a.609.609,0,0,0,.454.324l5.155.749a.6.6,0,0,1,.329,1.024l-3.73,3.633a.6.6,0,0,0-.169.531l.879,5.131a.6.6,0,0,1-.87.633l-4.609-2.416a.594.594,0,0,0-.556,0L52.9,251.172a.594.594,0,0,1-.865-.633l.879-5.131a.609.609,0,0,0-.174-.531l-3.73-3.633a.6.6,0,0,1,.333-1.024l5.155-.749a.6.6,0,0,0,.449-.324l2.3-4.672a.6.6,0,0,1,1.073,0Z" transform="translate(-32.026 -159.432)" fill="#fafafa"/>
      <path id="Path_1396" data-name="Path 1396" d="M58.2,234.44s0-.048-.1-.126a.585.585,0,0,0-.966.188l-.449.937c-.338.705-.754,1.561-1.237,2.556l-.377.773c-.063.135-.13.271-.2.406a.686.686,0,0,1-.4.324c-.643.106-1.285.193-1.976.3l-2.164.324-1.145.174a.483.483,0,0,0-.271.792l3.735,3.643a.73.73,0,0,1,.227.73l-.116.7c-.082.483-.159.937-.242,1.411-.159.966-.329,1.933-.483,2.9a.483.483,0,0,0,.213.531.42.42,0,0,0,.285.068.687.687,0,0,0,.3-.116l1.367-.715L57,248.785l.358-.188a.749.749,0,0,1,.483-.053,1.752,1.752,0,0,1,.391.174l.348.184,1.387.73,2.7,1.42a.483.483,0,0,0,.662-.387,1.5,1.5,0,0,0-.039-.333l-.246-1.449c-.159-.966-.319-1.879-.483-2.793l-.116-.676a.739.739,0,0,1,.261-.705c.319-.314.638-.618.966-.923q.942-.913,1.821-1.773l.87-.841a.483.483,0,0,0-.063-.826,1.74,1.74,0,0,0-.517-.111l-.565-.082-1.058-.159-1.966-.295-.908-.135c-.15-.029-.28-.034-.44-.077a.657.657,0,0,1-.362-.29l-1.246-2.561-.783-1.628-.193-.42c-.043-.1-.063-.15-.063-.15a.618.618,0,0,1,.082.135c.058.106.13.242.217.415.2.382.483.918.816,1.6l1.28,2.532a.527.527,0,0,0,.275.237c.116.034.28.043.42.068l.9.126,1.971.28,1.058.15.551.077a1.822,1.822,0,0,1,.58.126.705.705,0,0,1,.111,1.145l-.86.845-1.817,1.778-.966.932a.483.483,0,0,0-.188.483l.116.676q.237,1.362.483,2.792c.082.483.164.966.251,1.449a1.663,1.663,0,0,1,.039.4.676.676,0,0,1-.179.406.71.71,0,0,1-.821.179l-2.72-1.42-1.348-.729-.348-.184a1.571,1.571,0,0,0-.329-.15.483.483,0,0,0-.3.034l-.353.184-2.788,1.449-1.367.72a1.035,1.035,0,0,1-.4.145.705.705,0,0,1-.44-.111.73.73,0,0,1-.319-.783q.256-1.478.483-2.9c.082-.483.164-.966.246-1.411l.116-.7a.483.483,0,0,0-.155-.527l-3.749-3.677a.705.705,0,0,1-.111-.672.7.7,0,0,1,.483-.449l1.16-.169,2.164-.3,1.962-.28a.536.536,0,0,0,.309-.242l.2-.4.387-.768,1.275-2.536c.179-.348.333-.657.483-.928a.643.643,0,0,1,.638-.387.585.585,0,0,1,.415.217A.338.338,0,0,1,58.2,234.44Z" transform="translate(-31.904 -159.398)" fill="#263238"/>
      <circle id="Ellipse_89" data-name="Ellipse 89" cx="21.272" cy="21.272" r="21.272" transform="matrix(0.24, -0.971, 0.971, 0.24, 0, 99.851)" fill="#fff"/>
      <path id="Path_1397" data-name="Path 1397" d="M65.72,231.113a3.074,3.074,0,0,0-.029-.348c-.029-.227-.034-.57-.063-1.01,0-.222-.029-.483-.043-.744s-.087-.565-.135-.889-.106-.667-.164-1.034-.184-.749-.275-1.16a20.369,20.369,0,0,0-2.367-5.653,21.166,21.166,0,0,0-5.387-6.015l-.894-.681c-.324-.208-.662-.4-1-.609a9.858,9.858,0,0,0-1.029-.6l-1.1-.527-.56-.266-.585-.213-1.193-.435c-.406-.135-.826-.222-1.246-.333a10.443,10.443,0,0,0-1.28-.29A19.38,19.38,0,0,0,45.69,210c-.454,0-.918-.063-1.382-.053l-1.4.072a3.845,3.845,0,0,0-.71.043l-.705.111c-.483.077-.966.13-1.42.227a22.1,22.1,0,0,0-2.821.831,21.746,21.746,0,0,0-2.759,1.213c-.449.242-.879.522-1.319.788-.217.135-.449.256-.652.411l-.623.483a23.825,23.825,0,0,0-2.416,2.039l-1.073,1.184-.271.295-.246.324-.483.647-.483.652-.425.7-.425.7-.213.348-.179.372-.73,1.478-.575,1.565a20.929,20.929,0,0,0,0,13.344c.193.527.382,1.048.575,1.57s.483,1,.715,1.488l.184.372.213.353.425.7.425.7.483.652.483.647.242.319.271.3,1.077,1.184a23.823,23.823,0,0,0,2.416,2.039l.618.483c.208.155.44.275.657.411.44.266.87.546,1.314.788a23.462,23.462,0,0,0,5.585,2.044c.483.1.966.15,1.42.232l.705.106c.237.029.483.029.71.043l1.4.072c.483,0,.923-.034,1.377-.053a19.384,19.384,0,0,0,2.677-.309,10.056,10.056,0,0,0,1.28-.29c.42-.111.845-.2,1.246-.333l1.193-.435.589-.213.556-.266,1.1-.527c.367-.169.691-.406,1.034-.6s.672-.4,1-.609l.913-.681a21.118,21.118,0,0,0,5.377-6.03A20.485,20.485,0,0,0,65,236.283a11.061,11.061,0,0,0,.275-1.16c.058-.367.116-.715.164-1.034s.106-.618.135-.889.029-.522.043-.744c.029-.44.048-.773.063-1.01s.029-.343.029-.343v.343c0,.227,0,.575-.039,1.01a6.81,6.81,0,0,1-.029.749c-.029.266-.077.57-.126.894s-.1.667-.15,1.039a11.14,11.14,0,0,1-.271,1.169A20.074,20.074,0,0,1,62.768,242a21.258,21.258,0,0,1-5.392,6.083l-.923.691c-.324.213-.667.411-1,.618A9.217,9.217,0,0,1,54.41,250l-1.106.536-.565.266-.589.217-1.2.444c-.406.135-.836.222-1.256.338a10.7,10.7,0,0,1-1.295.3,20.616,20.616,0,0,1-2.7.319c-.483,0-.928.063-1.4.058l-1.416-.072a3.842,3.842,0,0,1-.71-.044l-.715-.111c-.483-.077-.966-.13-1.449-.227a22.848,22.848,0,0,1-2.855-.836,22.46,22.46,0,0,1-2.783-1.232c-.449-.242-.884-.527-1.333-.792-.217-.14-.449-.256-.662-.415l-.628-.483a23.715,23.715,0,0,1-2.416-2.058l-1.087-1.2-.275-.3-.246-.324-.483-.657-.483-.657-.435-.705-.43-.71-.213-.353-.184-.377c-.242-.483-.483-1-.73-1.507l-.609-1.541a21.156,21.156,0,0,1,0-13.5l.58-1.585.73-1.512.184-.372.217-.358.43-.705.43-.705.483-.657.483-.657.246-.324.275-.3,1.092-1.222a23.72,23.72,0,0,1,2.416-2.058l.633-.483c.208-.155.44-.275.662-.415.444-.266.879-.551,1.329-.792a22.467,22.467,0,0,1,2.792-1.222,22.032,22.032,0,0,1,2.855-.831c.483-.1.966-.155,1.449-.232l.71-.111c.242-.029.483-.029.715-.043l1.416-.068c.483,0,.932.039,1.4.053a20.618,20.618,0,0,1,2.7.319,10.42,10.42,0,0,1,1.29.3c.425.116.85.2,1.261.338l1.2.444.589.217.565.266,1.14.546c.372.169.7.411,1.039.609s.681.406,1,.618l.918.691a21.2,21.2,0,0,1,5.4,6.083,19.958,19.958,0,0,1,2.329,5.691c.092.415.227.792.271,1.169s.106.715.15,1.039.1.618.126.894,0,.522.029.749c0,.44.029.773.039,1.01A1.68,1.68,0,0,1,65.72,231.113Z" transform="translate(-18.7 -146.809)" fill="#00a0df"/>
      <path id="Path_1398" data-name="Path 1398" d="M58.325,234.475l2.3,4.672a.609.609,0,0,0,.454.324l5.155.749a.6.6,0,0,1,.329,1.024l-3.73,3.633a.6.6,0,0,0-.169.531l.879,5.131a.6.6,0,0,1-.87.633l-4.609-2.416a.594.594,0,0,0-.556,0L52.9,251.172a.594.594,0,0,1-.865-.633l.879-5.131a.609.609,0,0,0-.174-.531l-3.73-3.633a.6.6,0,0,1,.333-1.024l5.155-.749a.6.6,0,0,0,.449-.324l2.3-4.672a.6.6,0,0,1,1.073,0Z" transform="translate(-32.026 -159.432)" fill="#fafafa"/>
      <path id="Path_1399" data-name="Path 1399" d="M58.2,234.44s0-.048-.1-.126a.585.585,0,0,0-.966.188l-.449.937c-.338.705-.754,1.561-1.237,2.556l-.377.773c-.063.135-.13.271-.2.406a.686.686,0,0,1-.4.324c-.643.106-1.285.193-1.976.3l-2.164.324-1.145.174a.483.483,0,0,0-.271.792l3.735,3.643a.73.73,0,0,1,.227.73l-.116.7c-.082.483-.159.937-.242,1.411-.159.966-.329,1.933-.483,2.9a.483.483,0,0,0,.213.531.42.42,0,0,0,.285.068.687.687,0,0,0,.3-.116l1.367-.715L57,248.785l.358-.188a.749.749,0,0,1,.483-.053,1.752,1.752,0,0,1,.391.174l.348.184,1.387.73,2.7,1.42a.483.483,0,0,0,.662-.387,1.5,1.5,0,0,0-.039-.333l-.246-1.449c-.159-.966-.319-1.879-.483-2.793l-.116-.676a.739.739,0,0,1,.261-.705c.319-.314.638-.618.966-.923q.942-.913,1.821-1.773l.87-.841a.483.483,0,0,0-.063-.826,1.74,1.74,0,0,0-.517-.111l-.565-.082-1.058-.159-1.966-.295-.908-.135c-.15-.029-.28-.034-.44-.077a.657.657,0,0,1-.362-.29l-1.246-2.561-.783-1.628-.193-.42c-.043-.1-.063-.15-.063-.15a.618.618,0,0,1,.082.135c.058.106.13.242.217.415.2.382.483.918.816,1.6l1.28,2.532a.527.527,0,0,0,.275.237c.116.034.28.043.42.068l.9.126,1.971.28,1.058.15.551.077a1.822,1.822,0,0,1,.58.126.705.705,0,0,1,.111,1.145l-.86.845-1.817,1.778-.966.932a.483.483,0,0,0-.188.483l.116.676q.237,1.362.483,2.792c.082.483.164.966.251,1.449a1.663,1.663,0,0,1,.039.4.676.676,0,0,1-.179.406.71.71,0,0,1-.821.179l-2.72-1.42-1.348-.729-.348-.184a1.571,1.571,0,0,0-.329-.15.483.483,0,0,0-.3.034l-.353.184-2.788,1.449-1.367.72a1.035,1.035,0,0,1-.4.145.705.705,0,0,1-.44-.111.73.73,0,0,1-.319-.783q.256-1.478.483-2.9c.082-.483.164-.966.246-1.411l.116-.7a.483.483,0,0,0-.155-.527l-3.749-3.677a.705.705,0,0,1-.111-.672.7.7,0,0,1,.483-.449l1.16-.169,2.164-.3,1.962-.28a.536.536,0,0,0,.309-.242l.2-.4.387-.768,1.275-2.536c.179-.348.333-.657.483-.928a.643.643,0,0,1,.638-.387.585.585,0,0,1,.415.217A.338.338,0,0,1,58.2,234.44Z" transform="translate(-31.904 -159.398)" fill="#263238"/>
    </g>
  </g>
</svg>
