<svg xmlns="http://www.w3.org/2000/svg" width="255.869" height="176.24" viewBox="0 0 255.869 176.24">
  <g id="JavaScript_frameworks-pana" data-name="JavaScript frameworks-pana" transform="translate(-98.681 -87.672)">
    <g id="freepik--Screen--inject-4" transform="translate(195.564 121.505)">
      <rect id="Rectangle_887" data-name="Rectangle 887" width="134.076" height="78.125" fill="#263238"/>
      <path id="Path_1616" data-name="Path 1616" d="M365.988,233.368c-.069,0-.128-15.975-.128-35.679s.069-35.689.128-35.689.128,15.97.128,35.679S366.062,233.368,365.988,233.368Z" transform="translate(-355.502 -159.174)" fill="#e0e0e0"/>
      <path id="Path_1617" data-name="Path 1617" d="M355.969,167.988a19.27,19.27,0,0,1-4.439,0A19.27,19.27,0,0,1,355.969,167.988Z" transform="translate(-348.24 -162.144)" fill="#e0e0e0"/>
      <path id="Path_1618" data-name="Path 1618" d="M355.969,177.518a19.265,19.265,0,0,1-4.439,0A19.272,19.272,0,0,1,355.969,177.518Z" transform="translate(-348.24 -166.973)" fill="#e0e0e0"/>
      <path id="Path_1619" data-name="Path 1619" d="M355.969,187.058a19.263,19.263,0,0,1-4.439,0A19.272,19.272,0,0,1,355.969,187.058Z" transform="translate(-348.24 -171.808)" fill="#e0e0e0"/>
      <path id="Path_1620" data-name="Path 1620" d="M355.969,196.588a19.27,19.27,0,0,1-4.439,0,19.269,19.269,0,0,1,4.439,0Z" transform="translate(-348.24 -176.638)" fill="#e0e0e0"/>
      <path id="Path_1621" data-name="Path 1621" d="M355.969,206.118a19.272,19.272,0,0,1-4.439,0A19.27,19.27,0,0,1,355.969,206.118Z" transform="translate(-348.24 -181.467)" fill="#e0e0e0"/>
      <path id="Path_1622" data-name="Path 1622" d="M355.969,215.658a19.27,19.27,0,0,1-4.439,0A19.266,19.266,0,0,1,355.969,215.658Z" transform="translate(-348.24 -186.302)" fill="#e0e0e0"/>
      <path id="Path_1623" data-name="Path 1623" d="M355.969,225.188a19.27,19.27,0,0,1-4.439,0A19.27,19.27,0,0,1,355.969,225.188Z" transform="translate(-348.24 -191.132)" fill="#e0e0e0"/>
      <path id="Path_1624" data-name="Path 1624" d="M355.969,234.718a19.266,19.266,0,0,1-4.439,0A19.27,19.27,0,0,1,355.969,234.718Z" transform="translate(-348.24 -195.961)" fill="#e0e0e0"/>
      <path id="Path_1625" data-name="Path 1625" d="M355.969,244.258a19.27,19.27,0,0,1-4.439,0A19.273,19.273,0,0,1,355.969,244.258Z" transform="translate(-348.24 -200.796)" fill="#e0e0e0"/>
      <path id="Path_1626" data-name="Path 1626" d="M355.969,253.788a19.266,19.266,0,0,1-4.439,0A19.27,19.27,0,0,1,355.969,253.788Z" transform="translate(-348.24 -205.626)" fill="#e0e0e0"/>
      <path id="Path_1627" data-name="Path 1627" d="M355.969,263.318a19.27,19.27,0,0,1-4.439,0A19.263,19.263,0,0,1,355.969,263.318Z" transform="translate(-348.24 -210.455)" fill="#e0e0e0"/>
      <path id="Path_1628" data-name="Path 1628" d="M355.969,272.868a19.277,19.277,0,0,1-4.439,0A19.27,19.27,0,0,1,355.969,272.868Z" transform="translate(-348.24 -215.295)" fill="#e0e0e0"/>
      <path id="Path_1629" data-name="Path 1629" d="M355.969,282.388a19.26,19.26,0,0,1-4.439,0,19.272,19.272,0,0,1,4.439,0Z" transform="translate(-348.24 -220.12)" fill="#e0e0e0"/>
      <path id="Path_1630" data-name="Path 1630" d="M355.969,291.918a19.273,19.273,0,0,1-4.439,0A19.27,19.27,0,0,1,355.969,291.918Z" transform="translate(-348.24 -224.949)" fill="#e0e0e0"/>
      <path id="Path_1631" data-name="Path 1631" d="M355.969,301.458a19.268,19.268,0,0,1-4.439,0A19.272,19.272,0,0,1,355.969,301.458Z" transform="translate(-348.24 -229.784)" fill="#e0e0e0"/>
      <path id="Path_1632" data-name="Path 1632" d="M384.776,167.428c0,.069-2.58.128-5.761.128s-5.766-.059-5.766-.128,2.579-.128,5.766-.128S384.776,167.354,384.776,167.428Z" transform="translate(-359.248 -161.86)" fill="#00a0df"/>
      <path id="Path_1633" data-name="Path 1633" d="M384.776,301.458c0,.069-2.58.128-5.761.128s-5.766-.059-5.766-.128,2.579-.128,5.766-.128S384.776,301.384,384.776,301.458Z" transform="translate(-359.248 -229.784)" fill="#00a0df"/>
      <path id="Path_1634" data-name="Path 1634" d="M407,187.058c0,.069-4.829.128-10.782.128s-10.782-.059-10.782-.128,4.829-.128,10.782-.128S407,186.965,407,187.058Z" transform="translate(-365.425 -171.808)" fill="#00a0df"/>
      <path id="Path_1635" data-name="Path 1635" d="M457.549,187.058c0,.069-4.824.128-10.777.128s-10.782-.059-10.782-.128,4.824-.128,10.782-.128S457.549,186.965,457.549,187.058Z" transform="translate(-391.043 -171.808)" fill="#e0e0e0"/>
      <path id="Path_1636" data-name="Path 1636" d="M427.738,196.588c0,.069-7.117.128-15.887.128s-15.891-.059-15.891-.128,7.112-.128,15.891-.128S427.738,196.519,427.738,196.588Z" transform="translate(-370.757 -176.638)" fill="#e0e0e0"/>
      <path id="Path_1637" data-name="Path 1637" d="M427.758,206.118c0,.074-7.117.128-15.886.128S396,206.192,396,206.118s7.112-.128,15.892-.128S427.758,206.049,427.758,206.118Z" transform="translate(-370.777 -181.467)" fill="#e0e0e0"/>
      <path id="Path_1638" data-name="Path 1638" d="M472.083,234.718c0,.074-7.112.128-15.886.128s-15.887-.054-15.887-.128,7.112-.128,15.887-.128S472.083,234.649,472.083,234.718Z" transform="translate(-393.232 -195.961)" fill="#e0e0e0"/>
      <path id="Path_1639" data-name="Path 1639" d="M452.948,215.658c0,.069-7.117.128-15.887.128s-15.891-.059-15.891-.128,7.112-.128,15.891-.128S452.948,215.584,452.948,215.658Z" transform="translate(-383.533 -186.302)" fill="#e0e0e0"/>
      <path id="Path_1640" data-name="Path 1640" d="M531.673,215.658c0,.069-7.112.128-15.886.128s-15.886-.059-15.886-.128,7.112-.128,15.886-.128S531.673,215.584,531.673,215.658Z" transform="translate(-423.432 -186.302)" fill="#e0e0e0"/>
      <path id="Path_1641" data-name="Path 1641" d="M504.293,196.588c0,.069-7.112.128-15.887.128s-15.886-.059-15.886-.128,7.112-.128,15.886-.128S504.293,196.519,504.293,196.588Z" transform="translate(-409.556 -176.638)" fill="#fafafa"/>
      <path id="Path_1642" data-name="Path 1642" d="M548.788,234.718c0,.074-7.117.128-15.886.128s-15.9-.054-15.9-.128,7.112-.128,15.891-.128S548.788,234.649,548.788,234.718Z" transform="translate(-432.098 -195.961)" fill="#fafafa"/>
      <path id="Path_1643" data-name="Path 1643" d="M521.881,206.118c0,.074-11.048.128-24.661.128s-24.661-.054-24.661-.128,11.043-.128,24.661-.128S521.881,206.049,521.881,206.118Z" transform="translate(-409.576 -181.467)" fill="#455a64"/>
      <path id="Path_1644" data-name="Path 1644" d="M384.776,177.518c0,.074-2.58.128-5.761.128s-5.766-.054-5.766-.128,2.579-.128,5.766-.128S384.776,177.449,384.776,177.518Z" transform="translate(-359.248 -166.973)" fill="#fafafa"/>
      <path id="Path_1645" data-name="Path 1645" d="M384.776,291.918c0,.074-2.58.128-5.761.128s-5.766-.054-5.766-.128,2.579-.128,5.766-.128S384.776,291.849,384.776,291.918Z" transform="translate(-359.248 -224.949)" fill="#fafafa"/>
      <path id="Path_1646" data-name="Path 1646" d="M396.352,215.658c0,.069-2.58.128-5.761.128s-5.761-.059-5.761-.128,2.579-.128,5.761-.128S396.352,215.584,396.352,215.658Z" transform="translate(-365.116 -186.302)" fill="#fafafa"/>
      <path id="Path_1647" data-name="Path 1647" d="M583.611,215.658c0,.069-2.58.128-5.761.128s-5.761-.059-5.761-.128,2.579-.128,5.761-.128S583.611,215.584,583.611,215.658Z" transform="translate(-460.016 -186.302)" fill="#00a0df"/>
      <path id="Path_1648" data-name="Path 1648" d="M407,253.728c0,.074-4.829.128-10.782.128s-10.782-.054-10.782-.128,4.829-.128,10.782-.128S407,253.659,407,253.728Z" transform="translate(-365.425 -205.595)" fill="#00a0df"/>
      <path id="Path_1649" data-name="Path 1649" d="M457.553,253.728c0,.074-4.824.128-10.777.128S436,253.8,436,253.728s4.824-.128,10.782-.128S457.553,253.659,457.553,253.728Z" transform="translate(-391.048 -205.595)" fill="#e0e0e0"/>
      <path id="Path_1650" data-name="Path 1650" d="M427.758,263.268c0,.069-7.117.128-15.886.128S396,263.337,396,263.268s7.112-.128,15.892-.128S427.758,263.194,427.758,263.268Z" transform="translate(-370.777 -210.43)" fill="#e0e0e0"/>
      <path id="Path_1651" data-name="Path 1651" d="M427.738,272.8c0,.069-7.117.128-15.887.128s-15.891-.059-15.891-.128,7.112-.128,15.891-.128S427.738,272.729,427.738,272.8Z" transform="translate(-370.757 -215.26)" fill="#e0e0e0"/>
      <path id="Path_1652" data-name="Path 1652" d="M452.948,282.328c0,.074-7.117.128-15.887.128s-15.891-.054-15.891-.128,7.112-.128,15.891-.128S452.948,282.259,452.948,282.328Z" transform="translate(-383.533 -220.089)" fill="#e0e0e0"/>
      <path id="Path_1653" data-name="Path 1653" d="M531.673,282.328c0,.074-7.112.128-15.886.128s-15.886-.054-15.886-.128,7.112-.128,15.886-.128S531.673,282.259,531.673,282.328Z" transform="translate(-423.432 -220.089)" fill="#e0e0e0"/>
      <path id="Path_1654" data-name="Path 1654" d="M504.293,263.268c0,.069-7.112.128-15.887.128s-15.886-.059-15.886-.128,7.112-.128,15.886-.128S504.293,263.194,504.293,263.268Z" transform="translate(-409.556 -210.43)" fill="#fafafa"/>
      <path id="Path_1655" data-name="Path 1655" d="M521.881,272.8c0,.069-11.048.128-24.661.128s-24.661-.059-24.661-.128,11.043-.128,24.661-.128S521.881,272.729,521.881,272.8Z" transform="translate(-409.576 -215.26)" fill="#455a64"/>
      <path id="Path_1656" data-name="Path 1656" d="M396.352,282.328c0,.074-2.58.128-5.761.128s-5.761-.054-5.761-.128,2.579-.128,5.761-.128S396.352,282.259,396.352,282.328Z" transform="translate(-365.116 -220.089)" fill="#fafafa"/>
      <path id="Path_1657" data-name="Path 1657" d="M583.611,282.328c0,.074-2.58.128-5.761.128s-5.761-.054-5.761-.128,2.579-.128,5.761-.128S583.611,282.259,583.611,282.328Z" transform="translate(-460.016 -220.089)" fill="#00a0df"/>
    </g>
    <g id="freepik--Device--inject-4" transform="translate(114.914 160.568)">
      <path id="Path_1658" data-name="Path 1658" d="M198.2,235.47H344.91a3.324,3.324,0,0,1,3.324,3.324v91.245a7.186,7.186,0,0,1-7.186,7.186H201.566a7.186,7.186,0,0,1-7.186-7.186V239.287A3.822,3.822,0,0,1,198.2,235.47Z" transform="translate(-187.948 -235.47)" fill="#455a64"/>
      <path id="Path_1659" data-name="Path 1659" d="M181.34,426.5H348.047v2.136a6.767,6.767,0,0,1-6.767,6.767H188.107a6.767,6.767,0,0,1-6.767-6.767Z" transform="translate(-181.34 -332.281)" fill="#455a64"/>
      <rect id="Rectangle_888" data-name="Rectangle 888" width="145.163" height="85.918" transform="translate(10.56 4.044)" fill="#e0e0e0"/>
      <path id="Path_1660" data-name="Path 1660" d="M319.6,426.5l2.066,3.29h29.1l1.924-3.29Z" transform="translate(-251.408 -332.281)" fill="#263238"/>
      <rect id="Rectangle_889" data-name="Rectangle 889" width="153.854" height="0.488" transform="translate(6.456 94.185)" fill="#263238"/>
      <rect id="Rectangle_890" data-name="Rectangle 890" width="136.897" height="80.942" transform="translate(14.87 9.021)" fill="#263238"/>
      <path id="Path_1661" data-name="Path 1661" d="M232.648,333.931c-.069,0-.128-17.238-.128-38.5s.059-38.5.128-38.5.109,17.233.109,38.505S232.717,333.931,232.648,333.931Z" transform="translate(-207.277 -246.346)" fill="#e0e0e0"/>
      <path id="Path_1662" data-name="Path 1662" d="M222.609,270.949a19.366,19.366,0,0,1-4.449,0,19.353,19.353,0,0,1,4.439,0Z" transform="translate(-200 -253.385)" fill="#e0e0e0"/>
      <path id="Path_1663" data-name="Path 1663" d="M222.959,262.089a19.362,19.362,0,0,1-4.449,0,19.363,19.363,0,0,1,4.439,0Z" transform="translate(-200.177 -248.895)" fill="#e0e0e0"/>
      <path id="Path_1664" data-name="Path 1664" d="M222.619,280.5a19.356,19.356,0,0,1-4.439,0,19.361,19.361,0,0,1,4.439,0Z" transform="translate(-200.01 -258.225)" fill="#e0e0e0"/>
      <path id="Path_1665" data-name="Path 1665" d="M222.619,290.031a19.356,19.356,0,0,1-4.439,0,19.267,19.267,0,0,1,4.439,0Z" transform="translate(-200.01 -263.047)" fill="#e0e0e0"/>
      <path id="Path_1666" data-name="Path 1666" d="M222.619,299.581a19.359,19.359,0,0,1-4.439,0,19.258,19.258,0,0,1,4.439,0Z" transform="translate(-200.01 -267.887)" fill="#e0e0e0"/>
      <path id="Path_1667" data-name="Path 1667" d="M222.619,309.131a19.363,19.363,0,0,1-4.439,0,19.28,19.28,0,0,1,4.439,0Z" transform="translate(-200.01 -272.727)" fill="#e0e0e0"/>
      <path id="Path_1668" data-name="Path 1668" d="M222.609,318.689a18.652,18.652,0,0,1-4.449,0,19.358,19.358,0,0,1,4.439,0Z" transform="translate(-200 -277.579)" fill="#e0e0e0"/>
      <path id="Path_1669" data-name="Path 1669" d="M222.609,328.239a19.357,19.357,0,0,1-4.449,0,19.363,19.363,0,0,1,4.439,0Z" transform="translate(-200 -282.419)" fill="#e0e0e0"/>
      <path id="Path_1670" data-name="Path 1670" d="M222.609,337.789a19.343,19.343,0,0,1-4.449,0,19.36,19.36,0,0,1,4.439,0Z" transform="translate(-200 -287.259)" fill="#e0e0e0"/>
      <path id="Path_1671" data-name="Path 1671" d="M222.609,347.339a19.348,19.348,0,0,1-4.449,0,19.36,19.36,0,0,1,4.439,0Z" transform="translate(-200 -292.099)" fill="#e0e0e0"/>
      <path id="Path_1672" data-name="Path 1672" d="M222.619,356.869a19.359,19.359,0,0,1-4.439,0A19.353,19.353,0,0,1,222.619,356.869Z" transform="translate(-200.01 -296.928)" fill="#e0e0e0"/>
      <path id="Path_1673" data-name="Path 1673" d="M222.619,366.421a19.347,19.347,0,0,1-4.439,0,19.283,19.283,0,0,1,4.439,0Z" transform="translate(-200.01 -301.76)" fill="#e0e0e0"/>
      <path id="Path_1674" data-name="Path 1674" d="M222.619,375.971a19.361,19.361,0,0,1-4.439,0,19.269,19.269,0,0,1,4.439,0Z" transform="translate(-200.01 -306.6)" fill="#e0e0e0"/>
      <path id="Path_1675" data-name="Path 1675" d="M222.619,385.521a19.356,19.356,0,0,1-4.439,0,19.262,19.262,0,0,1,4.439,0Z" transform="translate(-200.01 -311.44)" fill="#e0e0e0"/>
      <path id="Path_1676" data-name="Path 1676" d="M222.619,395.066a19.363,19.363,0,0,1-4.439,0,18.552,18.552,0,0,1,4.439,0Z" transform="translate(-200.01 -316.275)" fill="#e0e0e0"/>
      <path id="Path_1677" data-name="Path 1677" d="M222.609,404.629a19.362,19.362,0,0,1-4.449,0,19.353,19.353,0,0,1,4.439,0Z" transform="translate(-200 -321.132)" fill="#e0e0e0"/>
      <path id="Path_1678" data-name="Path 1678" d="M251.466,270.388c0,.069-2.584.128-5.771.128s-5.776-.059-5.776-.128,2.584-.128,5.776-.128S251.466,270.314,251.466,270.388Z" transform="translate(-211.027 -253.101)" fill="#00a0df"/>
      <path id="Path_1679" data-name="Path 1679" d="M251.466,404.628c0,.074-2.584.128-5.771.128s-5.776-.054-5.776-.128,2.584-.128,5.776-.128S251.466,404.559,251.466,404.628Z" transform="translate(-211.027 -321.132)" fill="#00a0df"/>
      <path id="Path_1680" data-name="Path 1680" d="M273.728,290.048c0,.069-4.839.128-10.8.128s-10.8-.059-10.8-.128,4.833-.128,10.8-.128S273.728,289.959,273.728,290.048Z" transform="translate(-217.215 -263.064)" fill="#00a0df"/>
      <path id="Path_1681" data-name="Path 1681" d="M324.358,290.048c0,.069-4.838.128-10.8.128s-10.8-.059-10.8-.128,4.834-.128,10.8-.128S324.358,289.959,324.358,290.048Z" transform="translate(-242.874 -263.064)" fill="#e0e0e0"/>
      <path id="Path_1682" data-name="Path 1682" d="M294.5,299.6c0,.069-7.127.128-15.916.128s-15.911-.059-15.911-.128,7.122-.128,15.911-.128S294.5,299.524,294.5,299.6Z" transform="translate(-222.557 -267.904)" fill="#e0e0e0"/>
      <path id="Path_1683" data-name="Path 1683" d="M294.5,309.148c0,.069-7.127.128-15.916.128s-15.911-.059-15.911-.128,7.122-.128,15.911-.128S294.5,309.074,294.5,309.148Z" transform="translate(-222.557 -272.744)" fill="#e0e0e0"/>
      <path id="Path_1684" data-name="Path 1684" d="M338.907,337.788c0,.074-7.122.128-15.911.128s-15.916-.054-15.916-.128,7.127-.128,15.916-.128S338.907,337.719,338.907,337.788Z" transform="translate(-245.063 -287.258)" fill="#e0e0e0"/>
      <path id="Path_1685" data-name="Path 1685" d="M319.747,318.688c0,.074-7.127.133-15.916.133s-15.911-.059-15.911-.133,7.122-.128,15.911-.128S319.747,318.619,319.747,318.688Z" transform="translate(-235.353 -277.579)" fill="#e0e0e0"/>
      <path id="Path_1686" data-name="Path 1686" d="M398.6,318.688c0,.074-7.127.133-15.911.133s-15.916-.059-15.916-.133,7.127-.128,15.916-.128S398.6,318.619,398.6,318.688Z" transform="translate(-275.313 -277.579)" fill="#e0e0e0"/>
      <path id="Path_1687" data-name="Path 1687" d="M371.177,299.6c0,.069-7.127.128-15.916.128s-15.911-.059-15.911-.128,7.122-.128,15.911-.128S371.177,299.524,371.177,299.6Z" transform="translate(-261.417 -267.904)" fill="#fafafa"/>
      <path id="Path_1688" data-name="Path 1688" d="M415.747,337.788c0,.074-7.127.128-15.911.128s-15.916-.054-15.916-.128,7.127-.128,15.916-.128S415.747,337.719,415.747,337.788Z" transform="translate(-284.004 -287.258)" fill="#fafafa"/>
      <path id="Path_1689" data-name="Path 1689" d="M388.77,309.148c0,.069-11.063.128-24.71.128s-24.71-.059-24.71-.128,11.063-.128,24.71-.128S388.77,309.074,388.77,309.148Z" transform="translate(-261.417 -272.744)" fill="#455a64"/>
      <path id="Path_1690" data-name="Path 1690" d="M251.466,280.5c0,.069-2.584.128-5.771.128s-5.776-.059-5.776-.128,2.584-.128,5.776-.128S251.466,280.429,251.466,280.5Z" transform="translate(-211.027 -258.225)" fill="#fafafa"/>
      <path id="Path_1691" data-name="Path 1691" d="M251.466,395.083c0,.069-2.584.128-5.771.128s-5.776-.059-5.776-.128,2.584-.133,5.776-.133S251.466,395.009,251.466,395.083Z" transform="translate(-211.027 -316.292)" fill="#fafafa"/>
      <path id="Path_1692" data-name="Path 1692" d="M263.061,318.688c0,.074-2.584.133-5.771.133s-5.771-.059-5.771-.133,2.579-.128,5.771-.128S263.061,318.619,263.061,318.688Z" transform="translate(-216.906 -277.579)" fill="#fafafa"/>
      <path id="Path_1693" data-name="Path 1693" d="M450.621,318.688c0,.074-2.584.133-5.771.133s-5.771-.059-5.771-.133,2.579-.128,5.771-.128S450.621,318.619,450.621,318.688Z" transform="translate(-311.958 -277.579)" fill="#00a0df"/>
      <path id="Path_1694" data-name="Path 1694" d="M273.728,356.868c0,.074-4.839.128-10.8.128s-10.8-.054-10.8-.128,4.833-.128,10.8-.128S273.728,356.779,273.728,356.868Z" transform="translate(-217.215 -296.928)" fill="#00a0df"/>
      <path id="Path_1695" data-name="Path 1695" d="M324.358,356.868c0,.074-4.838.128-10.8.128s-10.8-.054-10.8-.128,4.834-.128,10.8-.128S324.358,356.779,324.358,356.868Z" transform="translate(-242.874 -296.928)" fill="#e0e0e0"/>
      <path id="Path_1696" data-name="Path 1696" d="M294.5,366.378c0,.074-7.127.128-15.916.128s-15.911-.054-15.911-.128,7.122-.128,15.911-.128S294.5,366.309,294.5,366.378Z" transform="translate(-222.557 -301.747)" fill="#e0e0e0"/>
      <path id="Path_1697" data-name="Path 1697" d="M294.5,375.928c0,.074-7.127.128-15.916.128s-15.911-.054-15.911-.128,7.122-.128,15.911-.128S294.5,375.859,294.5,375.928Z" transform="translate(-222.557 -306.587)" fill="#e0e0e0"/>
      <path id="Path_1698" data-name="Path 1698" d="M319.747,385.478c0,.069-7.127.128-15.916.128s-15.911-.059-15.911-.128,7.122-.128,15.911-.128S319.747,385.409,319.747,385.478Z" transform="translate(-235.353 -311.427)" fill="#e0e0e0"/>
      <path id="Path_1699" data-name="Path 1699" d="M398.6,385.478c0,.069-7.127.128-15.911.128s-15.916-.059-15.916-.128,7.127-.128,15.916-.128S398.6,385.409,398.6,385.478Z" transform="translate(-275.313 -311.427)" fill="#e0e0e0"/>
      <path id="Path_1700" data-name="Path 1700" d="M371.177,366.378c0,.074-7.127.128-15.916.128s-15.911-.054-15.911-.128,7.122-.128,15.911-.128S371.177,366.309,371.177,366.378Z" transform="translate(-261.417 -301.747)" fill="#fafafa"/>
      <path id="Path_1701" data-name="Path 1701" d="M388.77,375.928c0,.074-11.063.128-24.71.128s-24.71-.054-24.71-.128,11.063-.128,24.71-.128S388.77,375.859,388.77,375.928Z" transform="translate(-261.417 -306.587)" fill="#455a64"/>
      <path id="Path_1702" data-name="Path 1702" d="M263.061,385.478c0,.069-2.584.128-5.771.128s-5.771-.059-5.771-.128,2.579-.128,5.771-.128S263.061,385.409,263.061,385.478Z" transform="translate(-216.906 -311.427)" fill="#fafafa"/>
      <path id="Path_1703" data-name="Path 1703" d="M450.621,385.478c0,.069-2.584.128-5.771.128s-5.771-.059-5.771-.128,2.579-.128,5.771-.128S450.621,385.409,450.621,385.478Z" transform="translate(-311.958 -311.427)" fill="#00a0df"/>
    </g>
    <g id="freepik--Floor--inject-4" transform="translate(98.681 263.567)">
      <path id="Path_1704" data-name="Path 1704" d="M305.449,444.428c0,.069-57.284.128-127.927.128S49.58,444.5,49.58,444.428s57.272-.128,127.943-.128S305.449,444.354,305.449,444.428Z" transform="translate(-49.58 -444.3)" fill="#263238"/>
    </g>
    <g id="freepik--character-2--inject-4" transform="translate(284.844 190.066)">
      <path id="Path_1705" data-name="Path 1705" d="M568.553,383.169l1.973,6.16a7.117,7.117,0,0,0,5.524,4.932l13.149,2.466,3.576-.113-3.576-4.439-9.864-3.369a2.649,2.649,0,0,1-1.973-1.894l-3.946-8.562-4.986,3.058Z" transform="translate(-547.441 -337.377)" fill="#ffbe9d"/>
      <path id="Path_1706" data-name="Path 1706" d="M538.292,299.693a4.334,4.334,0,0,0-.74-2.732,3.339,3.339,0,0,0-2.16-1.667,2.466,2.466,0,0,0-2.56,1.509,3.215,3.215,0,0,0,.395,3.038,4.054,4.054,0,0,0,1.2,1.12,7.527,7.527,0,0,0-2.959,3.773c-.182.523-.306,1.065-.533,1.569a2.338,2.338,0,0,1-1.09,1.208c-.375.168-.794.182-1.179.326a2.16,2.16,0,0,0-1.3,1.48,2.624,2.624,0,0,0,.35,1.973,2.039,2.039,0,0,1,.444.917,2.365,2.365,0,0,1-.143.686,1.874,1.874,0,0,0,3.078,1.83,2.668,2.668,0,0,0,1.134,1.425c.562.266,1.391.025,1.48-.587a1.48,1.48,0,0,0,2.816-.533l10.6-11.6C545.552,299.219,539.362,299.579,538.292,299.693Z" transform="translate(-526.6 -295.277)" fill="#00a0df"/>
      <path id="Path_1707" data-name="Path 1707" d="M544.724,310.566a1.332,1.332,0,0,0-1.184,1.341h0l.75,17.854c.03,2.111,3.857,4.607,6.111,4.557h0c2.284-.049,1.613-2.466,1.642-4.474.059-3.354.054-4.611.059-4.592s2.88-.493,3.477-4.237a40.221,40.221,0,0,0,.044-7.438c-.143-2.254-1.638-5.021-3.882-4.784Z" transform="translate(-534.827 -302.121)" fill="#ffbe9d"/>
      <path id="Path_1708" data-name="Path 1708" d="M565.077,322.993a.493.493,0,0,1-.464.493.464.464,0,0,1-.493-.434.493.493,0,0,1,.464-.493.464.464,0,0,1,.493.434Z" transform="translate(-545.257 -309.103)" fill="#263238"/>
      <path id="Path_1709" data-name="Path 1709" d="M564.722,321.218c-.059.064-.424-.207-.942-.207s-.9.261-.957.2.034-.138.2-.261a1.352,1.352,0,0,1,.764-.237,1.293,1.293,0,0,1,.755.247C564.7,321.075,564.752,321.188,564.722,321.218Z" transform="translate(-544.592 -308.166)" fill="#263238"/>
      <path id="Path_1710" data-name="Path 1710" d="M554.8,322.993a.493.493,0,0,1-.464.493.464.464,0,0,1-.493-.434.493.493,0,0,1,.464-.493.464.464,0,0,1,.493.434Z" transform="translate(-540.047 -309.103)" fill="#263238"/>
      <path id="Path_1711" data-name="Path 1711" d="M554.38,321.418c-.059.059-.424-.207-.942-.207s-.9.261-.957.2.034-.143.2-.261a1.3,1.3,0,0,1,.765-.237,1.287,1.287,0,0,1,.75.242C554.356,321.275,554.41,321.388,554.38,321.418Z" transform="translate(-539.35 -308.267)" fill="#263238"/>
      <path id="Path_1712" data-name="Path 1712" d="M559.927,325.3a3.222,3.222,0,0,1,.843-.153c.133,0,.257-.04.281-.133a.681.681,0,0,0-.089-.39c-.128-.321-.256-.656-.395-1.011a17.048,17.048,0,0,1-.878-2.639,17.352,17.352,0,0,1,1.09,2.565c.128.355.257.69.375,1.011a.773.773,0,0,1,.069.523.335.335,0,0,1-.217.192.82.82,0,0,1-.227.03A3.421,3.421,0,0,1,559.927,325.3Z" transform="translate(-543.012 -308.298)" fill="#263238"/>
      <path id="Path_1713" data-name="Path 1713" d="M555.726,340.8a9.579,9.579,0,0,1-5.036-1.342s1.223,2.58,4.982,2.229Z" transform="translate(-538.451 -317.668)" fill="#eb996e"/>
      <path id="Path_1714" data-name="Path 1714" d="M558.134,331.909a.928.928,0,0,0-.834-.345.863.863,0,0,0-.592.316.538.538,0,0,0-.039.617.626.626,0,0,0,.681.173,1.932,1.932,0,0,0,.661-.395.618.618,0,0,0,.148-.153.172.172,0,0,0,0-.192" transform="translate(-541.441 -313.663)" fill="#eb996e"/>
      <path id="Path_1715" data-name="Path 1715" d="M556.985,330.46c.089,0,.089.562.567.986s1.085.335,1.09.414-.138.109-.39.118a1.444,1.444,0,0,1-.907-.316,1.238,1.238,0,0,1-.439-.8C556.887,330.6,556.95,330.46,556.985,330.46Z" transform="translate(-541.6 -313.107)" fill="#263238"/>
      <path id="Path_1716" data-name="Path 1716" d="M554.376,319.7c-.054.138-.572.074-1.179.148s-1.1.237-1.184.108.049-.192.252-.325a1.974,1.974,0,0,1,.873-.311,2,2,0,0,1,.922.109C554.283,319.518,554.4,319.646,554.376,319.7Z" transform="translate(-539.109 -307.453)" fill="#00a0df"/>
      <path id="Path_1717" data-name="Path 1717" d="M564.462,318.157c-.089.118-.449,0-.878,0s-.794.079-.878-.044,0-.178.182-.291a1.232,1.232,0,0,1,.715-.192,1.217,1.217,0,0,1,.7.237C564.452,317.979,564.507,318.1,564.462,318.157Z" transform="translate(-544.524 -306.604)" fill="#00a0df"/>
      <path id="Path_1718" data-name="Path 1718" d="M542.477,324.472a.952.952,0,0,0-.987.049,1.741,1.741,0,0,0,1.1,3.236" transform="translate(-533.346 -310.015)" fill="#ffbe9d"/>
      <path id="Path_1719" data-name="Path 1719" d="M549.364,306.259a7.635,7.635,0,0,1,3.61,1.12,5.244,5.244,0,0,1,2.58,3.063,1.075,1.075,0,0,1-.03.848.834.834,0,0,1-1.031.222,2.418,2.418,0,0,1-.838-.774,1.608,1.608,0,0,1-3.122-.035,1.411,1.411,0,0,1-1.45,1.292,1.85,1.85,0,0,1-1.6-1.263,4.738,4.738,0,0,1-.661,1.835,1.608,1.608,0,0,1-1.7.7,3.347,3.347,0,0,1,0,1.682,1.149,1.149,0,0,1-1.327.774c-.523-.177-.725-.794-.843-1.332a12.416,12.416,0,0,1-.4-3.152,4.612,4.612,0,0,1,3.724-4.676,12.333,12.333,0,0,1,3.27-.3" transform="translate(-534.323 -300.837)" fill="#00a0df"/>
      <path id="Path_1720" data-name="Path 1720" d="M542.984,327.521c0-.025-.148.035-.331-.049a.656.656,0,0,1-.32-.641.666.666,0,0,1,.4-.607,2.161,2.161,0,0,1,.335-.064.426.426,0,0,0-.375-.064.672.672,0,0,0-.37.227.844.844,0,0,0-.187.493.75.75,0,0,0,.493.779A.328.328,0,0,0,542.984,327.521Z" transform="translate(-534.114 -310.888)" fill="#eb996e"/>
      <path id="Path_1721" data-name="Path 1721" d="M538.8,329.38a.5.5,0,0,0-.158.039A3.2,3.2,0,0,0,537,330.766a2.415,2.415,0,0,0-.336,1.129,2.649,2.649,0,0,0,.316,1.322,3.1,3.1,0,0,0,.986,1.115,2.781,2.781,0,0,0,1.534.493,2.915,2.915,0,0,0,2.54-1.588,2.468,2.468,0,0,0,.266-1.332,2.777,2.777,0,0,0-.365-1.12,2.682,2.682,0,0,0-1.243-1.134,1.792,1.792,0,0,0-.439-.133q-.158-.03-.163,0a3.026,3.026,0,0,1,.567.217,2.732,2.732,0,0,1,1.159,1.129,2.694,2.694,0,0,1,.321,1.07,2.355,2.355,0,0,1-.266,1.238,2.742,2.742,0,0,1-2.377,1.48,2.8,2.8,0,0,1-2.372-1.48,2.348,2.348,0,0,1,0-2.3,3.225,3.225,0,0,1,1.144-1.159A3.274,3.274,0,0,1,538.8,329.38Z" transform="translate(-531.345 -312.56)" fill="#263238"/>
      <path id="Path_1722" data-name="Path 1722" d="M542.709,302.1c-.039,0-.118-.33-.35-.819a4.513,4.513,0,0,0-3.191-2.515c-.533-.113-.878-.108-.878-.153a1.875,1.875,0,0,1,.908-.03,4.2,4.2,0,0,1,2.022.858,4.149,4.149,0,0,1,1.3,1.766A1.873,1.873,0,0,1,542.709,302.1Z" transform="translate(-532.167 -296.933)" fill="#e0e0e0"/>
      <path id="Path_1723" data-name="Path 1723" d="M529.49,320.794s-.064,0-.133-.123a.718.718,0,0,1-.089-.493,1.07,1.07,0,0,1,.464-.681,9,9,0,0,1,.932-.493,1.14,1.14,0,0,0,.651-.927,5.455,5.455,0,0,0-.257-1.415,2.824,2.824,0,0,1-.079-.829,1.381,1.381,0,0,1,.355-.819,3.4,3.4,0,0,1,1.583-.834,2.633,2.633,0,0,0,1.42-.819,2.125,2.125,0,0,0,.237-1.48,7.722,7.722,0,0,1-.1-1.48,4.1,4.1,0,0,1,1.425-2.782,2.526,2.526,0,0,1,.419-.291.572.572,0,0,1,.163-.079,5.188,5.188,0,0,0-.493.444,4.143,4.143,0,0,0-1.011,1.5,4.015,4.015,0,0,0-.271,1.218,8.014,8.014,0,0,0,.123,1.445,2.328,2.328,0,0,1-.261,1.657,2.821,2.821,0,0,1-1.549.917,3.209,3.209,0,0,0-1.48.76,1.524,1.524,0,0,0-.232,1.43,5.333,5.333,0,0,1,.237,1.48,1.281,1.281,0,0,1-.266.671,1.542,1.542,0,0,1-.493.4,7.371,7.371,0,0,0-.937.493.986.986,0,0,0-.449.587A.735.735,0,0,0,529.49,320.794Z" transform="translate(-527.589 -301.345)" fill="#e0e0e0"/>
      <path id="Path_1724" data-name="Path 1724" d="M552.146,310.245c-.039,0-.074-.4-.271-.986a5.257,5.257,0,0,0-1.272-2.086,5.342,5.342,0,0,0-2.086-1.263c-.6-.2-.986-.227-.986-.271a2.333,2.333,0,0,1,1.051.1,4.8,4.8,0,0,1,3.482,3.453A2.241,2.241,0,0,1,552.146,310.245Z" transform="translate(-536.85 -300.517)" fill="#e0e0e0"/>
      <path id="Path_1725" data-name="Path 1725" d="M555.038,308.109a9.4,9.4,0,0,0-.656-1.164,5.144,5.144,0,0,0-2.575-1.79,7.966,7.966,0,0,0-3.181-.257c-.824.089-1.327.2-1.337.163a4.388,4.388,0,0,1,1.312-.34,7.268,7.268,0,0,1,3.285.187,4.983,4.983,0,0,1,2.643,1.933,3.341,3.341,0,0,1,.439.9A.885.885,0,0,1,555.038,308.109Z" transform="translate(-536.728 -300.009)" fill="#e0e0e0"/>
      <path id="Path_1726" data-name="Path 1726" d="M545.625,303.85a1.817,1.817,0,0,1-.385.547,3.706,3.706,0,0,1-1.371.858,3.63,3.63,0,0,1-1.6.2,1.277,1.277,0,0,1-.646-.182,6.487,6.487,0,0,0,2.165-.261A6.61,6.61,0,0,0,545.625,303.85Z" transform="translate(-533.854 -299.622)" fill="#263238"/>
      <path id="Path_1727" data-name="Path 1727" d="M550.045,429.275c-9.031-2.989-2.841-14.935-2.841-14.935l39.457,3.714a5.706,5.706,0,0,1,5.756,5.711h0a5.707,5.707,0,0,1-5.7,5.7l-36.671-.2" transform="translate(-535.636 -355.616)" fill="#263238"/>
      <path id="Path_1728" data-name="Path 1728" d="M531.448,429.26c-8.8-2.959-2.733-14.93-2.733-14.93l38.471,3.63c3.758.049,5.593,1.864,5.593,5.7h0c0,3.152-1.174,5.81-5.578,5.721l-35.758-.118" transform="translate(-526.282 -355.611)" fill="#263238"/>
      <path id="Path_1729" data-name="Path 1729" d="M554.46,418.43h.429l1.233.049,4.523.232,14.93.819c.73.035,1.45.1,2.16.108s1.416.039,2.1.084,1.366.094,2.027.163a7.363,7.363,0,0,1,1.924.395,4.747,4.747,0,0,1,1.6,1.026,4.236,4.236,0,0,1,.987,1.559,7.648,7.648,0,0,1,.4,1.682,11.916,11.916,0,0,1,.1,1.593,6.784,6.784,0,0,1-.493,2.678,4.441,4.441,0,0,1-1.2,1.633,3.258,3.258,0,0,1-1.09.612c-.271.089-.276.059,0-.04a3.374,3.374,0,0,0,1.055-.636,4.468,4.468,0,0,0,1.144-1.618,6.732,6.732,0,0,0,.493-2.629,11.679,11.679,0,0,0-.118-1.569,7.671,7.671,0,0,0-.395-1.642,4.111,4.111,0,0,0-.942-1.48,4.36,4.36,0,0,0-1.544-.986,7.018,7.018,0,0,0-1.879-.38c-.656-.069-1.332-.118-2.017-.158s-1.386-.069-2.091-.079-1.435-.074-2.165-.109l-14.994-.883-4.528-.291-1.228-.089-.321-.029Z" transform="translate(-540.362 -357.689)" fill="#455a64"/>
      <path id="Path_1730" data-name="Path 1730" d="M553.656,381.936l-3.162-1.554-2.2-7.324-.212-9.371,4.469-1.884L549,352.9c-.646-1.317-1.973-4.8-5.307-5.948a4.018,4.018,0,0,1,.118-1.48c.261-.439-8.182-.7-8.661-.528s.079,1.716.025,1.973c-3,.829-5.918,2.067-7.018,6.195a22.511,22.511,0,0,0-.049,6.639l2.343,12.395-1.317,4.069s-4.612,9.608-2.861,13.361a8.367,8.367,0,0,0,4.72,4.6l22.974-.049Z" transform="translate(-525.876 -320.421)" fill="#00a0df"/>
      <g id="Group_718" data-name="Group 718" transform="translate(4.727 46.053)" opacity="0.3">
        <path id="Path_1731" data-name="Path 1731" d="M535.46,389.414a46.331,46.331,0,0,0,1.687,5.864,12.672,12.672,0,0,0,1.845,3.383,8.558,8.558,0,0,0,4.439,2.7,13.944,13.944,0,0,0,5.233.256l-8.7-4.932-2.313-8.035Z" transform="translate(-535.46 -388.65)"/>
      </g>
      <path id="Path_1732" data-name="Path 1732" d="M570.769,384.062a3.665,3.665,0,0,1-.064-.666c0-.464-.049-1.075-.089-1.81-.064-1.529-.138-3.645-.212-5.983s-.123-4.439-.148-5.983v-1.815a4.111,4.111,0,0,1,0-.666,3.935,3.935,0,0,1,.059.661c.025.464.054,1.075.089,1.815.064,1.529.143,3.645.212,5.983s.123,4.439.153,5.983V383.4A4.124,4.124,0,0,1,570.769,384.062Z" transform="translate(-548.36 -331.696)" fill="#263238"/>
      <path id="Path_1733" data-name="Path 1733" d="M542.2,368.642a.782.782,0,0,1-.158.069l-.493.178-1.894.666-6.935,2.392-.114.039-.025-.118c-.468-2.52-1.021-5.47-1.618-8.661h0a34.708,34.708,0,0,1-.276-4.932,4.467,4.467,0,0,1,.34-1.208,5.436,5.436,0,0,1,.572-1.09,4.625,4.625,0,0,1,1.825-1.559,4,4,0,0,1,4.33.469,5.425,5.425,0,0,1,1.159,1.766,16.56,16.56,0,0,1,.676,1.854c.365,1.213.646,2.363.918,3.418l1.257,4.932c.143.567.252,1.011.331,1.337.035.138.059.252.084.34s0,.118,0,.113a.552.552,0,0,1-.044-.123q-.044-.143-.1-.355c-.094-.326-.217-.774-.38-1.342-.321-1.179-.779-2.851-1.342-4.9-.286-1.026-.567-2.17-.942-3.374a16.485,16.485,0,0,0-.681-1.825,5.163,5.163,0,0,0-1.1-1.682,3.768,3.768,0,0,0-4.064-.419,4.371,4.371,0,0,0-1.726,1.48,5.367,5.367,0,0,0-.547,1.041,4.3,4.3,0,0,0-.321,1.144,34.87,34.87,0,0,0,.271,4.9h0c.582,3.191,1.119,6.14,1.578,8.666l-.138-.079,6.9-2.274,1.938-.621.493-.163Z" transform="translate(-528.297 -325.03)" fill="#263238"/>
      <path id="Path_1734" data-name="Path 1734" d="M539.385,386.515a2.072,2.072,0,0,1-.409-.853c-.163-.493-.232-.912-.163-.932s.252.36.409.853S539.469,386.495,539.385,386.515Z" transform="translate(-532.418 -340.61)" fill="#263238"/>
      <path id="Path_1735" data-name="Path 1735" d="M544.15,385.285c-.069,0-.222-.355-.335-.834s-.158-.873-.089-.893.222.355.335.834S544.219,385.256,544.15,385.285Z" transform="translate(-534.905 -340.017)" fill="#263238"/>
      <path id="Path_1736" data-name="Path 1736" d="M548.774,383.924c-.069,0-.222-.286-.34-.681s-.158-.73-.089-.755.217.286.335.681S548.838,383.9,548.774,383.924Z" transform="translate(-537.245 -339.474)" fill="#263238"/>
      <path id="Path_1737" data-name="Path 1737" d="M573.609,379.852c-.059.035-.32-.291-.493-.769s-.2-.893-.138-.9.207.36.38.814S573.673,379.812,573.609,379.852Z" transform="translate(-549.73 -337.291)" fill="#263238"/>
      <path id="Path_1738" data-name="Path 1738" d="M577.036,378.168c-.064.035-.271-.251-.464-.631s-.3-.715-.232-.75.271.251.464.631S577.1,378.138,577.036,378.168Z" transform="translate(-551.441 -336.584)" fill="#263238"/>
      <path id="Path_1739" data-name="Path 1739" d="M547.052,347.367a.615.615,0,0,1,.044.222h-.133a8.467,8.467,0,0,1-.158-1.174,4,4,0,0,1,0-1.406,3.8,3.8,0,0,1,.246,1.386,8.739,8.739,0,0,1,.034,1.184h-.133C547,347.441,547.028,347.363,547.052,347.367Z" transform="translate(-536.451 -320.481)" fill="#263238"/>
      <path id="Path_1740" data-name="Path 1740" d="M551.266,347.423a2.8,2.8,0,0,1-.212-1.144,2.584,2.584,0,0,1,.045-1.159,2.8,2.8,0,0,1,.212,1.144A2.586,2.586,0,0,1,551.266,347.423Z" transform="translate(-538.612 -320.537)" fill="#263238"/>
      <path id="Path_1741" data-name="Path 1741" d="M555.718,347.887a3.738,3.738,0,0,1-.148-1.381,3.921,3.921,0,0,1,.109-1.386,3.733,3.733,0,0,1,.148,1.381,3.92,3.92,0,0,1-.108,1.386Z" transform="translate(-540.914 -320.537)" fill="#263238"/>
      <path id="Path_1742" data-name="Path 1742" d="M559.3,347.712a2.855,2.855,0,0,1-.128-1.179,2.885,2.885,0,0,1,.128-1.184,2.749,2.749,0,0,1,.133,1.184A2.72,2.72,0,0,1,559.3,347.712Z" transform="translate(-542.744 -320.653)" fill="#263238"/>
      <path id="Path_1743" data-name="Path 1743" d="M562.867,419.19c0,.069-4.286-.163-9.563-.523s-9.548-.71-9.544-.779,4.286.163,9.563.523S562.872,419.121,562.867,419.19Z" transform="translate(-534.939 -357.408)" fill="#263238"/>
      <path id="Path_1744" data-name="Path 1744" d="M537.53,387.016l2.116,6.9a7.151,7.151,0,0,0,5.514,5l13.149,2.5,3.576-.118-1.213-3.053-12.247-4.843a2.668,2.668,0,0,1-1.973-1.919l-1.85-6.93Z" transform="translate(-531.782 -340.524)" fill="#ffbe9d"/>
      <path id="Path_1745" data-name="Path 1745" d="M561.1,404.8l.114-.853,10.1-.395,4.957-12.5,18.885,1.282-6.372,13.879Z" transform="translate(-543.727 -343.813)" fill="#455a64"/>
      <path id="Path_1746" data-name="Path 1746" d="M605.06,405.934a.986.986,0,1,1-.306-1.361A.986.986,0,0,1,605.06,405.934Z" transform="translate(-565.083 -350.589)" fill="#fff"/>
    </g>
    <g id="freepik--character-1--inject-4" transform="translate(106.932 87.672)">
      <path id="Path_1747" data-name="Path 1747" d="M238.109,221.063c8.232-2.989,4-15.4,4-15.4l-41.775,3.827a5.889,5.889,0,0,0-5.919,5.889h0a5.889,5.889,0,0,0,5.889,5.889l37.81-.2" transform="translate(-179.987 -147.466)" fill="#263238"/>
      <path id="Path_1748" data-name="Path 1748" d="M169.491,299.429l-.084-4.143,7.946-2.826.33,5.771-.449.217c-1.973.942-10.21,4.651-11.743,4.794C163.78,303.395,169.491,299.429,169.491,299.429Z" transform="translate(-165.164 -191.455)" fill="#00a0df"/>
      <g id="Group_719" data-name="Group 719" transform="translate(0 106.613)" opacity="0.4">
        <path id="Path_1749" data-name="Path 1749" d="M166.737,307.238s-1.943,1.529-1.519,1.78,8.878-3.186,12.459-5.026l-.079-.163-9.815,4.094S167.176,307.08,166.737,307.238Z" transform="translate(-165.157 -303.83)" fill="#fff"/>
      </g>
      <path id="Path_1750" data-name="Path 1750" d="M177.738,303.73l-.123.064-.355.173-1.3.6c-1.12.493-2.673,1.179-4.4,1.884s-3.319,1.317-4.469,1.736l-1.366.493-.375.128-.133.035.128-.054.365-.143,1.356-.523c1.144-.439,2.723-1.051,4.439-1.761s3.29-1.371,4.439-1.855l1.332-.577.36-.153A.546.546,0,0,1,177.738,303.73Z" transform="translate(-165.184 -197.166)" fill="#263238"/>
      <path id="Path_1751" data-name="Path 1751" d="M169.384,311.468a3.829,3.829,0,0,0-.493-.538,3.392,3.392,0,0,0-.671-.33,1.307,1.307,0,0,1,1.184.868Z" transform="translate(-166.709 -200.648)" fill="#263238"/>
      <path id="Path_1752" data-name="Path 1752" d="M173.429,307.844a1.768,1.768,0,0,1-.35-.187c-.178-.123-.311-.247-.291-.271s.168.064.345.192S173.444,307.82,173.429,307.844Z" transform="translate(-169.023 -199.017)" fill="#263238"/>
      <path id="Path_1753" data-name="Path 1753" d="M174.351,306.937c0,.025-.158,0-.33-.069s-.311-.133-.3-.158.158,0,.33.069S174.38,306.913,174.351,306.937Z" transform="translate(-169.496 -198.672)" fill="#263238"/>
      <path id="Path_1754" data-name="Path 1754" d="M174.439,305.45a1.037,1.037,0,0,1-.365.207.986.986,0,0,1-.4.118,1.035,1.035,0,0,1,.365-.207A.985.985,0,0,1,174.439,305.45Z" transform="translate(-169.471 -198.038)" fill="#263238"/>
      <path id="Path_1755" data-name="Path 1755" d="M174.218,304.35a.854.854,0,0,1-.38.3.779.779,0,0,1-.469.118,2.843,2.843,0,0,1,.424-.207A2.619,2.619,0,0,1,174.218,304.35Z" transform="translate(-169.319 -197.481)" fill="#263238"/>
      <path id="Path_1756" data-name="Path 1756" d="M171.363,306.858a1.478,1.478,0,0,1-.493.187,2.678,2.678,0,0,1-.552.094,1.522,1.522,0,0,1-.335,0,.272.272,0,0,1-.182-.1.222.222,0,0,1,0-.222.947.947,0,0,1,1.184-.182.936.936,0,0,1,.286.256c.049.074.069.118.064.123a1.358,1.358,0,0,0-.385-.321.922.922,0,0,0-.493-.1.794.794,0,0,0-.548.271c-.054.089,0,.163.113.177a1.338,1.338,0,0,0,.316,0,3.849,3.849,0,0,0,.543-.069C171.2,306.917,171.363,306.843,171.363,306.858Z" transform="translate(-167.495 -198.573)" fill="#263238"/>
      <path id="Path_1757" data-name="Path 1757" d="M172.592,306.222a.538.538,0,0,1-.187-.311.824.824,0,0,1,0-.4.493.493,0,0,1,.3-.4.207.207,0,0,1,.237.163.6.6,0,0,1,0,.247,1.7,1.7,0,0,1-.109.375.756.756,0,0,1-.192.306,3.142,3.142,0,0,0,.128-.33,1.6,1.6,0,0,0,.084-.365c.025-.128,0-.325-.133-.3s-.2.2-.232.326a.833.833,0,0,0,0,.365A1.971,1.971,0,0,0,172.592,306.222Z" transform="translate(-168.818 -197.863)" fill="#263238"/>
      <path id="Path_1758" data-name="Path 1758" d="M186.653,299.75a2.981,2.981,0,0,0-.538.242,2.5,2.5,0,0,0-1.307,2.333,3.14,3.14,0,0,0,.074.587.668.668,0,0,1-.064-.153,2.1,2.1,0,0,1-.079-.429,2.417,2.417,0,0,1,1.346-2.4,1.862,1.862,0,0,1,.409-.158A.492.492,0,0,1,186.653,299.75Z" transform="translate(-175.076 -195.149)" fill="#263238"/>
      <path id="Path_1759" data-name="Path 1759" d="M184.54,294.14a14,14,0,0,1,.681,1.48,13.082,13.082,0,0,1,.592,1.529,13.624,13.624,0,0,1-.681-1.48A14.527,14.527,0,0,1,184.54,294.14Z" transform="translate(-174.98 -192.306)" fill="#263238"/>
      <path id="Path_1760" data-name="Path 1760" d="M180.355,305.558a4.854,4.854,0,0,1-1.036.548,4.653,4.653,0,0,1-1.12.35c0-.025.493-.192,1.08-.444S180.341,305.533,180.355,305.558Z" transform="translate(-171.767 -198.092)" fill="#263238"/>
      <path id="Path_1761" data-name="Path 1761" d="M185.424,304.358c.025,0,0,.118,0,.247v.252a.374.374,0,0,1-.084-.256C185.345,304.447,185.4,304.344,185.424,304.358Z" transform="translate(-175.385 -197.484)" fill="#263238"/>
      <path id="Path_1762" data-name="Path 1762" d="M185.873,302.529a.787.787,0,0,1-.034.212c-.035.108-.1.192-.128.182s0-.109.039-.217S185.848,302.519,185.873,302.529Z" transform="translate(-175.568 -196.557)" fill="#263238"/>
      <path id="Path_1763" data-name="Path 1763" d="M187,301.237c0,.03-.094.069-.187.148s-.148.173-.173.163,0-.133.109-.232S187,301.212,187,301.237Z" transform="translate(-176.04 -195.897)" fill="#263238"/>
      <path id="Path_1764" data-name="Path 1764" d="M188.192,300.492a.168.168,0,0,1-.064.123c-.064.049-.109.069-.123.049s0-.074.059-.123S188.172,300.472,188.192,300.492Z" transform="translate(-176.733 -195.522)" fill="#263238"/>
      <path id="Path_1765" data-name="Path 1765" d="M202.37,212.28l-23.329.439a7.487,7.487,0,0,0-7.295,6.575l-4.626,37.6h12.671l3.867-32.473h18.422Z" transform="translate(-166.152 -150.821)" fill="#263238"/>
      <path id="Path_1766" data-name="Path 1766" d="M167.44,297.8c0,.059,2.777.128,6.2.148s6.141-.064,6.2-.069c.395-.039-2.777-.128-6.2-.148S167.44,297.744,167.44,297.8Z" transform="translate(-166.314 -194.125)" fill="#455a64"/>
      <path id="Path_1767" data-name="Path 1767" d="M229.144,209.88h-.459l-1.322.059-4.824.227-15.891.819c-.779.035-1.544.1-2.3.108s-1.509.044-2.244.084-1.45.094-2.155.168a7.922,7.922,0,0,0-2.052.4,4.967,4.967,0,0,0-1.7,1.031,4.266,4.266,0,0,0-1.036,1.573,7.548,7.548,0,0,0-.419,1.7,10.766,10.766,0,0,0-.113,1.608,6.469,6.469,0,0,0,.543,2.7A4.395,4.395,0,0,0,196.444,222a3.552,3.552,0,0,0,1.159.621c.291.084.3.059,0-.039a3.728,3.728,0,0,1-1.125-.646,4.438,4.438,0,0,1-1.218-1.628,6.455,6.455,0,0,1-.493-2.658,11.185,11.185,0,0,1,.123-1.583,7.658,7.658,0,0,1,.424-1.657,4.119,4.119,0,0,1,.986-1.48,4.839,4.839,0,0,1,1.647-.986,8.189,8.189,0,0,1,2-.38c.7-.069,1.42-.118,2.15-.158s1.48-.069,2.229-.079,1.524-.074,2.3-.109l15.906-.888,4.824-.3,1.307-.089.34-.03A.37.37,0,0,0,229.144,209.88Z" transform="translate(-180.093 -149.605)" fill="#455a64"/>
      <path id="Path_1768" data-name="Path 1768" d="M227.677,173.192l-2.027,6.353a7.334,7.334,0,0,1-5.7,5.1l-11.778,3.265-.917-2.18-.858-3.221,10.19-3.453a2.727,2.727,0,0,0,2.057-1.973l4.059-8.829,5.139,3.152Z" transform="translate(-186.058 -128.512)" fill="#b78876"/>
      <path id="Path_1769" data-name="Path 1769" d="M246.733,137.468c-4.316.493-5.707,2.259-7.467,4.809a14.432,14.432,0,0,0-1.746,3.418l-3.27,9.263,6.821,2.106-.227,7.531-3.107,9.208,26.2,2.062-.074-13.381-.187-8.074c.247-3.058.883-9.539.34-11.078-2.333-6.575-7.477-5.312-11.25-6.249a25.411,25.411,0,0,0-5.2,0" transform="translate(-200.172 -112.645)" fill="#00a0df"/>
      <path id="Path_1770" data-name="Path 1770" d="M270.91,186.868c0,.069-5.125.128-11.448.128S248,186.952,248,186.868s5.125-.128,11.448-.128S270.91,186.809,270.91,186.868Z" transform="translate(-207.141 -137.878)" fill="#fafafa"/>
      <path id="Path_1771" data-name="Path 1771" d="M270.145,196.168c0,.074-5.125.128-11.448.128s-11.448-.054-11.448-.128,5.125-.128,11.448-.128S270.145,196.1,270.145,196.168Z" transform="translate(-206.76 -142.591)" fill="#fafafa"/>
      <path id="Path_1772" data-name="Path 1772" d="M269.042,206.808c0,.074-5.425.128-12.1.128s-12.108-.054-12.108-.128,5.425-.128,12.108-.128S269.042,206.739,269.042,206.808Z" transform="translate(-205.534 -147.983)" fill="#fafafa"/>
      <g id="Group_720" data-name="Group 720" transform="translate(41.205 45.469)" opacity="0.3">
        <path id="Path_1773" data-name="Path 1773" d="M267.822,180.472a37.362,37.362,0,0,1-1.095,5.386,13.043,13.043,0,0,1-1.751,3.566,8.819,8.819,0,0,1-4.439,2.959c-1.731.538-10.052,2.4-11.837,2.259l15.221-7.206,1.835-7.576Z" transform="translate(-248.7 -179.86)"/>
      </g>
      <path id="Path_1774" data-name="Path 1774" d="M260.726,179.106l-1.672,6.441a7.4,7.4,0,0,1-5.475,5.425l-13.435,3.147-3.694.039v-5.085l13.524-3.655a2.752,2.752,0,0,0,1.973-2.062l1.3-5.667Z" transform="translate(-201.287 -133.291)" fill="#b78876"/>
      <path id="Path_1775" data-name="Path 1775" d="M268.793,149c0,.069-5.647.128-12.617.128s-12.616-.059-12.616-.128,5.647-.128,12.616-.128S268.793,148.934,268.793,149Z" transform="translate(-204.89 -118.686)" fill="#fafafa"/>
      <path id="Path_1776" data-name="Path 1776" d="M267.056,157.868c0,.074-6.086.128-13.6.128s-13.6-.054-13.6-.128,6.086-.128,13.6-.128S267.056,157.789,267.056,157.868Z" transform="translate(-203.015 -123.181)" fill="#fafafa"/>
      <path id="Path_1777" data-name="Path 1777" d="M264.936,167.5c0,.074-6.412.182-14.3.242s-14.3.054-14.3,0,6.412-.178,14.3-.242S264.932,167.43,264.936,167.5Z" transform="translate(-201.226 -128.101)" fill="#fafafa"/>
      <path id="Path_1778" data-name="Path 1778" d="M270.4,177.558c0,.069-5.124.128-11.447.128s-11.448-.059-11.448-.128,5.125-.128,11.448-.128S270.4,177.489,270.4,177.558Z" transform="translate(-206.887 -133.16)" fill="#fafafa"/>
      <path id="Path_1779" data-name="Path 1779" d="M279.186,161.665a.261.261,0,0,1,0-.108l.044-.311c.044-.291.109-.691.183-1.194.163-1.046.4-2.56.661-4.439s.562-4.178.715-6.752a7.687,7.687,0,0,0-.493-3.946,4.182,4.182,0,0,0-1.386-1.568,4.931,4.931,0,0,0-2.027-.784h-.03a4.192,4.192,0,0,0-2.5.173,7.107,7.107,0,0,0-2.308,1.253,1.8,1.8,0,0,0-.355.4,5.034,5.034,0,0,0-.261.493,7.664,7.664,0,0,0-.38,1.036,20.256,20.256,0,0,0-.454,2.145c-.256,1.425-.493,2.816-.745,4.153-.493,2.673-.922,5.139-1.317,7.324l-.074-.113,7.6,1.593,2.086.464.547.128a.932.932,0,0,1,.182.054l-.192-.025-.548-.1-2.1-.409-7.615-1.539h-.089v-.1c.385-2.185.814-4.656,1.282-7.334.237-1.337.493-2.727.735-4.158a19.271,19.271,0,0,1,.459-2.165,7.2,7.2,0,0,1,.39-1.075q.126-.253.276-.493a2.2,2.2,0,0,1,.4-.454,7.4,7.4,0,0,1,2.4-1.307,4.439,4.439,0,0,1,2.654-.163H276.9a5.164,5.164,0,0,1,2.141.834,4.439,4.439,0,0,1,1.48,1.662,5.251,5.251,0,0,1,.385,1.011,6.307,6.307,0,0,1,.153,1.041l.03.493v.493c0,.335-.025.661-.044.986-.168,2.589-.493,4.868-.769,6.767s-.547,3.408-.735,4.439c-.094.493-.173.9-.227,1.189l-.064.306A.627.627,0,0,1,279.186,161.665Z" transform="translate(-217.443 -115.314)" fill="#263238"/>
      <path id="Path_1780" data-name="Path 1780" d="M247.663,174.85a4.492,4.492,0,0,0,.035-.686V172.29c0-1.578,0-3.758-.044-6.17s-.064-4.592-.1-6.17c-.025-.764-.044-1.391-.059-1.874a4.577,4.577,0,0,0-.049-.686,3.8,3.8,0,0,0-.035.686v1.874c0,1.578,0,3.763.044,6.17s.069,4.6.108,6.175c0,.76.044,1.391.059,1.869A3.8,3.8,0,0,0,247.663,174.85Z" transform="translate(-206.838 -123.004)" fill="#263238"/>
      <path id="Path_1781" data-name="Path 1781" d="M228.537,197.788l.232-1.1L218.594,195.6l-4.439-12.75-20.725-.143,6.792,14.787Z" transform="translate(-179.485 -135.835)" fill="#455a64"/>
      <path id="Path_1782" data-name="Path 1782" d="M218.748,197.306a1.021,1.021,0,1,0-.771.135,1.021,1.021,0,0,0,.771-.135" transform="translate(-191.521 -142.278)" fill="#fff"/>
      <path id="Path_1783" data-name="Path 1783" d="M246.611,95.324a2.752,2.752,0,0,0-.986,5.08,1.479,1.479,0,0,0,1.386.158,1.7,1.7,0,0,0,.75-1.085,5.81,5.81,0,0,0-.33-4.237" transform="translate(-205.258 -91.507)" fill="#263238"/>
      <path id="Path_1784" data-name="Path 1784" d="M257.675,121.654h0a4.439,4.439,0,0,1-4.439-4.473c0-1.534.039-2.866.039-2.866a4.232,4.232,0,0,1-3.813-3.847c-.261-3.517-.148-11.635-.148-11.635h0a12.271,12.271,0,0,1,12.385.789l.543.37-.168,17.263A4.439,4.439,0,0,1,257.675,121.654Z" transform="translate(-207.794 -92.663)" fill="#b78876"/>
      <path id="Path_1785" data-name="Path 1785" d="M257.39,129.838a8.183,8.183,0,0,0,4.508-1.588,4.331,4.331,0,0,1-4.439,2.5Z" transform="translate(-211.899 -108.236)" fill="#aa6550"/>
      <path id="Path_1786" data-name="Path 1786" d="M273.04,110.4c.069,0,2.229-.306,2.022,2.249s-2.713,1.48-2.713,1.425S273.04,110.4,273.04,110.4Z" transform="translate(-219.481 -99.183)" fill="#b78876"/>
      <path id="Path_1787" data-name="Path 1787" d="M274.077,114.134a1.315,1.315,0,0,0,.118.079.439.439,0,0,0,.33.03,1.1,1.1,0,0,0,.587-.942,1.48,1.48,0,0,0-.074-.651.493.493,0,0,0-.306-.365.222.222,0,0,0-.271.1c-.039.069-.03.123-.044.128s-.049-.049,0-.153a.291.291,0,0,1,.113-.153.33.33,0,0,1,.251-.044.621.621,0,0,1,.429.434,1.44,1.44,0,0,1,.1.72,1.159,1.159,0,0,1-.735,1.051.493.493,0,0,1-.4-.1C274.077,114.2,274.067,114.139,274.077,114.134Z" transform="translate(-220.354 -100.079)" fill="#aa6550"/>
      <path id="Path_1788" data-name="Path 1788" d="M250.132,95.3a10.041,10.041,0,0,0,1.657-1.2,2.688,2.688,0,0,0,4.138.493,1.381,1.381,0,0,0,.7,1.11,1.366,1.366,0,0,0,1.307,0l.054,4.069a1.859,1.859,0,0,0,.257,1.125.646.646,0,0,0,.986.084,2.816,2.816,0,0,1,.138-1.48.987.987,0,0,1,1.228-.547,10.115,10.115,0,0,0,.143-2.407,2.134,2.134,0,0,1,.1-.735c.138-.227.2-.054.464-.108a1.82,1.82,0,0,0,1.371-1.642,2.294,2.294,0,0,0-.987-1.973,3.142,3.142,0,0,0-2.18-.523,1.386,1.386,0,0,0,0-1.854,2.264,2.264,0,0,0-1.854-.681c-.686.044-1.455.424-1.539,1.1a2.811,2.811,0,0,0-5.554-.153,3.756,3.756,0,0,0-2.782-.395,2.688,2.688,0,0,0-1.692,2.343s-.207,2.792,1.563,3.354S250.132,95.3,250.132,95.3Z" transform="translate(-206.165 -87.672)" fill="#263238"/>
      <path id="Path_1789" data-name="Path 1789" d="M251.26,111.144a.495.495,0,1,0,.493-.444A.493.493,0,0,0,251.26,111.144Z" transform="translate(-208.793 -99.342)" fill="#263238"/>
      <path id="Path_1790" data-name="Path 1790" d="M251,109.938c.059.064.434-.212.986-.207s.917.266.986.2-.035-.148-.2-.271a1.371,1.371,0,0,0-.784-.242,1.307,1.307,0,0,0-.769.252A.478.478,0,0,0,251,109.938Z" transform="translate(-208.661 -98.693)" fill="#263238"/>
      <path id="Path_1791" data-name="Path 1791" d="M261.8,111.394a.495.495,0,1,0,.493-.444A.493.493,0,0,0,261.8,111.394Z" transform="translate(-214.134 -99.469)" fill="#263238"/>
      <path id="Path_1792" data-name="Path 1792" d="M261.612,110.138c.059.069.434-.212.986-.207s.917.266.986.2-.034-.148-.2-.271a1.371,1.371,0,0,0-.784-.242,1.307,1.307,0,0,0-.769.252C261.637,109.995,261.583,110.113,261.612,110.138Z" transform="translate(-214.035 -98.795)" fill="#263238"/>
      <path id="Path_1793" data-name="Path 1793" d="M256.328,114.114a3.452,3.452,0,0,0-.858-.158c-.138,0-.266-.039-.291-.133a.681.681,0,0,1,.094-.4l.4-1.036a17.974,17.974,0,0,0,.9-2.7,17.643,17.643,0,0,0-1.12,2.619c-.133.365-.261.71-.38,1.041a.77.77,0,0,0-.074.533.36.36,0,0,0,.222.2.847.847,0,0,0,.232.03A3.577,3.577,0,0,0,256.328,114.114Z" transform="translate(-210.679 -98.83)" fill="#263238"/>
      <path id="Path_1794" data-name="Path 1794" d="M259.142,119.4c-.084,0-.089.572-.582.986s-1.1.345-1.11.424.138.113.395.118a1.411,1.411,0,0,0,.927-.321,1.262,1.262,0,0,0,.454-.824C259.245,119.538,259.2,119.395,259.142,119.4Z" transform="translate(-211.93 -103.751)" fill="#263238"/>
      <path id="Path_1795" data-name="Path 1795" d="M261.338,106.048c.054.143.582.074,1.2.148s1.129.247,1.213.118-.054-.2-.256-.34a2.017,2.017,0,0,0-.9-.311,1.973,1.973,0,0,0-.942.109C261.431,105.866,261.318,105.979,261.338,106.048Z" transform="translate(-213.899 -96.781)" fill="#263238"/>
      <path id="Path_1796" data-name="Path 1796" d="M251.425,106.807c.094.118.459,0,.9,0s.809.079.9-.044,0-.182-.182-.3a1.307,1.307,0,0,0-1.45.044C251.434,106.629,251.38,106.748,251.425,106.807Z" transform="translate(-208.868 -97.096)" fill="#263238"/>
      <path id="Path_1797" data-name="Path 1797" d="M251.042,93.439a.384.384,0,0,1-.138-.039.454.454,0,0,0-.365.094.493.493,0,0,0-.163.533.868.868,0,0,0,.528.577,1.129,1.129,0,0,0,.947-.059,1.174,1.174,0,0,0,.572-.912,1.312,1.312,0,0,0-.444-1.115,1.558,1.558,0,0,0-1.243-.4,2.027,2.027,0,0,0-1.208.6,2.259,2.259,0,0,0-.577,1.129,3.053,3.053,0,0,0,.36,2.145,3.556,3.556,0,0,0,.986,1.125c.291.207.493.3.493.316a1.607,1.607,0,0,1-.523-.232,3.364,3.364,0,0,1-1.11-1.115,3.2,3.2,0,0,1-.434-2.284,2.466,2.466,0,0,1,.631-1.263,2.219,2.219,0,0,1,1.356-.676,1.81,1.81,0,0,1,1.445.464,1.549,1.549,0,0,1,.493,1.327,1.386,1.386,0,0,1-.705,1.075,1.327,1.327,0,0,1-1.125.039.986.986,0,0,1-.592-.71.607.607,0,0,1,.247-.651.493.493,0,0,1,.434-.064C251.018,93.4,251.047,93.435,251.042,93.439Z" transform="translate(-207.48 -89.79)" fill="#455a64"/>
    </g>
  </g>
</svg>
