<svg xmlns="http://www.w3.org/2000/svg" width="621" height="107" viewBox="0 0 621 107">
  <defs>
    <style>
      .cls-1 {
        fill: #00aef0;
      }

      .cls-1, .cls-2 {
        fill-rule: evenodd;
      }
    </style>
  </defs>
  <path id="MITULSAVANI" class="cls-1" d="M1.572,67H15.389V45L1.572,31.206V67ZM57.135,1.483L31.071,27.548,18.152,14.626,5.009,1.483H1.572V17.591L15.389,31.408l6.382,6.379,9.3,9.3L32.9,45.256l2.527-2.524,0.76-.76,2.824-2.821,7.328-7.329V67H60.155V1.483h-3.02ZM70.1,1.826V67H83.912V1.826H70.1ZM129.465,67V25.409H115.648V67h13.817ZM93.723,1.958V15.775h21.925v0h13.817v0h22.849V1.958H93.723ZM206.9,1.926V37.579a15.6,15.6,0,0,1-14.9,15.6c-0.184.006-.369,0.009-0.556,0.009s-0.388,0-.581-0.009a15.615,15.615,0,0,1-14.9-15.6V1.926H162.147V42.573a20.488,20.488,0,0,0,5.4,13.978,32.558,32.558,0,0,0,47.745.058A20.458,20.458,0,0,0,220.713,42.6V1.926H206.9Zm35.327,51.257V1.483H228.406V67h51.77V53.183H242.223Zm84.051-25.63H307.6a5.907,5.907,0,1,1,0-11.813h21.623a5.312,5.312,0,0,1,3.586,5.02h13.529A18.815,18.815,0,0,0,327.5,1.923H307.6a19.723,19.723,0,0,0,0,39.447h18.678a5.907,5.907,0,1,1,0,11.813H304.988a5.313,5.313,0,0,1-3.587-5.02H287.872A18.819,18.819,0,0,0,306.706,67h19.568A19.723,19.723,0,1,0,326.274,27.553Zm22.3,35.6L346.45,67h17.332l0.74-1.336,14.084-25.452-8.693-15.6Zm71.046,0-27.553-49.78L386.412,3.153,385.77,1.722h-3.318l-0.665,1.436L376.13,13.374l-0.693,1.255-0.029.052,8.693,15.6,0.253,0.458,6.356,11.479,12.97,23.442L404.42,67h17.331Zm1.845-60.33-0.49-.884H403.651l1.877,3.391,21.318,38.514,8.7-15.575Zm39.651-.884-0.49.884-15.1,27.282-2.858,5.161-1.627,2.939-0.008-.014-8.705,15.573L439.3,67h3.722L476.571,5.332l1.877-3.391H461.12Zm1.169,61.214L460.162,67h17.331l0.74-1.336,14.084-25.452-8.693-15.6Zm71.047,0-27.553-49.78L500.124,3.153l-0.642-1.431h-3.319L495.5,3.158l-5.656,10.216-0.694,1.255-0.029.052,8.693,15.6,0.254,0.458,6.355,11.479,12.971,23.442L518.132,67h17.331Zm10.019,3.759h13.817V45.034L543.355,31.221V66.914ZM582.249,1.837V36.946L546.786,1.483h-3.428V3.155l0,6.209V17.6l13.817,13.814,9.458,9.459,16.376,16.373L592.761,67h3.305V1.837H582.249Zm23.623-.011V67h13.817V1.826H605.872Z"/>
  <path id="front-end_developer" data-name="front-end developer" class="cls-2" d="M27.555,79.017h11.1v3.76h-11.1v-3.76Zm0,9.967H38.3v3.654H27.555V88.984Zm1.525-9.967v24.83H24.966V79.017H29.08ZM61.607,92l8.442,11.847H64.977L57.1,92h4.5ZM56.144,79.017v24.83H51.959V79.017h4.186Zm-1.7,0h5.179a10.766,10.766,0,0,1,4.718.958,7.481,7.481,0,0,1,3.1,2.678,7.29,7.29,0,0,1,1.117,4.061,7.192,7.192,0,0,1-4.221,6.775,10.766,10.766,0,0,1-4.718.958H54.442V90.971h5a6.1,6.1,0,0,0,2.518-.479,3.768,3.768,0,0,0,1.667-1.419,4.541,4.541,0,0,0,0-4.522,3.929,3.929,0,0,0-1.667-1.419,5.912,5.912,0,0,0-2.518-.5h-5V79.017ZM85.691,95.972a8.305,8.305,0,0,0,3,3.139,8.355,8.355,0,0,0,11.706-3.139,9.341,9.341,0,0,0,1.082-4.54,9.574,9.574,0,0,0-1.064-4.558,7.906,7.906,0,0,0-2.962-3.139A8.441,8.441,0,0,0,93.034,82.6a8.3,8.3,0,0,0-4.345,1.135,8.148,8.148,0,0,0-3,3.139,9.317,9.317,0,0,0-1.1,4.558A9.215,9.215,0,0,0,85.691,95.972Zm-4.576-9.684a11.958,11.958,0,0,1,2.714-4.061,12.812,12.812,0,0,1,4.115-2.7,13.908,13.908,0,0,1,10.233,0,12.873,12.873,0,0,1,4.1,2.7,11.958,11.958,0,0,1,2.713,4.061,13.45,13.45,0,0,1,.958,5.143,13.62,13.62,0,0,1-.958,5.143,12.176,12.176,0,0,1-2.7,4.115,12.486,12.486,0,0,1-4.079,2.713,14.086,14.086,0,0,1-10.3,0,12.442,12.442,0,0,1-4.1-2.713,12.185,12.185,0,0,1-2.7-4.115,13.632,13.632,0,0,1-.958-5.143A13.462,13.462,0,0,1,81.115,86.289Zm59.7-7.272v26.071L122.687,87.175v16.672h-4.115V77.776L136.7,95.688V79.017h4.115Zm11.563,0h17.31v3.866h-6.563v20.964h-4.185V82.883h-6.562V79.017Zm26.36,10.337h10.388V94.27H178.736V89.354Zm28.158,10.8h12.522v3.689H206.894v-3.689Zm0-21.141h12.522v3.689H206.894V79.017Zm0,9.719h11.812v3.618H206.894V88.736Zm1.526-9.719v24.83h-4.115V79.017h4.115Zm46.892,0v26.071L237.186,87.175v16.672h-4.114V77.776L251.2,95.688V79.017h4.115Zm18.338,0v24.83h-4.292V79.017h4.292Zm-1.7,24.83V99.91h5.32a10.173,10.173,0,0,0,3.405-.55,7.88,7.88,0,0,0,2.714-1.6,7.213,7.213,0,0,0,1.809-2.643,10.7,10.7,0,0,0,0-7.378,7.388,7.388,0,0,0-1.809-2.66,7.531,7.531,0,0,0-2.714-1.6,10.491,10.491,0,0,0-3.405-.532h-5.32V79.017h5.427a13.879,13.879,0,0,1,6.668,1.543,11.21,11.21,0,0,1,4.487,4.327,14.075,14.075,0,0,1,0,13.089,11.209,11.209,0,0,1-4.487,4.328,13.887,13.887,0,0,1-6.668,1.543h-5.427Zm62.443-24.83v24.83H330.1V79.017h4.292Zm-1.7,24.83V99.91h5.321a10.177,10.177,0,0,0,3.4-.55,7.875,7.875,0,0,0,2.713-1.6,7.213,7.213,0,0,0,1.809-2.643,10.7,10.7,0,0,0,0-7.378,7.388,7.388,0,0,0-1.809-2.66,7.527,7.527,0,0,0-2.713-1.6,10.5,10.5,0,0,0-3.4-.532h-5.321V79.017h5.427a13.879,13.879,0,0,1,6.668,1.543,11.219,11.219,0,0,1,4.488,4.327,14.083,14.083,0,0,1,0,13.089,11.218,11.218,0,0,1-4.488,4.328,13.887,13.887,0,0,1-6.668,1.543h-5.427Zm33.378-3.689h12.521v3.689H366.066v-3.689Zm0-21.141h12.521v3.689H366.066V79.017Zm0,9.719h11.811v3.618H366.066V88.736Zm1.525-9.719v24.83h-4.115V79.017h4.115Zm41.43,0h4.859L401.714,105.23,389.583,79.017h4.824l7.307,17.452Zm18.8,21.141h12.521v3.689H427.82v-3.689Zm0-21.141h12.521v3.689H427.82V79.017Zm0,9.719h11.812v3.618H427.82V88.736Zm1.525-9.719v24.83h-4.114V79.017h4.114Zm28.838,0v21.07h9.861v3.76H454V79.017h4.185Zm24.439,16.955a8.309,8.309,0,0,0,3,3.139,8.355,8.355,0,0,0,11.706-3.139,9.341,9.341,0,0,0,1.082-4.54,9.574,9.574,0,0,0-1.064-4.558,7.911,7.911,0,0,0-2.962-3.139,8.444,8.444,0,0,0-4.416-1.135,8.3,8.3,0,0,0-4.346,1.135,8.152,8.152,0,0,0-3,3.139,9.32,9.32,0,0,0-1.1,4.558A9.218,9.218,0,0,0,482.622,95.972Zm-4.576-9.684a11.961,11.961,0,0,1,2.714-4.061,12.813,12.813,0,0,1,4.114-2.7,13.909,13.909,0,0,1,10.234,0,12.869,12.869,0,0,1,4.1,2.7,11.958,11.958,0,0,1,2.713,4.061,13.45,13.45,0,0,1,.958,5.143,13.62,13.62,0,0,1-.958,5.143,12.176,12.176,0,0,1-2.7,4.115,12.485,12.485,0,0,1-4.079,2.713,14.086,14.086,0,0,1-10.3,0,12.437,12.437,0,0,1-4.1-2.713,12.191,12.191,0,0,1-2.7-4.115,13.639,13.639,0,0,1-.957-5.143A13.469,13.469,0,0,1,478.046,86.289Zm41.643-7.272v24.83H515.5V79.017h4.186Zm-1.7,0h5a10.942,10.942,0,0,1,4.717.94,7.1,7.1,0,0,1,4.221,6.757,7.44,7.44,0,0,1-1.117,4.115,7.313,7.313,0,0,1-3.1,2.678,10.935,10.935,0,0,1-4.717.94h-5V90.758h5a5.476,5.476,0,0,0,3.476-1.029,3.6,3.6,0,0,0,1.312-3.015,3.552,3.552,0,0,0-1.312-3,5.546,5.546,0,0,0-3.476-1.011h-5V79.017Zm29.122,21.141h12.521v3.689H547.108v-3.689Zm0-21.141h12.521v3.689H547.108V79.017Zm0,9.719h11.811v3.618H547.108V88.736Zm1.525-9.719v24.83h-4.115V79.017h4.115ZM582.933,92l8.442,11.847H586.3L578.428,92h4.5Zm-5.462-12.982v24.83h-4.186V79.017h4.186Zm-1.7,0h5.179a10.763,10.763,0,0,1,4.717.958,7.483,7.483,0,0,1,3.1,2.678,7.289,7.289,0,0,1,1.117,4.061,7.191,7.191,0,0,1-4.221,6.775,10.763,10.763,0,0,1-4.717.958h-5.179V90.971h5a6.1,6.1,0,0,0,2.519-.479,3.768,3.768,0,0,0,1.667-1.419,4.541,4.541,0,0,0,0-4.522,3.929,3.929,0,0,0-1.667-1.419,5.914,5.914,0,0,0-2.519-.5h-5V79.017Z"/>
</svg>
