<svg xmlns="http://www.w3.org/2000/svg" width="201.476" height="199.617" viewBox="0 0 201.476 199.617">
  <g id="Mobile_browsers-bro" data-name="Mobile browsers-bro" transform="translate(-61.197 -58.474)">
    <g id="freepik--background-simple--inject-18" transform="translate(61.981 60.577)">
      <path id="Path_1400" data-name="Path 1400" d="M194.146,71.6c-23.975-11.07-52.859-11.624-77.734-3.273-25.154,8.442-51.136,29.7-53.54,57.942C61.113,147,77.408,159.933,80.26,179.257c1.733,11.736-3.731,21.855-4.574,33.19a35.026,35.026,0,0,0,9.149,26.018c19.822,22.242,58.506,30.836,81.795,8.945,9.149-8.615,17.281-20.463,29.693-24.707,24.951-8.519,63.086-10.674,66.837-43.965,2.287-20.29-10.2-39.091-20.691-55.309C229.359,103.191,216.911,82.123,194.146,71.6Z" transform="translate(-62.74 -62.612)" fill="#00a0df"/>
      <path id="Path_1401" data-name="Path 1401" d="M194.146,71.6c-23.975-11.07-52.859-11.624-77.734-3.273-25.154,8.442-51.136,29.7-53.54,57.942C61.113,147,77.408,159.933,80.26,179.257c1.733,11.736-3.731,21.855-4.574,33.19a35.026,35.026,0,0,0,9.149,26.018c19.822,22.242,58.506,30.836,81.795,8.945,9.149-8.615,17.281-20.463,29.693-24.707,24.951-8.519,63.086-10.674,66.837-43.965,2.287-20.29-10.2-39.091-20.691-55.309C229.359,103.191,216.911,82.123,194.146,71.6Z" transform="translate(-62.74 -62.612)" fill="#fff" opacity="0.5"/>
    </g>
    <g id="freepik--Stars--inject-18" transform="translate(87.176 80.398)">
      <path id="Path_1402" data-name="Path 1402" d="M178.813,164.652a1.942,1.942,0,1,0-1.942,1.942A1.942,1.942,0,0,0,178.813,164.652Z" transform="translate(-143.103 -131.655)" fill="#00a0df"/>
      <path id="Path_1403" data-name="Path 1403" d="M119.243,248.662A1.942,1.942,0,1,0,117.3,250.6,1.942,1.942,0,0,0,119.243,248.662Z" transform="translate(-113.81 -172.966)" fill="#00a0df"/>
      <path id="Path_1404" data-name="Path 1404" d="M280.383,370.852a1.942,1.942,0,1,0-1.942,1.942A1.942,1.942,0,0,0,280.383,370.852Z" transform="translate(-193.048 -233.051)" fill="#00a0df"/>
      <path id="Path_1405" data-name="Path 1405" d="M198.663,418.2a1.942,1.942,0,1,0-1.936,1.942A1.942,1.942,0,0,0,198.663,418.2Z" transform="translate(-152.864 -256.335)" fill="#00a0df"/>
      <path id="Path_1406" data-name="Path 1406" d="M161.243,208.182a1.942,1.942,0,1,0-1.942,1.942A1.942,1.942,0,0,0,161.243,208.182Z" transform="translate(-134.463 -153.06)" fill="#00a0df"/>
      <path id="Path_1407" data-name="Path 1407" d="M386.543,276.122a1.942,1.942,0,1,0-1.942,1.942A1.942,1.942,0,0,0,386.543,276.122Z" transform="translate(-245.251 -186.469)" fill="#00a0df"/>
      <path id="Path_1408" data-name="Path 1408" d="M427.013,315.112a1.942,1.942,0,1,0-1.916,1.931A1.942,1.942,0,0,0,427.013,315.112Z" transform="translate(-265.152 -205.637)" fill="#00a0df"/>
      <path id="Path_1409" data-name="Path 1409" d="M263.583,126.462a1.942,1.942,0,1,0-1.942,1.942A1.942,1.942,0,0,0,263.583,126.462Z" transform="translate(-184.787 -112.876)" fill="#00a0df"/>
      <path id="Path_1410" data-name="Path 1410" d="M277.333,103.552a1.942,1.942,0,1,0-1.942,1.942A1.942,1.942,0,0,0,277.333,103.552Z" transform="translate(-191.548 -101.61)" fill="#00a0df"/>
      <path id="Path_1411" data-name="Path 1411" d="M212.762,133.131a.971.971,0,1,0-.971.971.971.971,0,0,0,.971-.971Z" transform="translate(-160.751 -116.633)" fill="#00a0df"/>
      <path id="Path_1412" data-name="Path 1412" d="M338.012,160.241a.971.971,0,1,0-.971.971A.971.971,0,0,0,338.012,160.241Z" transform="translate(-222.341 -129.964)" fill="#00a0df"/>
      <path id="Path_1413" data-name="Path 1413" d="M125.7,134.281a.966.966,0,1,0-.283.688A.971.971,0,0,0,125.7,134.281Z" transform="translate(-117.94 -117.198)" fill="#00a0df"/>
      <path id="Path_1414" data-name="Path 1414" d="M184.122,199.191a.971.971,0,1,0-.966.971A.971.971,0,0,0,184.122,199.191Z" transform="translate(-146.668 -149.117)" fill="#00a0df"/>
      <path id="Path_1415" data-name="Path 1415" d="M171.522,240.431a.971.971,0,1,0-.971.971A.971.971,0,0,0,171.522,240.431Z" transform="translate(-140.472 -169.396)" fill="#00a0df"/>
      <path id="Path_1416" data-name="Path 1416" d="M195.582,342.771a.971.971,0,1,0-.971.971A.971.971,0,0,0,195.582,342.771Z" transform="translate(-152.303 -219.72)" fill="#00a0df"/>
      <path id="Path_1417" data-name="Path 1417" d="M114.252,325.971a.971.971,0,1,0-.971.971A.971.971,0,0,0,114.252,325.971Z" transform="translate(-112.31 -211.459)" fill="#00a0df"/>
      <path id="Path_1418" data-name="Path 1418" d="M359.012,215.611a.971.971,0,1,0-.971.971.971.971,0,0,0,.971-.971Z" transform="translate(-232.668 -157.191)" fill="#00a0df"/>
      <path id="Path_1419" data-name="Path 1419" d="M291.812,363.061a.971.971,0,1,0-.971.971.971.971,0,0,0,.971-.971Z" transform="translate(-199.623 -229.698)" fill="#00a0df"/>
      <path id="Path_1420" data-name="Path 1420" d="M280.732,393.941a.966.966,0,1,0-.283.688A.971.971,0,0,0,280.732,393.941Z" transform="translate(-194.174 -244.882)" fill="#00a0df"/>
      <path id="Path_1421" data-name="Path 1421" d="M436.912,301.911a.971.971,0,1,0-.971.971.971.971,0,0,0,.971-.971Z" transform="translate(-270.974 -199.628)" fill="#00a0df"/>
      <circle id="Ellipse_90" data-name="Ellipse 90" cx="0.971" cy="0.971" r="0.971" transform="translate(46.384 42.12)" fill="#00a0df"/>
      <circle id="Ellipse_91" data-name="Ellipse 91" cx="0.971" cy="0.971" r="0.971" transform="translate(121.104 92.966)" fill="#00a0df"/>
      <circle id="Ellipse_92" data-name="Ellipse 92" cx="0.971" cy="0.971" r="0.971" transform="translate(26.003 29.306)" fill="#00a0df"/>
      <g id="Group_716" data-name="Group 716" transform="translate(0 0)" opacity="0.8">
        <path id="Path_1422" data-name="Path 1422" d="M178.813,164.652a1.942,1.942,0,1,0-1.942,1.942A1.942,1.942,0,0,0,178.813,164.652Z" transform="translate(-143.103 -131.655)" fill="#fff"/>
        <path id="Path_1423" data-name="Path 1423" d="M119.243,248.662A1.942,1.942,0,1,0,117.3,250.6,1.942,1.942,0,0,0,119.243,248.662Z" transform="translate(-113.81 -172.966)" fill="#fff"/>
        <path id="Path_1424" data-name="Path 1424" d="M280.383,370.852a1.942,1.942,0,1,0-1.942,1.942A1.942,1.942,0,0,0,280.383,370.852Z" transform="translate(-193.048 -233.051)" fill="#fff"/>
        <path id="Path_1425" data-name="Path 1425" d="M198.663,418.2a1.942,1.942,0,1,0-1.936,1.942A1.942,1.942,0,0,0,198.663,418.2Z" transform="translate(-152.864 -256.335)" fill="#fff"/>
        <path id="Path_1426" data-name="Path 1426" d="M161.243,208.182a1.942,1.942,0,1,0-1.942,1.942A1.942,1.942,0,0,0,161.243,208.182Z" transform="translate(-134.463 -153.06)" fill="#fff"/>
        <path id="Path_1427" data-name="Path 1427" d="M386.543,276.122a1.942,1.942,0,1,0-1.942,1.942A1.942,1.942,0,0,0,386.543,276.122Z" transform="translate(-245.251 -186.469)" fill="#fff"/>
        <path id="Path_1428" data-name="Path 1428" d="M427.013,315.112a1.942,1.942,0,1,0-1.916,1.931A1.942,1.942,0,0,0,427.013,315.112Z" transform="translate(-265.152 -205.637)" fill="#fff"/>
        <path id="Path_1429" data-name="Path 1429" d="M263.583,126.462a1.942,1.942,0,1,0-1.942,1.942A1.942,1.942,0,0,0,263.583,126.462Z" transform="translate(-184.787 -112.876)" fill="#fff"/>
        <path id="Path_1430" data-name="Path 1430" d="M277.333,103.552a1.942,1.942,0,1,0-1.942,1.942A1.942,1.942,0,0,0,277.333,103.552Z" transform="translate(-191.548 -101.61)" fill="#fff"/>
        <path id="Path_1431" data-name="Path 1431" d="M212.762,133.131a.971.971,0,1,0-.971.971.971.971,0,0,0,.971-.971Z" transform="translate(-160.751 -116.633)" fill="#fff"/>
        <path id="Path_1432" data-name="Path 1432" d="M338.012,160.241a.971.971,0,1,0-.971.971A.971.971,0,0,0,338.012,160.241Z" transform="translate(-222.341 -129.964)" fill="#fff"/>
        <path id="Path_1433" data-name="Path 1433" d="M125.7,134.281a.966.966,0,1,0-.283.688A.971.971,0,0,0,125.7,134.281Z" transform="translate(-117.94 -117.198)" fill="#fff"/>
        <path id="Path_1434" data-name="Path 1434" d="M184.122,199.191a.971.971,0,1,0-.966.971A.971.971,0,0,0,184.122,199.191Z" transform="translate(-146.668 -149.117)" fill="#fff"/>
        <path id="Path_1435" data-name="Path 1435" d="M171.522,240.431a.971.971,0,1,0-.971.971A.971.971,0,0,0,171.522,240.431Z" transform="translate(-140.472 -169.396)" fill="#fff"/>
        <path id="Path_1436" data-name="Path 1436" d="M195.582,342.771a.971.971,0,1,0-.971.971A.971.971,0,0,0,195.582,342.771Z" transform="translate(-152.303 -219.72)" fill="#fff"/>
        <path id="Path_1437" data-name="Path 1437" d="M114.252,325.971a.971.971,0,1,0-.971.971A.971.971,0,0,0,114.252,325.971Z" transform="translate(-112.31 -211.459)" fill="#fff"/>
        <path id="Path_1438" data-name="Path 1438" d="M359.012,215.611a.971.971,0,1,0-.971.971.971.971,0,0,0,.971-.971Z" transform="translate(-232.668 -157.191)" fill="#fff"/>
        <path id="Path_1439" data-name="Path 1439" d="M291.812,363.061a.971.971,0,1,0-.971.971.971.971,0,0,0,.971-.971Z" transform="translate(-199.623 -229.698)" fill="#fff"/>
        <path id="Path_1440" data-name="Path 1440" d="M280.732,393.941a.966.966,0,1,0-.283.688A.971.971,0,0,0,280.732,393.941Z" transform="translate(-194.174 -244.882)" fill="#fff"/>
        <path id="Path_1441" data-name="Path 1441" d="M436.912,301.911a.971.971,0,1,0-.971.971.971.971,0,0,0,.971-.971Z" transform="translate(-270.974 -199.628)" fill="#fff"/>
        <circle id="Ellipse_93" data-name="Ellipse 93" cx="0.971" cy="0.971" r="0.971" transform="translate(46.384 42.12)" fill="#fff"/>
        <circle id="Ellipse_94" data-name="Ellipse 94" cx="0.971" cy="0.971" r="0.971" transform="translate(121.104 92.966)" fill="#fff"/>
        <circle id="Ellipse_95" data-name="Ellipse 95" cx="0.971" cy="0.971" r="0.971" transform="translate(26.003 29.306)" fill="#fff"/>
      </g>
    </g>
    <g id="freepik--Browsers--inject-18" transform="translate(61.197 58.474)">
      <circle id="Ellipse_96" data-name="Ellipse 96" cx="6.389" cy="6.389" r="6.389" transform="translate(54.291 12.795) rotate(-9.18)" fill="#263238"/>
      <path id="Path_1442" data-name="Path 1442" d="M160.139,76.663v-.107a8.2,8.2,0,0,1,8.2-8.2h16.107a18.069,18.069,0,0,0-30.684-2.485Z" transform="translate(-106.714 -58.474)" fill="#263238"/>
      <path id="Path_1443" data-name="Path 1443" d="M185.707,79.925a8.188,8.188,0,0,1,2.409,12.33L181,105.145h.737a18.074,18.074,0,0,0,16.59-25.235Z" transform="translate(-120.109 -69.015)" fill="#263238"/>
      <path id="Path_1444" data-name="Path 1444" d="M169.118,91.678a8.183,8.183,0,0,1-11.639-3.69L149.737,74.88A18.064,18.064,0,0,0,163.095,102.6Z" transform="translate(-103.332 -66.541)" fill="#263238"/>
      <path id="Path_1445" data-name="Path 1445" d="M321.386,64.58a19.106,19.106,0,1,0,19.106,19.106A19.106,19.106,0,0,0,321.386,64.58Zm0,36.387a17.281,17.281,0,1,1,17.281-17.281,17.281,17.281,0,0,1-17.281,17.281Z" transform="translate(-179.747 -61.476)" fill="#263238"/>
      <path id="Path_1446" data-name="Path 1446" d="M339.688,70a.188.188,0,0,0-.188.188V72.9a.183.183,0,0,0,.188.188.188.188,0,0,0,.193-.188V70.173a.193.193,0,0,0-.193-.173Z" transform="translate(-198.049 -64.142)" fill="#263238"/>
      <path id="Path_1447" data-name="Path 1447" d="M339.688,128.76a.188.188,0,0,0-.188.188v2.709a.183.183,0,0,0,.188.188.188.188,0,0,0,.193-.188v-2.709a.193.193,0,0,0-.193-.188Z" transform="translate(-198.049 -93.036)" fill="#263238"/>
      <path id="Path_1448" data-name="Path 1448" d="M333.228,70.854a.193.193,0,0,0-.224-.147.2.2,0,0,0-.147.229l.579,2.623a.188.188,0,0,0,.183.147h.041a.188.188,0,0,0,.147-.224Z" transform="translate(-194.781 -64.488)" fill="#263238"/>
      <path id="Path_1449" data-name="Path 1449" d="M345.455,128.331a.193.193,0,0,0-.376.076l.564,2.648a.188.188,0,0,0,.188.152h.041a.183.183,0,0,0,.142-.224Z" transform="translate(-200.792 -92.759)" fill="#263238"/>
      <path id="Path_1450" data-name="Path 1450" d="M326.871,72.836a.193.193,0,0,0-.351.158l1.1,2.47a.183.183,0,0,0,.173.112h.076a.193.193,0,0,0,.1-.254Z" transform="translate(-191.661 -65.488)" fill="#263238"/>
      <path id="Path_1451" data-name="Path 1451" d="M350.775,126.53a.193.193,0,0,0-.254-.1.188.188,0,0,0-.1.249l1.1,2.475a.188.188,0,0,0,.173.112.2.2,0,0,0,.076,0,.193.193,0,0,0,.1-.254Z" transform="translate(-203.413 -91.884)" fill="#263238"/>
      <path id="Path_1452" data-name="Path 1452" d="M322.335,78.529a.193.193,0,0,0,.152.081.178.178,0,0,0,.112-.041.188.188,0,0,0,.046-.264l-1.591-2.191a.193.193,0,0,0-.269-.041.188.188,0,0,0-.041.264Z" transform="translate(-188.808 -67.11)" fill="#263238"/>
      <path id="Path_1453" data-name="Path 1453" d="M355.61,123.685a.189.189,0,0,0-.3.224l1.591,2.186a.188.188,0,0,0,.152.081.224.224,0,0,0,.112-.036.193.193,0,0,0,.041-.269Z" transform="translate(-205.803 -90.503)" fill="#263238"/>
      <path id="Path_1454" data-name="Path 1454" d="M317.8,82.633a.178.178,0,0,0,.127.051.2.2,0,0,0,.142-.061.193.193,0,0,0,0-.269l-2.033-1.814a.2.2,0,0,0-.269,0,.193.193,0,0,0,0,.269Z" transform="translate(-186.352 -69.298)" fill="#263238"/>
      <path id="Path_1455" data-name="Path 1455" d="M359.736,119.879a.2.2,0,0,0-.269,0,.193.193,0,0,0,0,.269l2.033,1.809a.178.178,0,0,0,.127.051.2.2,0,0,0,.117-.061.193.193,0,0,0,0-.269Z" transform="translate(-207.841 -88.643)" fill="#263238"/>
      <path id="Path_1456" data-name="Path 1456" d="M311.912,86.274l2.343,1.357a.208.208,0,0,0,.1,0,.188.188,0,0,0,.163-.1.183.183,0,0,0-.066-.259l-2.353-1.3a.176.176,0,1,0-.183.3Z" transform="translate(-184.438 -71.983)" fill="#263238"/>
      <path id="Path_1457" data-name="Path 1457" d="M365.365,116.678l-2.343-1.352a.193.193,0,0,0-.193.33l2.348,1.352a.147.147,0,0,0,.091,0,.193.193,0,0,0,.168-.092.2.2,0,0,0-.071-.239Z" transform="translate(-209.484 -86.423)" fill="#263238"/>
      <path id="Path_1458" data-name="Path 1458" d="M309.2,92.356l2.577.839h.056a.193.193,0,0,0,.183-.132.188.188,0,0,0-.122-.239l-2.572-.834a.193.193,0,1,0-.122.366Z" transform="translate(-183.086 -74.95)" fill="#263238"/>
      <path id="Path_1459" data-name="Path 1459" d="M367.812,111l-2.572-.834a.19.19,0,0,0-.117.361l2.572.839h.061a.183.183,0,0,0,.178-.132A.188.188,0,0,0,367.812,111Z" transform="translate(-210.584 -83.891)" fill="#263238"/>
      <path id="Path_1460" data-name="Path 1460" d="M307.817,98.9l2.694.285h0a.188.188,0,0,0,.188-.173.193.193,0,0,0-.168-.208l-2.694-.285a.2.2,0,0,0-.208.173.193.193,0,0,0,.188.208Z" transform="translate(-182.377 -78.166)" fill="#263238"/>
      <path id="Path_1461" data-name="Path 1461" d="M369.065,104.955l-2.689-.285a.193.193,0,0,0-.041.381l2.694.28h0a.188.188,0,0,0,0-.376Z" transform="translate(-211.172 -81.19)" fill="#263238"/>
      <path id="Path_1462" data-name="Path 1462" d="M307.884,105.359l2.689-.285a.188.188,0,0,0,.173-.208.183.183,0,0,0-.208-.168l-2.694.28a.193.193,0,0,0,0,.381Z" transform="translate(-182.403 -81.203)" fill="#263238"/>
      <path id="Path_1463" data-name="Path 1463" d="M366.139,98.993a.193.193,0,0,0,.188.173h0l2.689-.28a.193.193,0,1,0-.041-.381l-2.689.285A.183.183,0,0,0,366.139,98.993Z" transform="translate(-211.147 -78.156)" fill="#263238"/>
      <path id="Path_1464" data-name="Path 1464" d="M311.988,110.223a.188.188,0,0,0-.239-.122l-2.577.834a.193.193,0,0,0,.061.376h.056l2.577-.839a.193.193,0,0,0,.122-.249Z" transform="translate(-183.071 -83.856)" fill="#263238"/>
      <path id="Path_1465" data-name="Path 1465" d="M364.994,93.019a.193.193,0,0,0,.183.132h.061l2.572-.839a.188.188,0,0,0,.122-.239.193.193,0,0,0-.239-.122l-2.577.839A.193.193,0,0,0,364.994,93.019Z" transform="translate(-210.583 -74.932)" fill="#263238"/>
      <path id="Path_1466" data-name="Path 1466" d="M314.442,115.276a.188.188,0,0,0-.259-.071l-2.343,1.352a.188.188,0,0,0,.092.356.163.163,0,0,0,.1,0l2.343-1.352a.188.188,0,0,0,.071-.285Z" transform="translate(-184.397 -86.358)" fill="#263238"/>
      <path id="Path_1467" data-name="Path 1467" d="M362.7,87.431a.2.2,0,0,0,.168.1.229.229,0,0,0,.1,0l2.343-1.357a.183.183,0,0,0,.081-.264.188.188,0,0,0-.259-.071l-2.343,1.357a.188.188,0,0,0-.086.239Z" transform="translate(-209.448 -71.916)" fill="#263238"/>
      <path id="Path_1468" data-name="Path 1468" d="M318,119.759a.2.2,0,0,0-.269,0l-2.033,1.814a.188.188,0,0,0,0,.269.2.2,0,0,0,.269.015L318,120.044a.2.2,0,0,0,0-.285Z" transform="translate(-186.315 -88.584)" fill="#263238"/>
      <path id="Path_1469" data-name="Path 1469" d="M359.4,82.486a.2.2,0,0,0,.142.061.193.193,0,0,0,.127-.046l2.033-1.814a.2.2,0,0,0,0-.269.193.193,0,0,0-.269,0L359.4,82.226A.193.193,0,0,0,359.4,82.486Z" transform="translate(-207.811 -69.237)" fill="#263238"/>
      <path id="Path_1470" data-name="Path 1470" d="M322.516,123.455a.193.193,0,0,0-.269.046l-1.591,2.186a.193.193,0,0,0,.046.269.173.173,0,0,0,.112.036.178.178,0,0,0,.152-.081l1.591-2.186A.2.2,0,0,0,322.516,123.455Z" transform="translate(-188.765 -90.41)" fill="#263238"/>
      <path id="Path_1471" data-name="Path 1471" d="M355.261,78.392a.2.2,0,0,0,.112.041.188.188,0,0,0,.152-.081l1.6-2.191a.183.183,0,0,0-.041-.264.193.193,0,0,0-.264.041l-1.591,2.191A.188.188,0,0,0,355.261,78.392Z" transform="translate(-205.764 -67.024)" fill="#263238"/>
      <path id="Path_1472" data-name="Path 1472" d="M327.767,126.233a.183.183,0,0,0-.249.1l-1.1,2.47a.2.2,0,0,0,.1.254h.076a.193.193,0,0,0,.178-.112l1.1-2.475a.183.183,0,0,0-.1-.234Z" transform="translate(-191.607 -91.784)" fill="#263238"/>
      <path id="Path_1473" data-name="Path 1473" d="M350.416,75.331a.208.208,0,0,0,.081,0,.188.188,0,0,0,.173-.112l1.1-2.475a.189.189,0,0,0-.346-.152l-1.1,2.47a.2.2,0,0,0,.1.269Z" transform="translate(-203.359 -65.36)" fill="#263238"/>
      <path id="Path_1474" data-name="Path 1474" d="M333.543,128a.2.2,0,0,0-.229.147l-.559,2.648a.183.183,0,0,0,.142.224h.041a.193.193,0,0,0,.188-.147l.564-2.648A.2.2,0,0,0,333.543,128Z" transform="translate(-194.73 -92.659)" fill="#263238"/>
      <path id="Path_1475" data-name="Path 1475" d="M345.132,73.459h.041a.188.188,0,0,0,.183-.152l.564-2.648a.193.193,0,0,0-.147-.224.183.183,0,0,0-.224.142l-.554,2.653a.188.188,0,0,0,.137.229Z" transform="translate(-200.748 -64.353)" fill="#263238"/>
      <path id="Path_1476" data-name="Path 1476" d="M336.306,70.14a.183.183,0,0,0-.168.208l.173,1.682a.193.193,0,0,0,.193.173h0a.2.2,0,0,0,.168-.213l-.178-1.682a.193.193,0,0,0-.188-.168Z" transform="translate(-196.395 -64.21)" fill="#263238"/>
      <path id="Path_1477" data-name="Path 1477" d="M342.667,130.7a.2.2,0,0,0-.168.213l.173,1.626a.188.188,0,0,0,.188.168h0a.193.193,0,0,0,.168-.208l-.168-1.626A.2.2,0,0,0,342.667,130.7Z" transform="translate(-199.523 -93.99)" fill="#263238"/>
      <path id="Path_1478" data-name="Path 1478" d="M329.921,71.659a.19.19,0,1,0-.361.117l.508,1.606a.193.193,0,0,0,.183.132.117.117,0,0,0,.056,0,.183.183,0,0,0,.122-.239Z" transform="translate(-193.157 -64.891)" fill="#263238"/>
      <path id="Path_1479" data-name="Path 1479" d="M348.742,129.573a.19.19,0,1,0-.361.117l.508,1.555a.193.193,0,0,0,.183.132.126.126,0,0,0,.061,0,.193.193,0,0,0,.122-.239Z" transform="translate(-202.411 -93.371)" fill="#263238"/>
      <path id="Path_1480" data-name="Path 1480" d="M323.756,74.347a.19.19,0,1,0-.33.188L324.275,76a.183.183,0,0,0,.163.091.162.162,0,0,0,.1,0,.188.188,0,0,0,.071-.259Z" transform="translate(-190.133 -66.232)" fill="#263238"/>
      <path id="Path_1481" data-name="Path 1481" d="M354.206,127.087a.19.19,0,0,0-.33.188l.818,1.418a.2.2,0,0,0,.168.1.188.188,0,0,0,.091-.025.193.193,0,0,0,.071-.264Z" transform="translate(-205.106 -92.166)" fill="#263238"/>
      <path id="Path_1482" data-name="Path 1482" d="M319.131,79.775a.185.185,0,0,0,.269.015.193.193,0,0,0,0-.269l-1.133-1.255a.188.188,0,0,0-.269,0,.193.193,0,0,0,0,.269Z" transform="translate(-187.448 -68.178)" fill="#263238"/>
      <path id="Path_1483" data-name="Path 1483" d="M359.046,123.52a.193.193,0,0,0-.285.259l1.093,1.215a.2.2,0,0,0,.142.061.193.193,0,0,0,.127-.046.188.188,0,0,0,0-.269Z" transform="translate(-207.501 -90.434)" fill="#263238"/>
      <path id="Path_1484" data-name="Path 1484" d="M314.879,84.525a.173.173,0,0,0,.112.036.188.188,0,0,0,.152-.076.2.2,0,0,0-.041-.269l-1.393-.991a.188.188,0,0,0-.264.041.193.193,0,0,0,.041.264Z" transform="translate(-185.22 -70.626)" fill="#263238"/>
      <path id="Path_1485" data-name="Path 1485" d="M363.037,119.029a.193.193,0,0,0-.224.31l1.322.961a.193.193,0,0,0,.112.036.2.2,0,0,0,.158-.076.193.193,0,0,0-.046-.269Z" transform="translate(-209.484 -88.24)" fill="#263238"/>
      <path id="Path_1486" data-name="Path 1486" d="M310.191,89.35l1.525.686a.142.142,0,0,0,.076,0,.193.193,0,0,0,.076-.366l-1.525-.686a.189.189,0,0,0-.153.346Z" transform="translate(-183.581 -73.469)" fill="#263238"/>
      <path id="Path_1487" data-name="Path 1487" d="M367.473,114.452l-1.494-.666a.2.2,0,0,0-.254.1.188.188,0,0,0,.1.249l1.494.666h.076a.193.193,0,0,0,.081-.366Z" transform="translate(-210.936 -85.666)" fill="#263238"/>
      <path id="Path_1488" data-name="Path 1488" d="M308.136,95.768l1.657.351h.041a.193.193,0,0,0,.041-.376l-1.657-.356a.193.193,0,0,0-.224.147.188.188,0,0,0,.142.234Z" transform="translate(-182.553 -76.624)" fill="#263238"/>
      <path id="Path_1489" data-name="Path 1489" d="M369.381,108.4l-1.6-.335a.188.188,0,0,0-.229.142.193.193,0,0,0,.147.229l1.6.341h.041a.183.183,0,0,0,.183-.152.188.188,0,0,0-.147-.224Z" transform="translate(-211.843 -82.857)" fill="#263238"/>
      <path id="Path_1490" data-name="Path 1490" d="M309.314,102.271a.193.193,0,0,0-.188-.193h-1.693a.193.193,0,1,0,0,.381h1.7A.193.193,0,0,0,309.314,102.271Z" transform="translate(-182.17 -79.914)" fill="#263238"/>
      <path id="Path_1491" data-name="Path 1491" d="M369.964,102.078h-1.631a.193.193,0,1,0,0,.381h1.631a.193.193,0,1,0,0-.381Z" transform="translate(-212.117 -79.914)" fill="#263238"/>
      <path id="Path_1492" data-name="Path 1492" d="M310.034,108.233a.188.188,0,0,0-.224-.147l-1.657.351a.19.19,0,0,0,.041.376h.041l1.652-.351a.188.188,0,0,0,.147-.229Z" transform="translate(-182.56 -82.868)" fill="#263238"/>
      <path id="Path_1493" data-name="Path 1493" d="M367.538,96.015a.188.188,0,0,0,.188.152h.046l1.6-.341a.193.193,0,0,0,.147-.224.188.188,0,0,0-.224-.147l-1.6.341A.193.193,0,0,0,367.538,96.015Z" transform="translate(-211.835 -76.657)" fill="#263238"/>
      <path id="Path_1494" data-name="Path 1494" d="M311.962,113.891a.188.188,0,0,0-.249-.1l-1.525.686a.2.2,0,0,0-.1.254.193.193,0,0,0,.178.112h.076l1.525-.686a.2.2,0,0,0,.1-.269Z" transform="translate(-183.578 -85.669)" fill="#263238"/>
      <path id="Path_1495" data-name="Path 1495" d="M365.688,90.044a.188.188,0,0,0,.173.112h.076l1.494-.666a.189.189,0,1,0-.152-.346l-1.494.666a.183.183,0,0,0-.1.234Z" transform="translate(-210.92 -73.548)" fill="#263238"/>
      <path id="Path_1496" data-name="Path 1496" d="M315.1,119.122a.188.188,0,0,0-.269-.041l-1.367.991a.188.188,0,0,0-.041.269.192.192,0,0,0,.264.041l1.367-1.017A.188.188,0,0,0,315.1,119.122Z" transform="translate(-185.206 -88.257)" fill="#263238"/>
      <path id="Path_1497" data-name="Path 1497" d="M362.689,84.6a.2.2,0,0,0,.142.1.239.239,0,0,0,.112-.036l1.321-.966a.189.189,0,1,0-.224-.3l-1.322.961A.188.188,0,0,0,362.689,84.6Z" transform="translate(-209.437 -70.71)" fill="#263238"/>
      <path id="Path_1498" data-name="Path 1498" d="M319.335,123.575a.188.188,0,0,0-.269,0l-1.118,1.271a.193.193,0,0,0,0,.269.178.178,0,0,0,.127.051.2.2,0,0,0,.142-.066l1.133-1.255A.193.193,0,0,0,319.335,123.575Z" transform="translate(-187.424 -90.458)" fill="#263238"/>
      <path id="Path_1499" data-name="Path 1499" d="M358.692,79.911a.193.193,0,0,0,.127.046.2.2,0,0,0,.142-.061l1.093-1.21a.188.188,0,0,0,0-.269.193.193,0,0,0-.269,0l-1.093,1.22a.188.188,0,0,0,0,.274Z" transform="translate(-207.457 -68.254)" fill="#263238"/>
      <path id="Path_1500" data-name="Path 1500" d="M324.445,127.115a.2.2,0,0,0-.264.066l-.844,1.469a.193.193,0,0,0,.071.259.208.208,0,0,0,.1.025.188.188,0,0,0,.163-.1l.844-1.464a.183.183,0,0,0-.066-.259Z" transform="translate(-190.089 -92.215)" fill="#263238"/>
      <path id="Path_1501" data-name="Path 1501" d="M353.948,76.244a.2.2,0,0,0,.168-.1l.818-1.428a.2.2,0,0,0-.071-.264.188.188,0,0,0-.259.071l-.818,1.418a.188.188,0,0,0,.071.259A.208.208,0,0,0,353.948,76.244Z" transform="translate(-205.061 -66.32)" fill="#263238"/>
      <path id="Path_1502" data-name="Path 1502" d="M330.268,129.559a.183.183,0,0,0-.239.122l-.508,1.606a.193.193,0,0,0,.122.244h.056a.193.193,0,0,0,.183-.127l.508-1.611A.188.188,0,0,0,330.268,129.559Z" transform="translate(-193.137 -93.424)" fill="#263238"/>
      <path id="Path_1503" data-name="Path 1503" d="M348.4,73.657h.056a.193.193,0,0,0,.183-.132l.508-1.555a.183.183,0,0,0-.122-.239.188.188,0,0,0-.239.122l-.508,1.555a.188.188,0,0,0,.122.249Z" transform="translate(-202.359 -64.988)" fill="#263238"/>
      <path id="Path_1504" data-name="Path 1504" d="M336.415,130.818a.183.183,0,0,0-.208.168l-.178,1.682a.188.188,0,0,0,.168.208h0a.188.188,0,0,0,.188-.168l.178-1.682a.188.188,0,0,0-.147-.208Z" transform="translate(-196.342 -94.047)" fill="#263238"/>
      <path id="Path_1505" data-name="Path 1505" d="M342.582,72.34a.188.188,0,0,0,.188-.173l.173-1.626a.193.193,0,1,0-.381-.036l-.173,1.626a.193.193,0,0,0,.173.208Z" transform="translate(-199.469 -64.291)" fill="#263238"/>
      <path id="Path_1506" data-name="Path 1506" d="M340.227,79.458a.259.259,0,0,0-.325-.031L326.382,88.9a.1.1,0,0,0-.03.036h-.036l-9.581,13.871a.249.249,0,0,0,.03.325.239.239,0,0,0,.178.076.264.264,0,0,0,.147-.046l13.754-9.7.03-.036.036-.03,9.357-13.642A.254.254,0,0,0,340.227,79.458Zm-22.262,22.491,8.6-12.442,3.741,3.741Z" transform="translate(-186.832 -68.756)" fill="#263238"/>
      <path id="Path_1507" data-name="Path 1507" d="M360.809,327.882A18.018,18.018,0,0,0,328,319.41c-3.344-.051-5.748,1.362-6.607,3.888a4.908,4.908,0,0,0,.64,4.066c2.592,4.518,11.045,9.4,19.243,11.111a69.684,69.684,0,0,0,13.616,1.764c3.492,0,6.013-.6,7.624-1.789a4.935,4.935,0,0,0,2.033-3.634C364.845,331.14,361.932,328.691,360.809,327.882Zm-36.8-3.7a2.943,2.943,0,0,1,2.379-1.87,17.946,17.946,0,0,0-1.337,4.6,7.017,7.017,0,0,1-.63-.91,2.524,2.524,0,0,1-.412-1.825Zm3.558,5.154a15.289,15.289,0,1,1,28.381,8.132c-2.968.117-7.426-.285-14.115-1.682a36.417,36.417,0,0,1-14.252-6.45Zm34.226,5.255a2.2,2.2,0,0,1-.93,1.667,5.082,5.082,0,0,1-1.576.737,17.967,17.967,0,0,0,1.494-5.388,4.3,4.3,0,0,1,1.027,2.983Z" transform="translate(-189.045 -182.928)" fill="#263238"/>
      <path id="Path_1508" data-name="Path 1508" d="M355.884,362.076a15.248,15.248,0,0,1-23.487-6.745,28.012,28.012,0,0,1-3.507-2.541,18.008,18.008,0,0,0,30.963,9.383H358.72C357.815,362.188,356.87,362.152,355.884,362.076Z" transform="translate(-192.832 -203.2)" fill="#263238"/>
      <path id="Path_1509" data-name="Path 1509" d="M144.647,377.781c2.76,1.809,4.285,3.05,6.287,3.05s3.527-.569,3.527-1.138.854-3.72-1.433-6a17.971,17.971,0,0,0-5.525-3.527s.193-2.765-1.428-3.812c0,0-2,1.525-1.525,5.337a46.3,46.3,0,0,1-7.431,4.381S141.882,375.966,144.647,377.781Z" transform="translate(-98.531 -209.868)" fill="#263238"/>
      <path id="Path_1510" data-name="Path 1510" d="M145.88,393.6c-2.668-.666-4.386-.188-8.671-3.238s-8.574-1.713-11.339-.95a13.631,13.631,0,0,1,13.149,7.9s2.953.574,4.478-.381a6.228,6.228,0,0,1,5.815-.569A4.91,4.91,0,0,0,145.88,393.6Z" transform="translate(-92.999 -220.738)" fill="#263238"/>
      <path id="Path_1511" data-name="Path 1511" d="M129.464,408.917l.569-2.379h0a9.943,9.943,0,0,0,.29-2.384,9.657,9.657,0,0,0-18.653-3.644A8.036,8.036,0,0,1,126.8,404.4a8.132,8.132,0,0,1-5.083,7.568h4.793c2.755,0,8.2-.285,8.2-.285C133.754,409.273,129.464,408.917,129.464,408.917Z" transform="translate(-86.017 -223.641)" fill="#263238"/>
      <path id="Path_1512" data-name="Path 1512" d="M125.362,409.011a5.591,5.591,0,1,0-5.591,5.591A5.591,5.591,0,0,0,125.362,409.011Zm-5.591,2.541a12.66,12.66,0,1,1,.02-.015Z" transform="translate(-87.251 -228.096)" fill="#263238"/>
      <path id="Path_1513" data-name="Path 1513" d="M102.457,384.847a10.054,10.054,0,0,1,4.188-11.146c2.379-1.718,8.483-4.1,9.53-10.165a8.419,8.419,0,0,0-6.384-10.125c-3.431-.854-9.815,1.047-13.911,6.572,0,0,3.812-2.287,6.958.1s.188,6-1.621,8.478-5.718,6.191-5.144,12.29S101.6,391.9,109.6,391.9A10.066,10.066,0,0,1,102.457,384.847Z" transform="translate(-78.252 -203.409)" fill="#263238"/>
      <path id="Path_1514" data-name="Path 1514" d="M99.425,175.734H74.82c-.163,0-.2.066-.183.208a8.641,8.641,0,0,0,.828,2.968,7.187,7.187,0,0,0,5.271,3.975,8.574,8.574,0,0,0,2.694.168,8.081,8.081,0,0,0,4.391-1.881,9.316,9.316,0,0,0,1.586-1.728.346.346,0,0,1,.234-.132h8.8c-.061.158-.107.3-.168.447a17.82,17.82,0,0,1-7.349,8.681,15.838,15.838,0,0,1-5.662,2.033,18.618,18.618,0,0,1-3.558.244,16.493,16.493,0,0,1-6.607-1.5.508.508,0,0,0-.483,0,26.192,26.192,0,0,1-5.647,2,11.3,11.3,0,0,1-3.38.274,4.574,4.574,0,0,1-3.131-1.4,4.732,4.732,0,0,1-1.108-2.368,11.116,11.116,0,0,1,0-3.624A30.142,30.142,0,0,1,66.2,171.85a49.215,49.215,0,0,1,7.411-8.788c.147-.142.31-.264.468-.4v-.051l-.254.066a7.117,7.117,0,0,0-1.83,1.017,38.024,38.024,0,0,0-5.591,4.961l-.773.828H65.58c.056-.249.1-.508.163-.747a14.851,14.851,0,0,1,3.014-5.637,20.331,20.331,0,0,1,6.008-5.017,14.059,14.059,0,0,1,4.859-1.525A17.408,17.408,0,0,1,83,156.425a.971.971,0,0,0,.427-.1,32.989,32.989,0,0,1,5.748-2.064,14.944,14.944,0,0,1,3.7-.508,6.541,6.541,0,0,1,4.1,1.271,5.225,5.225,0,0,1,2.089,3.675,8.94,8.94,0,0,1-.635,4.239c-.269.7-.615,1.377-.94,2.033a.4.4,0,0,0,0,.4,18.608,18.608,0,0,1,1.753,5.494,24.675,24.675,0,0,1,.29,4.742C99.435,175.622,99.43,175.657,99.425,175.734Zm-9.184-4.64a1.524,1.524,0,0,0,0-.32,19.256,19.256,0,0,0-.569-2.094,6.887,6.887,0,0,0-4.254-4.269,9.194,9.194,0,0,0-4.9-.285,6.633,6.633,0,0,0-3.909,2.313,8.64,8.64,0,0,0-1.784,3.873c-.051.254-.081.508-.122.783Zm-24.259,8.2c-.061.112-.091.163-.117.219a27.4,27.4,0,0,0-1.408,3.634,9.977,9.977,0,0,0-.508,4.107,2.948,2.948,0,0,0,1.774,2.541,5.784,5.784,0,0,0,3.38.31,12.645,12.645,0,0,0,4.137-1.581l.229-.152a17.418,17.418,0,0,1-4.422-3.929,21.219,21.219,0,0,1-3.065-5.149Zm30.882-14.9.107-.193a11.426,11.426,0,0,0,1.1-3.517,4.442,4.442,0,0,0-.33-2.485,3.461,3.461,0,0,0-2.379-2.074,6.1,6.1,0,0,0-2.292,0,17.7,17.7,0,0,0-4.183,1.281,2.033,2.033,0,0,0-.213.107A17.632,17.632,0,0,1,96.864,164.389Z" transform="translate(-61.197 -105.326)" fill="#263238"/>
      <path id="Path_1515" data-name="Path 1515" d="M411.8,191.195s-.269,4.274-.712,5.083a23.679,23.679,0,0,0-2.765-12.564s-4.005-4.9-3.741-6.5a3.612,3.612,0,0,0-.981,2.135,24.7,24.7,0,0,1-3.827-4.1c-.778-1.428-1.072-1.87-1.072-1.87a27.171,27.171,0,0,0-1.886,3.98,16.6,16.6,0,0,0-16.493,4.036,13.794,13.794,0,0,1-1.133-1.687,16.563,16.563,0,0,1-.442-1.693,15.735,15.735,0,0,0-2.14,3.919,14.4,14.4,0,0,0-.264,2.5s-2.3,3.466-2.765,5.53h.625a13.049,13.049,0,0,0-1.159,5.525l.8-1.423s-.773,3.1,1.017,8.173a18.094,18.094,0,0,0,13.469,11.055,21.922,21.922,0,0,0,14.475-2.836l-2.318.447s6.236-1.337,9.088-6.953a20,20,0,0,1-2.5,1.784C407.073,205.716,413.04,200.725,411.8,191.195ZM396.547,178.02a10.262,10.262,0,0,0-.635,4.264c.447,3.558,3.558,6.059,4.366,7.039a8.763,8.763,0,0,1,1.693,6.414c-.534,2.587-1.311,4.895-4.046,6.323s-6.059,2.409-11.319-1.337c0,0,2.851.8,4.457,0s2.226-1.693,3.294-1.693,2.231-.356.717-1.6-2.943-.889-4.991-.712-4.452-1.072-4.813-2.231.447-2.76,1.159-2.76,1.525.889,1.525.889a9.837,9.837,0,0,0,.447-2.582s3.654-1.337,3.919-2.851c0,0,.178-.889-.356-1.159s-1.779-.086-3.05-.625-1.6-.712-1.337-1.6a7.636,7.636,0,0,1,3.121-3.477s-3.924,0-5.347,1.692a18.461,18.461,0,0,0-4.224-.407,15.888,15.888,0,0,1,15.461-3.588Z" transform="translate(-214.542 -114.977)" fill="#263238"/>
    </g>
    <g id="freepik--Character--inject-18" transform="translate(99.304 103.545)">
      <path id="Path_1516" data-name="Path 1516" d="M238.188,229.48s-5.255.214-8.285-1.083-5.474.147-6.338,2.45.793,4.757,4.971,7.06,6.917,1.728,8.574-.142S240.927,231.259,238.188,229.48Z" transform="translate(-179.037 -186.862)" fill="#fff"/>
      <path id="Path_1517" data-name="Path 1517" d="M233.156,239.391a10.582,10.582,0,0,1-4.986-1.525c-5.377-2.968-5.733-5.647-5.083-7.37a4.727,4.727,0,0,1,2.541-2.745,5.169,5.169,0,0,1,4.127.147c2.938,1.26,8.132,1.062,8.173,1.062h.081l.071.046a3.075,3.075,0,0,1,1.382,2.262c.31,2.328-1.316,5.164-2.414,6.4A5.017,5.017,0,0,1,233.156,239.391Zm-5.723-11.5a4.066,4.066,0,0,0-1.6.32,4.224,4.224,0,0,0-2.272,2.455c-1.047,2.785,2.064,5.2,4.854,6.745,3.6,1.987,6.455,1.957,8.259-.086,1.118-1.26,2.541-3.954,2.292-6a2.592,2.592,0,0,0-1.093-1.865c-.712,0-5.444.127-8.31-1.1A5.474,5.474,0,0,0,227.433,227.889Z" transform="translate(-178.793 -186.608)" fill="#263238"/>
      <path id="Path_1518" data-name="Path 1518" d="M240.41,233.662s-3.05.269-3.919.269-1.189-.681-1.7-.168-1.87-.854-1.87-.854a2.694,2.694,0,0,1-1.017,2.541c-1.357,1.189.854,4.757,8.5,3.909S240.41,233.662,240.41,233.662Z" transform="translate(-183.064 -189.321)" opacity="0.17"/>
      <path id="Path_1519" data-name="Path 1519" d="M226.31,227.355a5,5,0,0,0-3.166-.94c-1.947.071-3.817,3.05-3.746,4.107.086,1.321,1.942,3.243,3.746,3.746S227.53,230.882,226.31,227.355Z" transform="translate(-177.096 -186.124)" fill="#263238"/>
      <path id="Path_1520" data-name="Path 1520" d="M223.213,234.321a1.464,1.464,0,0,1-.4-.056c-1.85-.508-3.832-2.541-3.929-3.97a5.078,5.078,0,0,1,1.449-2.938,3.822,3.822,0,0,1,2.541-1.443,5.174,5.174,0,0,1,3.339,1.017l.056.046.025.066a6.607,6.607,0,0,1-1.306,6.363,2.572,2.572,0,0,1-1.779.915Zm-.132-7.9H222.9a3.339,3.339,0,0,0-2.186,1.276,4.643,4.643,0,0,0-1.316,2.541c.071,1.133,1.764,3.014,3.558,3.517a1.779,1.779,0,0,0,1.667-.742,6.064,6.064,0,0,0,1.22-5.774,4.864,4.864,0,0,0-2.76-.818Z" transform="translate(-176.845 -185.878)" fill="#263238"/>
      <path id="Path_1521" data-name="Path 1521" d="M201.755,220.091a6.871,6.871,0,0,1-2.541-2.806c-.722-1.733,1.3-4.615,2.592-4.615a1.621,1.621,0,0,1,1.443,2.45c-.59,1.225-1.367,3.243-1.083,3.893S202.263,220.67,201.755,220.091Z" transform="translate(-167.097 -179.369)" fill="#fff"/>
      <path id="Path_1522" data-name="Path 1522" d="M201.806,220.271a.61.61,0,0,1-.437-.229,7.044,7.044,0,0,1-2.592-2.907,3.885,3.885,0,0,1,.671-3.365c.508-.773,1.357-1.6,2.155-1.6a1.855,1.855,0,0,1,1.611.844,2.033,2.033,0,0,1,.061,1.972c-.808,1.718-1.26,3.263-1.078,3.675.229.508.213,1.306-.158,1.525A.427.427,0,0,1,201.806,220.271Zm0-.508Zm-.224-7.085c-.508,0-1.184.554-1.733,1.377a3.285,3.285,0,0,0-.625,2.882,6.668,6.668,0,0,0,2.419,2.689l.061.051.061.066a1.266,1.266,0,0,0-.051-.874c-.381-.859.732-3.355,1.083-4.1a1.525,1.525,0,0,0-.031-1.484,1.367,1.367,0,0,0-1.164-.6Z" transform="translate(-166.874 -179.122)" fill="#263238"/>
      <path id="Path_1523" data-name="Path 1523" d="M217.615,220.727a24.576,24.576,0,0,1-1.581-4.4c-.651-2.541-1.525-2.811-2.541-2.811s-1.657,1.525-2.541,1.875-3.1-.219-4.391.219-1.876,3.456-1.154,5.184,3.024,3.532,5.474,4.178,3.314.722,3.532.651A4.388,4.388,0,0,0,217.615,220.727Z" transform="translate(-170.062 -179.787)" fill="#fff"/>
      <path id="Path_1524" data-name="Path 1524" d="M214.037,225.65a16.923,16.923,0,0,1-3.4-.676c-2.5-.661-4.874-2.48-5.642-4.325a5.957,5.957,0,0,1,.147-4.295,2.119,2.119,0,0,1,1.159-1.23,7.547,7.547,0,0,1,2.582-.142,5.221,5.221,0,0,0,1.794-.066,3.075,3.075,0,0,0,.93-.808c.508-.508,1.017-1.088,1.693-1.088,1.23,0,2.125.508,2.765,3a24.573,24.573,0,0,0,1.565,4.341v.081a4.582,4.582,0,0,1-3.324,5.169A.946.946,0,0,1,214.037,225.65Zm-6.277-10.2a4.179,4.179,0,0,0-1.291.158,1.687,1.687,0,0,0-.859.956,5.489,5.489,0,0,0-.142,3.893c.7,1.682,2.983,3.416,5.306,4.031,2.877.762,3.339.666,3.385.651a4.089,4.089,0,0,0,3-4.574,25.158,25.158,0,0,1-1.586-4.4c-.62-2.424-1.4-2.623-2.272-2.623-.473,0-.884.447-1.316.925a3.507,3.507,0,0,1-1.108.93,5.23,5.23,0,0,1-2.033.107C208.507,215.47,208.126,215.45,207.76,215.45Z" transform="translate(-169.854 -179.541)" fill="#263238"/>
      <path id="Path_1525" data-name="Path 1525" d="M201.007,200.332l-3.954,2.3a.508.508,0,0,0-.127.742l7.98,9.372a.508.508,0,0,0,.646.092l3.38-2.333a.508.508,0,0,0,.107-.706l-7.4-9.347A.508.508,0,0,0,201.007,200.332Z" transform="translate(-165.993 -173.272)" fill="#263238"/>
      <path id="Path_1526" data-name="Path 1526" d="M205.022,212.946a.737.737,0,0,1-.564-.264l-7.98-9.367a.747.747,0,0,1,.193-1.128l3.949-2.282a.752.752,0,0,1,.961.183l7.405,9.342a.737.737,0,0,1,.152.569.757.757,0,0,1-.31.508l-3.38,2.328A.742.742,0,0,1,205.022,212.946ZM201,200.29a.2.2,0,0,0-.117.036l-3.949,2.3a.234.234,0,0,0-.117.168.244.244,0,0,0,.051.193l7.98,9.372a.239.239,0,0,0,.315.041l3.38-2.333a.2.2,0,0,0,.1-.158.234.234,0,0,0-.046-.183l-7.405-9.342A.249.249,0,0,0,201,200.29Zm-.244-.183Z" transform="translate(-165.739 -173.042)" fill="#263238"/>
      <path id="Path_1527" data-name="Path 1527" d="M217.787,211.888s-2.165,1.728-3.6.508,1.3-4.036,3.6-4.107,2.877,5.4,2.806,6.557" transform="translate(-174.336 -177.214)" fill="#fff"/>
      <path id="Path_1528" data-name="Path 1528" d="M220.35,214.85h0a.264.264,0,0,1-.239-.269c.061-.925-.32-4.574-1.57-5.84a1.26,1.26,0,0,0-.976-.447,4.6,4.6,0,0,0-3.67,2.541.93.93,0,0,0,.224,1.113c1.266,1.078,3.258-.508,3.278-.508a.259.259,0,0,1,.361.036.264.264,0,0,1-.041.361c-.1.076-2.343,1.845-3.929.508a1.438,1.438,0,0,1-.376-1.667,5.117,5.117,0,0,1,4.137-2.887,1.743,1.743,0,0,1,1.337.615c1.464,1.525,1.774,5.372,1.718,6.226A.254.254,0,0,1,220.35,214.85Z" transform="translate(-174.094 -176.969)" fill="#263238"/>
      <path id="Path_1529" data-name="Path 1529" d="M206.283,224.011s-2.811-1.443-3.314-2.953.574-5.332,2.16-5.764,1.8,1.017,1.657,2.231a9.693,9.693,0,0,0-.29,3.1c.219.94,1.443,1.728,1.443,2.734S206.715,224.372,206.283,224.011Z" transform="translate(-168.957 -180.621)" fill="#fff"/>
      <path id="Path_1530" data-name="Path 1530" d="M206.743,224.215a1.423,1.423,0,0,1-.849-.259c-.295-.158-2.9-1.555-3.416-3.09a7.039,7.039,0,0,1,.773-4.574,2.851,2.851,0,0,1,1.565-1.525,1.525,1.525,0,0,1,1.449.208,2.615,2.615,0,0,1,.508,2.3c-.051.4-.117.762-.183,1.113a4.625,4.625,0,0,0-.112,1.9,3.263,3.263,0,0,0,.645,1.1,2.9,2.9,0,0,1,.8,1.693,1.016,1.016,0,0,1-.6,1.017A1.377,1.377,0,0,1,206.743,224.215Zm-1.337-9.017a1.763,1.763,0,0,0-.457.071,2.389,2.389,0,0,0-1.245,1.276,6.575,6.575,0,0,0-.742,4.163c.468,1.4,3.161,2.8,3.192,2.806l.046.03a1.017,1.017,0,0,0,.93.086.539.539,0,0,0,.31-.539,2.541,2.541,0,0,0-.7-1.382,3.558,3.558,0,0,1-.737-1.3,5.052,5.052,0,0,1,.107-2.109c.061-.341.127-.7.173-1.078.107-.895,0-1.571-.351-1.855a.8.8,0,0,0-.529-.173Z" transform="translate(-168.71 -180.352)" fill="#263238"/>
      <path id="Path_1531" data-name="Path 1531" d="M211.806,227.441s-4.646-.717-4.214-4.427c.168-1.438,1.083-3.964,2.668-3.964s.717,3.675.717,3.675.793-1.225,2.74.29" transform="translate(-171.278 -182.506)" fill="#fff"/>
      <path id="Path_1532" data-name="Path 1532" d="M211.562,227.454h-.036c-.051,0-4.889-.8-4.427-4.707.158-1.367,1.083-4.188,2.917-4.188a1.017,1.017,0,0,1,.818.391c.534.671.412,2.089.274,2.938a1.58,1.58,0,0,1,.341-.1,2.875,2.875,0,0,1,2.18.783.259.259,0,0,1,.046.361.264.264,0,0,1-.361.041,2.5,2.5,0,0,0-1.769-.686.915.915,0,0,0-.6.341l-.767,1.133.31-1.332c.152-.666.452-2.541-.051-3.166a.508.508,0,0,0-.422-.2c-1.4,0-2.262,2.435-2.414,3.741-.4,3.421,3.822,4.117,4,4.142a.253.253,0,0,1-.041.5Z" transform="translate(-171.034 -182.265)" fill="#263238"/>
      <ellipse id="Ellipse_97" data-name="Ellipse 97" cx="15.843" cy="15.533" rx="15.843" ry="15.533" transform="translate(51.405 0.254)" fill="#fff"/>
      <path id="Path_1533" data-name="Path 1533" d="M252.907,178.723A15.79,15.79,0,1,1,269,162.937,15.962,15.962,0,0,1,252.907,178.723Zm0-31.065A15.281,15.281,0,1,0,268.5,162.937a15.455,15.455,0,0,0-15.588-15.278Z" transform="translate(-185.659 -147.15)" fill="#263238"/>
      <ellipse id="Ellipse_98" data-name="Ellipse 98" cx="12.717" cy="12.468" rx="12.717" ry="12.468" transform="translate(54.531 3.319)" opacity="0.17"/>
      <path id="Path_1534" data-name="Path 1534" d="M269.659,166.379a15.38,15.38,0,0,0-6.1-12.229c1.459,15.248-7.294,9.754-17.708,12.793a15.34,15.34,0,0,0-7.192,4,15.894,15.894,0,0,0,31-4.564Z" transform="translate(-186.569 -150.592)" fill="#263238"/>
      <path id="Path_1535" data-name="Path 1535" d="M253.546,181.625a15.985,15.985,0,0,1-15.39-11.146l-.046-.142.1-.112a16.051,16.051,0,0,1,7.309-4.066,37.1,37.1,0,0,1,8.29-1.2c3.477-.224,6.226-.4,7.827-2.277,1.4-1.637,1.845-4.513,1.408-9.047l-.051-.579.463.356a15.594,15.594,0,0,1,6.186,12.432A15.965,15.965,0,0,1,253.546,181.625Zm-14.862-11.182a15.63,15.63,0,0,0,30.45-4.6,15.07,15.07,0,0,0-5.53-11.69c.351,4.341-.152,7.156-1.581,8.834-1.743,2.033-4.727,2.231-8.183,2.455a36.738,36.738,0,0,0-8.163,1.21,15.556,15.556,0,0,0-6.994,3.822Z" transform="translate(-186.298 -150.051)" fill="#263238"/>
      <path id="Path_1536" data-name="Path 1536" d="M249.8,159.414a2.435,2.435,0,1,1-3.436,0,2.435,2.435,0,0,1,3.436,0Z" transform="translate(-190.006 -152.832)" fill="#fff"/>
      <path id="Path_1537" data-name="Path 1537" d="M247.859,163.587h0a2.679,2.679,0,1,1,.005-5.357h0a2.673,2.673,0,0,1,1.9.788h0a2.689,2.689,0,0,1-1.9,4.574Zm0-4.864a2.18,2.18,0,0,0,0,4.356h0a2.167,2.167,0,0,0,1.54-3.7h0a2.16,2.16,0,0,0-1.525-.64Z" transform="translate(-189.78 -152.598)" fill="#263238"/>
      <path id="Path_1538" data-name="Path 1538" d="M221.079,252.241s-10.531.564-16.305,2.491-7.477,3.172-7.7,5.891-.117,5.433,6.343,7.471,13.362,1.586,18.455,1.017,6.343-5.438,6.343-9.174S224.251,252.013,221.079,252.241Z" transform="translate(-166.091 -198.823)" fill="#fff"/>
      <path id="Path_1539" data-name="Path 1539" d="M214,269.6a36.361,36.361,0,0,1-10.9-1.525c-6.445-2.033-6.76-4.823-6.516-7.736.234-2.816,1.926-4.127,7.873-6.1,5.718-1.906,16.173-2.5,16.371-2.506a6.239,6.239,0,0,1,4.468,1.952,8.726,8.726,0,0,1,2.938,6c0,2.613-.64,8.768-6.567,9.428A69.93,69.93,0,0,1,214,269.6Zm7.09-17.362h-.229c-.107,0-10.562.585-16.239,2.48s-7.319,3.116-7.527,5.667c-.193,2.287-.427,5.128,6.165,7.212,6.328,2,13.133,1.586,18.353,1.017,5.52-.615,6.1-6.44,6.1-8.92a8.2,8.2,0,0,0-2.775-5.632A5.873,5.873,0,0,0,221.086,252.235Zm-.249-.244Z" transform="translate(-165.848 -198.572)" fill="#263238"/>
      <path id="Path_1540" data-name="Path 1540" d="M227.143,262.763l-1.362,4.066s-3.4-4.422-3.736-2.719,0,2.887-.508,2.887-1.87-1.357-1.87-.676a1.749,1.749,0,0,1-.676,1.189,6.911,6.911,0,0,0-1.7-.508h-1.87a7.572,7.572,0,0,1-2.379-1.189,3.775,3.775,0,0,0-.849,1.7c0,.686.341,5.083,2.033,5.779s9.179.681,11.217.341,5.271-.341,5.444-1.87S228.5,260.9,227.143,262.763Z" transform="translate(-173.553 -203.88)" opacity="0.17"/>
      <path id="Path_1541" data-name="Path 1541" d="M220.829,277.449c-3.822,0-8.366-.447-8.412-.452a.255.255,0,1,1,.051-.508c.046,0,4.574.452,8.361.452s8.554-.224,8.6-.224a.254.254,0,0,1,.269.239.259.259,0,0,1-.244.269C229.409,277.226,224.646,277.449,220.829,277.449Z" transform="translate(-173.551 -210.75)" fill="#263238"/>
      <path id="Path_1542" data-name="Path 1542" d="M159.73,317.281s-2.49,4.529-3.624,5.545-4.508.569-9.591-2.724-8.945-8.834-9.627-11.441a3.848,3.848,0,0,1,3.283-4.981c2.267-.229,4.3,3.283,6.684,4.305A12.829,12.829,0,0,0,153.423,309C155.324,308.788,160.747,313.881,159.73,317.281Z" transform="translate(-136.437 -224.116)" fill="#fff"/>
      <path id="Path_1543" data-name="Path 1543" d="M154.206,323.32c-1.708,0-4.4-.844-8.107-3.233-5.194-3.349-9.052-8.976-9.738-11.588a4.3,4.3,0,0,1,.574-3.588,4.066,4.066,0,0,1,2.933-1.713c1.438-.147,2.709,1.017,4.066,2.257a10.953,10.953,0,0,0,2.755,2.069,12.707,12.707,0,0,0,6.44,1.017c1.093-.122,3.111,1.2,4.7,3.1,1.667,1.987,2.363,3.99,1.916,5.494v.051c-.107.183-2.541,4.574-3.68,5.616A2.694,2.694,0,0,1,154.206,323.32Zm-14.1-19.624a1.132,1.132,0,0,0-.188,0,3.558,3.558,0,0,0-2.567,1.494,3.8,3.8,0,0,0-.508,3.172c.661,2.541,4.432,8.01,9.52,11.289,4.95,3.187,8.3,3.659,9.316,2.74s3.365-5.083,3.558-5.459c.386-1.337-.274-3.156-1.825-5-1.438-1.718-3.349-3.024-4.249-2.917a13.174,13.174,0,0,1-6.7-1.017,11.37,11.37,0,0,1-2.9-2.16C142.384,304.733,141.25,303.7,140.107,303.7Zm19.37,13.347Z" transform="translate(-136.184 -223.878)" fill="#263238"/>
      <path id="Path_1544" data-name="Path 1544" d="M180.274,269.384s-4.94,5.042-7.319,10.14-4.163,9.062-2.75,11.893c.432.874,3.761,5.327,6.475,5.327s11.807-7.014,14.47-14.47a13.892,13.892,0,0,0,.93-6.419S183.766,264.688,180.274,269.384Z" transform="translate(-152.661 -206.69)" fill="#fff"/>
      <path id="Path_1545" data-name="Path 1545" d="M176.427,296.752c-2.887,0-6.3-4.656-6.7-5.469-1.525-3.009.468-7.228,2.75-12.112s7.075-9.916,7.349-10.2a2.877,2.877,0,0,1,2.384-1.24c4.025,0,9.591,7.41,9.825,7.726l.036.051v.061a14.347,14.347,0,0,1-.94,6.546C188.533,289.4,179.41,296.752,176.427,296.752Zm5.779-28.514a2.359,2.359,0,0,0-1.982,1.052l-.025.025c-.046.051-4.935,5.083-7.268,10.069-2.221,4.768-4.142,8.879-2.755,11.69.371.737,3.639,5.184,6.252,5.184s11.548-6.8,14.231-14.3a14.122,14.122,0,0,0,.93-6.236c-.508-.676-5.774-7.487-9.383-7.487Zm-2.186.9Z" transform="translate(-152.407 -206.444)" fill="#263238"/>
      <path id="Path_1546" data-name="Path 1546" d="M193.241,272.539s-3.909-3.4-3.227-.168,1.87,6.455,1.189,8.132c-.595,1.489-3.227,2.033-2.541,2.379s2.541-1.525-.168.849-3.558,2.384-3.4,3.4a5.114,5.114,0,0,0,.508,1.525c.173.508-1.357,2.541-2.206,4.066s-3.243,2.155-2.211,3.741,5.438-2.379,7.309-3.909,4.249-2.724,5.271-4.93,2.541-5.083,2.887-7.99C196.641,279.68,197.83,274.068,193.241,272.539Z" transform="translate(-158.181 -208.04)" opacity="0.17"/>
      <path id="Path_1547" data-name="Path 1547" d="M182.114,301.26h-.086a.254.254,0,0,1-.152-.325c.046-.132,1.184-3.273,2.836-4.214a9.7,9.7,0,0,0,3.019-3.6c.168-.28.341-.564.508-.844a7.965,7.965,0,0,1,2.074-2.033,11.741,11.741,0,0,0,2.917-2.943c1.759-2.643,2.668-8.676,2.679-8.737a.259.259,0,0,1,.29-.213.254.254,0,0,1,.213.29c-.041.249-.935,6.206-2.76,8.945a12.264,12.264,0,0,1-3.05,3.05,7.476,7.476,0,0,0-1.957,1.916c-.173.28-.346.559-.508.839a10.026,10.026,0,0,1-3.2,3.776c-1.489.854-2.6,3.919-2.607,3.949A.254.254,0,0,1,182.114,301.26Z" transform="translate(-158.638 -211.664)" fill="#263238"/>
      <path id="Path_1548" data-name="Path 1548" d="M150.42,315.036c-3.4-1.245-6.455-3.736-7.024-5.55-.452-1.443-1.764-4.473-2.277-5.637a2.37,2.37,0,0,0-1.017-.137,3.848,3.848,0,0,0-3.283,4.981c.681,2.607,4.529,8.158,9.627,11.441s8.493,3.736,9.627,2.714a22.487,22.487,0,0,0,2.689-3.919C156.778,316.561,153.551,316.18,150.42,315.036Z" transform="translate(-136.403 -224.133)" fill="#fff"/>
      <path id="Path_1549" data-name="Path 1549" d="M154.206,323.324c-1.708,0-4.4-.844-8.107-3.233-5.194-3.349-9.052-8.976-9.738-11.588a4.3,4.3,0,0,1,.574-3.588,4.066,4.066,0,0,1,2.933-1.713,2.649,2.649,0,0,1,1.113.147l.1.041.046.1c.539,1.22,1.84,4.219,2.292,5.662.559,1.789,3.639,4.2,6.867,5.388.783.29,1.581.508,2.353.762,2.348.712,4.574,1.382,6.1,3.207l.112.137-.091.158a22.353,22.353,0,0,1-2.74,3.98A2.694,2.694,0,0,1,154.206,323.324ZM140.086,303.7h-.168a3.558,3.558,0,0,0-2.567,1.494,3.8,3.8,0,0,0-.508,3.172c.661,2.541,4.432,8.01,9.52,11.289,4.95,3.187,8.3,3.654,9.316,2.74a19.194,19.194,0,0,0,2.541-3.7c-1.438-1.611-3.532-2.241-5.748-2.912-.778-.239-1.586-.478-2.384-.773h0c-3.41-1.25-6.567-3.761-7.172-5.713-.432-1.383-1.667-4.234-2.226-5.51A2.179,2.179,0,0,0,140.086,303.7Z" transform="translate(-136.184 -223.882)" fill="#263238"/>
      <path id="Path_1550" data-name="Path 1550" d="M157.486,321.406c-1.184-1.86-3.853-2.643-6.714-3.736-3.848-1.474-9.51-6.1-9.962-9.286a5.954,5.954,0,0,0-2-3.924,3.878,3.878,0,0,0-1.967,4.6c.681,2.607,4.529,8.158,9.626,11.441s8.493,3.736,9.627,2.714A10.585,10.585,0,0,0,157.486,321.406Z" transform="translate(-136.419 -224.505)" fill="#fff"/>
      <path id="Path_1551" data-name="Path 1551" d="M154.194,323.657c-1.708,0-4.4-.844-8.107-3.233-5.194-3.349-9.052-8.976-9.738-11.588a4.142,4.142,0,0,1,2.1-4.895l.147-.071.127.1a6.221,6.221,0,0,1,2.089,4.066c.427,3.014,5.84,7.588,9.8,9.113l1.088.407c2.506.93,4.671,1.738,5.754,3.431l.086.137-.091.137a10.422,10.422,0,0,1-1.433,1.865,2.694,2.694,0,0,1-1.825.529Zm-15.665-19.182a3.639,3.639,0,0,0-1.687,4.234c.661,2.541,4.432,8.01,9.52,11.288,4.95,3.187,8.3,3.654,9.316,2.74a9.147,9.147,0,0,0,1.245-1.621c-1.017-1.459-3.05-2.216-5.408-3.09l-1.088-.412c-3.649-1.393-9.657-6.1-10.13-9.484a5.809,5.809,0,0,0-1.769-3.654Z" transform="translate(-136.171 -224.215)" fill="#263238"/>
      <path id="Path_1552" data-name="Path 1552" d="M166.133,313.082s5.855,3.2,8.254,7.721a2.714,2.714,0,0,0,1.682-1.952c.447-1.6-2.75-4.971-5.855-6.567S165.955,311.395,166.133,313.082Z" transform="translate(-150.896 -227.912)" fill="#00a0df"/>
      <path id="Path_1553" data-name="Path 1553" d="M174.037,320.851l-.1-.178c-2.328-4.407-8.092-7.588-8.132-7.624l-.117-.061v-.137a1.663,1.663,0,0,1,.584-1.708c.737-.508,2.033-.285,3.868.661,3.105,1.6,6.48,5.083,5.987,6.862a2.963,2.963,0,0,1-1.865,2.125Zm-7.883-8.178c.859.508,5.835,3.431,8.132,7.558a2.541,2.541,0,0,0,1.327-1.7c.386-1.388-2.613-4.671-5.728-6.277-2.165-1.113-3.05-.91-3.349-.691A1.159,1.159,0,0,0,166.154,312.673Z" transform="translate(-150.678 -227.661)" fill="#263238"/>
      <path id="Path_1554" data-name="Path 1554" d="M191,264.732s.747-4.1,6.328-4.717,7.075,10.165,5.337,13.027C202.69,273.042,197.1,264.981,191,264.732Z" transform="translate(-163.133 -202.637)" fill="#263238"/>
      <path id="Path_1555" data-name="Path 1555" d="M202.41,273.277l-.224-.32c-.056-.081-5.591-7.965-11.466-8.2h-.29l.051-.285c0-.046.844-4.29,6.551-4.925a4.547,4.547,0,0,1,4.407,2.45c2.069,3.243,2.414,8.925,1.174,10.963Zm-11.355-9.012c5.362.442,10.165,6.521,11.3,8.061.915-2.145.508-7.2-1.347-10.074-1.047-1.647-2.368-2.394-3.924-2.216C192.6,260.535,191.345,263.356,191.055,264.266Z" transform="translate(-162.852 -202.405)" fill="#263238"/>
      <path id="Path_1556" data-name="Path 1556" d="M296.316,190.627a8.4,8.4,0,0,1,8.132-1.408c4.727,1.667,5.7,14.1,3.878,26.028s-5.438,15-10.064,15S291,228.452,291,224.091,296.316,190.627,296.316,190.627Z" transform="translate(-212.306 -167.598)" fill="#fff"/>
      <path id="Path_1557" data-name="Path 1557" d="M297.982,230.268a8.755,8.755,0,0,1-5.525-1.494,6.034,6.034,0,0,1-2-4.915c0-4.33,5.123-32.32,5.337-33.51v-.081l.061-.061a8.747,8.747,0,0,1,8.381-1.459c5.017,1.769,5.835,14.572,4.066,26.3-1.626,10.674-4.712,15.217-10.318,15.217Zm-1.7-39.736c-.325,1.784-5.316,29.159-5.316,33.327a5.374,5.374,0,0,0,1.809,4.518,8.136,8.136,0,0,0,5.2,1.382h0c3.741,0,7.827-1.759,9.815-14.785,1.713-11.243,1.017-24.087-3.715-25.749A8.214,8.214,0,0,0,296.285,190.532Z" transform="translate(-212.041 -167.365)" fill="#263238"/>
      <path id="Path_1558" data-name="Path 1558" d="M299.98,195.269s2.033-3,6.684-1.525,3.258,8.752,3.258,14.623-3.558,19.1-5.322,21.012-6.958,2.18-8.046.407S300.661,200.179,299.98,195.269Z" transform="translate(-214.964 -169.861)" opacity="0.17"/>
      <path id="Path_1559" data-name="Path 1559" d="M274.989,200.041c0-7.929-3.283-16.534-5.322-16.422,0,0-15.517,8.951-18.572,12.234-2.9,3.116-6.923,13.977-6.648,17.281a3.57,3.57,0,0,0-.956,2.16c-.828,1.667-2.252,4.889-2.252,7.375,0,3.512.793,10.079,4.193,11.665s13.362,3.853,18.008,1.362c4.234-2.272,6.292-7.466,5.764-11.624a3.224,3.224,0,0,0,.574-.381,1.789,1.789,0,0,0,.412-2.465C274.755,217.474,274.989,206.6,274.989,200.041Z" transform="translate(-187.838 -165.083)" fill="#fff"/>
      <path id="Path_1560" data-name="Path 1560" d="M257.487,236.848a35.212,35.212,0,0,1-12.407-2.5c-4.219-1.967-4.341-10.887-4.341-11.9,0-2.5,1.393-5.7,2.247-7.426a3.689,3.689,0,0,1,.956-2.191c-.178-3.38,3.741-14.191,6.719-17.393s18-11.914,18.633-12.28l.051-.03h.061a1.581,1.581,0,0,1,1.123.508C272.6,185.6,275,193.077,275,199.791c0,5.139,0,17.088-4.727,21.261a2.033,2.033,0,0,1-.574,2.6,3.613,3.613,0,0,1-.463.325c.427,3.944-1.484,9.327-5.921,11.69A12.292,12.292,0,0,1,257.487,236.848Zm12-53.215c-1.042.6-15.548,9.032-18.45,12.153s-6.846,13.932-6.582,17.108V213l-.071.081a3.2,3.2,0,0,0-.9,1.962v.076l-.036.066c-.828,1.672-2.221,4.839-2.221,7.263,0,4.407,1.062,10.043,4.066,11.436,3.253,1.525,13.215,3.812,17.789,1.367,4.3-2.313,6.1-7.583,5.632-11.37V223.7l.158-.081a2.653,2.653,0,0,0,.508-.351,1.525,1.525,0,0,0,.361-2.13l-.117-.193.173-.142c4.7-3.888,4.7-15.883,4.7-21.007,0-6.607-2.318-13.9-4.31-15.782A1.25,1.25,0,0,0,269.487,183.633Z" transform="translate(-187.592 -164.843)" fill="#263238"/>
      <path id="Path_1561" data-name="Path 1561" d="M266,205.671a6.768,6.768,0,0,0-.676,6.1c1.357,3.212,5.266,5.591,3.05,7.817s-2.033,3.05-1.017,3.233,1.525.676,0,.849-3.558-.173-2.211.681,4.249.849,2.541,1.357-10.028-.508-9.52.508.508,1.194,4.757,2.384,6.46.341,5.443,1.357-4.066.681-3.914,1.189a3.837,3.837,0,0,0,1.016,1.189s.681.173-2.211.508-10.165-3.2-8.305-1.845,4.249,2.033,4.574,2.719a2.91,2.91,0,0,1-1.017,2.892c-.844.513-5.952,6.455-3.741,10.709s10.541,2.719,12.92,1.017,4.417-6.8,4.93-8.839-.849-2.719,0-2.887,1.357.335,1.189-.854-1.189-2.033-1.189-2.719.681-.681,2.033-1.87,1.87-1.525,1.87-2.887-.168-2.211.849-3.05,1.362-.849,1.362-2.033a12.454,12.454,0,0,1,0-3.558,28.383,28.383,0,0,0,.849-3.05,11.6,11.6,0,0,0-1.377-8.31C276.521,205.712,268.887,202.779,266,205.671Z" transform="translate(-194.219 -175.338)" opacity="0.17"/>
      <path id="Path_1562" data-name="Path 1562" d="M282.015,243.974a.256.256,0,0,1-.178-.437,3.793,3.793,0,0,0,1.337-3.654,6.6,6.6,0,0,1-.051-.7c0-1.235,1.525-2.14,2.714-2.862l.127-.081c.219-.127.295-.224.295-.274,0-.173-.508-.549-.956-.884-.356-.259-.757-.554-1.184-.92a1.22,1.22,0,0,1-.462-.869c-.051-.859.8-1.794,1.891-2.978a16.263,16.263,0,0,0,2.369-3.05c1.525-2.836.213-10.165.2-10.262a.258.258,0,0,1,.508-.092c.056.31,1.362,7.624-.249,10.592a16.581,16.581,0,0,1-2.44,3.141c-.925,1.017-1.8,1.962-1.759,2.607a.712.712,0,0,0,.285.508c.412.351.808.64,1.154.9.717.508,1.184.869,1.164,1.311a.93.93,0,0,1-.539.691l-.132.076c-1.017.625-2.465,1.479-2.465,2.43a6.1,6.1,0,0,0,.051.645,4.281,4.281,0,0,1-1.484,4.066A.259.259,0,0,1,282.015,243.974Z" transform="translate(-207.764 -181.351)" fill="#263238"/>
      <path id="Path_1563" data-name="Path 1563" d="M250.706,219.417c.4-.3,2.541.137,2.994.208,2.973.508,4.219,1.189,3.37,3.487-.539,1.459-.742,4.178-2.292,5.23-.986.671-5.083-.066-6.038-1.367s1.144-6.551,1.144-6.551A2.282,2.282,0,0,1,250.706,219.417Z" transform="translate(-191.402 -182.634)" fill="#00a0df"/>
      <path id="Path_1564" data-name="Path 1564" d="M253.233,228.612c-1.713,0-4.2-.7-4.94-1.723-1.017-1.377.889-6.247,1.108-6.8a2.617,2.617,0,0,1,.9-1.108h0c.315-.239,1.144-.2,2.958.122l.229.041c1.789.295,3.085.671,3.6,1.56a2.578,2.578,0,0,1-.036,2.262,13.358,13.358,0,0,0-.386,1.372c-.351,1.4-.788,3.156-2,3.985A2.77,2.77,0,0,1,253.233,228.612Zm-2.612-9.23a2.155,2.155,0,0,0-.737.874c-.574,1.449-1.881,5.362-1.179,6.333.895,1.24,4.874,1.86,5.687,1.306,1.052-.717,1.443-2.3,1.794-3.69a14.165,14.165,0,0,1,.4-1.423,2.134,2.134,0,0,0,.076-1.825c-.361-.615-1.3-1.017-3.248-1.316l-.234-.041c-1.977-.361-2.455-.295-2.562-.219Z" transform="translate(-191.16 -182.396)" fill="#263238"/>
      <path id="Path_1565" data-name="Path 1565" d="M260.863,242.222a2.246,2.246,0,1,1-.658-1.594A2.252,2.252,0,0,1,260.863,242.222Z" transform="translate(-195.273 -192.793)" fill="#263238"/>
      <path id="Path_1566" data-name="Path 1566" d="M258.366,244.472a2.506,2.506,0,1,1,2.506-2.5A2.506,2.506,0,0,1,258.366,244.472Zm0-4.5a2,2,0,1,0,2,2A2,2,0,0,0,258.366,239.973Z" transform="translate(-195.027 -192.542)" fill="#263238"/>
      <path id="Path_1567" data-name="Path 1567" d="M254.493,251.427a2.247,2.247,0,1,1-2.246-2.247A2.247,2.247,0,0,1,254.493,251.427Z" transform="translate(-192.145 -197.322)" fill="#263238"/>
      <path id="Path_1568" data-name="Path 1568" d="M252,253.681a2.5,2.5,0,1,1,2.5-2.5A2.5,2.5,0,0,1,252,253.681Zm0-4.493a1.992,1.992,0,1,0,1.992,1.992A1.992,1.992,0,0,0,252,249.188Z" transform="translate(-191.899 -197.076)" fill="#263238"/>
      <path id="Path_1569" data-name="Path 1569" d="M267.735,242.426a22.965,22.965,0,0,1-8.768-1.5,1.36,1.36,0,1,1,1.1-2.485c.142.061,10.363,4.341,24.432-3.456a1.359,1.359,0,1,1,1.316,2.379A37.279,37.279,0,0,1,267.735,242.426Z" transform="translate(-196.157 -190.258)" fill="#00a0df"/>
      <path id="Path_1570" data-name="Path 1570" d="M267.493,242.431a23.24,23.24,0,0,1-8.869-1.525,1.616,1.616,0,0,1,1.311-2.953c.1.046,10.272,4.28,24.2-3.441a1.622,1.622,0,0,1,1.23-.142,1.591,1.591,0,0,1,.935.8,1.611,1.611,0,0,1-.63,2.191A37.642,37.642,0,0,1,267.493,242.431Zm-8.208-4.1a1.116,1.116,0,0,0-.432,2.135,22.715,22.715,0,0,0,8.64,1.479,37.043,37.043,0,0,0,17.962-5.027,1.108,1.108,0,1,0-1.072-1.936c-14.15,7.842-24.549,3.512-24.651,3.466a1.092,1.092,0,0,0-.473-.117Z" transform="translate(-195.915 -190.009)" fill="#263238"/>
      <path id="Path_1571" data-name="Path 1571" d="M267.4,257.6a30.2,30.2,0,0,1-14.958-4.137,1.362,1.362,0,0,1,1.459-2.3c.152.1,12.386,7.624,24.793.767a1.359,1.359,0,1,1,1.316,2.379A25.662,25.662,0,0,1,267.4,257.6Z" transform="translate(-193.06 -198.21)" fill="#00a0df"/>
      <path id="Path_1572" data-name="Path 1572" d="M267.1,257.553a30.654,30.654,0,0,1-15.106-4.168,1.606,1.606,0,0,1-.706-1.017,1.621,1.621,0,0,1,2.44-1.728c.122.076,12.259,7.558,24.529.762a1.613,1.613,0,0,1,1.565,2.821,25.956,25.956,0,0,1-12.722,3.329Zm-14.231-6.638a1.1,1.1,0,0,0-.595,2.033,30.119,30.119,0,0,0,14.831,4.066,25.514,25.514,0,0,0,12.483-3.212,1.108,1.108,0,1,0-1.072-1.936c-12.529,6.943-24.9-.7-25.047-.778a1.108,1.108,0,0,0-.6-.173Z" transform="translate(-192.758 -197.919)" fill="#263238"/>
      <ellipse id="Ellipse_99" data-name="Ellipse 99" cx="8.437" cy="7.812" rx="8.437" ry="7.812" transform="translate(60.198 59.873)" fill="#00a0df"/>
      <path id="Path_1573" data-name="Path 1573" d="M262.8,280.587c-4.793,0-8.691-3.619-8.691-8.071s3.9-8.066,8.691-8.066,8.691,3.619,8.691,8.066S267.594,280.587,262.8,280.587Zm0-15.629c-4.508,0-8.183,3.39-8.183,7.558s3.675,7.563,8.183,7.563,8.183-3.4,8.183-7.563S267.315,264.958,262.8,264.958Z" transform="translate(-194.166 -204.831)" fill="#263238"/>
      <path id="Path_1574" data-name="Path 1574" d="M222.46,361.028s.452,3.4-.564,4.64-5.322,3.512-7.7,5.322-2.033,2.5-1.7,3.853,3.741,2.15,9.855,2.15,12.229-4.64,13.25-6.226-2.155-7.024-2.379-9.062-.341-2.714-.341-2.714S227.217,363.061,222.46,361.028Z" transform="translate(-173.586 -251.32)" fill="#fff"/>
      <path id="Path_1575" data-name="Path 1575" d="M222.106,376.784c-4.341,0-9.616-.407-10.1-2.343l-.056-.214c-.351-1.372-.427-2.165,1.845-3.9,1.017-.773,2.353-1.611,3.649-2.43a22.129,22.129,0,0,0,4.01-2.851c.94-1.149.508-4.417.508-4.452l-.061-.442.412.178c4.574,1.957,10.114-1.972,10.165-2.033l.33-.239.066.4c0,.03.117.712.346,2.734a16.549,16.549,0,0,0,1.1,3.268c.956,2.384,1.947,4.854,1.24,5.957C234.523,372.073,228.266,376.784,222.106,376.784Zm.412-15.832c.086.976.193,3.36-.671,4.417a22.029,22.029,0,0,1-4.127,2.963c-1.291.808-2.623,1.647-3.614,2.4-2.114,1.611-1.962,2.2-1.662,3.37l.056.219c.117.457,1.149,1.957,9.606,1.957,5.977,0,12.025-4.539,13.037-6.1.564-.884-.463-3.441-1.286-5.494a16.6,16.6,0,0,1-1.133-3.4c-.132-1.184-.224-1.911-.28-2.308C231.168,359.793,226.624,362.431,222.517,360.952Z" transform="translate(-173.344 -250.862)" fill="#263238"/>
      <path id="Path_1576" data-name="Path 1576" d="M228.333,364.02a7.827,7.827,0,0,1-.9,4.188c-1.133,2.033-5.886,3.05-6.567,4.417s1.809,1.815,5.55,0a11.228,11.228,0,0,0,5.886-7.7C232.521,363,229.583,362.775,228.333,364.02Z" transform="translate(-177.761 -253.412)" fill="#fff"/>
      <path id="Path_1577" data-name="Path 1577" d="M221.938,373.838a2.033,2.033,0,0,1-1.449-.437.9.9,0,0,1-.112-1.128c.351-.7,1.525-1.245,2.841-1.886,1.479-.7,3.156-1.5,3.731-2.541a7.665,7.665,0,0,0,.879-4.041v-.122l.086-.081a3.278,3.278,0,0,1,3.456-.595,1.606,1.606,0,0,1,.94,1.708,11.576,11.576,0,0,1-6.033,7.9A10.672,10.672,0,0,1,221.938,373.838Zm6.4-9.942a8.132,8.132,0,0,1-.945,4.214c-.661,1.184-2.409,2.033-3.959,2.755-1.2.569-2.333,1.113-2.6,1.652-.178.351-.036.508,0,.544.452.457,2.363.483,5.194-.889a11,11,0,0,0,5.748-7.5,1.1,1.1,0,0,0-.661-1.189A2.8,2.8,0,0,0,228.342,363.9Z" transform="translate(-177.506 -253.171)" fill="#263238"/>
      <path id="Path_1578" data-name="Path 1578" d="M235.6,380.252a2.774,2.774,0,0,0,.051-1.962c-3.319,2.465-7.99,5.367-12.056,5.809a19.578,19.578,0,0,1-11.08-1.952,2.5,2.5,0,0,0,0,2.18c.341,1.357,3.741,2.15,9.855,2.15S234.576,381.838,235.6,380.252Z" transform="translate(-173.586 -260.81)" fill="#fff"/>
      <path id="Path_1579" data-name="Path 1579" d="M222.1,386.309c-4.341,0-9.616-.407-10.1-2.343l-.056-.213a2.551,2.551,0,0,1,.1-2.155l.122-.213.219.112a19.193,19.193,0,0,0,10.933,1.931c4.066-.442,8.717-3.38,11.929-5.764l.31-.234.086.381a2.855,2.855,0,0,1-.081,2.155C234.518,381.6,228.262,386.309,222.1,386.309Zm-9.713-4.244a2.313,2.313,0,0,0,.061,1.56l.056.219c.117.457,1.149,1.957,9.606,1.957,5.977,0,12.026-4.539,13.037-6.1h0a2.033,2.033,0,0,0,.092-1.382c-3.248,2.374-7.837,5.184-11.858,5.621A19.792,19.792,0,0,1,212.389,382.065Z" transform="translate(-173.339 -260.387)" fill="#263238"/>
      <ellipse id="Ellipse_100" data-name="Ellipse 100" cx="6.445" cy="4.488" rx="6.445" ry="4.488" transform="matrix(0.993, -0.118, 0.118, 0.993, 46.872, 106.048)" fill="#00a0df"/>
      <path id="Path_1580" data-name="Path 1580" d="M235.032,363.2a7.913,7.913,0,0,1-3.7-.859,3.866,3.866,0,0,1-.8-6.719,8.31,8.31,0,0,1,4.508-1.911c3.67-.437,6.9,1.321,7.212,3.919a4.168,4.168,0,0,1-1.581,3.6,8.3,8.3,0,0,1-4.508,1.906A9.441,9.441,0,0,1,235.032,363.2Zm1.128-9.047a8.466,8.466,0,0,0-1.062.066A7.8,7.8,0,0,0,230.864,356a3.365,3.365,0,0,0,.706,5.891,8.29,8.29,0,0,0,8.762-1.042,3.685,3.685,0,0,0,1.413-3.156C241.5,355.622,239.093,354.158,236.16,354.158Z" transform="translate(-181.787 -248.693)" fill="#263238"/>
      <path id="Path_1581" data-name="Path 1581" d="M227.06,318.95s-2.877,4.508-1.291,14.587c.834,5.3,1.931,8.91,5.215,9.362s8.4-.869,9.123-3.766c.61-2.435,3.975-13.794-.29-17.235C237.372,319.926,231.476,315.438,227.06,318.95Z" transform="translate(-179.995 -230.99)" fill="#fff"/>
      <path id="Path_1582" data-name="Path 1582" d="M232.072,342.984a9.764,9.764,0,0,1-1.372-.091c-3.355-.462-4.529-3.858-5.428-9.571-1.581-10.059,1.2-14.577,1.327-14.765l.056-.061c4.747-3.776,11.014,1.281,13.078,2.948,4.092,3.3,1.418,13.51.539,16.859-.066.254-.122.468-.163.635C239.432,341.637,235.315,342.984,232.072,342.984Zm-5.083-24.122c-.254.437-2.709,4.986-1.23,14.379.859,5.479,1.952,8.732,5,9.149s8.132-.788,8.844-3.558c.041-.173.1-.386.163-.64.859-3.273,3.471-13.24-.366-16.336-1.962-1.611-7.964-6.46-12.391-2.994Z" transform="translate(-179.747 -230.734)" fill="#263238"/>
      <path id="Path_1583" data-name="Path 1583" d="M236.792,328.6s-4.757-1.357-4.249-.168,2.379,1.525,4.066,1.87,5.677,1.469,3.944,2.348-3.268,1.9-2.079,2.582,2.963,1.809,2.079,2.18-.717,2.069-.376,2.917a2.98,2.98,0,0,1,.168,2.719c-.513,1.194.173,4.574,1.017.508a82.6,82.6,0,0,0,1.362-9.86c.168-2.033,0-3.558-.508-3.741a15.952,15.952,0,0,0-2.887-.681,14.085,14.085,0,0,1-2.536-.676Z" transform="translate(-183.542 -236.051)" opacity="0.17"/>
      <path id="Path_1584" data-name="Path 1584" d="M257.839,281.51s1.7-6.1-2.379-10.984-14.608,2.267-19.477,9.515-6,12.452-5.891,14.155,2.267,4.066,9.515,3.848S255.689,291.025,257.839,281.51Z" transform="translate(-182.352 -207.029)" fill="#fff"/>
      <path id="Path_1585" data-name="Path 1585" d="M238.4,298.055c-8.1,0-8.752-3.4-8.8-4.1-.112-1.728.981-6.938,5.931-14.313,3.482-5.179,10.455-10.943,15.649-11.217a4.9,4.9,0,0,1,4.239,1.682c4.066,4.839,2.49,10.963,2.429,11.207-2.206,9.733-11.329,16.5-18.47,16.727Zm13.154-29.134H251.2c-5.037.264-11.837,5.911-15.248,10.994-4.524,6.734-5.972,12.056-5.845,13.992.122,1.8,2.618,3.822,9.25,3.614,6.958-.214,15.848-6.831,18-16.336h0c0-.061,1.611-6.048-2.328-10.755A4.305,4.305,0,0,0,251.55,268.921Z" transform="translate(-182.106 -206.771)" fill="#263238"/>
      <path id="Path_1586" data-name="Path 1586" d="M263.671,277.1s-3.741-6.1-4.422-5.438,2.541,5.591.681,6.287-4.417-1.87-4.757-1.189,3.558,3.558,1.7,5.591-5.438,2.719-5.779,5.438-1.017,4.762-1.87,4.93-2.211,0-2.211,1.017,1.017,1.189,1.017,1.7-.549.788-2.231.651-2.186.031-2.186.712a6.953,6.953,0,0,0,.335,1.7s3.8,2.5,4.874.742,1.586-2.272,2.267-3.288,4.422-5.271,6.1-7.141,1.525-2.892,2.379-2.719.854-1.017.854-1.87a1.017,1.017,0,0,1,.676-1.017,4.213,4.213,0,0,0,.681-1.7C261.974,280.5,264.861,279.651,263.671,277.1Z" transform="translate(-189.003 -208.352)" opacity="0.17"/>
      <path id="Path_1587" data-name="Path 1587" d="M246.839,346.472a.274.274,0,0,1-.107-.025.254.254,0,0,1-.127-.335,13.25,13.25,0,0,0,1.113-4.427,8.131,8.131,0,0,0-.579-2.826,10.33,10.33,0,0,1-.554-2.13,8.2,8.2,0,0,1,.056-2.125,6.811,6.811,0,0,0-.051-2.612,9.759,9.759,0,0,0-.747-2.033c-.457-1.017-.854-1.87-.356-2.7a7.862,7.862,0,0,1,.442-.656.255.255,0,1,1,.412.3,7.387,7.387,0,0,0-.417.62c-.361.6-.051,1.286.381,2.226a10.489,10.489,0,0,1,.783,2.119,7.338,7.338,0,0,1,.056,2.79,7.5,7.5,0,0,0-.056,1.992,10.014,10.014,0,0,0,.508,2.033,8.746,8.746,0,0,1,.6,2.989,13.294,13.294,0,0,1-1.159,4.635A.249.249,0,0,1,246.839,346.472Z" transform="translate(-189.812 -235.34)" fill="#263238"/>
      <path id="Path_1588" data-name="Path 1588" d="M246.438,301.563a.27.27,0,0,1-.147-.051.259.259,0,0,1-.056-.356l.264-.351c.31-.407.635-.823.6-1.016,0,0,0-.061-.1-.117-.432-.285-1.311-1.128-1.118-1.769.107-.335.452-.508,1.017-.508a11.974,11.974,0,0,1,1.2.076c.706.066,1.525.142,1.723-.107a.691.691,0,0,0,0-.554c-.28-.976.762-1.809,2.49-3.192a36.4,36.4,0,0,0,5.718-5.428c4.213-5.083,5.591-13.174,5.591-13.25a.254.254,0,0,1,.29-.213.259.259,0,0,1,.213.295c0,.081-1.423,8.29-5.723,13.494a37.1,37.1,0,0,1-5.789,5.5c-1.525,1.21-2.511,2.008-2.323,2.653a1.057,1.057,0,0,1-.112,1.017c-.381.457-1.2.376-2.155.285-.386-.036-.788-.071-1.154-.071s-.508.081-.544.147c-.071.229.417.869.915,1.2a.676.676,0,0,1,.315.457c.066.417-.269.859-.7,1.418-.086.107-.173.224-.259.341A.249.249,0,0,1,246.438,301.563Z" transform="translate(-190.107 -209.883)" fill="#263238"/>
      <path id="Path_1589" data-name="Path 1589" d="M228.916,313.44s2.541,5.408,13.052,5.794c0,0,.691.386.076,2.16-.061.173-1.611.295-1.779.32a37.967,37.967,0,0,1-4.229.437c-2.541.107-6.521.193-8.188-2.16A4.873,4.873,0,0,1,228.916,313.44Z" transform="translate(-180.84 -228.921)" fill="#263238"/>
      <path id="Path_1590" data-name="Path 1590" d="M234.033,322.053c-2.313,0-5.23-.325-6.638-2.313a5.156,5.156,0,0,1,1.108-6.892l.254-.219.142.3c0,.051,2.628,5.271,12.834,5.647h.061l.051.03c.091.051.864.544.193,2.47-.076.224-.32.31-1.774.463l-.2.025a39.078,39.078,0,0,1-4.259.437C235.293,322.028,234.689,322.053,234.033,322.053Zm-5.428-8.6a4.588,4.588,0,0,0-.793,6c1.647,2.328,5.759,2.15,7.97,2.033a38.211,38.211,0,0,0,4.2-.432l.229-.025a9.7,9.7,0,0,0,1.372-.2c.4-1.2.142-1.637.041-1.754C232.452,318.724,229.3,314.612,228.6,313.448Z" transform="translate(-180.595 -228.523)" fill="#263238"/>
      <path id="Path_1591" data-name="Path 1591" d="M257.54,195.708a1.815,1.815,0,0,1-1.164-3.2c.473-.4,11.69-9.754,21.683-13.667a1.815,1.815,0,1,1,1.321,3.38c-9.454,3.7-20.559,12.971-20.671,13.062A1.825,1.825,0,0,1,257.54,195.708Z" transform="translate(-194.963 -162.671)" fill="#00a0df"/>
      <path id="Path_1592" data-name="Path 1592" d="M257.29,195.7a2.069,2.069,0,0,1-1.327-3.654c.473-.4,11.721-9.784,21.754-13.723a2.068,2.068,0,0,1,1.5,3.853c-9.413,3.675-20.488,12.925-20.6,13.017A2.033,2.033,0,0,1,257.29,195.7Zm21.2-16.991a1.571,1.571,0,0,0-.569.107c-9.957,3.888-21.139,13.215-21.611,13.621a1.56,1.56,0,0,0-.193,2.2,1.6,1.6,0,0,0,2.2.193c.112-.1,11.258-9.4,20.747-13.108a1.555,1.555,0,0,0,.056-2.877,1.525,1.525,0,0,0-.625-.132Z" transform="translate(-194.714 -162.408)" fill="#263238"/>
      <ellipse id="Ellipse_101" data-name="Ellipse 101" cx="9.23" cy="8.945" rx="9.23" ry="8.945" transform="translate(70.958 22.277)" fill="#00a0df"/>
      <path id="Path_1593" data-name="Path 1593" d="M284.764,208.879a9.2,9.2,0,1,1,9.484-9.2A9.356,9.356,0,0,1,284.764,208.879Zm0-17.891a8.7,8.7,0,1,0,8.976,8.691A8.846,8.846,0,0,0,284.764,190.988Z" transform="translate(-204.576 -168.457)" fill="#263238"/>
      <path id="Path_1594" data-name="Path 1594" d="M293.247,193.489s-4.188-2.541-8.752,1.393A8.611,8.611,0,0,0,285,208.208c3.807,2.653,11.929,4.188,12.818,4.818s3.172,2.287,7.868.381,3.807-6.1,1.774-9.657S297.436,194.754,293.247,193.489Z" transform="translate(-207.672 -169.539)" fill="#fff"/>
      <path id="Path_1595" data-name="Path 1595" d="M301.406,214.318a6.353,6.353,0,0,1-3.98-1.311,17.794,17.794,0,0,0-2.75-.895c-2.984-.844-7.487-2.119-10.074-3.929a8.844,8.844,0,0,1-3.527-6.724,8.509,8.509,0,0,1,3-7c4.452-3.827,8.641-1.657,9.022-1.438,4.264,1.306,12.264,6.77,14.333,10.389,1.525,2.7,2.033,5.083,1.413,6.877a5.373,5.373,0,0,1-3.314,3.131A11.024,11.024,0,0,1,301.406,214.318Zm-11.69-21.627a8.473,8.473,0,0,0-8.132,8.742,8.32,8.32,0,0,0,3.309,6.333c2.516,1.759,6.973,3.05,9.921,3.858a14.305,14.305,0,0,1,2.9.966c.849.6,3.075,2.2,7.624.351a4.875,4.875,0,0,0,3.024-2.826c.722-2.084-.346-4.661-1.372-6.455-1.967-3.446-9.937-8.915-14.064-10.165l-.061-.025a6.607,6.607,0,0,0-3.166-.778Z" transform="translate(-207.419 -169.306)" fill="#263238"/>
      <path id="Path_1596" data-name="Path 1596" d="M287.9,195.92s-2.867,2.318-2.729,5.047,2.323,3.959,4.5,3.959,4.066.956,4.64,1.906.956.956,2.033.956.412.686,2.323.686a6.066,6.066,0,0,0,3-.412c.544-.274-.681-.407,1.525-.274s5.728.274,4.91-1.637-7.233-7.116-10.369-8.869S289.953,194.42,287.9,195.92Z" transform="translate(-209.44 -170.786)" opacity="0.17"/>
      <path id="Path_1597" data-name="Path 1597" d="M297.781,220.984a1.84,1.84,0,0,1-1.83-1.4c-.137-.549-1.662-.874-3.771-1.327-.732-.158-1.525-.335-2.46-.549a33.451,33.451,0,0,1-7.842-3.238.256.256,0,1,1,.259-.442,32.528,32.528,0,0,0,7.726,3.187c.9.213,1.723.386,2.45.544,2.541.544,3.944.844,4.158,1.7a1.3,1.3,0,0,0,.651.844,1.555,1.555,0,0,0,1.108.117,5.733,5.733,0,0,1,2.17,0,.259.259,0,0,1-.1.508,5.454,5.454,0,0,0-1.952,0A2.251,2.251,0,0,1,297.781,220.984Z" transform="translate(-207.758 -180.018)" fill="#263238"/>
      <ellipse id="Ellipse_102" data-name="Ellipse 102" cx="2.719" cy="2.496" rx="2.719" ry="2.496" transform="translate(88.534 30.404)" fill="#263238"/>
      <path id="Path_1598" data-name="Path 1598" d="M313.256,211.958a2.755,2.755,0,1,1,2.973-2.745,2.872,2.872,0,0,1-2.973,2.745Zm0-4.986a2.252,2.252,0,1,0,2.465,2.241A2.363,2.363,0,0,0,313.256,206.972Z" transform="translate(-222.003 -176.313)" fill="#263238"/>
      <path id="Path_1599" data-name="Path 1599" d="M320.511,214.075s-6.679,3.532-7.233,10.4c-.173,2.155,11.5.447,13.215-.889,3-2.358.732-6.663-.4-8.025C324.18,213.292,322.036,212.8,320.511,214.075Z" transform="translate(-223.26 -179.721)" fill="#263238"/>
      <path id="Path_1600" data-name="Path 1600" d="M316.194,225.51a6.739,6.739,0,0,1-2.862-.437.879.879,0,0,1-.554-.864c.544-6.719,6.9-10.348,7.344-10.6A3.106,3.106,0,0,1,322.97,213a6.151,6.151,0,0,1,3.05,2.155,8.509,8.509,0,0,1,1.926,5.591,4,4,0,0,1-1.565,2.816C325.252,224.433,319.818,225.51,316.194,225.51Zm5.921-12.117a2.582,2.582,0,0,0-1.687.625l-.041.031c-.066.036-6.562,3.558-7.116,10.2,0,.056,0,.213.29.376,2.033,1.088,11.156-.432,12.5-1.484a3.507,3.507,0,0,0,1.367-2.47,7.915,7.915,0,0,0-1.809-5.194,5.672,5.672,0,0,0-2.785-1.987,2.84,2.84,0,0,0-.717-.1Zm-1.85.432Z" transform="translate(-223.015 -179.472)" fill="#263238"/>
      <path id="Path_1601" data-name="Path 1601" d="M302.306,268.17a24.158,24.158,0,0,0-4.945,2.79c-1.388,1.266-4.188,4.7-3.426,5.835s2.663.127,3.172-.381,2.541-2.79,2.541-2.79-1.016,6.851-.762,7.868.762,1.271,1.779,1.271,1.9-1.4,2.033-2.414.635-3.934.635-3.934a9.577,9.577,0,0,1,1.144,4.442c-.127,2.155.762,3.05,2.033,2.541s1.525-2.409,1.525-2.409a5.357,5.357,0,0,0,3.05-2.033c.666-.966,1.906-1.652,1.144-5.083a12.661,12.661,0,0,0-1.652-4.574S305.356,268.673,302.306,268.17Z" transform="translate(-213.686 -206.66)" fill="#fff"/>
      <path id="Path_1602" data-name="Path 1602" d="M305.576,283.548a1.363,1.363,0,0,1-.813-.259c-.61-.437-.889-1.367-.813-2.689a8.4,8.4,0,0,0-.773-3.593c-.158.94-.417,2.465-.508,3.136-.132,1.072-1.088,2.633-2.282,2.633a1.755,1.755,0,0,1-2.033-1.464c-.213-.849.366-5.215.635-7.116-.64.717-1.642,1.83-1.987,2.175a3.7,3.7,0,0,1-2.5.966,1.4,1.4,0,0,1-1.067-.625c-.95-1.428,2.43-5.22,3.466-6.165a23.819,23.819,0,0,1,5.022-2.836l.066-.03h.076c3,.508,8.183,1.133,8.234,1.144h.107l.066.086c.036.046.93,1.225,1.7,4.666.666,3.009-.173,4.026-.849,4.849-.117.142-.234.28-.335.427a5.561,5.561,0,0,1-3.05,2.094,3.376,3.376,0,0,1-1.652,2.44A2.034,2.034,0,0,1,305.576,283.548Zm-2.643-8.132.351.63a9.778,9.778,0,0,1,1.174,4.574c-.066,1.123.147,1.921.6,2.247a1.088,1.088,0,0,0,1.083.041c1.118-.447,1.362-2.191,1.362-2.211l.025-.178.178-.036a5.143,5.143,0,0,0,2.887-1.926c.107-.158.234-.3.361-.463.635-.773,1.357-1.647.742-4.412a15.463,15.463,0,0,0-1.525-4.386c-.773-.1-5.3-.656-8.071-1.118a23.3,23.3,0,0,0-4.813,2.719c-1.525,1.4-3.975,4.62-3.385,5.51a.9.9,0,0,0,.7.4,3.263,3.263,0,0,0,2.094-.833c.508-.508,2.506-2.76,2.541-2.78l.564-.635-.122.839c-.407,2.734-.945,7.06-.768,7.771.208.834.549,1.077,1.525,1.077.874,0,1.667-1.311,1.779-2.191.127-1.017.615-3.827.635-3.944Z" transform="translate(-213.424 -206.419)" fill="#263238"/>
      <path id="Path_1603" data-name="Path 1603" d="M307.679,269.85s-4.33,2.4-3.776,2.862a3.367,3.367,0,0,1,1.936,2.577c.371,1.936.646,2.119,1.474.925s1.657-.371,2.394,1.383,1.571.737,1.936-.925,1.845-.183,2.216.925.366-1.108.549-2.119,1.845,1.931,2.125,1.1-1.57-5.713-2.125-5.992S307.679,269.85,307.679,269.85Z" transform="translate(-218.627 -207.486)" opacity="0.17"/>
      <path id="Path_1604" data-name="Path 1604" d="M309.441,262.17s-1.774,1.906-.249,3.68,6.216,2.16,8.132,1.652,1.652-3.68.762-4.442S309.441,262.17,309.441,262.17Z" transform="translate(-220.948 -203.71)" fill="#263238"/>
      <path id="Path_1605" data-name="Path 1605" d="M315.038,267.718c-2.231,0-5.083-.564-6.282-1.947-1.652-1.926.239-4,.259-4.02l.076-.081h.112c1.311.025,7.878.168,8.793.95a3.558,3.558,0,0,1,.666,3.121,2.17,2.17,0,0,1-1.525,1.759A8.558,8.558,0,0,1,315.038,267.718Zm-5.723-5.535a2.48,2.48,0,0,0-.173,3.258c1.449,1.693,6.1,2.033,7.858,1.571a1.708,1.708,0,0,0,1.169-1.382,3.085,3.085,0,0,0-.508-2.623C317.076,262.5,312.283,262.234,309.315,262.183Z" transform="translate(-220.705 -203.464)" fill="#263238"/>
      <path id="Path_1606" data-name="Path 1606" d="M311.461,232.041s-2.409,12.564-1.774,14.465,4.574,3.426,7.36,2.79,6.607-6.851,7.863-13.83,1.149-6.074-1.9-6.582A16.94,16.94,0,0,0,311.461,232.041Z" transform="translate(-221.443 -187.283)" fill="#fff"/>
      <path id="Path_1607" data-name="Path 1607" d="M315.421,249.495c-2.658,0-5.647-1.393-6.221-3.111-.646-1.947,1.672-14.079,1.769-14.592v-.1l.071-.056a17.439,17.439,0,0,1,11.746-3.222c.341.056.64.091.91.127.834.107,1.388.178,1.708.615.508.676.249,2-.463,5.921l-.041.229c-1.235,6.78-5,13.337-8.061,14.033A6.334,6.334,0,0,1,315.421,249.495Zm-3.97-17.515c-.681,3.558-2.267,12.747-1.769,14.231.6,1.8,4.427,3.222,7.065,2.628,2.541-.585,6.379-6.536,7.67-13.632l.041-.229c.651-3.558.92-5.032.554-5.53-.188-.259-.63-.315-1.362-.412-.269-.036-.579-.071-.925-.132a16.711,16.711,0,0,0-11.273,3.05Z" transform="translate(-221.2 -187.054)" fill="#263238"/>
      <path id="Path_1608" data-name="Path 1608" d="M318.834,231.584c.971.351,2.384,1.733,1.606,2.958-.956,1.525-2.186,1.906-2.323,3.136s.549,3.954.549,4.64.407,2.455-.818,3.136a2.153,2.153,0,0,0-.956,2.318c0,.407,0,.274-.275.956s2.033,1.637,3.685.549a17.281,17.281,0,0,0,6.546-10.369c.63-3.227,1.154-6.424.956-8.325a21.347,21.347,0,0,0-8.971,1Z" transform="translate(-224.893 -188.123)" opacity="0.17"/>
      <path id="Path_1609" data-name="Path 1609" d="M311.244,249.557h-.051a.254.254,0,0,1-.2-.3,17.5,17.5,0,0,0,.244-4.574c-.244-2.47.828-5.286,1.911-7.72a9.473,9.473,0,0,0,1.083-4.646.259.259,0,0,1,.213-.29.254.254,0,0,1,.29.213,9.889,9.889,0,0,1-1.123,4.93c-1.057,2.368-2.1,5.113-1.865,7.461a17.786,17.786,0,0,1-.254,4.707A.254.254,0,0,1,311.244,249.557Z" transform="translate(-222.136 -188.886)" fill="#263238"/>
      <path id="Path_1610" data-name="Path 1610" d="M321.524,288.463a27.819,27.819,0,0,0-.254-5.083" transform="translate(-227.191 -214.139)" fill="#fff"/>
      <path id="Path_1611" data-name="Path 1611" d="M321.288,288.477h0a.254.254,0,0,1-.244-.264,27.823,27.823,0,0,0-.249-5.017.254.254,0,0,1,.2-.3.259.259,0,0,1,.3.2,27.764,27.764,0,0,1,.259,5.133.254.254,0,0,1-.264.244Z" transform="translate(-226.955 -213.899)" fill="#263238"/>
      <path id="Path_1612" data-name="Path 1612" d="M326,286.591a9.7,9.7,0,0,0,.127-4.691" transform="translate(-229.517 -213.412)" fill="#fff"/>
      <path id="Path_1613" data-name="Path 1613" d="M325.756,286.608a.154.154,0,0,1-.066,0,.254.254,0,0,1-.178-.31,9.671,9.671,0,0,0,.132-4.549.249.249,0,0,1,.163-.32.254.254,0,0,1,.32.168,9.79,9.79,0,0,1-.127,4.839A.249.249,0,0,1,325.756,286.608Z" transform="translate(-229.273 -213.174)" fill="#263238"/>
      <path id="Path_1614" data-name="Path 1614" d="M292.173,194.48c-1.977,0-5.779,3.314-5.408,5.469.244,1.413,6.328,4.488,7.446,3.375a73.676,73.676,0,0,1,5.667-4.762C301.48,197.428,295.121,194.485,292.173,194.48Z" transform="translate(-210.212 -170.424)" fill="#fff"/>
      <path id="Path_1615" data-name="Path 1615" d="M293.17,203.561a5.743,5.743,0,0,1-1.657-.315c-1.957-.625-5.047-2.338-5.25-3.507a4.054,4.054,0,0,1,1.215-3.05c1.306-1.555,3.217-2.729,4.447-2.729h0c2.47,0,7.685,2.15,8.168,3.654a.752.752,0,0,1-.315.889c-1.586,1.133-4.981,4.066-5.637,4.732a1.326,1.326,0,0,1-.971.325Zm-1.245-9.073c-1.077,0-2.856,1.118-4.066,2.541a3.564,3.564,0,0,0-1.1,2.628c.122.712,2.74,2.419,4.9,3.105,1.062.341,1.86.391,2.119.127.661-.661,4.092-3.639,5.7-4.788.152-.107.163-.2.127-.315-.356-1.108-5.083-3.3-7.685-3.3Z" transform="translate(-209.963 -170.168)" fill="#263238"/>
    </g>
  </g>
</svg>
