<svg xmlns="http://www.w3.org/2000/svg" width="210.869" height="179.993" viewBox="0 0 210.869 179.993">
  <g id="Responsive-rafiki" transform="translate(-56.11 -96.56)">
    <g id="freepik--Shadow--inject-16" transform="translate(56.11 264.242)">
      <ellipse id="freepik--path--inject-16" cx="105.435" cy="6.156" rx="105.435" ry="6.156" transform="translate(0 0)" fill="#f5f5f5"/>
    </g>
    <g id="freepik--Responsive--inject-16" transform="translate(70.895 96.56)">
      <path id="Path_1204" data-name="Path 1204" d="M285.752,103.8l-1.022,31.4,24.617-1.7Z" transform="translate(-175.195 -99.863)" fill="#00a0df" opacity="0.1"/>
      <path id="Path_1205" data-name="Path 1205" d="M177.669,261.945l.636-23.225L86.09,239.971Z" transform="translate(-84.573 -161.415)" fill="#00a0df" opacity="0.1"/>
      <path id="Path_1206" data-name="Path 1206" d="M83.3,108.95H194.776V179.1a1.707,1.707,0,0,1-1.708,1.707H85.007A1.707,1.707,0,0,1,83.3,179.1Z" transform="translate(-83.3 -102.212)" fill="#00a0df"/>
      <path id="Path_1207" data-name="Path 1207" d="M83.3,108.95H194.776V179.1a1.707,1.707,0,0,1-1.708,1.707H85.007A1.707,1.707,0,0,1,83.3,179.1Z" transform="translate(-83.3 -102.212)" fill="#fff" opacity="0.7"/>
      <rect id="Rectangle_876" data-name="Rectangle 876" width="92.134" height="28.108" rx="2.83" transform="translate(9.663 11.425)" fill="#fff" opacity="0.9"/>
      <rect id="Rectangle_877" data-name="Rectangle 877" width="27.902" height="8.2" rx="2.83" transform="translate(9.663 43.84)" fill="#00a0df" opacity="0.7"/>
      <rect id="Rectangle_878" data-name="Rectangle 878" width="27.902" height="8.2" rx="2.83" transform="translate(41.779 43.84)" fill="#00a0df" opacity="0.7"/>
      <rect id="Rectangle_879" data-name="Rectangle 879" width="27.902" height="8.2" rx="2.83" transform="translate(73.89 43.84)" fill="#00a0df" opacity="0.7"/>
      <path id="Path_1208" data-name="Path 1208" d="M102.609,198.36h24.824a1.539,1.539,0,0,1,1.539,1.539v21.648h-27.9V199.9A1.539,1.539,0,0,1,102.609,198.36Z" transform="translate(-91.407 -143.003)" fill="#00a0df" opacity="0.3"/>
      <path id="Path_1209" data-name="Path 1209" d="M161.691,198.36h24.824a1.539,1.539,0,0,1,1.539,1.539v21.648H160.13V199.9a1.539,1.539,0,0,1,1.561-1.539Z" transform="translate(-118.351 -143.002)" fill="#00a0df" opacity="0.3"/>
      <path id="Path_1210" data-name="Path 1210" d="M220.713,198.36h24.824a1.539,1.539,0,0,1,1.539,1.539v21.648h-27.9V199.9A1.539,1.539,0,0,1,220.713,198.36Z" transform="translate(-145.29 -143.003)" fill="#00a0df" opacity="0.3"/>
      <rect id="Rectangle_880" data-name="Rectangle 880" width="2.719" height="0.544" transform="translate(31.257)" fill="#00a0df"/>
      <rect id="Rectangle_881" data-name="Rectangle 881" width="6.661" height="0.544" transform="translate(22.192)" fill="#00a0df"/>
      <path id="Path_1211" data-name="Path 1211" d="M189.926,100.06H88.134a4.834,4.834,0,0,0-4.834,4.861H194.776a4.834,4.834,0,0,0-4.851-4.861Z" transform="translate(-83.3 -98.157)" fill="#00a0df"/>
      <path id="Path_1212" data-name="Path 1212" d="M94.266,103.692a.968.968,0,1,1-.963-.963A.968.968,0,0,1,94.266,103.692Z" transform="translate(-87.42 -99.375)" fill="#fff"/>
      <path id="Path_1213" data-name="Path 1213" d="M100,103.6a.963.963,0,1,1-.963-.963.963.963,0,0,1,.963.963Z" transform="translate(-90.038 -99.334)" fill="#fff"/>
      <path id="Path_1214" data-name="Path 1214" d="M105.715,103.6a.963.963,0,1,1-.963-.963A.962.962,0,0,1,105.715,103.6Z" transform="translate(-92.648 -99.334)" fill="#fff"/>
      <path id="Path_1215" data-name="Path 1215" d="M252.867,168.38h42.959v59.746a2.175,2.175,0,0,1-2.175,2.175H255.015a2.175,2.175,0,0,1-2.175-2.175V168.38Z" transform="translate(-160.646 -129.325)" fill="#00a0df"/>
      <path id="Path_1216" data-name="Path 1216" d="M252.867,168.38h42.959v59.746a2.175,2.175,0,0,1-2.175,2.175H255.015a2.175,2.175,0,0,1-2.175-2.175V168.38Z" transform="translate(-160.646 -129.325)" fill="#fff" opacity="0.8"/>
      <rect id="Rectangle_882" data-name="Rectangle 882" width="35.112" height="13.464" rx="1.96" transform="translate(96.136 42.285)" fill="#fff" opacity="0.9"/>
      <rect id="Rectangle_883" data-name="Rectangle 883" width="35.112" height="10.316" rx="3.56" transform="translate(96.136 58.414)" fill="#00a0df" opacity="0.7"/>
      <rect id="Rectangle_884" data-name="Rectangle 884" width="35.112" height="10.316" rx="3.56" transform="translate(96.136 72.144)" fill="#00a0df" opacity="0.7"/>
      <rect id="Rectangle_885" data-name="Rectangle 885" width="35.112" height="10.316" rx="3.56" transform="translate(96.136 85.875)" fill="#00a0df" opacity="0.7"/>
      <path id="Path_1217" data-name="Path 1217" d="M255.7,157.2h37.293a2.828,2.828,0,0,1,2.828,2.828v3.263H252.86v-3.263A2.828,2.828,0,0,1,255.7,157.2Z" transform="translate(-160.656 -124.225)" fill="#00a0df"/>
    </g>
    <g id="freepik--Character--inject-16" transform="translate(192.992 107.174)">
      <path id="Path_1218" data-name="Path 1218" d="M359.781,402.488H355.8l.005-9.228h3.986Z" transform="translate(-329.715 -242.533)" fill="#ffb573"/>
      <path id="Path_1219" data-name="Path 1219" d="M415.26,389.2l-3.812,1.153-4.2-8.369,3.812-1.153Z" transform="translate(-353.187 -236.862)" fill="#ffb573"/>
      <path id="Path_1220" data-name="Path 1220" d="M411.331,398.9a1.2,1.2,0,0,1-.789.027.544.544,0,0,1-.31-.43.315.315,0,0,1,.092-.3c.359-.343,1.789.049,1.952.092a.1.1,0,0,1,.016.174A4.658,4.658,0,0,1,411.331,398.9Zm-.772-.625a.228.228,0,0,0-.114.06.114.114,0,0,0-.027.12.37.37,0,0,0,.207.3,1.887,1.887,0,0,0,1.37-.343A3.7,3.7,0,0,0,410.559,398.275Z" transform="translate(-354.544 -244.72)" fill="#00a0df"/>
      <path id="Path_1221" data-name="Path 1221" d="M412.736,397.526h-.049c-.446-.1-1.425-.712-1.457-1.169a.326.326,0,0,1,.228-.326.479.479,0,0,1,.413,0c.544.228.914,1.316.93,1.365a.109.109,0,0,1,0,.1Zm-1.169-1.332a.07.07,0,0,0-.043,0c-.109.049-.109.1-.109.131,0,.266.669.761,1.136.946-.125-.315-.413-.93-.756-1.088a.332.332,0,0,0-.234.011Z" transform="translate(-355.002 -243.776)" fill="#00a0df"/>
      <path id="Path_1222" data-name="Path 1222" d="M408.795,396.572l4.285-1.294a.332.332,0,0,1,.392.163l1.631,3.208a.62.62,0,0,1-.381.859c-1.5.424-2.251.544-4.138,1.126-1.158.348-4.894,2.23-6.471,2.719s-2.219-1.055-1.6-1.4A18.035,18.035,0,0,0,408.24,397,1.012,1.012,0,0,1,408.795,396.572Z" transform="translate(-350.92 -243.447)" fill="#263238"/>
      <path id="Path_1223" data-name="Path 1223" d="M351.838,409.815a1.447,1.447,0,0,1-.957-.245.5.5,0,0,1-.158-.457.3.3,0,0,1,.169-.25c.495-.272,2.061.544,2.235.636a.087.087,0,0,1,.049.1.1.1,0,0,1-.082.076A6.521,6.521,0,0,1,351.838,409.815Zm-.685-.821a.409.409,0,0,0-.179.033.141.141,0,0,0-.065.1.359.359,0,0,0,.1.3,2.523,2.523,0,0,0,1.773.1,5.013,5.013,0,0,0-1.631-.544Z" transform="translate(-327.395 -249.627)" fill="#00a0df"/>
      <path id="Path_1224" data-name="Path 1224" d="M353.937,408.9H353.9c-.473-.218-1.387-1.088-1.294-1.528,0-.1.1-.239.364-.261a.647.647,0,0,1,.544.158,2.589,2.589,0,0,1,.544,1.539.1.1,0,0,1-.043.082A.114.114,0,0,1,353.937,408.9Zm-.9-1.631h-.054c-.174,0-.185.087-.19.109-.054.266.544.946,1.039,1.24a2.121,2.121,0,0,0-.473-1.229.473.473,0,0,0-.321-.1Z" transform="translate(-328.254 -248.848)" fill="#00a0df"/>
      <path id="Path_1225" data-name="Path 1225" d="M347.69,409.38h4.35a.326.326,0,0,1,.326.272L353,413.2a.6.6,0,0,1-.6.707c-1.566-.027-3.807-.12-5.8-.12-2.306,0-4.307.125-7.009.125-1.631,0-2.017-1.631-1.327-1.8,3.149-.685,5.693-.756,8.461-2.42a1.925,1.925,0,0,1,.973-.31Z" transform="translate(-321.562 -249.887)" fill="#263238"/>
      <path id="Path_1226" data-name="Path 1226" d="M374.444,142.92c-.7,2.915-1.142,6.525.81,8.472,0,0-1.3,2.958-6.716,2.958-4.948,0-2.344-2.958-2.344-2.958,3.263-.772,3.29-4.8,2.828-7.069Z" transform="translate(-334.145 -128.324)" fill="#ffb573"/>
      <path id="Path_1227" data-name="Path 1227" d="M355.805,393.27l-.005,4.753h3.986l.005-4.753Z" transform="translate(-329.715 -242.538)" opacity="0.2"/>
      <path id="Path_1228" data-name="Path 1228" d="M411.062,380.83l-3.812,1.158,2.164,4.312,3.817-1.153Z" transform="translate(-353.187 -236.862)" opacity="0.2"/>
      <path id="Path_1229" data-name="Path 1229" d="M393.792,165.2l-5.112,2.936s5.362,12.507,4.834,14.53c-.723,2.719-1.088,8.271-2.2,11.876a5.282,5.282,0,0,0,2.529,1.359c2.175-4.35,5.721-11.773,5.514-14.291C398.887,175.858,393.792,165.2,393.792,165.2Z" transform="translate(-344.715 -138.489)" fill="#ffb573"/>
      <path id="Path_1230" data-name="Path 1230" d="M390.582,219.16l-3.5,1.446,3.513,2.92s3.023-1.365,2.469-3.932Z" transform="translate(-343.985 -163.106)" fill="#ffb573"/>
      <path id="Path_1231" data-name="Path 1231" d="M383.48,224.952l3.312,2.485,2.159-2.7-3.513-2.92Z" transform="translate(-342.343 -164.32)" fill="#ffb573"/>
      <path id="Path_1232" data-name="Path 1232" d="M391.4,160.045c3.709.756,6.721,14,6.721,14l-8.353,4.019a93.1,93.1,0,0,1-4.122-11.071C384.326,162.079,387.415,159.235,391.4,160.045Z" transform="translate(-343.188 -136.075)" fill="#00a0df"/>
      <path id="Path_1233" data-name="Path 1233" d="M390.193,168.324c-1.555-1.631-.848,4.861-.457,9.179.332.859.653,1.631.93,2.289C392.912,176.541,392.369,170.608,390.193,168.324Z" transform="translate(-344.967 -139.797)" opacity="0.2"/>
      <path id="Path_1234" data-name="Path 1234" d="M366.954,157.873c0-1.414-.207-2.083.179-2.6s8.043-1.142,9.364-.544c.451.2.712,2.235.147,3.143C375.817,159.183,366.954,157.873,366.954,157.873Z" transform="translate(-334.778 -133.598)" fill="#00a0df"/>
      <path id="Path_1235" data-name="Path 1235" d="M366.954,157.873c0-1.414-.207-2.083.179-2.6s8.043-1.142,9.364-.544c.451.2.712,2.235.147,3.143C375.817,159.183,366.954,157.873,366.954,157.873Z" transform="translate(-334.778 -133.598)" opacity="0.2"/>
      <path id="Path_1236" data-name="Path 1236" d="M352.939,159.5s-5.231,12.029-1.751,34.433H372.5c.288-3.263-1.088-19.228,2.773-34.639a54.642,54.642,0,0,0-7.1-.9,78.617,78.617,0,0,0-9.059,0,40.712,40.712,0,0,0-6.177,1.109Z" transform="translate(-327.065 -135.323)" fill="#00a0df"/>
      <path id="Path_1237" data-name="Path 1237" d="M341.451,169.036l-5.28-2.126s-7.134,12.116-8.624,13.132c-3.453-1.892-4.611-1.126-7.3-3.11a4.343,4.343,0,0,0-2.1,1.5c2.175,4.187,9.4,9.369,12.975,6.21C335.546,180.733,341.451,169.036,341.451,169.036Z" transform="translate(-312.538 -139.269)" fill="#ffb573"/>
      <path id="Path_1238" data-name="Path 1238" d="M356.659,165.951a3.752,3.752,0,0,0-4.258-2.6,59.684,59.684,0,0,0-2.371,16.314l2.066.468S358.024,169.447,356.659,165.951Z" transform="translate(-327.082 -137.619)" opacity="0.2"/>
      <path id="Path_1239" data-name="Path 1239" d="M352.266,163.164c1.185,3.567-6.08,14.062-6.08,14.062l-7.776-4.35a51.224,51.224,0,0,1,5.014-9.326C346.431,159.368,350.966,159.254,352.266,163.164Z" transform="translate(-321.781 -136.262)" fill="#00a0df"/>
      <path id="Path_1240" data-name="Path 1240" d="M317.528,183.83l-3.551-2.05-2.077,4.133a13.981,13.981,0,0,0,4.448.7Z" transform="translate(-309.687 -146.053)" fill="#ffb573"/>
      <path id="Path_1241" data-name="Path 1241" d="M310.369,181.78l-2.539,2.414,2.213,1.718,2.077-4.133Z" transform="translate(-307.83 -146.053)" fill="#ffb573"/>
      <path id="Path_1242" data-name="Path 1242" d="M365.062,134.7c-.033.321-.228.544-.435.544s-.353-.283-.321-.6.228-.544.44-.544S365.095,134.383,365.062,134.7Z" transform="translate(-333.593 -124.301)" fill="#263238"/>
      <path id="Path_1243" data-name="Path 1243" d="M364.705,135.26a12.076,12.076,0,0,1-1.805,2.654,1.8,1.8,0,0,0,1.5.375Z" transform="translate(-332.954 -124.83)" fill="#ed893e"/>
      <path id="Path_1244" data-name="Path 1244" d="M364.865,132.18l-.082-.033a.185.185,0,0,1-.044-.261,2,2,0,0,1,1.539-.886.185.185,0,0,1,.179.19.2.2,0,0,1-.2.19h0a1.566,1.566,0,0,0-1.191.718A.2.2,0,0,1,364.865,132.18Z" transform="translate(-333.777 -122.886)" fill="#263238"/>
      <path id="Path_1245" data-name="Path 1245" d="M375.864,129.572c-.647,3.926-.821,6.248-3.013,8.157a5.106,5.106,0,0,1-8.5-3.2c-.484-3.589.647-9.4,4.655-10.751a5.166,5.166,0,0,1,6.857,5.8Z" transform="translate(-333.568 -119.446)" fill="#ffb573"/>
      <path id="Path_1246" data-name="Path 1246" d="M369.82,130.63c-.816-2.583-1.876-6.574,1.022-8.053s5.182.576,8.342,2.48c3.562,2.143,1.387,8.94-2.909,10.539C372.67,136.938,369.151,134.24,369.82,130.63Z" transform="translate(-335.709 -118.813)" fill="#263238"/>
      <path id="Path_1247" data-name="Path 1247" d="M368.226,125.35c-2.556.691-4.318-.952-3.056-2.844,1.6-2.409,7.885-1.778,10.239.827S370,127.183,368.226,125.35Z" transform="translate(-333.798 -118.324)" fill="#263238"/>
      <path id="Path_1248" data-name="Path 1248" d="M370.252,121.2c-3.121-.576-4.4-3.121-1.784-4.7,2.469-1.485,9.407,1.088,10.566,5.188S371.2,124.111,370.252,121.2Z" transform="translate(-334.852 -116.079)" fill="#263238"/>
      <path id="Path_1249" data-name="Path 1249" d="M388.23,128.79a1.546,1.546,0,0,1,2.567,1.18A4.051,4.051,0,0,0,388.23,128.79Z" transform="translate(-344.51 -121.715)" fill="#263238"/>
      <path id="Path_1250" data-name="Path 1250" d="M389.7,124.27a1.549,1.549,0,0,1-1.2,2.561,4.078,4.078,0,0,0,1.2-2.561Z" transform="translate(-344.633 -119.816)" fill="#263238"/>
      <path id="Path_1251" data-name="Path 1251" d="M371.907,135.783a3.513,3.513,0,0,1-1.669,1.979c-1.044.544-1.767-.315-1.631-1.425.114-1,.794-2.485,1.92-2.572A1.425,1.425,0,0,1,371.907,135.783Z" transform="translate(-335.549 -124.146)" fill="#ffb573"/>
      <path id="Path_1252" data-name="Path 1252" d="M366.09,223.86s3.181,30.452,5.161,41.872c2.175,12.507,17.4,48.614,17.4,48.614l6.988-2.11s-10.876-33.2-11.9-45.564c-1.088-13.426-3.872-42.8-3.872-42.8Z" transform="translate(-334.409 -165.25)" fill="#263238"/>
      <path id="Path_1253" data-name="Path 1253" d="M372.477,242.961c-.315-.479-.615-.642-.9-.544h-.054a.719.719,0,0,0-.185.109,1.464,1.464,0,0,0-.163.158c-.033.033-.06.071-.092.109s-.082.114-.125.179a4.61,4.61,0,0,0-.266.495c-.044.1-.092.212-.136.321s-.109.277-.163.43-.141.413-.207.636a.713.713,0,0,1-.054.174c-.016.06-.071.25-.109.375l-.082.326c-.06.217-.114.435-.169.663s-.109.495-.163.75a1.175,1.175,0,0,1-.06.266c-.065.326-.13.663-.2,1h0c.875,7.58,1.925,16.27,2.839,22.333.065-.2.13-.4.2-.625a29.751,29.751,0,0,0,.68-3.067C374.418,259.236,374.521,246.077,372.477,242.961Z" transform="translate(-335.896 -173.704)" opacity="0.2"/>
      <path id="Path_1254" data-name="Path 1254" d="M350.54,223.86s-1.86,29.789-1.963,41.942c-.109,12.638,2.485,54.014,2.485,54.014h6.748s2.039-40.637,2.888-53.052c.919-13.529,3.85-42.9,3.85-42.9Z" transform="translate(-326.418 -165.25)" fill="#263238"/>
      <path id="Path_1255" data-name="Path 1255" d="M359.757,396.292c.027,0-.1,2.2-.1,2.2h-7.782l-.217-2.474Z" transform="translate(-327.826 -243.792)" fill="#00a0df"/>
      <path id="Path_1256" data-name="Path 1256" d="M412.695,381.82c.174.343.914,2.491.914,2.491l-7.662,2.322-1.256-2.066Z" transform="translate(-352.019 -237.314)" fill="#00a0df"/>
    </g>
  </g>
</svg>
