<svg xmlns="http://www.w3.org/2000/svg" width="906.457" height="825.79" viewBox="0 0 906.457 825.79">
  <path id="Path_272" data-name="Path 272" d="M1101.681,436.2c-26.1-46.15-64.481-83.56-105.369-116.659-37.552-30.394-72.1-43.8-96.324-89.566C883.749,199.3,871.759,166.01,850.475,138.6c-44.792-57.676-122.884-50.561-186.247-33.335-168.183,45.72-315.846,162.362-399.273,315.382-21.56,39.543-39.212,82.262-42.363,127.192s9.828,92.533,42.156,123.89c40.218,39.022,101.122,46.4,149.555,74.593,49.177,28.619,82.972,77.052,124.5,115.945s100.374,69.713,154,50.69c45.131-16.014,71.476-61.476,105.486-95.189C852.026,764.5,926.8,739.73,993.332,703.7s131.482-94.1,135.1-169.67C1130.071,499.809,1118.554,466.019,1101.681,436.2Z" transform="translate(-222.131 -92.943)" fill="#4ab634" opacity="0.11"/>
</svg>
