<?xml version="1.0" encoding="UTF-8"?>
<svg xmlns="http://www.w3.org/2000/svg" xmlns:xlink="http://www.w3.org/1999/xlink" viewBox="0 0 500 500" width="500px" height="500px">
<g id="surface36185432">
<path style=" stroke:none;fill-rule:nonzero;fill:rgb(47.058824%,81.176472%,96.078432%);fill-opacity:1;" d="M 298.671875 30.078125 C 297.617188 30.234375 296.5625 30.546875 295.546875 31.015625 C 286.953125 35.273438 277.1875 47.929688 275.3125 50.429688 C 275.195312 50.585938 275.078125 50.742188 275 50.898438 C 265.351562 65.351562 260.195312 82.265625 260 99.882812 C 259.882812 113.085938 262.460938 126.171875 267.695312 138.789062 C 279.882812 168.046875 305.195312 192.265625 335.3125 203.59375 C 336.328125 203.945312 337.304688 204.296875 339.0625 204.921875 C 339.21875 205 340.703125 205.46875 340.9375 205.507812 L 342.03125 205.898438 C 343.59375 206.40625 345.195312 206.914062 346.757812 207.226562 C 354.6875 208.828125 362.421875 209.726562 369.6875 209.960938 C 370.9375 209.960938 372.1875 210 373.4375 210 C 428.242188 210 449.492188 171.328125 456.5625 158.4375 C 457.265625 157.1875 457.773438 156.171875 458.242188 155.546875 C 458.242188 155.507812 458.242188 155.507812 458.28125 155.46875 C 461.367188 150.898438 460.195312 144.6875 455.625 141.5625 C 451.09375 138.476562 444.882812 139.648438 441.757812 144.21875 L 441.71875 144.21875 C 427.109375 165.742188 402.109375 172.265625 367.460938 163.671875 C 364.882812 163.046875 362.070312 162.070312 359.570312 161.132812 C 356.289062 159.960938 353.007812 158.59375 349.960938 157.109375 C 343.90625 154.101562 338.203125 150.507812 333.046875 146.523438 C 302.578125 122.890625 290.664062 73.710938 308.476562 45.3125 C 310.859375 41.523438 310.429688 36.601562 307.421875 33.28125 C 305.15625 30.78125 301.875 29.648438 298.671875 30.078125 Z M 210.078125 50 C 207.8125 49.960938 205.507812 50.703125 203.632812 52.265625 C 188.515625 64.570312 173.046875 84.726562 172.382812 85.546875 C 172.304688 85.703125 172.226562 85.820312 172.109375 85.976562 C 144.765625 125.78125 142.695312 182.421875 166.875 230.273438 C 170.664062 237.851562 174.960938 245.078125 179.53125 251.71875 L 180.898438 253.671875 C 184.765625 259.335938 189.101562 265.742188 194.648438 270.742188 C 196.5625 272.929688 198.632812 275.039062 200.664062 277.070312 L 201.640625 278.085938 L 202.460938 278.90625 C 204.53125 280.898438 206.640625 282.929688 208.828125 284.882812 L 208.867188 284.882812 C 209.023438 285.117188 209.257812 285.273438 209.453125 285.46875 C 211.914062 287.65625 214.414062 289.726562 217.734375 292.34375 L 218.632812 293.007812 C 221.210938 295.078125 223.828125 297.03125 226.523438 298.945312 C 226.796875 299.140625 227.070312 299.335938 227.34375 299.53125 C 228.28125 300.15625 229.21875 300.742188 230.15625 301.40625 L 231.09375 302.03125 L 232.1875 302.734375 C 234.179688 304.0625 236.132812 305.273438 238.90625 306.875 C 240.703125 307.96875 242.617188 309.0625 243.867188 309.6875 C 244.414062 310 245 310.3125 246.367188 311.054688 L 249.414062 312.65625 C 249.570312 312.734375 250.273438 313.046875 250.429688 313.125 C 252.421875 314.140625 254.492188 315.117188 256.5625 316.054688 L 259.726562 317.460938 C 261.796875 318.359375 263.90625 319.21875 266.484375 320.195312 L 267.65625 320.625 C 267.734375 320.703125 268.710938 321.054688 268.789062 321.09375 C 270.664062 321.757812 272.578125 322.421875 274.492188 323.046875 L 278.867188 324.492188 C 281.054688 325.234375 283.59375 326.09375 286.367188 326.5625 C 300 328.828125 313.242188 330 325.78125 330 C 327.265625 330 328.75 329.960938 330.195312 329.960938 C 440.585938 327.539062 469.296875 233.75 469.570312 232.8125 C 470.9375 228.085938 468.710938 223.046875 464.257812 220.9375 C 459.804688 218.828125 454.492188 220.3125 451.71875 224.375 C 423.75 265.234375 370.859375 282.5 316.992188 268.28125 C 314.492188 267.65625 312.070312 266.953125 309.0625 265.976562 C 308.554688 265.820312 308.125 265.664062 307.304688 265.351562 C 305.546875 264.804688 303.828125 264.21875 301.875 263.476562 L 299.101562 262.421875 C 297.5 261.796875 295.898438 261.171875 293.945312 260.3125 L 292.65625 259.726562 C 290.273438 258.710938 287.96875 257.578125 285.898438 256.5625 L 280.195312 253.59375 C 278.90625 252.96875 277.773438 252.265625 276.015625 251.210938 L 275.039062 250.664062 L 274.0625 250.078125 C 272.617188 249.21875 271.171875 248.320312 269.84375 247.382812 L 268.90625 246.796875 C 268.828125 246.757812 268.046875 246.210938 267.96875 246.132812 C 266.796875 245.390625 265.664062 244.648438 264.570312 243.945312 C 262.148438 242.226562 259.765625 240.429688 256.992188 238.242188 L 255.898438 237.34375 C 230.117188 216.757812 211.054688 189.257812 202.109375 159.765625 C 193.789062 132.695312 199.960938 97.265625 218.632812 65 C 221.054688 60.820312 220.15625 55.507812 216.445312 52.382812 C 214.609375 50.820312 212.34375 50 210.078125 50 Z M 100.039062 80 C 97.65625 80 95.234375 80.859375 93.320312 82.578125 C 74.21875 99.726562 59.921875 121.953125 58.359375 124.492188 C 17.5 183.984375 25.390625 276.445312 53.4375 332.96875 C 53.984375 334.140625 54.570312 335.273438 55.15625 336.40625 L 55.546875 337.03125 C 56.054688 338.164062 56.640625 339.335938 56.835938 339.570312 C 57.148438 340.3125 57.617188 341.132812 57.8125 341.367188 C 58.28125 342.34375 58.75 343.203125 59.609375 344.6875 L 62.8125 350.195312 C 63.28125 350.9375 63.75 351.71875 63.90625 351.992188 C 64.53125 353.007812 65.195312 354.0625 65.859375 355.117188 L 67.421875 357.617188 C 67.890625 358.359375 68.359375 359.023438 68.671875 359.414062 C 70.234375 361.835938 71.796875 364.257812 73.515625 366.5625 C 73.59375 366.679688 73.671875 366.757812 73.75 366.835938 L 74.375 367.695312 C 75.78125 369.726562 77.226562 371.679688 78.515625 373.28125 L 84.21875 380.507812 C 84.296875 380.585938 84.921875 381.328125 84.960938 381.40625 L 85.78125 382.34375 C 87.5 384.453125 89.335938 386.5625 91.171875 388.59375 C 91.445312 388.90625 91.71875 389.179688 91.992188 389.492188 C 93.75 391.40625 95.546875 393.320312 97.421875 395.3125 L 99.21875 397.03125 C 100.703125 398.59375 102.1875 400.117188 103.75 401.5625 C 103.75 401.601562 104.492188 402.304688 104.492188 402.304688 L 106.054688 403.75 C 107.929688 405.546875 109.882812 407.34375 111.367188 408.59375 C 111.445312 408.710938 112.851562 409.921875 112.96875 410 C 114.804688 411.640625 116.640625 413.203125 118.515625 414.726562 L 128.085938 422.304688 C 129.6875 423.476562 131.328125 424.648438 133.203125 426.015625 C 133.828125 426.484375 134.492188 426.953125 135.15625 427.382812 C 135.429688 427.617188 135.742188 427.851562 135.9375 427.96875 L 143.125 432.773438 C 145.742188 434.492188 148.359375 436.09375 151.5625 438.007812 L 153.28125 438.984375 C 155.273438 440.15625 157.304688 441.328125 159.21875 442.34375 C 160.351562 442.96875 161.484375 443.515625 162.460938 444.023438 C 163.828125 444.765625 165.3125 445.585938 167.578125 446.679688 C 167.773438 446.796875 169.375 447.578125 169.570312 447.65625 C 171.835938 448.789062 174.140625 449.84375 177.03125 451.132812 C 177.03125 451.171875 177.96875 451.601562 177.96875 451.601562 C 180.625 452.734375 183.203125 453.828125 186.601562 455.195312 C 187.148438 455.429688 187.695312 455.625 187.8125 455.664062 C 190.234375 456.601562 192.773438 457.539062 194.84375 458.28125 C 195.039062 458.359375 196.09375 458.789062 196.289062 458.867188 C 199.0625 459.804688 201.796875 460.703125 205.3125 461.796875 C 205.898438 461.992188 206.523438 462.1875 206.601562 462.1875 L 208.59375 462.8125 C 211.015625 463.554688 213.4375 464.335938 216.054688 464.84375 C 234.648438 468.242188 252.8125 470 270 470 L 270.039062 470 C 413.28125 470 458.90625 354.726562 459.375 353.554688 C 461.132812 348.90625 459.21875 343.671875 454.84375 341.25 C 450.546875 338.867188 445.078125 340 442.03125 343.945312 C 405.273438 392.34375 335.9375 410.3125 256.5625 392.070312 C 254.648438 391.601562 252.695312 391.054688 250.78125 390.46875 L 247.03125 389.335938 C 244.492188 388.554688 241.953125 387.695312 239.492188 386.835938 C 239.453125 386.835938 238.320312 386.40625 238.320312 386.40625 C 236.132812 385.664062 233.945312 384.804688 232.03125 384.0625 L 229.84375 383.203125 C 227.421875 382.226562 225 381.210938 222.65625 380.15625 L 221.289062 379.570312 C 219.179688 378.59375 217.148438 377.65625 215.117188 376.640625 C 214.960938 376.5625 213.359375 375.78125 213.203125 375.742188 C 211.796875 375.039062 210.390625 374.296875 208.59375 373.320312 L 200.429688 368.945312 C 199.609375 368.398438 198.75 367.890625 197.929688 367.460938 C 195.46875 365.9375 192.929688 364.414062 190.429688 362.8125 C 189.84375 362.460938 189.335938 362.070312 188.359375 361.40625 C 186.640625 360.3125 184.960938 359.179688 182.5 357.460938 L 181.523438 356.757812 C 179.84375 355.585938 178.203125 354.335938 176.835938 353.320312 C 175.976562 352.695312 175.117188 351.992188 173.710938 350.9375 C 172.460938 349.960938 171.210938 349.023438 170.039062 348.085938 L 167.851562 346.289062 C 166.015625 344.804688 164.296875 343.242188 162.5 341.71875 C 162.265625 341.484375 162.070312 341.328125 161.796875 341.132812 C 159.804688 339.296875 157.773438 337.460938 155.351562 335.15625 L 148.28125 328.125 C 146.5625 326.367188 144.84375 324.570312 142.890625 322.421875 C 141.09375 320.429688 139.375 318.4375 137.070312 315.703125 L 132.851562 310.546875 C 132.34375 309.804688 131.796875 309.0625 131.132812 308.28125 C 129.6875 306.328125 128.242188 304.414062 126.796875 302.382812 C 87.890625 248.789062 77.734375 136.914062 108.046875 95.9375 C 111.09375 91.835938 110.546875 86.054688 106.71875 82.578125 C 104.84375 80.859375 102.421875 80 100.039062 80 Z M 100.039062 80 "/>
</g>
</svg>
